%TF.GenerationSoftware,KiCad,Pcbnew,8.99.0-2608-ga0707285a1*%
%TF.CreationDate,2024-11-14T19:29:31-05:00*%
%TF.ProjectId,scampi,7363616d-7069-42e6-9b69-6361645f7063,rev?*%
%TF.SameCoordinates,Original*%
%TF.FileFunction,Soldermask,Top*%
%TF.FilePolarity,Negative*%
%FSLAX46Y46*%
G04 Gerber Fmt 4.6, Leading zero omitted, Abs format (unit mm)*
G04 Created by KiCad (PCBNEW 8.99.0-2608-ga0707285a1) date 2024-11-14 19:29:31*
%MOMM*%
%LPD*%
G01*
G04 APERTURE LIST*
%ADD10C,0.375000*%
%ADD11C,1.000000*%
%ADD12C,0.700000*%
G04 APERTURE END LIST*
D10*
G36*
X150375545Y-86425226D02*
G01*
X150402179Y-86443304D01*
X150420258Y-86469849D01*
X150426268Y-86501189D01*
X150420254Y-86532609D01*
X150402179Y-86559167D01*
X150375545Y-86577244D01*
X150344110Y-86583255D01*
X150312770Y-86577245D01*
X150286225Y-86559167D01*
X150268079Y-86532601D01*
X150262045Y-86501189D01*
X150268075Y-86469856D01*
X150286225Y-86443304D01*
X150312770Y-86425225D01*
X150344110Y-86419215D01*
X150375545Y-86425226D01*
G37*
G36*
X149136024Y-85757470D02*
G01*
X149245567Y-85780551D01*
X149396692Y-85791817D01*
X149618892Y-85794839D01*
X149823329Y-85800293D01*
X149993317Y-85815356D01*
X150153065Y-85842873D01*
X150291354Y-85881851D01*
X150421059Y-85935550D01*
X150542314Y-86004216D01*
X150657136Y-86087901D01*
X150734377Y-86156652D01*
X150841725Y-86057889D01*
X150924889Y-85982326D01*
X150954068Y-85966358D01*
X150980210Y-85961535D01*
X151009379Y-85967512D01*
X151033516Y-85985532D01*
X151049514Y-86011991D01*
X151055040Y-86045158D01*
X151052155Y-86084977D01*
X151043775Y-86121087D01*
X151007871Y-86195000D01*
X151039154Y-86203245D01*
X151063284Y-86218814D01*
X151079385Y-86240999D01*
X151084807Y-86268548D01*
X151075136Y-86306404D01*
X151041210Y-86350522D01*
X150993239Y-86392138D01*
X150926813Y-86439732D01*
X150946000Y-86463378D01*
X150952458Y-86493862D01*
X150946807Y-86516854D01*
X150927247Y-86542962D01*
X150886971Y-86574004D01*
X150810389Y-86612069D01*
X150675945Y-86658177D01*
X150618919Y-86751184D01*
X150578939Y-86797437D01*
X150868378Y-86930019D01*
X150822399Y-87029487D01*
X150495002Y-86879118D01*
X150452737Y-86914998D01*
X150451980Y-86915483D01*
X150567501Y-87043042D01*
X150759934Y-87374877D01*
X150664679Y-87429282D01*
X150477284Y-87107339D01*
X150358872Y-86975220D01*
X150350141Y-86980822D01*
X150255475Y-87026842D01*
X150390272Y-87114483D01*
X150501098Y-87424427D01*
X150501098Y-87620982D01*
X150391371Y-87622997D01*
X150391371Y-87446043D01*
X150299048Y-87184917D01*
X150129788Y-87074330D01*
X150103959Y-87083525D01*
X150026282Y-87102415D01*
X150118338Y-87130603D01*
X150174667Y-87459415D01*
X150149021Y-87728601D01*
X150040394Y-87718343D01*
X150066040Y-87463262D01*
X150021893Y-87213310D01*
X149791594Y-87137926D01*
X149673206Y-87143243D01*
X149508802Y-87134107D01*
X149499847Y-87132609D01*
X149497361Y-87144216D01*
X149469233Y-87177132D01*
X149428851Y-87197703D01*
X149381855Y-87204700D01*
X149337608Y-87198356D01*
X149293561Y-87178689D01*
X149258429Y-87145950D01*
X149237141Y-87097356D01*
X149218180Y-87120661D01*
X149193818Y-87137198D01*
X149165793Y-87147094D01*
X149136391Y-87150387D01*
X149090826Y-87143241D01*
X149047639Y-87121353D01*
X149023508Y-87094743D01*
X149299397Y-87094743D01*
X149315176Y-87118238D01*
X149345416Y-87139179D01*
X149382862Y-87146265D01*
X149411205Y-87142672D01*
X149430856Y-87133076D01*
X149439867Y-87122576D01*
X149343844Y-87106515D01*
X149299397Y-87094743D01*
X149023508Y-87094743D01*
X149016572Y-87087095D01*
X149006331Y-87043225D01*
X149064858Y-87043225D01*
X149069706Y-87060032D01*
X149086290Y-87076931D01*
X149109443Y-87088254D01*
X149138222Y-87092227D01*
X149160331Y-87088611D01*
X149179530Y-87077847D01*
X149190516Y-87065905D01*
X149182186Y-87063699D01*
X149069623Y-87023966D01*
X149064858Y-87043225D01*
X149006331Y-87043225D01*
X149008557Y-87029578D01*
X148988200Y-87049508D01*
X148956964Y-87101660D01*
X148937105Y-87160368D01*
X148929120Y-87222286D01*
X149034402Y-87260460D01*
X149129346Y-87312015D01*
X149215159Y-87377258D01*
X149288394Y-87455190D01*
X149340556Y-87539052D01*
X149373612Y-87630141D01*
X149301424Y-87644961D01*
X149236042Y-87649650D01*
X149191345Y-87647635D01*
X149148755Y-87642506D01*
X149181335Y-87693011D01*
X149211862Y-87751682D01*
X149237021Y-87812420D01*
X149253536Y-87867087D01*
X149122307Y-87859757D01*
X149008081Y-87838946D01*
X148908512Y-87805996D01*
X148815154Y-87758881D01*
X148739994Y-87703961D01*
X148680542Y-87641315D01*
X148635050Y-87568822D01*
X148608239Y-87492091D01*
X148599269Y-87409864D01*
X148695654Y-87409864D01*
X148701635Y-87468244D01*
X148719435Y-87523039D01*
X148749602Y-87575369D01*
X148812385Y-87643287D01*
X148898529Y-87700941D01*
X148998471Y-87741689D01*
X149115508Y-87765513D01*
X149052493Y-87652214D01*
X148980228Y-87538916D01*
X149098106Y-87552289D01*
X149198673Y-87557418D01*
X149221479Y-87556868D01*
X149243277Y-87555311D01*
X149199097Y-87497264D01*
X149136574Y-87438349D01*
X149065070Y-87386046D01*
X148987738Y-87341354D01*
X148907847Y-87305878D01*
X148878044Y-87296747D01*
X148855298Y-87307099D01*
X148762791Y-87332745D01*
X148703018Y-87342136D01*
X148699226Y-87361779D01*
X148695654Y-87409864D01*
X148599269Y-87409864D01*
X148599209Y-87409315D01*
X148610475Y-87314884D01*
X148575286Y-87221666D01*
X148554697Y-87129948D01*
X148548007Y-87040020D01*
X148644363Y-87040020D01*
X148648036Y-87101685D01*
X148659293Y-87165591D01*
X148678132Y-87231104D01*
X148690018Y-87262126D01*
X148709301Y-87260388D01*
X148798053Y-87240238D01*
X148840351Y-87223352D01*
X148840651Y-87223159D01*
X148842342Y-87196440D01*
X148858206Y-87119215D01*
X148883599Y-87050919D01*
X148920165Y-86988776D01*
X148952647Y-86953349D01*
X148889296Y-86900162D01*
X148838353Y-86844381D01*
X148796947Y-86781891D01*
X148776951Y-86735031D01*
X148768206Y-86740681D01*
X148723357Y-86783914D01*
X148688968Y-86834215D01*
X148665110Y-86890584D01*
X148649836Y-86958404D01*
X148644363Y-87040020D01*
X148548007Y-87040020D01*
X148547918Y-87038829D01*
X148553998Y-86949670D01*
X148571500Y-86870266D01*
X148599759Y-86799135D01*
X148639547Y-86734200D01*
X148689373Y-86678895D01*
X148718189Y-86656793D01*
X148846748Y-86656793D01*
X148854819Y-86695199D01*
X148876878Y-86746095D01*
X148911351Y-86796937D01*
X148979621Y-86864780D01*
X149053906Y-86915517D01*
X149186441Y-86964365D01*
X149186569Y-86964398D01*
X149175768Y-86911628D01*
X149170469Y-86833024D01*
X149258665Y-86833024D01*
X149268885Y-86932667D01*
X149287119Y-86990788D01*
X149349065Y-87007047D01*
X149512467Y-87032745D01*
X149517424Y-87033006D01*
X149505503Y-86985615D01*
X149493696Y-86867737D01*
X149580791Y-86867737D01*
X149591598Y-86967754D01*
X149613782Y-87038080D01*
X149673206Y-87041210D01*
X149818477Y-87034830D01*
X149953281Y-87016238D01*
X150078680Y-86986073D01*
X150199856Y-86942794D01*
X150306726Y-86889725D01*
X150400805Y-86827162D01*
X150484905Y-86752505D01*
X150552927Y-86670092D01*
X150606153Y-86579225D01*
X150681532Y-86560907D01*
X150769643Y-86535353D01*
X150842366Y-86505677D01*
X150865976Y-86488997D01*
X150871492Y-86477101D01*
X150866926Y-86462702D01*
X150850060Y-86445410D01*
X150798860Y-86413720D01*
X150892100Y-86357666D01*
X150963816Y-86303078D01*
X150986834Y-86279288D01*
X150991476Y-86269006D01*
X150985501Y-86261129D01*
X150955572Y-86252245D01*
X150875613Y-86245925D01*
X150918203Y-86176682D01*
X150952550Y-86107439D01*
X150965831Y-86068513D01*
X150959694Y-86061278D01*
X150955572Y-86062377D01*
X150952458Y-86065399D01*
X150799776Y-86222844D01*
X150729923Y-86284422D01*
X150669534Y-86329273D01*
X150608677Y-86364780D01*
X150553762Y-86387159D01*
X150390730Y-86364627D01*
X150230812Y-86356384D01*
X150091229Y-86364731D01*
X149972516Y-86388212D01*
X149871501Y-86425077D01*
X149779083Y-86478834D01*
X149705651Y-86542365D01*
X149657137Y-86605749D01*
X149615137Y-86689134D01*
X149589302Y-86778051D01*
X149580791Y-86867737D01*
X149493696Y-86867737D01*
X149493687Y-86867645D01*
X149503686Y-86760225D01*
X149533713Y-86656345D01*
X149559249Y-86606152D01*
X149485303Y-86565142D01*
X149377620Y-86520702D01*
X149335833Y-86573914D01*
X149293378Y-86655978D01*
X149267296Y-86743573D01*
X149258665Y-86833024D01*
X149170469Y-86833024D01*
X149170463Y-86832932D01*
X149180629Y-86725386D01*
X149211221Y-86620991D01*
X149261011Y-86523472D01*
X149282173Y-86496253D01*
X149267217Y-86492484D01*
X149166433Y-86483787D01*
X149082485Y-86490422D01*
X149011279Y-86509191D01*
X148950552Y-86539108D01*
X148898289Y-86581307D01*
X148856547Y-86635603D01*
X148846748Y-86656793D01*
X148718189Y-86656793D01*
X148750060Y-86632348D01*
X148788597Y-86559301D01*
X148840335Y-86498908D01*
X148906497Y-86449715D01*
X148981759Y-86414548D01*
X149067676Y-86392697D01*
X149166433Y-86385052D01*
X149265525Y-86392972D01*
X149370270Y-86417576D01*
X149482074Y-86460687D01*
X149602314Y-86524820D01*
X149672093Y-86446934D01*
X149753504Y-86382794D01*
X149847880Y-86331657D01*
X149957172Y-86293589D01*
X150083850Y-86269470D01*
X150230812Y-86260946D01*
X150368148Y-86267862D01*
X150339527Y-86248511D01*
X150212403Y-86183002D01*
X150084037Y-86135496D01*
X149964923Y-86106798D01*
X149846345Y-86091187D01*
X149732832Y-86086099D01*
X149586597Y-86091060D01*
X149436168Y-86106157D01*
X149286611Y-86121262D01*
X149147565Y-86126124D01*
X149061345Y-86122936D01*
X148974091Y-86113301D01*
X148887410Y-86095138D01*
X148799519Y-86065582D01*
X148833774Y-85983150D01*
X148911402Y-86009601D01*
X148987372Y-86026107D01*
X149064307Y-86034952D01*
X149142985Y-86037922D01*
X149280782Y-86032997D01*
X149427467Y-86017772D01*
X149576209Y-86002689D01*
X149728344Y-85997622D01*
X149855660Y-86003590D01*
X149989928Y-86021985D01*
X150124843Y-86056046D01*
X150270746Y-86113301D01*
X150415228Y-86192021D01*
X150551041Y-86288488D01*
X150603678Y-86262546D01*
X150669852Y-86215528D01*
X150603104Y-86156040D01*
X150495144Y-86076940D01*
X150381296Y-86012219D01*
X150260030Y-85962359D01*
X150130448Y-85926562D01*
X149979303Y-85901451D01*
X149817861Y-85887952D01*
X149621640Y-85883041D01*
X149388541Y-85879469D01*
X149225692Y-85867196D01*
X149159655Y-85856138D01*
X149104792Y-85842009D01*
X148998729Y-85799968D01*
X149040220Y-85719002D01*
X149136024Y-85757470D01*
G37*
G36*
G01*
X143700000Y-104290000D02*
X143700000Y-103310000D01*
G75*
G02*
X143910000Y-103100000I210000J0D01*
G01*
X144890000Y-103100000D01*
G75*
G02*
X145100000Y-103310000I0J-210000D01*
G01*
X145100000Y-104290000D01*
G75*
G02*
X144890000Y-104500000I-210000J0D01*
G01*
X143910000Y-104500000D01*
G75*
G02*
X143700000Y-104290000I0J210000D01*
G01*
G37*
D11*
X152870184Y-104100000D03*
G36*
G01*
X154370000Y-96480000D02*
X154030000Y-96480000D01*
G75*
G02*
X153890000Y-96340000I0J140000D01*
G01*
X153890000Y-96060000D01*
G75*
G02*
X154030000Y-95920000I140000J0D01*
G01*
X154370000Y-95920000D01*
G75*
G02*
X154510000Y-96060000I0J-140000D01*
G01*
X154510000Y-96340000D01*
G75*
G02*
X154370000Y-96480000I-140000J0D01*
G01*
G37*
G36*
G01*
X154370000Y-95520000D02*
X154030000Y-95520000D01*
G75*
G02*
X153890000Y-95380000I0J140000D01*
G01*
X153890000Y-95100000D01*
G75*
G02*
X154030000Y-94960000I140000J0D01*
G01*
X154370000Y-94960000D01*
G75*
G02*
X154510000Y-95100000I0J-140000D01*
G01*
X154510000Y-95380000D01*
G75*
G02*
X154370000Y-95520000I-140000J0D01*
G01*
G37*
G36*
G01*
X156100000Y-91290000D02*
X156100000Y-90310000D01*
G75*
G02*
X156310000Y-90100000I210000J0D01*
G01*
X157290000Y-90100000D01*
G75*
G02*
X157500000Y-90310000I0J-210000D01*
G01*
X157500000Y-91290000D01*
G75*
G02*
X157290000Y-91500000I-210000J0D01*
G01*
X156310000Y-91500000D01*
G75*
G02*
X156100000Y-91290000I0J210000D01*
G01*
G37*
G36*
G01*
X147825000Y-92037500D02*
X147825000Y-91912500D01*
G75*
G02*
X147887500Y-91850000I62500J0D01*
G01*
X148562500Y-91850000D01*
G75*
G02*
X148625000Y-91912500I0J-62500D01*
G01*
X148625000Y-92037500D01*
G75*
G02*
X148562500Y-92100000I-62500J0D01*
G01*
X147887500Y-92100000D01*
G75*
G02*
X147825000Y-92037500I0J62500D01*
G01*
G37*
G36*
G01*
X147825000Y-92537500D02*
X147825000Y-92412500D01*
G75*
G02*
X147887500Y-92350000I62500J0D01*
G01*
X148562500Y-92350000D01*
G75*
G02*
X148625000Y-92412500I0J-62500D01*
G01*
X148625000Y-92537500D01*
G75*
G02*
X148562500Y-92600000I-62500J0D01*
G01*
X147887500Y-92600000D01*
G75*
G02*
X147825000Y-92537500I0J62500D01*
G01*
G37*
G36*
G01*
X147825000Y-93037500D02*
X147825000Y-92912500D01*
G75*
G02*
X147887500Y-92850000I62500J0D01*
G01*
X148562500Y-92850000D01*
G75*
G02*
X148625000Y-92912500I0J-62500D01*
G01*
X148625000Y-93037500D01*
G75*
G02*
X148562500Y-93100000I-62500J0D01*
G01*
X147887500Y-93100000D01*
G75*
G02*
X147825000Y-93037500I0J62500D01*
G01*
G37*
G36*
G01*
X147825000Y-93537500D02*
X147825000Y-93412500D01*
G75*
G02*
X147887500Y-93350000I62500J0D01*
G01*
X148562500Y-93350000D01*
G75*
G02*
X148625000Y-93412500I0J-62500D01*
G01*
X148625000Y-93537500D01*
G75*
G02*
X148562500Y-93600000I-62500J0D01*
G01*
X147887500Y-93600000D01*
G75*
G02*
X147825000Y-93537500I0J62500D01*
G01*
G37*
G36*
G01*
X147825000Y-94037500D02*
X147825000Y-93912500D01*
G75*
G02*
X147887500Y-93850000I62500J0D01*
G01*
X148562500Y-93850000D01*
G75*
G02*
X148625000Y-93912500I0J-62500D01*
G01*
X148625000Y-94037500D01*
G75*
G02*
X148562500Y-94100000I-62500J0D01*
G01*
X147887500Y-94100000D01*
G75*
G02*
X147825000Y-94037500I0J62500D01*
G01*
G37*
G36*
G01*
X147825000Y-94537500D02*
X147825000Y-94412500D01*
G75*
G02*
X147887500Y-94350000I62500J0D01*
G01*
X148562500Y-94350000D01*
G75*
G02*
X148625000Y-94412500I0J-62500D01*
G01*
X148625000Y-94537500D01*
G75*
G02*
X148562500Y-94600000I-62500J0D01*
G01*
X147887500Y-94600000D01*
G75*
G02*
X147825000Y-94537500I0J62500D01*
G01*
G37*
G36*
G01*
X147825000Y-95037500D02*
X147825000Y-94912500D01*
G75*
G02*
X147887500Y-94850000I62500J0D01*
G01*
X148562500Y-94850000D01*
G75*
G02*
X148625000Y-94912500I0J-62500D01*
G01*
X148625000Y-95037500D01*
G75*
G02*
X148562500Y-95100000I-62500J0D01*
G01*
X147887500Y-95100000D01*
G75*
G02*
X147825000Y-95037500I0J62500D01*
G01*
G37*
G36*
G01*
X147825000Y-95537500D02*
X147825000Y-95412500D01*
G75*
G02*
X147887500Y-95350000I62500J0D01*
G01*
X148562500Y-95350000D01*
G75*
G02*
X148625000Y-95412500I0J-62500D01*
G01*
X148625000Y-95537500D01*
G75*
G02*
X148562500Y-95600000I-62500J0D01*
G01*
X147887500Y-95600000D01*
G75*
G02*
X147825000Y-95537500I0J62500D01*
G01*
G37*
G36*
G01*
X148800000Y-96512500D02*
X148800000Y-95837500D01*
G75*
G02*
X148862500Y-95775000I62500J0D01*
G01*
X148987500Y-95775000D01*
G75*
G02*
X149050000Y-95837500I0J-62500D01*
G01*
X149050000Y-96512500D01*
G75*
G02*
X148987500Y-96575000I-62500J0D01*
G01*
X148862500Y-96575000D01*
G75*
G02*
X148800000Y-96512500I0J62500D01*
G01*
G37*
G36*
G01*
X149300000Y-96512500D02*
X149300000Y-95837500D01*
G75*
G02*
X149362500Y-95775000I62500J0D01*
G01*
X149487500Y-95775000D01*
G75*
G02*
X149550000Y-95837500I0J-62500D01*
G01*
X149550000Y-96512500D01*
G75*
G02*
X149487500Y-96575000I-62500J0D01*
G01*
X149362500Y-96575000D01*
G75*
G02*
X149300000Y-96512500I0J62500D01*
G01*
G37*
G36*
G01*
X149800000Y-96512500D02*
X149800000Y-95837500D01*
G75*
G02*
X149862500Y-95775000I62500J0D01*
G01*
X149987500Y-95775000D01*
G75*
G02*
X150050000Y-95837500I0J-62500D01*
G01*
X150050000Y-96512500D01*
G75*
G02*
X149987500Y-96575000I-62500J0D01*
G01*
X149862500Y-96575000D01*
G75*
G02*
X149800000Y-96512500I0J62500D01*
G01*
G37*
G36*
G01*
X150300000Y-96512500D02*
X150300000Y-95837500D01*
G75*
G02*
X150362500Y-95775000I62500J0D01*
G01*
X150487500Y-95775000D01*
G75*
G02*
X150550000Y-95837500I0J-62500D01*
G01*
X150550000Y-96512500D01*
G75*
G02*
X150487500Y-96575000I-62500J0D01*
G01*
X150362500Y-96575000D01*
G75*
G02*
X150300000Y-96512500I0J62500D01*
G01*
G37*
G36*
G01*
X150800000Y-96512500D02*
X150800000Y-95837500D01*
G75*
G02*
X150862500Y-95775000I62500J0D01*
G01*
X150987500Y-95775000D01*
G75*
G02*
X151050000Y-95837500I0J-62500D01*
G01*
X151050000Y-96512500D01*
G75*
G02*
X150987500Y-96575000I-62500J0D01*
G01*
X150862500Y-96575000D01*
G75*
G02*
X150800000Y-96512500I0J62500D01*
G01*
G37*
G36*
G01*
X151300000Y-96512500D02*
X151300000Y-95837500D01*
G75*
G02*
X151362500Y-95775000I62500J0D01*
G01*
X151487500Y-95775000D01*
G75*
G02*
X151550000Y-95837500I0J-62500D01*
G01*
X151550000Y-96512500D01*
G75*
G02*
X151487500Y-96575000I-62500J0D01*
G01*
X151362500Y-96575000D01*
G75*
G02*
X151300000Y-96512500I0J62500D01*
G01*
G37*
G36*
G01*
X151800000Y-96512500D02*
X151800000Y-95837500D01*
G75*
G02*
X151862500Y-95775000I62500J0D01*
G01*
X151987500Y-95775000D01*
G75*
G02*
X152050000Y-95837500I0J-62500D01*
G01*
X152050000Y-96512500D01*
G75*
G02*
X151987500Y-96575000I-62500J0D01*
G01*
X151862500Y-96575000D01*
G75*
G02*
X151800000Y-96512500I0J62500D01*
G01*
G37*
G36*
G01*
X152300000Y-96512500D02*
X152300000Y-95837500D01*
G75*
G02*
X152362500Y-95775000I62500J0D01*
G01*
X152487500Y-95775000D01*
G75*
G02*
X152550000Y-95837500I0J-62500D01*
G01*
X152550000Y-96512500D01*
G75*
G02*
X152487500Y-96575000I-62500J0D01*
G01*
X152362500Y-96575000D01*
G75*
G02*
X152300000Y-96512500I0J62500D01*
G01*
G37*
G36*
G01*
X152725000Y-95537500D02*
X152725000Y-95412500D01*
G75*
G02*
X152787500Y-95350000I62500J0D01*
G01*
X153462500Y-95350000D01*
G75*
G02*
X153525000Y-95412500I0J-62500D01*
G01*
X153525000Y-95537500D01*
G75*
G02*
X153462500Y-95600000I-62500J0D01*
G01*
X152787500Y-95600000D01*
G75*
G02*
X152725000Y-95537500I0J62500D01*
G01*
G37*
G36*
G01*
X152725000Y-95037500D02*
X152725000Y-94912500D01*
G75*
G02*
X152787500Y-94850000I62500J0D01*
G01*
X153462500Y-94850000D01*
G75*
G02*
X153525000Y-94912500I0J-62500D01*
G01*
X153525000Y-95037500D01*
G75*
G02*
X153462500Y-95100000I-62500J0D01*
G01*
X152787500Y-95100000D01*
G75*
G02*
X152725000Y-95037500I0J62500D01*
G01*
G37*
G36*
G01*
X152725000Y-94537500D02*
X152725000Y-94412500D01*
G75*
G02*
X152787500Y-94350000I62500J0D01*
G01*
X153462500Y-94350000D01*
G75*
G02*
X153525000Y-94412500I0J-62500D01*
G01*
X153525000Y-94537500D01*
G75*
G02*
X153462500Y-94600000I-62500J0D01*
G01*
X152787500Y-94600000D01*
G75*
G02*
X152725000Y-94537500I0J62500D01*
G01*
G37*
G36*
G01*
X152725000Y-94037500D02*
X152725000Y-93912500D01*
G75*
G02*
X152787500Y-93850000I62500J0D01*
G01*
X153462500Y-93850000D01*
G75*
G02*
X153525000Y-93912500I0J-62500D01*
G01*
X153525000Y-94037500D01*
G75*
G02*
X153462500Y-94100000I-62500J0D01*
G01*
X152787500Y-94100000D01*
G75*
G02*
X152725000Y-94037500I0J62500D01*
G01*
G37*
G36*
G01*
X152725000Y-93537500D02*
X152725000Y-93412500D01*
G75*
G02*
X152787500Y-93350000I62500J0D01*
G01*
X153462500Y-93350000D01*
G75*
G02*
X153525000Y-93412500I0J-62500D01*
G01*
X153525000Y-93537500D01*
G75*
G02*
X153462500Y-93600000I-62500J0D01*
G01*
X152787500Y-93600000D01*
G75*
G02*
X152725000Y-93537500I0J62500D01*
G01*
G37*
G36*
G01*
X152725000Y-93037500D02*
X152725000Y-92912500D01*
G75*
G02*
X152787500Y-92850000I62500J0D01*
G01*
X153462500Y-92850000D01*
G75*
G02*
X153525000Y-92912500I0J-62500D01*
G01*
X153525000Y-93037500D01*
G75*
G02*
X153462500Y-93100000I-62500J0D01*
G01*
X152787500Y-93100000D01*
G75*
G02*
X152725000Y-93037500I0J62500D01*
G01*
G37*
G36*
G01*
X152725000Y-92537500D02*
X152725000Y-92412500D01*
G75*
G02*
X152787500Y-92350000I62500J0D01*
G01*
X153462500Y-92350000D01*
G75*
G02*
X153525000Y-92412500I0J-62500D01*
G01*
X153525000Y-92537500D01*
G75*
G02*
X153462500Y-92600000I-62500J0D01*
G01*
X152787500Y-92600000D01*
G75*
G02*
X152725000Y-92537500I0J62500D01*
G01*
G37*
G36*
G01*
X152725000Y-92037500D02*
X152725000Y-91912500D01*
G75*
G02*
X152787500Y-91850000I62500J0D01*
G01*
X153462500Y-91850000D01*
G75*
G02*
X153525000Y-91912500I0J-62500D01*
G01*
X153525000Y-92037500D01*
G75*
G02*
X153462500Y-92100000I-62500J0D01*
G01*
X152787500Y-92100000D01*
G75*
G02*
X152725000Y-92037500I0J62500D01*
G01*
G37*
G36*
G01*
X152300000Y-91612500D02*
X152300000Y-90937500D01*
G75*
G02*
X152362500Y-90875000I62500J0D01*
G01*
X152487500Y-90875000D01*
G75*
G02*
X152550000Y-90937500I0J-62500D01*
G01*
X152550000Y-91612500D01*
G75*
G02*
X152487500Y-91675000I-62500J0D01*
G01*
X152362500Y-91675000D01*
G75*
G02*
X152300000Y-91612500I0J62500D01*
G01*
G37*
G36*
G01*
X151800000Y-91612500D02*
X151800000Y-90937500D01*
G75*
G02*
X151862500Y-90875000I62500J0D01*
G01*
X151987500Y-90875000D01*
G75*
G02*
X152050000Y-90937500I0J-62500D01*
G01*
X152050000Y-91612500D01*
G75*
G02*
X151987500Y-91675000I-62500J0D01*
G01*
X151862500Y-91675000D01*
G75*
G02*
X151800000Y-91612500I0J62500D01*
G01*
G37*
G36*
G01*
X151300000Y-91612500D02*
X151300000Y-90937500D01*
G75*
G02*
X151362500Y-90875000I62500J0D01*
G01*
X151487500Y-90875000D01*
G75*
G02*
X151550000Y-90937500I0J-62500D01*
G01*
X151550000Y-91612500D01*
G75*
G02*
X151487500Y-91675000I-62500J0D01*
G01*
X151362500Y-91675000D01*
G75*
G02*
X151300000Y-91612500I0J62500D01*
G01*
G37*
G36*
G01*
X150800000Y-91612500D02*
X150800000Y-90937500D01*
G75*
G02*
X150862500Y-90875000I62500J0D01*
G01*
X150987500Y-90875000D01*
G75*
G02*
X151050000Y-90937500I0J-62500D01*
G01*
X151050000Y-91612500D01*
G75*
G02*
X150987500Y-91675000I-62500J0D01*
G01*
X150862500Y-91675000D01*
G75*
G02*
X150800000Y-91612500I0J62500D01*
G01*
G37*
G36*
G01*
X150300000Y-91612500D02*
X150300000Y-90937500D01*
G75*
G02*
X150362500Y-90875000I62500J0D01*
G01*
X150487500Y-90875000D01*
G75*
G02*
X150550000Y-90937500I0J-62500D01*
G01*
X150550000Y-91612500D01*
G75*
G02*
X150487500Y-91675000I-62500J0D01*
G01*
X150362500Y-91675000D01*
G75*
G02*
X150300000Y-91612500I0J62500D01*
G01*
G37*
G36*
G01*
X149800000Y-91612500D02*
X149800000Y-90937500D01*
G75*
G02*
X149862500Y-90875000I62500J0D01*
G01*
X149987500Y-90875000D01*
G75*
G02*
X150050000Y-90937500I0J-62500D01*
G01*
X150050000Y-91612500D01*
G75*
G02*
X149987500Y-91675000I-62500J0D01*
G01*
X149862500Y-91675000D01*
G75*
G02*
X149800000Y-91612500I0J62500D01*
G01*
G37*
G36*
G01*
X149300000Y-91612500D02*
X149300000Y-90937500D01*
G75*
G02*
X149362500Y-90875000I62500J0D01*
G01*
X149487500Y-90875000D01*
G75*
G02*
X149550000Y-90937500I0J-62500D01*
G01*
X149550000Y-91612500D01*
G75*
G02*
X149487500Y-91675000I-62500J0D01*
G01*
X149362500Y-91675000D01*
G75*
G02*
X149300000Y-91612500I0J62500D01*
G01*
G37*
G36*
G01*
X148800000Y-91612500D02*
X148800000Y-90937500D01*
G75*
G02*
X148862500Y-90875000I62500J0D01*
G01*
X148987500Y-90875000D01*
G75*
G02*
X149050000Y-90937500I0J-62500D01*
G01*
X149050000Y-91612500D01*
G75*
G02*
X148987500Y-91675000I-62500J0D01*
G01*
X148862500Y-91675000D01*
G75*
G02*
X148800000Y-91612500I0J62500D01*
G01*
G37*
G36*
G01*
X148925000Y-95300000D02*
X148925000Y-92150000D01*
G75*
G02*
X149100000Y-91975000I175000J0D01*
G01*
X152250000Y-91975000D01*
G75*
G02*
X152425000Y-92150000I0J-175000D01*
G01*
X152425000Y-95300000D01*
G75*
G02*
X152250000Y-95475000I-175000J0D01*
G01*
X149100000Y-95475000D01*
G75*
G02*
X148925000Y-95300000I0J175000D01*
G01*
G37*
G36*
G01*
X144500000Y-86690000D02*
X144500000Y-85710000D01*
G75*
G02*
X144710000Y-85500000I210000J0D01*
G01*
X145690000Y-85500000D01*
G75*
G02*
X145900000Y-85710000I0J-210000D01*
G01*
X145900000Y-86690000D01*
G75*
G02*
X145690000Y-86900000I-210000J0D01*
G01*
X144710000Y-86900000D01*
G75*
G02*
X144500000Y-86690000I0J210000D01*
G01*
G37*
G36*
G01*
X138500000Y-92690000D02*
X138500000Y-91710000D01*
G75*
G02*
X138710000Y-91500000I210000J0D01*
G01*
X139690000Y-91500000D01*
G75*
G02*
X139900000Y-91710000I0J-210000D01*
G01*
X139900000Y-92690000D01*
G75*
G02*
X139690000Y-92900000I-210000J0D01*
G01*
X138710000Y-92900000D01*
G75*
G02*
X138500000Y-92690000I0J210000D01*
G01*
G37*
G36*
G01*
X149289896Y-98571733D02*
X149028267Y-98310104D01*
G75*
G02*
X149028267Y-98119186I95459J95459D01*
G01*
X149219186Y-97928267D01*
G75*
G02*
X149410104Y-97928267I95459J-95459D01*
G01*
X149671733Y-98189896D01*
G75*
G02*
X149671733Y-98380814I-95459J-95459D01*
G01*
X149480814Y-98571733D01*
G75*
G02*
X149289896Y-98571733I-95459J95459D01*
G01*
G37*
G36*
G01*
X150011144Y-97850485D02*
X149749515Y-97588856D01*
G75*
G02*
X149749515Y-97397938I95459J95459D01*
G01*
X149940434Y-97207019D01*
G75*
G02*
X150131352Y-97207019I95459J-95459D01*
G01*
X150392981Y-97468648D01*
G75*
G02*
X150392981Y-97659566I-95459J-95459D01*
G01*
X150202062Y-97850485D01*
G75*
G02*
X150011144Y-97850485I-95459J95459D01*
G01*
G37*
G36*
G01*
X147910000Y-102485000D02*
X147910000Y-102115000D01*
G75*
G02*
X148045000Y-101980000I135000J0D01*
G01*
X148315000Y-101980000D01*
G75*
G02*
X148450000Y-102115000I0J-135000D01*
G01*
X148450000Y-102485000D01*
G75*
G02*
X148315000Y-102620000I-135000J0D01*
G01*
X148045000Y-102620000D01*
G75*
G02*
X147910000Y-102485000I0J135000D01*
G01*
G37*
G36*
G01*
X148930000Y-102485000D02*
X148930000Y-102115000D01*
G75*
G02*
X149065000Y-101980000I135000J0D01*
G01*
X149335000Y-101980000D01*
G75*
G02*
X149470000Y-102115000I0J-135000D01*
G01*
X149470000Y-102485000D01*
G75*
G02*
X149335000Y-102620000I-135000J0D01*
G01*
X149065000Y-102620000D01*
G75*
G02*
X148930000Y-102485000I0J135000D01*
G01*
G37*
G36*
G01*
X156100000Y-93890000D02*
X156100000Y-92910000D01*
G75*
G02*
X156310000Y-92700000I210000J0D01*
G01*
X157290000Y-92700000D01*
G75*
G02*
X157500000Y-92910000I0J-210000D01*
G01*
X157500000Y-93890000D01*
G75*
G02*
X157290000Y-94100000I-210000J0D01*
G01*
X156310000Y-94100000D01*
G75*
G02*
X156100000Y-93890000I0J210000D01*
G01*
G37*
G36*
G01*
X151650000Y-89900000D02*
X151650000Y-89400000D01*
G75*
G02*
X151875000Y-89175000I225000J0D01*
G01*
X152325000Y-89175000D01*
G75*
G02*
X152550000Y-89400000I0J-225000D01*
G01*
X152550000Y-89900000D01*
G75*
G02*
X152325000Y-90125000I-225000J0D01*
G01*
X151875000Y-90125000D01*
G75*
G02*
X151650000Y-89900000I0J225000D01*
G01*
G37*
G36*
G01*
X153200000Y-89900000D02*
X153200000Y-89400000D01*
G75*
G02*
X153425000Y-89175000I225000J0D01*
G01*
X153875000Y-89175000D01*
G75*
G02*
X154100000Y-89400000I0J-225000D01*
G01*
X154100000Y-89900000D01*
G75*
G02*
X153875000Y-90125000I-225000J0D01*
G01*
X153425000Y-90125000D01*
G75*
G02*
X153200000Y-89900000I0J225000D01*
G01*
G37*
G36*
G01*
X145300000Y-104290000D02*
X145300000Y-103310000D01*
G75*
G02*
X145510000Y-103100000I210000J0D01*
G01*
X146490000Y-103100000D01*
G75*
G02*
X146700000Y-103310000I0J-210000D01*
G01*
X146700000Y-104290000D01*
G75*
G02*
X146490000Y-104500000I-210000J0D01*
G01*
X145510000Y-104500000D01*
G75*
G02*
X145300000Y-104290000I0J210000D01*
G01*
G37*
G36*
G01*
X141300000Y-86690000D02*
X141300000Y-85710000D01*
G75*
G02*
X141510000Y-85500000I210000J0D01*
G01*
X142490000Y-85500000D01*
G75*
G02*
X142700000Y-85710000I0J-210000D01*
G01*
X142700000Y-86690000D01*
G75*
G02*
X142490000Y-86900000I-210000J0D01*
G01*
X141510000Y-86900000D01*
G75*
G02*
X141300000Y-86690000I0J210000D01*
G01*
G37*
G36*
X153565356Y-101585355D02*
G01*
X153514645Y-101534644D01*
X153500000Y-101499289D01*
X153500000Y-101450000D01*
X153514645Y-101414645D01*
X153550000Y-101400000D01*
X154250000Y-101400000D01*
X154285355Y-101414645D01*
X154300000Y-101450000D01*
X154300000Y-101550000D01*
X154285355Y-101585355D01*
X154250000Y-101600000D01*
X153600711Y-101600000D01*
X153565356Y-101585355D01*
G37*
G36*
G01*
X154300000Y-101050000D02*
X154300000Y-101150000D01*
G75*
G02*
X154250000Y-101200000I-50000J0D01*
G01*
X153550000Y-101200000D01*
G75*
G02*
X153500000Y-101150000I0J50000D01*
G01*
X153500000Y-101050000D01*
G75*
G02*
X153550000Y-101000000I50000J0D01*
G01*
X154250000Y-101000000D01*
G75*
G02*
X154300000Y-101050000I0J-50000D01*
G01*
G37*
G36*
G01*
X154300000Y-100650000D02*
X154300000Y-100750000D01*
G75*
G02*
X154250000Y-100800000I-50000J0D01*
G01*
X153550000Y-100800000D01*
G75*
G02*
X153500000Y-100750000I0J50000D01*
G01*
X153500000Y-100650000D01*
G75*
G02*
X153550000Y-100600000I50000J0D01*
G01*
X154250000Y-100600000D01*
G75*
G02*
X154300000Y-100650000I0J-50000D01*
G01*
G37*
G36*
G01*
X154300000Y-100250000D02*
X154300000Y-100350000D01*
G75*
G02*
X154250000Y-100400000I-50000J0D01*
G01*
X153550000Y-100400000D01*
G75*
G02*
X153500000Y-100350000I0J50000D01*
G01*
X153500000Y-100250000D01*
G75*
G02*
X153550000Y-100200000I50000J0D01*
G01*
X154250000Y-100200000D01*
G75*
G02*
X154300000Y-100250000I0J-50000D01*
G01*
G37*
G36*
X153514645Y-99985355D02*
G01*
X153500000Y-99950000D01*
X153500000Y-99900711D01*
X153514645Y-99865356D01*
X153565356Y-99814645D01*
X153600711Y-99800000D01*
X154250000Y-99800000D01*
X154285355Y-99814645D01*
X154300000Y-99850000D01*
X154300000Y-99950000D01*
X154285355Y-99985355D01*
X154250000Y-100000000D01*
X153550000Y-100000000D01*
X153514645Y-99985355D01*
G37*
G36*
X153164645Y-99635355D02*
G01*
X153150000Y-99600000D01*
X153150000Y-98900000D01*
X153164645Y-98864645D01*
X153200000Y-98850000D01*
X153300000Y-98850000D01*
X153335355Y-98864645D01*
X153350000Y-98900000D01*
X153350000Y-99549289D01*
X153335355Y-99584644D01*
X153284644Y-99635355D01*
X153249289Y-99650000D01*
X153200000Y-99650000D01*
X153164645Y-99635355D01*
G37*
G36*
G01*
X152950000Y-98900000D02*
X152950000Y-99600000D01*
G75*
G02*
X152900000Y-99650000I-50000J0D01*
G01*
X152800000Y-99650000D01*
G75*
G02*
X152750000Y-99600000I0J50000D01*
G01*
X152750000Y-98900000D01*
G75*
G02*
X152800000Y-98850000I50000J0D01*
G01*
X152900000Y-98850000D01*
G75*
G02*
X152950000Y-98900000I0J-50000D01*
G01*
G37*
G36*
G01*
X152550000Y-98900000D02*
X152550000Y-99600000D01*
G75*
G02*
X152500000Y-99650000I-50000J0D01*
G01*
X152400000Y-99650000D01*
G75*
G02*
X152350000Y-99600000I0J50000D01*
G01*
X152350000Y-98900000D01*
G75*
G02*
X152400000Y-98850000I50000J0D01*
G01*
X152500000Y-98850000D01*
G75*
G02*
X152550000Y-98900000I0J-50000D01*
G01*
G37*
G36*
G01*
X152150000Y-98900000D02*
X152150000Y-99600000D01*
G75*
G02*
X152100000Y-99650000I-50000J0D01*
G01*
X152000000Y-99650000D01*
G75*
G02*
X151950000Y-99600000I0J50000D01*
G01*
X151950000Y-98900000D01*
G75*
G02*
X152000000Y-98850000I50000J0D01*
G01*
X152100000Y-98850000D01*
G75*
G02*
X152150000Y-98900000I0J-50000D01*
G01*
G37*
G36*
X151615356Y-99635355D02*
G01*
X151564645Y-99584644D01*
X151550000Y-99549289D01*
X151550000Y-98900000D01*
X151564645Y-98864645D01*
X151600000Y-98850000D01*
X151700000Y-98850000D01*
X151735355Y-98864645D01*
X151750000Y-98900000D01*
X151750000Y-99600000D01*
X151735355Y-99635355D01*
X151700000Y-99650000D01*
X151650711Y-99650000D01*
X151615356Y-99635355D01*
G37*
G36*
X150614645Y-99985355D02*
G01*
X150600000Y-99950000D01*
X150600000Y-99850000D01*
X150614645Y-99814645D01*
X150650000Y-99800000D01*
X151299289Y-99800000D01*
X151334644Y-99814645D01*
X151385355Y-99865356D01*
X151400000Y-99900711D01*
X151400000Y-99950000D01*
X151385355Y-99985355D01*
X151350000Y-100000000D01*
X150650000Y-100000000D01*
X150614645Y-99985355D01*
G37*
G36*
G01*
X151400000Y-100250000D02*
X151400000Y-100350000D01*
G75*
G02*
X151350000Y-100400000I-50000J0D01*
G01*
X150650000Y-100400000D01*
G75*
G02*
X150600000Y-100350000I0J50000D01*
G01*
X150600000Y-100250000D01*
G75*
G02*
X150650000Y-100200000I50000J0D01*
G01*
X151350000Y-100200000D01*
G75*
G02*
X151400000Y-100250000I0J-50000D01*
G01*
G37*
G36*
G01*
X151400000Y-100650000D02*
X151400000Y-100750000D01*
G75*
G02*
X151350000Y-100800000I-50000J0D01*
G01*
X150650000Y-100800000D01*
G75*
G02*
X150600000Y-100750000I0J50000D01*
G01*
X150600000Y-100650000D01*
G75*
G02*
X150650000Y-100600000I50000J0D01*
G01*
X151350000Y-100600000D01*
G75*
G02*
X151400000Y-100650000I0J-50000D01*
G01*
G37*
G36*
G01*
X151400000Y-101050000D02*
X151400000Y-101150000D01*
G75*
G02*
X151350000Y-101200000I-50000J0D01*
G01*
X150650000Y-101200000D01*
G75*
G02*
X150600000Y-101150000I0J50000D01*
G01*
X150600000Y-101050000D01*
G75*
G02*
X150650000Y-101000000I50000J0D01*
G01*
X151350000Y-101000000D01*
G75*
G02*
X151400000Y-101050000I0J-50000D01*
G01*
G37*
G36*
X150614645Y-101585355D02*
G01*
X150600000Y-101550000D01*
X150600000Y-101450000D01*
X150614645Y-101414645D01*
X150650000Y-101400000D01*
X151350000Y-101400000D01*
X151385355Y-101414645D01*
X151400000Y-101450000D01*
X151400000Y-101499289D01*
X151385355Y-101534644D01*
X151334644Y-101585355D01*
X151299289Y-101600000D01*
X150650000Y-101600000D01*
X150614645Y-101585355D01*
G37*
G36*
X151564645Y-102535355D02*
G01*
X151550000Y-102500000D01*
X151550000Y-101850711D01*
X151564645Y-101815356D01*
X151615356Y-101764645D01*
X151650711Y-101750000D01*
X151700000Y-101750000D01*
X151735355Y-101764645D01*
X151750000Y-101800000D01*
X151750000Y-102500000D01*
X151735355Y-102535355D01*
X151700000Y-102550000D01*
X151600000Y-102550000D01*
X151564645Y-102535355D01*
G37*
G36*
G01*
X152150000Y-101800000D02*
X152150000Y-102500000D01*
G75*
G02*
X152100000Y-102550000I-50000J0D01*
G01*
X152000000Y-102550000D01*
G75*
G02*
X151950000Y-102500000I0J50000D01*
G01*
X151950000Y-101800000D01*
G75*
G02*
X152000000Y-101750000I50000J0D01*
G01*
X152100000Y-101750000D01*
G75*
G02*
X152150000Y-101800000I0J-50000D01*
G01*
G37*
G36*
G01*
X152550000Y-101800000D02*
X152550000Y-102500000D01*
G75*
G02*
X152500000Y-102550000I-50000J0D01*
G01*
X152400000Y-102550000D01*
G75*
G02*
X152350000Y-102500000I0J50000D01*
G01*
X152350000Y-101800000D01*
G75*
G02*
X152400000Y-101750000I50000J0D01*
G01*
X152500000Y-101750000D01*
G75*
G02*
X152550000Y-101800000I0J-50000D01*
G01*
G37*
G36*
G01*
X152950000Y-101800000D02*
X152950000Y-102500000D01*
G75*
G02*
X152900000Y-102550000I-50000J0D01*
G01*
X152800000Y-102550000D01*
G75*
G02*
X152750000Y-102500000I0J50000D01*
G01*
X152750000Y-101800000D01*
G75*
G02*
X152800000Y-101750000I50000J0D01*
G01*
X152900000Y-101750000D01*
G75*
G02*
X152950000Y-101800000I0J-50000D01*
G01*
G37*
G36*
X153164645Y-102535355D02*
G01*
X153150000Y-102500000D01*
X153150000Y-101800000D01*
X153164645Y-101764645D01*
X153200000Y-101750000D01*
X153249289Y-101750000D01*
X153284644Y-101764645D01*
X153335355Y-101815356D01*
X153350000Y-101850711D01*
X153350000Y-102500000D01*
X153335355Y-102535355D01*
X153300000Y-102550000D01*
X153200000Y-102550000D01*
X153164645Y-102535355D01*
G37*
G36*
G01*
X153300000Y-100020000D02*
X153300000Y-101380000D01*
G75*
G02*
X153130000Y-101550000I-170000J0D01*
G01*
X151770000Y-101550000D01*
G75*
G02*
X151600000Y-101380000I0J170000D01*
G01*
X151600000Y-100020000D01*
G75*
G02*
X151770000Y-99850000I170000J0D01*
G01*
X153130000Y-99850000D01*
G75*
G02*
X153300000Y-100020000I0J-170000D01*
G01*
G37*
D12*
X147300000Y-96782031D03*
G36*
G01*
X151320000Y-90140000D02*
X150980000Y-90140000D01*
G75*
G02*
X150840000Y-90000000I0J140000D01*
G01*
X150840000Y-89720000D01*
G75*
G02*
X150980000Y-89580000I140000J0D01*
G01*
X151320000Y-89580000D01*
G75*
G02*
X151460000Y-89720000I0J-140000D01*
G01*
X151460000Y-90000000D01*
G75*
G02*
X151320000Y-90140000I-140000J0D01*
G01*
G37*
G36*
G01*
X151320000Y-89180000D02*
X150980000Y-89180000D01*
G75*
G02*
X150840000Y-89040000I0J140000D01*
G01*
X150840000Y-88760000D01*
G75*
G02*
X150980000Y-88620000I140000J0D01*
G01*
X151320000Y-88620000D01*
G75*
G02*
X151460000Y-88760000I0J-140000D01*
G01*
X151460000Y-89040000D01*
G75*
G02*
X151320000Y-89180000I-140000J0D01*
G01*
G37*
G36*
G01*
X156100000Y-89690000D02*
X156100000Y-88710000D01*
G75*
G02*
X156310000Y-88500000I210000J0D01*
G01*
X157290000Y-88500000D01*
G75*
G02*
X157500000Y-88710000I0J-210000D01*
G01*
X157500000Y-89690000D01*
G75*
G02*
X157290000Y-89900000I-210000J0D01*
G01*
X156310000Y-89900000D01*
G75*
G02*
X156100000Y-89690000I0J210000D01*
G01*
G37*
G36*
G01*
X143217872Y-90819926D02*
X143217872Y-90479926D01*
G75*
G02*
X143357872Y-90339926I140000J0D01*
G01*
X143637872Y-90339926D01*
G75*
G02*
X143777872Y-90479926I0J-140000D01*
G01*
X143777872Y-90819926D01*
G75*
G02*
X143637872Y-90959926I-140000J0D01*
G01*
X143357872Y-90959926D01*
G75*
G02*
X143217872Y-90819926I0J140000D01*
G01*
G37*
G36*
G01*
X144177872Y-90819926D02*
X144177872Y-90479926D01*
G75*
G02*
X144317872Y-90339926I140000J0D01*
G01*
X144597872Y-90339926D01*
G75*
G02*
X144737872Y-90479926I0J-140000D01*
G01*
X144737872Y-90819926D01*
G75*
G02*
X144597872Y-90959926I-140000J0D01*
G01*
X144317872Y-90959926D01*
G75*
G02*
X144177872Y-90819926I0J140000D01*
G01*
G37*
G36*
G01*
X156109832Y-99625239D02*
X156109832Y-98645239D01*
G75*
G02*
X156319832Y-98435239I210000J0D01*
G01*
X157299832Y-98435239D01*
G75*
G02*
X157509832Y-98645239I0J-210000D01*
G01*
X157509832Y-99625239D01*
G75*
G02*
X157299832Y-99835239I-210000J0D01*
G01*
X156319832Y-99835239D01*
G75*
G02*
X156109832Y-99625239I0J210000D01*
G01*
G37*
G36*
G01*
X142100000Y-104290000D02*
X142100000Y-103310000D01*
G75*
G02*
X142310000Y-103100000I210000J0D01*
G01*
X143290000Y-103100000D01*
G75*
G02*
X143500000Y-103310000I0J-210000D01*
G01*
X143500000Y-104290000D01*
G75*
G02*
X143290000Y-104500000I-210000J0D01*
G01*
X142310000Y-104500000D01*
G75*
G02*
X142100000Y-104290000I0J210000D01*
G01*
G37*
G36*
G01*
X147053802Y-93080000D02*
X146713802Y-93080000D01*
G75*
G02*
X146573802Y-92940000I0J140000D01*
G01*
X146573802Y-92660000D01*
G75*
G02*
X146713802Y-92520000I140000J0D01*
G01*
X147053802Y-92520000D01*
G75*
G02*
X147193802Y-92660000I0J-140000D01*
G01*
X147193802Y-92940000D01*
G75*
G02*
X147053802Y-93080000I-140000J0D01*
G01*
G37*
G36*
G01*
X147053802Y-92120000D02*
X146713802Y-92120000D01*
G75*
G02*
X146573802Y-91980000I0J140000D01*
G01*
X146573802Y-91700000D01*
G75*
G02*
X146713802Y-91560000I140000J0D01*
G01*
X147053802Y-91560000D01*
G75*
G02*
X147193802Y-91700000I0J-140000D01*
G01*
X147193802Y-91980000D01*
G75*
G02*
X147053802Y-92120000I-140000J0D01*
G01*
G37*
G36*
G01*
X146700000Y-86690000D02*
X146700000Y-85710000D01*
G75*
G02*
X146910000Y-85500000I210000J0D01*
G01*
X147890000Y-85500000D01*
G75*
G02*
X148100000Y-85710000I0J-210000D01*
G01*
X148100000Y-86690000D01*
G75*
G02*
X147890000Y-86900000I-210000J0D01*
G01*
X146910000Y-86900000D01*
G75*
G02*
X146700000Y-86690000I0J210000D01*
G01*
G37*
G36*
G01*
X144050000Y-96775000D02*
X144250000Y-96775000D01*
G75*
G02*
X144350000Y-96875000I0J-100000D01*
G01*
X144350000Y-97325000D01*
G75*
G02*
X144250000Y-97425000I-100000J0D01*
G01*
X144050000Y-97425000D01*
G75*
G02*
X143950000Y-97325000I0J100000D01*
G01*
X143950000Y-96875000D01*
G75*
G02*
X144050000Y-96775000I100000J0D01*
G01*
G37*
G36*
G01*
X143400000Y-96775000D02*
X143600000Y-96775000D01*
G75*
G02*
X143700000Y-96875000I0J-100000D01*
G01*
X143700000Y-97325000D01*
G75*
G02*
X143600000Y-97425000I-100000J0D01*
G01*
X143400000Y-97425000D01*
G75*
G02*
X143300000Y-97325000I0J100000D01*
G01*
X143300000Y-96875000D01*
G75*
G02*
X143400000Y-96775000I100000J0D01*
G01*
G37*
G36*
G01*
X142750000Y-96775000D02*
X142950000Y-96775000D01*
G75*
G02*
X143050000Y-96875000I0J-100000D01*
G01*
X143050000Y-97325000D01*
G75*
G02*
X142950000Y-97425000I-100000J0D01*
G01*
X142750000Y-97425000D01*
G75*
G02*
X142650000Y-97325000I0J100000D01*
G01*
X142650000Y-96875000D01*
G75*
G02*
X142750000Y-96775000I100000J0D01*
G01*
G37*
G36*
G01*
X142750000Y-98675000D02*
X142950000Y-98675000D01*
G75*
G02*
X143050000Y-98775000I0J-100000D01*
G01*
X143050000Y-99225000D01*
G75*
G02*
X142950000Y-99325000I-100000J0D01*
G01*
X142750000Y-99325000D01*
G75*
G02*
X142650000Y-99225000I0J100000D01*
G01*
X142650000Y-98775000D01*
G75*
G02*
X142750000Y-98675000I100000J0D01*
G01*
G37*
G36*
G01*
X144050000Y-98675000D02*
X144250000Y-98675000D01*
G75*
G02*
X144350000Y-98775000I0J-100000D01*
G01*
X144350000Y-99225000D01*
G75*
G02*
X144250000Y-99325000I-100000J0D01*
G01*
X144050000Y-99325000D01*
G75*
G02*
X143950000Y-99225000I0J100000D01*
G01*
X143950000Y-98775000D01*
G75*
G02*
X144050000Y-98675000I100000J0D01*
G01*
G37*
G36*
G01*
X146095106Y-96912483D02*
X145725106Y-96912483D01*
G75*
G02*
X145590106Y-96777483I0J135000D01*
G01*
X145590106Y-96507483D01*
G75*
G02*
X145725106Y-96372483I135000J0D01*
G01*
X146095106Y-96372483D01*
G75*
G02*
X146230106Y-96507483I0J-135000D01*
G01*
X146230106Y-96777483D01*
G75*
G02*
X146095106Y-96912483I-135000J0D01*
G01*
G37*
G36*
G01*
X146095106Y-95892483D02*
X145725106Y-95892483D01*
G75*
G02*
X145590106Y-95757483I0J135000D01*
G01*
X145590106Y-95487483D01*
G75*
G02*
X145725106Y-95352483I135000J0D01*
G01*
X146095106Y-95352483D01*
G75*
G02*
X146230106Y-95487483I0J-135000D01*
G01*
X146230106Y-95757483D01*
G75*
G02*
X146095106Y-95892483I-135000J0D01*
G01*
G37*
G36*
G01*
X151500000Y-86690000D02*
X151500000Y-85710000D01*
G75*
G02*
X151710000Y-85500000I210000J0D01*
G01*
X152690000Y-85500000D01*
G75*
G02*
X152900000Y-85710000I0J-210000D01*
G01*
X152900000Y-86690000D01*
G75*
G02*
X152690000Y-86900000I-210000J0D01*
G01*
X151710000Y-86900000D01*
G75*
G02*
X151500000Y-86690000I0J210000D01*
G01*
G37*
G36*
G01*
X147910000Y-101485000D02*
X147910000Y-101115000D01*
G75*
G02*
X148045000Y-100980000I135000J0D01*
G01*
X148315000Y-100980000D01*
G75*
G02*
X148450000Y-101115000I0J-135000D01*
G01*
X148450000Y-101485000D01*
G75*
G02*
X148315000Y-101620000I-135000J0D01*
G01*
X148045000Y-101620000D01*
G75*
G02*
X147910000Y-101485000I0J135000D01*
G01*
G37*
G36*
G01*
X148930000Y-101485000D02*
X148930000Y-101115000D01*
G75*
G02*
X149065000Y-100980000I135000J0D01*
G01*
X149335000Y-100980000D01*
G75*
G02*
X149470000Y-101115000I0J-135000D01*
G01*
X149470000Y-101485000D01*
G75*
G02*
X149335000Y-101620000I-135000J0D01*
G01*
X149065000Y-101620000D01*
G75*
G02*
X148930000Y-101485000I0J135000D01*
G01*
G37*
G36*
G01*
X138500000Y-95890000D02*
X138500000Y-94910000D01*
G75*
G02*
X138710000Y-94700000I210000J0D01*
G01*
X139690000Y-94700000D01*
G75*
G02*
X139900000Y-94910000I0J-210000D01*
G01*
X139900000Y-95890000D01*
G75*
G02*
X139690000Y-96100000I-210000J0D01*
G01*
X138710000Y-96100000D01*
G75*
G02*
X138500000Y-95890000I0J210000D01*
G01*
G37*
G36*
G01*
X150050000Y-90450000D02*
X149550000Y-90450000D01*
G75*
G02*
X149325000Y-90225000I0J225000D01*
G01*
X149325000Y-89775000D01*
G75*
G02*
X149550000Y-89550000I225000J0D01*
G01*
X150050000Y-89550000D01*
G75*
G02*
X150275000Y-89775000I0J-225000D01*
G01*
X150275000Y-90225000D01*
G75*
G02*
X150050000Y-90450000I-225000J0D01*
G01*
G37*
G36*
G01*
X150050000Y-88900000D02*
X149550000Y-88900000D01*
G75*
G02*
X149325000Y-88675000I0J225000D01*
G01*
X149325000Y-88225000D01*
G75*
G02*
X149550000Y-88000000I225000J0D01*
G01*
X150050000Y-88000000D01*
G75*
G02*
X150275000Y-88225000I0J-225000D01*
G01*
X150275000Y-88675000D01*
G75*
G02*
X150050000Y-88900000I-225000J0D01*
G01*
G37*
G36*
G01*
X154400000Y-97350000D02*
X154400000Y-97850000D01*
G75*
G02*
X154175000Y-98075000I-225000J0D01*
G01*
X153725000Y-98075000D01*
G75*
G02*
X153500000Y-97850000I0J225000D01*
G01*
X153500000Y-97350000D01*
G75*
G02*
X153725000Y-97125000I225000J0D01*
G01*
X154175000Y-97125000D01*
G75*
G02*
X154400000Y-97350000I0J-225000D01*
G01*
G37*
G36*
G01*
X152850000Y-97350000D02*
X152850000Y-97850000D01*
G75*
G02*
X152625000Y-98075000I-225000J0D01*
G01*
X152175000Y-98075000D01*
G75*
G02*
X151950000Y-97850000I0J225000D01*
G01*
X151950000Y-97350000D01*
G75*
G02*
X152175000Y-97125000I225000J0D01*
G01*
X152625000Y-97125000D01*
G75*
G02*
X152850000Y-97350000I0J-225000D01*
G01*
G37*
G36*
G01*
X154680000Y-100009348D02*
X155020000Y-100009348D01*
G75*
G02*
X155160000Y-100149348I0J-140000D01*
G01*
X155160000Y-100429348D01*
G75*
G02*
X155020000Y-100569348I-140000J0D01*
G01*
X154680000Y-100569348D01*
G75*
G02*
X154540000Y-100429348I0J140000D01*
G01*
X154540000Y-100149348D01*
G75*
G02*
X154680000Y-100009348I140000J0D01*
G01*
G37*
G36*
G01*
X154680000Y-100969348D02*
X155020000Y-100969348D01*
G75*
G02*
X155160000Y-101109348I0J-140000D01*
G01*
X155160000Y-101389348D01*
G75*
G02*
X155020000Y-101529348I-140000J0D01*
G01*
X154680000Y-101529348D01*
G75*
G02*
X154540000Y-101389348I0J140000D01*
G01*
X154540000Y-101109348D01*
G75*
G02*
X154680000Y-100969348I140000J0D01*
G01*
G37*
G36*
G01*
X138500000Y-101290000D02*
X138500000Y-100310000D01*
G75*
G02*
X138710000Y-100100000I210000J0D01*
G01*
X139690000Y-100100000D01*
G75*
G02*
X139900000Y-100310000I0J-210000D01*
G01*
X139900000Y-101290000D01*
G75*
G02*
X139690000Y-101500000I-210000J0D01*
G01*
X138710000Y-101500000D01*
G75*
G02*
X138500000Y-101290000I0J210000D01*
G01*
G37*
G36*
G01*
X138500000Y-89490000D02*
X138500000Y-88510000D01*
G75*
G02*
X138710000Y-88300000I210000J0D01*
G01*
X139690000Y-88300000D01*
G75*
G02*
X139900000Y-88510000I0J-210000D01*
G01*
X139900000Y-89490000D01*
G75*
G02*
X139690000Y-89700000I-210000J0D01*
G01*
X138710000Y-89700000D01*
G75*
G02*
X138500000Y-89490000I0J210000D01*
G01*
G37*
G36*
G01*
X142900000Y-86690000D02*
X142900000Y-85710000D01*
G75*
G02*
X143110000Y-85500000I210000J0D01*
G01*
X144090000Y-85500000D01*
G75*
G02*
X144300000Y-85710000I0J-210000D01*
G01*
X144300000Y-86690000D01*
G75*
G02*
X144090000Y-86900000I-210000J0D01*
G01*
X143110000Y-86900000D01*
G75*
G02*
X142900000Y-86690000I0J210000D01*
G01*
G37*
G36*
G01*
X138500000Y-94290000D02*
X138500000Y-93310000D01*
G75*
G02*
X138710000Y-93100000I210000J0D01*
G01*
X139690000Y-93100000D01*
G75*
G02*
X139900000Y-93310000I0J-210000D01*
G01*
X139900000Y-94290000D01*
G75*
G02*
X139690000Y-94500000I-210000J0D01*
G01*
X138710000Y-94500000D01*
G75*
G02*
X138500000Y-94290000I0J210000D01*
G01*
G37*
G36*
G01*
X156109832Y-97775239D02*
X156109832Y-96795239D01*
G75*
G02*
X156319832Y-96585239I210000J0D01*
G01*
X157299832Y-96585239D01*
G75*
G02*
X157509832Y-96795239I0J-210000D01*
G01*
X157509832Y-97775239D01*
G75*
G02*
X157299832Y-97985239I-210000J0D01*
G01*
X156319832Y-97985239D01*
G75*
G02*
X156109832Y-97775239I0J210000D01*
G01*
G37*
G36*
G01*
X144288053Y-95937578D02*
X144288053Y-96277578D01*
G75*
G02*
X144148053Y-96417578I-140000J0D01*
G01*
X143868053Y-96417578D01*
G75*
G02*
X143728053Y-96277578I0J140000D01*
G01*
X143728053Y-95937578D01*
G75*
G02*
X143868053Y-95797578I140000J0D01*
G01*
X144148053Y-95797578D01*
G75*
G02*
X144288053Y-95937578I0J-140000D01*
G01*
G37*
G36*
G01*
X143328053Y-95937578D02*
X143328053Y-96277578D01*
G75*
G02*
X143188053Y-96417578I-140000J0D01*
G01*
X142908053Y-96417578D01*
G75*
G02*
X142768053Y-96277578I0J140000D01*
G01*
X142768053Y-95937578D01*
G75*
G02*
X142908053Y-95797578I140000J0D01*
G01*
X143188053Y-95797578D01*
G75*
G02*
X143328053Y-95937578I0J-140000D01*
G01*
G37*
X145485000Y-99305000D03*
X148100000Y-90200000D03*
X147537482Y-97578631D03*
G36*
G01*
X156100000Y-95490000D02*
X156100000Y-94510000D01*
G75*
G02*
X156310000Y-94300000I210000J0D01*
G01*
X157290000Y-94300000D01*
G75*
G02*
X157500000Y-94510000I0J-210000D01*
G01*
X157500000Y-95490000D01*
G75*
G02*
X157290000Y-95700000I-210000J0D01*
G01*
X156310000Y-95700000D01*
G75*
G02*
X156100000Y-95490000I0J210000D01*
G01*
G37*
G36*
G01*
X148630000Y-100130000D02*
X148630000Y-100470000D01*
G75*
G02*
X148490000Y-100610000I-140000J0D01*
G01*
X148210000Y-100610000D01*
G75*
G02*
X148070000Y-100470000I0J140000D01*
G01*
X148070000Y-100130000D01*
G75*
G02*
X148210000Y-99990000I140000J0D01*
G01*
X148490000Y-99990000D01*
G75*
G02*
X148630000Y-100130000I0J-140000D01*
G01*
G37*
G36*
G01*
X147670000Y-100130000D02*
X147670000Y-100470000D01*
G75*
G02*
X147530000Y-100610000I-140000J0D01*
G01*
X147250000Y-100610000D01*
G75*
G02*
X147110000Y-100470000I0J140000D01*
G01*
X147110000Y-100130000D01*
G75*
G02*
X147250000Y-99990000I140000J0D01*
G01*
X147530000Y-99990000D01*
G75*
G02*
X147670000Y-100130000I0J-140000D01*
G01*
G37*
G36*
G01*
X138500000Y-91090000D02*
X138500000Y-90110000D01*
G75*
G02*
X138710000Y-89900000I210000J0D01*
G01*
X139690000Y-89900000D01*
G75*
G02*
X139900000Y-90110000I0J-210000D01*
G01*
X139900000Y-91090000D01*
G75*
G02*
X139690000Y-91300000I-210000J0D01*
G01*
X138710000Y-91300000D01*
G75*
G02*
X138500000Y-91090000I0J210000D01*
G01*
G37*
G36*
G01*
X148640000Y-99230000D02*
X148640000Y-99570000D01*
G75*
G02*
X148500000Y-99710000I-140000J0D01*
G01*
X148220000Y-99710000D01*
G75*
G02*
X148080000Y-99570000I0J140000D01*
G01*
X148080000Y-99230000D01*
G75*
G02*
X148220000Y-99090000I140000J0D01*
G01*
X148500000Y-99090000D01*
G75*
G02*
X148640000Y-99230000I0J-140000D01*
G01*
G37*
G36*
G01*
X147680000Y-99230000D02*
X147680000Y-99570000D01*
G75*
G02*
X147540000Y-99710000I-140000J0D01*
G01*
X147260000Y-99710000D01*
G75*
G02*
X147120000Y-99570000I0J140000D01*
G01*
X147120000Y-99230000D01*
G75*
G02*
X147260000Y-99090000I140000J0D01*
G01*
X147540000Y-99090000D01*
G75*
G02*
X147680000Y-99230000I0J-140000D01*
G01*
G37*
G36*
G01*
X143241078Y-94388471D02*
X143241078Y-94048471D01*
G75*
G02*
X143381078Y-93908471I140000J0D01*
G01*
X143661078Y-93908471D01*
G75*
G02*
X143801078Y-94048471I0J-140000D01*
G01*
X143801078Y-94388471D01*
G75*
G02*
X143661078Y-94528471I-140000J0D01*
G01*
X143381078Y-94528471D01*
G75*
G02*
X143241078Y-94388471I0J140000D01*
G01*
G37*
G36*
G01*
X144201078Y-94388471D02*
X144201078Y-94048471D01*
G75*
G02*
X144341078Y-93908471I140000J0D01*
G01*
X144621078Y-93908471D01*
G75*
G02*
X144761078Y-94048471I0J-140000D01*
G01*
X144761078Y-94388471D01*
G75*
G02*
X144621078Y-94528471I-140000J0D01*
G01*
X144341078Y-94528471D01*
G75*
G02*
X144201078Y-94388471I0J140000D01*
G01*
G37*
D11*
X150100000Y-104100000D03*
G36*
G01*
X144205000Y-99780000D02*
X144205000Y-100120000D01*
G75*
G02*
X144065000Y-100260000I-140000J0D01*
G01*
X143785000Y-100260000D01*
G75*
G02*
X143645000Y-100120000I0J140000D01*
G01*
X143645000Y-99780000D01*
G75*
G02*
X143785000Y-99640000I140000J0D01*
G01*
X144065000Y-99640000D01*
G75*
G02*
X144205000Y-99780000I0J-140000D01*
G01*
G37*
G36*
G01*
X143245000Y-99780000D02*
X143245000Y-100120000D01*
G75*
G02*
X143105000Y-100260000I-140000J0D01*
G01*
X142825000Y-100260000D01*
G75*
G02*
X142685000Y-100120000I0J140000D01*
G01*
X142685000Y-99780000D01*
G75*
G02*
X142825000Y-99640000I140000J0D01*
G01*
X143105000Y-99640000D01*
G75*
G02*
X143245000Y-99780000I0J-140000D01*
G01*
G37*
G36*
G01*
X143420000Y-91735000D02*
X143080000Y-91735000D01*
G75*
G02*
X143000000Y-91655000I0J80000D01*
G01*
X143000000Y-91495000D01*
G75*
G02*
X143080000Y-91415000I80000J0D01*
G01*
X143420000Y-91415000D01*
G75*
G02*
X143500000Y-91495000I0J-80000D01*
G01*
X143500000Y-91655000D01*
G75*
G02*
X143420000Y-91735000I-80000J0D01*
G01*
G37*
G36*
G01*
X143445000Y-92135000D02*
X143055000Y-92135000D01*
G75*
G02*
X143000000Y-92080000I0J55000D01*
G01*
X143000000Y-91970000D01*
G75*
G02*
X143055000Y-91915000I55000J0D01*
G01*
X143445000Y-91915000D01*
G75*
G02*
X143500000Y-91970000I0J-55000D01*
G01*
X143500000Y-92080000D01*
G75*
G02*
X143445000Y-92135000I-55000J0D01*
G01*
G37*
G36*
G01*
X143445000Y-92535000D02*
X143055000Y-92535000D01*
G75*
G02*
X143000000Y-92480000I0J55000D01*
G01*
X143000000Y-92370000D01*
G75*
G02*
X143055000Y-92315000I55000J0D01*
G01*
X143445000Y-92315000D01*
G75*
G02*
X143500000Y-92370000I0J-55000D01*
G01*
X143500000Y-92480000D01*
G75*
G02*
X143445000Y-92535000I-55000J0D01*
G01*
G37*
G36*
G01*
X143445000Y-92935000D02*
X143055000Y-92935000D01*
G75*
G02*
X143000000Y-92880000I0J55000D01*
G01*
X143000000Y-92770000D01*
G75*
G02*
X143055000Y-92715000I55000J0D01*
G01*
X143445000Y-92715000D01*
G75*
G02*
X143500000Y-92770000I0J-55000D01*
G01*
X143500000Y-92880000D01*
G75*
G02*
X143445000Y-92935000I-55000J0D01*
G01*
G37*
G36*
G01*
X143445000Y-93335000D02*
X143055000Y-93335000D01*
G75*
G02*
X143000000Y-93280000I0J55000D01*
G01*
X143000000Y-93170000D01*
G75*
G02*
X143055000Y-93115000I55000J0D01*
G01*
X143445000Y-93115000D01*
G75*
G02*
X143500000Y-93170000I0J-55000D01*
G01*
X143500000Y-93280000D01*
G75*
G02*
X143445000Y-93335000I-55000J0D01*
G01*
G37*
G36*
G01*
X143890000Y-93520000D02*
X143890000Y-92980000D01*
G75*
G02*
X143945000Y-92925000I55000J0D01*
G01*
X144055000Y-92925000D01*
G75*
G02*
X144110000Y-92980000I0J-55000D01*
G01*
X144110000Y-93520000D01*
G75*
G02*
X144055000Y-93575000I-55000J0D01*
G01*
X143945000Y-93575000D01*
G75*
G02*
X143890000Y-93520000I0J55000D01*
G01*
G37*
G36*
G01*
X144945000Y-93335000D02*
X144555000Y-93335000D01*
G75*
G02*
X144500000Y-93280000I0J55000D01*
G01*
X144500000Y-93170000D01*
G75*
G02*
X144555000Y-93115000I55000J0D01*
G01*
X144945000Y-93115000D01*
G75*
G02*
X145000000Y-93170000I0J-55000D01*
G01*
X145000000Y-93280000D01*
G75*
G02*
X144945000Y-93335000I-55000J0D01*
G01*
G37*
G36*
G01*
X144945000Y-92935000D02*
X144555000Y-92935000D01*
G75*
G02*
X144500000Y-92880000I0J55000D01*
G01*
X144500000Y-92770000D01*
G75*
G02*
X144555000Y-92715000I55000J0D01*
G01*
X144945000Y-92715000D01*
G75*
G02*
X145000000Y-92770000I0J-55000D01*
G01*
X145000000Y-92880000D01*
G75*
G02*
X144945000Y-92935000I-55000J0D01*
G01*
G37*
G36*
G01*
X144945000Y-92535000D02*
X144555000Y-92535000D01*
G75*
G02*
X144500000Y-92480000I0J55000D01*
G01*
X144500000Y-92370000D01*
G75*
G02*
X144555000Y-92315000I55000J0D01*
G01*
X144945000Y-92315000D01*
G75*
G02*
X145000000Y-92370000I0J-55000D01*
G01*
X145000000Y-92480000D01*
G75*
G02*
X144945000Y-92535000I-55000J0D01*
G01*
G37*
G36*
G01*
X144945000Y-92135000D02*
X144555000Y-92135000D01*
G75*
G02*
X144500000Y-92080000I0J55000D01*
G01*
X144500000Y-91970000D01*
G75*
G02*
X144555000Y-91915000I55000J0D01*
G01*
X144945000Y-91915000D01*
G75*
G02*
X145000000Y-91970000I0J-55000D01*
G01*
X145000000Y-92080000D01*
G75*
G02*
X144945000Y-92135000I-55000J0D01*
G01*
G37*
G36*
G01*
X144945000Y-91735000D02*
X144555000Y-91735000D01*
G75*
G02*
X144500000Y-91680000I0J55000D01*
G01*
X144500000Y-91570000D01*
G75*
G02*
X144555000Y-91515000I55000J0D01*
G01*
X144945000Y-91515000D01*
G75*
G02*
X145000000Y-91570000I0J-55000D01*
G01*
X145000000Y-91680000D01*
G75*
G02*
X144945000Y-91735000I-55000J0D01*
G01*
G37*
G36*
G01*
X143890000Y-91870000D02*
X143890000Y-91330000D01*
G75*
G02*
X143945000Y-91275000I55000J0D01*
G01*
X144055000Y-91275000D01*
G75*
G02*
X144110000Y-91330000I0J-55000D01*
G01*
X144110000Y-91870000D01*
G75*
G02*
X144055000Y-91925000I-55000J0D01*
G01*
X143945000Y-91925000D01*
G75*
G02*
X143890000Y-91870000I0J55000D01*
G01*
G37*
G36*
G01*
X139900000Y-98710000D02*
X139900000Y-99690000D01*
G75*
G02*
X139690000Y-99900000I-210000J0D01*
G01*
X138710000Y-99900000D01*
G75*
G02*
X138500000Y-99690000I0J210000D01*
G01*
X138500000Y-98710000D01*
G75*
G02*
X138710000Y-98500000I210000J0D01*
G01*
X139690000Y-98500000D01*
G75*
G02*
X139900000Y-98710000I0J-210000D01*
G01*
G37*
X151500000Y-104100000D03*
G36*
G01*
X139900000Y-97110000D02*
X139900000Y-98090000D01*
G75*
G02*
X139690000Y-98300000I-210000J0D01*
G01*
X138710000Y-98300000D01*
G75*
G02*
X138500000Y-98090000I0J210000D01*
G01*
X138500000Y-97110000D01*
G75*
G02*
X138710000Y-96900000I210000J0D01*
G01*
X139690000Y-96900000D01*
G75*
G02*
X139900000Y-97110000I0J-210000D01*
G01*
G37*
G36*
G01*
X153300000Y-86690000D02*
X153300000Y-85710000D01*
G75*
G02*
X153510000Y-85500000I210000J0D01*
G01*
X154490000Y-85500000D01*
G75*
G02*
X154700000Y-85710000I0J-210000D01*
G01*
X154700000Y-86690000D01*
G75*
G02*
X154490000Y-86900000I-210000J0D01*
G01*
X153510000Y-86900000D01*
G75*
G02*
X153300000Y-86690000I0J210000D01*
G01*
G37*
M02*
