M48
; DRILL file {KiCad 9.0.0-rc2-6-ga1fa0bdb0b} date 2025-02-01T23:32:48-0500
; FORMAT={-:-/ absolute / metric / decimal}
; #@! TF.CreationDate,2025-02-01T23:32:48-05:00
; #@! TF.GenerationSoftware,Kicad,Pcbnew,9.0.0-rc2-6-ga1fa0bdb0b
; #@! TF.FileFunction,Plated,1,2,PTH
FMAT,2
METRIC
; #@! TA.AperFunction,Plated,PTH,ViaDrill
T1C0.250
; #@! TA.AperFunction,Plated,PTH,ComponentDrill
T2C0.800
%
G90
G05
T1
X140.242Y-89.83
X140.245Y-93.008
X140.58Y-101.73
X140.65Y-96.45
X140.75Y-88.05
X141.019Y-98.453
X141.348Y-89.295
X141.4Y-104.0
X141.43Y-102.62
X141.5Y-93.95
X142.437Y-96.318
X142.773Y-89.75
X143.4Y-89.75
X143.427Y-98.777
X144.4Y-95.3
X144.93Y-98.51
X145.029Y-96.886
X145.1Y-100.15
X145.6Y-94.6
X145.742Y-91.683
X145.917Y-97.402
X146.095Y-98.043
X146.231Y-87.073
X146.5Y-89.9
X146.534Y-97.518
X146.606Y-101.818
X146.629Y-101.18
X146.761Y-102.431
X146.765Y-98.109
X147.09Y-104.0
X147.208Y-101.992
X147.393Y-93.483
X147.5Y-92.3
X147.6Y-101.4
X147.661Y-96.032
X147.7Y-91.05
X148.2Y-87.9
X148.2Y-87.221
X148.25Y-98.2
X148.7Y-103.8
X148.766Y-89.169
X148.85Y-98.7
X149.329Y-95.0
X149.9Y-100.9
X150.095Y-100.26
X150.213Y-101.443
X150.5Y-89.2
X150.675Y-93.725
X150.735Y-85.731
X150.932Y-90.46
X151.25Y-87.25
X151.83Y-98.33
X152.1Y-95.2
X152.448Y-98.54
X152.45Y-100.7
X153.05Y-87.95
X153.072Y-98.485
X153.26Y-96.346
X153.713Y-98.73
X154.079Y-99.333
X154.1Y-91.1
X154.1Y-93.475
X154.12Y-91.969
X154.726Y-102.826
X155.0Y-88.1
X155.499Y-98.731
X155.809Y-92.093
X156.25Y-101.5
X157.15Y-100.3
T2
X139.2Y-89.0
X139.2Y-90.6
X139.2Y-92.2
X139.2Y-93.8
X139.2Y-95.4
X139.2Y-97.6
X139.2Y-99.2
X139.2Y-100.8
X142.0Y-86.2
X142.8Y-103.8
X143.6Y-86.2
X144.4Y-103.8
X145.2Y-86.2
X146.0Y-103.8
X147.4Y-86.2
X152.2Y-86.2
X154.0Y-86.2
X156.8Y-89.2
X156.8Y-90.8
X156.8Y-93.4
X156.8Y-95.0
X156.81Y-97.285
X156.81Y-99.135
M30
