%TF.GenerationSoftware,KiCad,Pcbnew,8.99.0-2608-ga0707285a1*%
%TF.CreationDate,2024-11-05T22:28:22-05:00*%
%TF.ProjectId,scampi,7363616d-7069-42e6-9b69-6361645f7063,rev?*%
%TF.SameCoordinates,Original*%
%TF.FileFunction,Legend,Bot*%
%TF.FilePolarity,Positive*%
%FSLAX46Y46*%
G04 Gerber Fmt 4.6, Leading zero omitted, Abs format (unit mm)*
G04 Created by KiCad (PCBNEW 8.99.0-2608-ga0707285a1) date 2024-11-05 22:28:22*
%MOMM*%
%LPD*%
G01*
G04 APERTURE LIST*
%ADD10C,0.100000*%
%ADD11C,0.093750*%
%ADD12C,0.400000*%
%ADD13C,0.160000*%
%ADD14C,0.300000*%
%ADD15C,0.125000*%
%ADD16C,0.127000*%
%ADD17C,0.120000*%
G04 APERTURE END LIST*
D10*
X151749604Y-94768110D02*
G75*
G02*
X151825320Y-94698902I159696J-98690D01*
G01*
X151762311Y-94050000D02*
G75*
G02*
X151866062Y-93882126I187689J0D01*
G01*
X152285410Y-94050000D02*
G75*
G02*
X151614590Y-94050000I-335410J0D01*
G01*
X151614590Y-94050000D02*
G75*
G02*
X152285410Y-94050000I335410J0D01*
G01*
X152096739Y-94800000D02*
G75*
G02*
X151603261Y-94800000I-246739J0D01*
G01*
X151603261Y-94800000D02*
G75*
G02*
X152096739Y-94800000I246739J0D01*
G01*
X152630278Y-94600000D02*
G75*
G02*
X152269722Y-94600000I-180278J0D01*
G01*
X152269722Y-94600000D02*
G75*
G02*
X152630278Y-94600000I180278J0D01*
G01*
D11*
G36*
X148349261Y-101667023D02*
G01*
X148350718Y-101631455D01*
X148355057Y-101596986D01*
X148362090Y-101564448D01*
X148371816Y-101533563D01*
X148383692Y-101505646D01*
X148397983Y-101479797D01*
X148413756Y-101457398D01*
X148431635Y-101437325D01*
X148450475Y-101420665D01*
X148471140Y-101406483D01*
X148492559Y-101395425D01*
X148515588Y-101386969D01*
X148539481Y-101381402D01*
X148564845Y-101378601D01*
X148577094Y-101378282D01*
X148602654Y-101379720D01*
X148626487Y-101383921D01*
X148648612Y-101390723D01*
X148669016Y-101399956D01*
X148705393Y-101425696D01*
X148735766Y-101461133D01*
X148759519Y-101506489D01*
X148767191Y-101528400D01*
X148772457Y-101528400D01*
X148784460Y-101502619D01*
X148798348Y-101479794D01*
X148813402Y-101460644D01*
X148830047Y-101444242D01*
X148847754Y-101430893D01*
X148866839Y-101420175D01*
X148908769Y-101406674D01*
X148944649Y-101403470D01*
X148972197Y-101404920D01*
X148997954Y-101409206D01*
X149021344Y-101416034D01*
X149042987Y-101425386D01*
X149080702Y-101451091D01*
X149111666Y-101486258D01*
X149135797Y-101531494D01*
X149152281Y-101587687D01*
X149159692Y-101655548D01*
X149159933Y-101671191D01*
X149158484Y-101703112D01*
X149154202Y-101733914D01*
X149137338Y-101792966D01*
X149109003Y-101850308D01*
X149095865Y-101870722D01*
X149086338Y-101882188D01*
X149076050Y-101889830D01*
X149066170Y-101893542D01*
X149055839Y-101894291D01*
X149033838Y-101887049D01*
X149022364Y-101879102D01*
X148988750Y-101851808D01*
X148977857Y-101841215D01*
X148970915Y-101830090D01*
X148967979Y-101819779D01*
X148967975Y-101809009D01*
X148976863Y-101785320D01*
X148981422Y-101778306D01*
X148995836Y-101753824D01*
X149006212Y-101728997D01*
X149011526Y-101707950D01*
X149013874Y-101685742D01*
X149013983Y-101679617D01*
X149012529Y-101658605D01*
X149008211Y-101640277D01*
X149001839Y-101625970D01*
X148993196Y-101613999D01*
X148982928Y-101604837D01*
X148970700Y-101597873D01*
X148939913Y-101590667D01*
X148931002Y-101590362D01*
X148911839Y-101591889D01*
X148894316Y-101596718D01*
X148880825Y-101603686D01*
X148868688Y-101613529D01*
X148849547Y-101641155D01*
X148835776Y-101683637D01*
X148831259Y-101712178D01*
X148828199Y-101729358D01*
X148822365Y-101743360D01*
X148815239Y-101752583D01*
X148806011Y-101759416D01*
X148782220Y-101765592D01*
X148777678Y-101765713D01*
X148748277Y-101765713D01*
X148733361Y-101764256D01*
X148720971Y-101759922D01*
X148711932Y-101753620D01*
X148704813Y-101745079D01*
X148695955Y-101720558D01*
X148694742Y-101711124D01*
X148690596Y-101673477D01*
X148684122Y-101642633D01*
X148676594Y-101620710D01*
X148667392Y-101603144D01*
X148657555Y-101590548D01*
X148646405Y-101580944D01*
X148620311Y-101569466D01*
X148589733Y-101566227D01*
X148572661Y-101567670D01*
X148557367Y-101571904D01*
X148544253Y-101578540D01*
X148532833Y-101587542D01*
X148514773Y-101612827D01*
X148503443Y-101649228D01*
X148500478Y-101685891D01*
X148506115Y-101731041D01*
X148523045Y-101775130D01*
X148542472Y-101806654D01*
X148550850Y-101821139D01*
X148555140Y-101834985D01*
X148555489Y-101846250D01*
X148552720Y-101856962D01*
X148538378Y-101875874D01*
X148532993Y-101880156D01*
X148497318Y-101906397D01*
X148483113Y-101914804D01*
X148469227Y-101919228D01*
X148457787Y-101919690D01*
X148446732Y-101916985D01*
X148427016Y-101902596D01*
X148424869Y-101900123D01*
X148407143Y-101876937D01*
X148391529Y-101851513D01*
X148378428Y-101824440D01*
X148367596Y-101795140D01*
X148359196Y-101763760D01*
X148353280Y-101730096D01*
X148349261Y-101667023D01*
G37*
D12*
G36*
X147374672Y-98350279D02*
G01*
X147532971Y-98369940D01*
X147748846Y-98426092D01*
X147979599Y-98517934D01*
X148098088Y-98577913D01*
X148211443Y-98652463D01*
X148318706Y-98733219D01*
X148410809Y-98813351D01*
X148488442Y-98893828D01*
X148515744Y-98927180D01*
X148569059Y-98997900D01*
X148609784Y-99066033D01*
X148636537Y-99127878D01*
X148648884Y-99181585D01*
X148649619Y-99195969D01*
X148635086Y-99279192D01*
X148615120Y-99323342D01*
X148614184Y-99325943D01*
X148614509Y-99331891D01*
X148598786Y-99347766D01*
X148586574Y-99358635D01*
X148570735Y-99375857D01*
X148506127Y-99415788D01*
X148505222Y-99415611D01*
X148505222Y-99415825D01*
X148506127Y-99417498D01*
X148504963Y-99425130D01*
X148496815Y-99425069D01*
X148487656Y-99430931D01*
X148475138Y-99443754D01*
X148462773Y-99448150D01*
X148368129Y-99482955D01*
X148360669Y-99485592D01*
X148327982Y-99496755D01*
X148281270Y-99510921D01*
X148269669Y-99512997D01*
X148232575Y-99522156D01*
X148217641Y-99527162D01*
X148196701Y-99533269D01*
X148194412Y-99534042D01*
X148186168Y-99536078D01*
X148133687Y-99551325D01*
X148111827Y-99558060D01*
X148050766Y-99572348D01*
X147924676Y-99600436D01*
X147918098Y-99601792D01*
X147910937Y-99603244D01*
X147881075Y-99612444D01*
X147860715Y-99618876D01*
X147843160Y-99625593D01*
X147800470Y-99637474D01*
X147736151Y-99665282D01*
X147717222Y-99670411D01*
X147633416Y-99727808D01*
X147602479Y-99774156D01*
X147595122Y-99840425D01*
X147605786Y-99862997D01*
X147611726Y-99869947D01*
X147623799Y-99886078D01*
X147659575Y-99925940D01*
X147769815Y-100004106D01*
X147786068Y-100012595D01*
X147868011Y-100044259D01*
X147951416Y-100066407D01*
X148077633Y-100079274D01*
X148137339Y-100074313D01*
X148176093Y-100054972D01*
X148195327Y-100044713D01*
X148195327Y-100010642D01*
X148164894Y-99935094D01*
X148133088Y-99893030D01*
X148093011Y-99856036D01*
X148036722Y-99823674D01*
X147999937Y-99800269D01*
X147995878Y-99783841D01*
X148001307Y-99780687D01*
X148001833Y-99780282D01*
X148001631Y-99779034D01*
X148000696Y-99778367D01*
X148010017Y-99768229D01*
X148060231Y-99757606D01*
X148141329Y-99771245D01*
X148213188Y-99797295D01*
X148327638Y-99858679D01*
X148433273Y-99948953D01*
X148464063Y-99990576D01*
X148477676Y-100026953D01*
X148478039Y-100032868D01*
X148466132Y-100053506D01*
X148464147Y-100066329D01*
X148449661Y-100112928D01*
X148431785Y-100128367D01*
X148424916Y-100135694D01*
X148395912Y-100157844D01*
X148369656Y-100171109D01*
X148373014Y-100170010D01*
X148352254Y-100184787D01*
X148322639Y-100197976D01*
X148243927Y-100222142D01*
X148226163Y-100226796D01*
X148128619Y-100249771D01*
X148057178Y-100257815D01*
X147969818Y-100262254D01*
X147884243Y-100258668D01*
X147802279Y-100247376D01*
X147722305Y-100228389D01*
X147568832Y-100167323D01*
X147564112Y-100164881D01*
X147451867Y-100094144D01*
X147352085Y-99999894D01*
X147348873Y-99995498D01*
X147334982Y-99973150D01*
X147313807Y-99934536D01*
X147303154Y-99895204D01*
X147311036Y-99814223D01*
X147318190Y-99793998D01*
X147323838Y-99783862D01*
X147341800Y-99746681D01*
X147345057Y-99740509D01*
X147365379Y-99704529D01*
X147388563Y-99683112D01*
X147389530Y-99682306D01*
X147400775Y-99670411D01*
X147429931Y-99644399D01*
X147449093Y-99626413D01*
X147456798Y-99618876D01*
X147486260Y-99592620D01*
X147489953Y-99592720D01*
X147491972Y-99590522D01*
X147491755Y-99589933D01*
X147501201Y-99582453D01*
X147510570Y-99581756D01*
X147513777Y-99576798D01*
X147525501Y-99575876D01*
X147527322Y-99576514D01*
X147538772Y-99564654D01*
X147548695Y-99557815D01*
X147577240Y-99547923D01*
X147582889Y-99540596D01*
X147594820Y-99532831D01*
X147596627Y-99533879D01*
X147609297Y-99528995D01*
X147615203Y-99525470D01*
X147629753Y-99519958D01*
X147647570Y-99511447D01*
X147652040Y-99509089D01*
X147665874Y-99503800D01*
X147685776Y-99497487D01*
X147687760Y-99498709D01*
X147703178Y-99489183D01*
X147717833Y-99484298D01*
X147723806Y-99480689D01*
X147738135Y-99475139D01*
X147744476Y-99473962D01*
X147754469Y-99472330D01*
X147881243Y-99432816D01*
X148143121Y-99368893D01*
X148165340Y-99365075D01*
X148177162Y-99363154D01*
X148209371Y-99349232D01*
X148233796Y-99340317D01*
X148247687Y-99337997D01*
X148290158Y-99324749D01*
X148325389Y-99304675D01*
X148349964Y-99281210D01*
X148355735Y-99248077D01*
X148345995Y-99168981D01*
X148282232Y-99065896D01*
X148163369Y-98940940D01*
X148259049Y-98940940D01*
X148337141Y-99022313D01*
X148356680Y-99043196D01*
X148346346Y-99029272D01*
X148282009Y-98961793D01*
X148259049Y-98940940D01*
X148163369Y-98940940D01*
X148161392Y-98938862D01*
X148474260Y-98938862D01*
X148506737Y-98982501D01*
X148489559Y-98955979D01*
X148474260Y-98938862D01*
X148161392Y-98938862D01*
X148157621Y-98934897D01*
X148084808Y-98873080D01*
X147987132Y-98802383D01*
X147890986Y-98744307D01*
X147708063Y-98660345D01*
X147582714Y-98613840D01*
X147466198Y-98581403D01*
X147374019Y-98564727D01*
X147279478Y-98555860D01*
X147206144Y-98553977D01*
X147183076Y-98553919D01*
X147123559Y-98556908D01*
X147108238Y-98558415D01*
X147095471Y-98559717D01*
X147065854Y-98565625D01*
X147036090Y-98570830D01*
X146943684Y-98601824D01*
X146892597Y-98634699D01*
X146891548Y-98642714D01*
X146884201Y-98643859D01*
X146873732Y-98657040D01*
X146854129Y-98716399D01*
X146849432Y-98755155D01*
X146854756Y-98794420D01*
X146902520Y-98893597D01*
X146928141Y-98928109D01*
X146977683Y-98994125D01*
X147013497Y-99032937D01*
X147052576Y-99075558D01*
X147112225Y-99130772D01*
X147184925Y-99181681D01*
X147328083Y-99266446D01*
X147376045Y-99287805D01*
X147446171Y-99302958D01*
X147500311Y-99304196D01*
X147539077Y-99288293D01*
X147544762Y-99285772D01*
X147558159Y-99281943D01*
X147551290Y-99281210D01*
X147553121Y-99272143D01*
X147565944Y-99265090D01*
X147573282Y-99265094D01*
X147600352Y-99264344D01*
X147600419Y-99258919D01*
X147600291Y-99258740D01*
X147604928Y-99249535D01*
X147637385Y-99251046D01*
X147647824Y-99252324D01*
X147659922Y-99249730D01*
X147659825Y-99249337D01*
X147672620Y-99238085D01*
X147683028Y-99244452D01*
X147695546Y-99245429D01*
X147724509Y-99252401D01*
X147761189Y-99289634D01*
X147764086Y-99308688D01*
X147762948Y-99314880D01*
X147760575Y-99330181D01*
X147755868Y-99354270D01*
X147752179Y-99358635D01*
X147750042Y-99368283D01*
X147734777Y-99384281D01*
X147730887Y-99389144D01*
X147725618Y-99397836D01*
X147718901Y-99404553D01*
X147696004Y-99420307D01*
X147656562Y-99445174D01*
X147634637Y-99452180D01*
X147633144Y-99452733D01*
X147603649Y-99463049D01*
X147544051Y-99482445D01*
X147485794Y-99491787D01*
X147419704Y-99494190D01*
X147347900Y-99491305D01*
X147292240Y-99479902D01*
X147136553Y-99422880D01*
X146963420Y-99326081D01*
X146800090Y-99207083D01*
X146677051Y-99065859D01*
X146627284Y-98989865D01*
X146594687Y-98921305D01*
X146585309Y-98884804D01*
X146584475Y-98780776D01*
X146596373Y-98710115D01*
X146614119Y-98657753D01*
X146627288Y-98640806D01*
X146627701Y-98638473D01*
X146627288Y-98635921D01*
X146628777Y-98626197D01*
X146639195Y-98624808D01*
X146639195Y-98620289D01*
X146643100Y-98609174D01*
X146649728Y-98607955D01*
X146650545Y-98608217D01*
X146652059Y-98607360D01*
X146651865Y-98604413D01*
X146656935Y-98591746D01*
X146660261Y-98591102D01*
X146662506Y-98591260D01*
X146662890Y-98590359D01*
X146662398Y-98589392D01*
X146672168Y-98579989D01*
X146672779Y-98575471D01*
X146682701Y-98565945D01*
X146683312Y-98561427D01*
X146685487Y-98553153D01*
X146697457Y-98549960D01*
X146713231Y-98533094D01*
X146725291Y-98519295D01*
X146733687Y-98512578D01*
X146742310Y-98507935D01*
X146751089Y-98502442D01*
X146775666Y-98493039D01*
X146777803Y-98496580D01*
X146781038Y-98485226D01*
X146803754Y-98473377D01*
X146802380Y-98471789D01*
X146814287Y-98462264D01*
X146843875Y-98451273D01*
X146861762Y-98438084D01*
X146879927Y-98425872D01*
X146898398Y-98415736D01*
X146957499Y-98391266D01*
X147024679Y-98372249D01*
X147067078Y-98367009D01*
X147068299Y-98368108D01*
X147088793Y-98360455D01*
X147100204Y-98358705D01*
X147103976Y-98358101D01*
X147139435Y-98352965D01*
X147308024Y-98347297D01*
X147374672Y-98350279D01*
G37*
G36*
X147149510Y-100045568D02*
G01*
X147137603Y-100057292D01*
X147138977Y-100054605D01*
X147133916Y-100067843D01*
X147111653Y-100090753D01*
X147107531Y-100098080D01*
X147096845Y-100107606D01*
X147094842Y-100107549D01*
X147093271Y-100111147D01*
X147093487Y-100112002D01*
X147081580Y-100121528D01*
X147076085Y-100120429D01*
X147058018Y-100142739D01*
X147018585Y-100170105D01*
X147000827Y-100181978D01*
X146922262Y-100216389D01*
X146858861Y-100233147D01*
X146840238Y-100237909D01*
X146806913Y-100249127D01*
X146802380Y-100250000D01*
X146636142Y-100244382D01*
X146615106Y-100240253D01*
X146523370Y-100217586D01*
X146413729Y-100162561D01*
X146284734Y-100070267D01*
X146189431Y-99984346D01*
X146164448Y-99960938D01*
X146108444Y-99902503D01*
X146104749Y-99890321D01*
X146119874Y-99890596D01*
X146114684Y-99890474D01*
X146111941Y-99875568D01*
X146122778Y-99872797D01*
X146132086Y-99874232D01*
X146131781Y-99875331D01*
X146149488Y-99868248D01*
X146171642Y-99872339D01*
X146206275Y-99891451D01*
X146258217Y-99923495D01*
X146382499Y-99995177D01*
X146544551Y-100057658D01*
X146659790Y-100082574D01*
X146761429Y-100081998D01*
X146779940Y-100079884D01*
X146829420Y-100063752D01*
X146838711Y-100055826D01*
X146851575Y-100049121D01*
X146854129Y-100049110D01*
X146863441Y-100032379D01*
X146878706Y-100015893D01*
X146880690Y-100005757D01*
X146886033Y-99990736D01*
X146887712Y-99980722D01*
X146891376Y-99946528D01*
X146897218Y-99896452D01*
X146892880Y-99847893D01*
X146855356Y-99756724D01*
X146790778Y-99679570D01*
X146699264Y-99607019D01*
X146561939Y-99537261D01*
X146496161Y-99518492D01*
X146479979Y-99516416D01*
X146477690Y-99525697D01*
X146494386Y-99555266D01*
X146521501Y-99587491D01*
X146557673Y-99612155D01*
X146563633Y-99615457D01*
X146573884Y-99628730D01*
X146573594Y-99641521D01*
X146546521Y-99671262D01*
X146542719Y-99674319D01*
X146502677Y-99686977D01*
X146498450Y-99686287D01*
X146501961Y-99690317D01*
X146500053Y-99704147D01*
X146486696Y-99709002D01*
X146454239Y-99706025D01*
X146424414Y-99694347D01*
X146402585Y-99677128D01*
X146427162Y-99693981D01*
X146445747Y-99713535D01*
X146441206Y-99724755D01*
X146423178Y-99733271D01*
X146398019Y-99735106D01*
X146367316Y-99728511D01*
X146331390Y-99711733D01*
X146297713Y-99688363D01*
X146263527Y-99658398D01*
X146241127Y-99627775D01*
X146229594Y-99608289D01*
X146226730Y-99603367D01*
X146205454Y-99565515D01*
X146196916Y-99533453D01*
X146201695Y-99499930D01*
X146207064Y-99486939D01*
X146219556Y-99457554D01*
X146220802Y-99454877D01*
X146232889Y-99431618D01*
X146246422Y-99421528D01*
X146264988Y-99407850D01*
X146271762Y-99394905D01*
X146273251Y-99388555D01*
X146283669Y-99384769D01*
X146289317Y-99380373D01*
X146302293Y-99376465D01*
X146301072Y-99377564D01*
X146320258Y-99365343D01*
X146358871Y-99356998D01*
X146359232Y-99356926D01*
X146373276Y-99349476D01*
X146384601Y-99342878D01*
X146388694Y-99342759D01*
X146390831Y-99342271D01*
X146419407Y-99333034D01*
X146425788Y-99331769D01*
X146510216Y-99324047D01*
X146582775Y-99328507D01*
X146653915Y-99340552D01*
X146674000Y-99345812D01*
X146767959Y-99383481D01*
X146861907Y-99430516D01*
X146940907Y-99479696D01*
X147008782Y-99533882D01*
X147015482Y-99540230D01*
X147085747Y-99614069D01*
X147136162Y-99684134D01*
X147161929Y-99737288D01*
X147177647Y-99792605D01*
X147181464Y-99914729D01*
X147177445Y-99947749D01*
X147149510Y-100045568D01*
G37*
G36*
X147004338Y-99583583D02*
G01*
X146911221Y-99503349D01*
X146941598Y-99522278D01*
X146986594Y-99561557D01*
X147004491Y-99578210D01*
X147022199Y-99595062D01*
X147004338Y-99583583D01*
G37*
G36*
X146860388Y-99658443D02*
G01*
X146805029Y-99607153D01*
X146787725Y-99595062D01*
X146780856Y-99583415D01*
X146815661Y-99609228D01*
X146860388Y-99658443D01*
G37*
G36*
X146993042Y-99610572D02*
G01*
X146955642Y-99575523D01*
X146924196Y-99544748D01*
X146962817Y-99572958D01*
X146993042Y-99610572D01*
G37*
G36*
X146921601Y-99615823D02*
G01*
X146929692Y-99624738D01*
X146916716Y-99619853D01*
X146915156Y-99617418D01*
X146913663Y-99610327D01*
X146921601Y-99615823D01*
G37*
G36*
X145534689Y-99345529D02*
G01*
X145568496Y-99353262D01*
X145573730Y-99354505D01*
X145648243Y-99374409D01*
X145730459Y-99409438D01*
X145889627Y-99503390D01*
X146052208Y-99637606D01*
X146159258Y-99759193D01*
X146205552Y-99829343D01*
X146238861Y-99898776D01*
X146257871Y-99968387D01*
X146266018Y-100016133D01*
X146262209Y-100058598D01*
X146246728Y-100096859D01*
X146226425Y-100133862D01*
X146211969Y-100152139D01*
X146186430Y-100171475D01*
X146178950Y-100173551D01*
X146177006Y-100175342D01*
X146154373Y-100190404D01*
X146146336Y-100196501D01*
X146135292Y-100207990D01*
X146113005Y-100207990D01*
X146091251Y-100220406D01*
X146032404Y-100236078D01*
X145974244Y-100244382D01*
X145950326Y-100246459D01*
X145932418Y-100250000D01*
X145825256Y-100244504D01*
X145716577Y-100208990D01*
X145567300Y-100122601D01*
X145525295Y-100092829D01*
X145492170Y-100074267D01*
X145491786Y-100074857D01*
X145480721Y-100101866D01*
X145450486Y-100149682D01*
X145436459Y-100161150D01*
X145425614Y-100161584D01*
X145425868Y-100161751D01*
X145420729Y-100170376D01*
X145393805Y-100187947D01*
X145377986Y-100191870D01*
X145364095Y-100199319D01*
X145363770Y-100199449D01*
X145328985Y-100208722D01*
X145307919Y-100208722D01*
X145279086Y-100212495D01*
X145220908Y-100219836D01*
X145169494Y-100215590D01*
X145123516Y-100202616D01*
X145065680Y-100158827D01*
X144856222Y-99954710D01*
X144821303Y-99911677D01*
X144821103Y-99903070D01*
X144831951Y-99900610D01*
X144834088Y-99893283D01*
X144846963Y-99886854D01*
X144856070Y-99886566D01*
X144883776Y-99888899D01*
X144929141Y-99913450D01*
X144936212Y-99918196D01*
X145090233Y-99991997D01*
X145187629Y-100038729D01*
X145223713Y-100047766D01*
X145222587Y-100028960D01*
X145195144Y-99949276D01*
X145099412Y-99789153D01*
X145058639Y-99732205D01*
X144974356Y-99613136D01*
X144956178Y-99579396D01*
X144954530Y-99561113D01*
X144964911Y-99561479D01*
X144955370Y-99558684D01*
X144963025Y-99551671D01*
X144985976Y-99543527D01*
X144996967Y-99543527D01*
X144995136Y-99532170D01*
X144996185Y-99518782D01*
X145003531Y-99513729D01*
X145375849Y-99513729D01*
X145399968Y-99576500D01*
X145414985Y-99606359D01*
X145412943Y-99617533D01*
X145394316Y-99618717D01*
X145390564Y-99616093D01*
X145401724Y-99651009D01*
X145395560Y-99654778D01*
X145391987Y-99653082D01*
X145417391Y-99686896D01*
X145458586Y-99727198D01*
X145656270Y-99908105D01*
X145790757Y-100013084D01*
X145891540Y-100065394D01*
X145904940Y-100071458D01*
X145952873Y-100085136D01*
X145965486Y-100083975D01*
X145972260Y-100075854D01*
X145987097Y-100036109D01*
X145985540Y-99969120D01*
X145943739Y-99881850D01*
X145847736Y-99767714D01*
X145773660Y-99704483D01*
X145691486Y-99642404D01*
X145609206Y-99590664D01*
X145531505Y-99551408D01*
X145457889Y-99523859D01*
X145391114Y-99509089D01*
X145377872Y-99507974D01*
X145375849Y-99513729D01*
X145003531Y-99513729D01*
X145004020Y-99511867D01*
X145002158Y-99512020D01*
X145006415Y-99504538D01*
X145016674Y-99501866D01*
X145040778Y-99504570D01*
X145047648Y-99507257D01*
X145047648Y-99492480D01*
X145051159Y-99487351D01*
X145049866Y-99481619D01*
X145064120Y-99482241D01*
X145089364Y-99486937D01*
X145093138Y-99487718D01*
X145104091Y-99490374D01*
X145107029Y-99482955D01*
X145108957Y-99474681D01*
X145122447Y-99470621D01*
X145145956Y-99453524D01*
X145179281Y-99416728D01*
X145185492Y-99414567D01*
X145191140Y-99407362D01*
X145198315Y-99395027D01*
X145206711Y-99390265D01*
X145217155Y-99383084D01*
X145226250Y-99378175D01*
X145229609Y-99376831D01*
X145241430Y-99371432D01*
X145243500Y-99372557D01*
X145254033Y-99370847D01*
X145269451Y-99361444D01*
X145308202Y-99350280D01*
X145310056Y-99346912D01*
X145323948Y-99344591D01*
X145332649Y-99342637D01*
X145358776Y-99334013D01*
X145423629Y-99327739D01*
X145534689Y-99345529D01*
G37*
G36*
X145054670Y-100140823D02*
G01*
X145049022Y-100148150D01*
X145044423Y-100165568D01*
X145028261Y-100171720D01*
X145027597Y-100170996D01*
X145028108Y-100178925D01*
X145026620Y-100190007D01*
X145016202Y-100196877D01*
X145014064Y-100197365D01*
X145002158Y-100202494D01*
X144988572Y-100206646D01*
X144977285Y-100214067D01*
X144966160Y-100213503D01*
X144962315Y-100211287D01*
X144959262Y-100215928D01*
X144928732Y-100219225D01*
X144926595Y-100219225D01*
X144900644Y-100227651D01*
X144884616Y-100229361D01*
X144871362Y-100235603D01*
X144858970Y-100236078D01*
X144818697Y-100226406D01*
X144764021Y-100187229D01*
X144695323Y-100107914D01*
X144553361Y-99912090D01*
X144469556Y-99797418D01*
X144319651Y-99649651D01*
X144214445Y-99572783D01*
X144193714Y-99561235D01*
X144194139Y-99561871D01*
X144219665Y-99588956D01*
X144243784Y-99631577D01*
X144282099Y-99704117D01*
X144295516Y-99729685D01*
X144306829Y-99751866D01*
X144362603Y-99857210D01*
X144380407Y-99903785D01*
X144396102Y-99961235D01*
X144398996Y-100009488D01*
X144390940Y-100042882D01*
X144384071Y-100070115D01*
X144362200Y-100098509D01*
X144328658Y-100121284D01*
X144323620Y-100128122D01*
X144321652Y-100129991D01*
X144314589Y-100135199D01*
X144303776Y-100132519D01*
X144293090Y-100135694D01*
X144274161Y-100143632D01*
X144251721Y-100146074D01*
X144196996Y-100159691D01*
X144158299Y-100160484D01*
X144118301Y-100152423D01*
X144064796Y-100123191D01*
X143777127Y-99899023D01*
X143527083Y-99695812D01*
X143550439Y-99737456D01*
X143631192Y-99880582D01*
X143672487Y-99964700D01*
X143680498Y-99981821D01*
X143686580Y-100069973D01*
X143680498Y-100101500D01*
X143671217Y-100129028D01*
X143658760Y-100163587D01*
X143644931Y-100180024D01*
X143638672Y-100180512D01*
X143625536Y-100194675D01*
X143612721Y-100199685D01*
X143610584Y-100205792D01*
X143595166Y-100213607D01*
X143593029Y-100212508D01*
X143591312Y-100224354D01*
X143579290Y-100216416D01*
X143574711Y-100220446D01*
X143543570Y-100227651D01*
X143495332Y-100241451D01*
X143455145Y-100248667D01*
X143413777Y-100248229D01*
X143316831Y-100224222D01*
X143295511Y-100216050D01*
X143238594Y-100187860D01*
X143174409Y-100141700D01*
X143109446Y-100089963D01*
X143073708Y-100061322D01*
X142935982Y-99943746D01*
X142898463Y-99909891D01*
X142897035Y-99887898D01*
X142908483Y-99875229D01*
X142925941Y-99869836D01*
X142961378Y-99879773D01*
X142978148Y-99887177D01*
X143125304Y-99960083D01*
X143306654Y-100041050D01*
X143392368Y-100060733D01*
X143398398Y-100060223D01*
X143411946Y-100054392D01*
X143411984Y-100028593D01*
X143405545Y-100014492D01*
X143363135Y-99934071D01*
X143355808Y-99911113D01*
X143321309Y-99850296D01*
X143265286Y-99757850D01*
X143219795Y-99687875D01*
X143179350Y-99613782D01*
X143163620Y-99584071D01*
X143142762Y-99530431D01*
X143139406Y-99493930D01*
X143145301Y-99483443D01*
X143152781Y-99481734D01*
X143165299Y-99461828D01*
X143177358Y-99445341D01*
X143178942Y-99434549D01*
X143190028Y-99433007D01*
X143191402Y-99435694D01*
X143191402Y-99421894D01*
X143222848Y-99412491D01*
X143241167Y-99405041D01*
X143278872Y-99396737D01*
X143291837Y-99392736D01*
X143308181Y-99388311D01*
X143313829Y-99389410D01*
X143330909Y-99379611D01*
X143394928Y-99387199D01*
X143436561Y-99399790D01*
X143574136Y-99478212D01*
X143700025Y-99564316D01*
X143835441Y-99667513D01*
X143927794Y-99745027D01*
X144020419Y-99822409D01*
X144092200Y-99881071D01*
X144010837Y-99740997D01*
X143927508Y-99591567D01*
X143891463Y-99496632D01*
X143884428Y-99464788D01*
X143899147Y-99442941D01*
X143899401Y-99442777D01*
X143916345Y-99415666D01*
X143928939Y-99401454D01*
X143940159Y-99399424D01*
X143940662Y-99399823D01*
X143940312Y-99393806D01*
X143940503Y-99382622D01*
X143946113Y-99384647D01*
X143962904Y-99372313D01*
X143982249Y-99362243D01*
X144003510Y-99351919D01*
X144051696Y-99334211D01*
X144052358Y-99332257D01*
X144065028Y-99332257D01*
X144074035Y-99333967D01*
X144095820Y-99327161D01*
X144176362Y-99336071D01*
X144230961Y-99352285D01*
X144380560Y-99432519D01*
X144390165Y-99439547D01*
X144406968Y-99450837D01*
X144466502Y-99495778D01*
X144496384Y-99516325D01*
X144500391Y-99512508D01*
X144515428Y-99496515D01*
X144544965Y-99491992D01*
X144556262Y-99491992D01*
X144571297Y-99479502D01*
X144601905Y-99481001D01*
X144608774Y-99482100D01*
X144623581Y-99481367D01*
X144623581Y-99484420D01*
X144623969Y-99470615D01*
X144636592Y-99468264D01*
X144645716Y-99469399D01*
X144687515Y-99483256D01*
X144720448Y-99525857D01*
X144723568Y-99540474D01*
X144742918Y-99582491D01*
X144824318Y-99703750D01*
X144928536Y-99853271D01*
X144964758Y-99914410D01*
X145010420Y-100002173D01*
X145063066Y-100108461D01*
X145064649Y-100134167D01*
X145054670Y-100140823D01*
G37*
G36*
X144799894Y-99768108D02*
G01*
X144857265Y-99847328D01*
X144866450Y-99860676D01*
X144889043Y-99902930D01*
X144750587Y-99708757D01*
X144756267Y-99710254D01*
X144790126Y-99754000D01*
X144799894Y-99768108D01*
G37*
G36*
X144521457Y-99771284D02*
G01*
X144532848Y-99778307D01*
X144540844Y-99784717D01*
X144573265Y-99833342D01*
X144607553Y-99883025D01*
X144654538Y-99948764D01*
X144661524Y-99966147D01*
X144661286Y-99966189D01*
X144644549Y-99939590D01*
X144521457Y-99771284D01*
G37*
G36*
X144809664Y-99743318D02*
G01*
X144828135Y-99765666D01*
X144884005Y-99841137D01*
X144904064Y-99886820D01*
X144902781Y-99884979D01*
X144809664Y-99743318D01*
G37*
G36*
X144791498Y-99721824D02*
G01*
X144788750Y-99711322D01*
X144797146Y-99718527D01*
X144797200Y-99719877D01*
X144795772Y-99722679D01*
X144791498Y-99721824D01*
G37*
G36*
X144443605Y-99692515D02*
G01*
X144440685Y-99687356D01*
X144449558Y-99689340D01*
X144451390Y-99696179D01*
X144443605Y-99692515D01*
G37*
G36*
X144773333Y-99701796D02*
G01*
X144773275Y-99697136D01*
X144774706Y-99691782D01*
X144778981Y-99698133D01*
X144780355Y-99703018D01*
X144773333Y-99701796D01*
G37*
G36*
X144494285Y-99744539D02*
G01*
X144492587Y-99738051D01*
X144499017Y-99740265D01*
X144500391Y-99750523D01*
X144494285Y-99744539D01*
G37*
G36*
X142574994Y-99334455D02*
G01*
X142581558Y-99341172D01*
X142615398Y-99354741D01*
X142659411Y-99402355D01*
X142706752Y-99468458D01*
X142767641Y-99544382D01*
X142970668Y-99791434D01*
X143135379Y-100009054D01*
X143341612Y-100288834D01*
X143556164Y-100576522D01*
X143681414Y-100757048D01*
X143760619Y-100895035D01*
X143804717Y-100994354D01*
X143814832Y-101059298D01*
X143790961Y-101119275D01*
X143761709Y-101175314D01*
X143698238Y-101231299D01*
X143639588Y-101255425D01*
X143570527Y-101256959D01*
X143541713Y-101247380D01*
X143522783Y-101231951D01*
X143521741Y-101230390D01*
X143523804Y-101212698D01*
X143540836Y-101201974D01*
X143559598Y-101197540D01*
X143581275Y-101177878D01*
X143578164Y-101130874D01*
X143557308Y-101091172D01*
X143514871Y-101014846D01*
X143435742Y-100883092D01*
X143330512Y-100729789D01*
X143302746Y-100692095D01*
X143391582Y-100692095D01*
X143404151Y-100710007D01*
X143399772Y-100703070D01*
X143391582Y-100692095D01*
X143302746Y-100692095D01*
X143095384Y-100410589D01*
X143059975Y-100362632D01*
X143233052Y-100362632D01*
X143240098Y-100372487D01*
X143284367Y-100426465D01*
X143233052Y-100362632D01*
X143059975Y-100362632D01*
X143012463Y-100298282D01*
X142955403Y-100220080D01*
X142885335Y-100124092D01*
X142822137Y-100173796D01*
X142789317Y-100188450D01*
X142744896Y-100204815D01*
X142624271Y-100243176D01*
X142617126Y-100244504D01*
X142572247Y-100249877D01*
X142374105Y-100247191D01*
X142261256Y-100226515D01*
X142150941Y-100197628D01*
X142049698Y-100162561D01*
X141950015Y-100119136D01*
X141882260Y-100084159D01*
X141810209Y-100048377D01*
X141752049Y-100048377D01*
X141548202Y-100044651D01*
X141446266Y-100034198D01*
X141410872Y-100025785D01*
X141297910Y-99982798D01*
X142233054Y-99982798D01*
X142289230Y-100003803D01*
X142352123Y-100023586D01*
X142374556Y-100028677D01*
X142417000Y-100037630D01*
X142431945Y-100039695D01*
X142456842Y-100043492D01*
X142511644Y-100051796D01*
X142608291Y-100053735D01*
X142651473Y-100041660D01*
X142655719Y-100032856D01*
X142649323Y-100022827D01*
X142595922Y-99997245D01*
X142524467Y-99979989D01*
X142403088Y-99970052D01*
X142304479Y-99971942D01*
X142235384Y-99981978D01*
X142233054Y-99982798D01*
X141297910Y-99982798D01*
X141255340Y-99966598D01*
X141209392Y-99938792D01*
X141189786Y-99916457D01*
X141196091Y-99904274D01*
X141198991Y-99901831D01*
X141203126Y-99890621D01*
X141209524Y-99889497D01*
X141227690Y-99884612D01*
X141244452Y-99877559D01*
X141265869Y-99881061D01*
X141267074Y-99881437D01*
X141426031Y-99904650D01*
X141507065Y-99906411D01*
X141568570Y-99901068D01*
X141596998Y-99893400D01*
X141607182Y-99883269D01*
X141590696Y-99865317D01*
X141572795Y-99842105D01*
X141530703Y-99784106D01*
X141503207Y-99729014D01*
X141491625Y-99688485D01*
X141488266Y-99664427D01*
X141511814Y-99574947D01*
X141779723Y-99574947D01*
X141788941Y-99630380D01*
X141798455Y-99650628D01*
X141845207Y-99718357D01*
X141900905Y-99778326D01*
X141937673Y-99810973D01*
X141954899Y-99826217D01*
X141972211Y-99832634D01*
X142041324Y-99823796D01*
X142190471Y-99797989D01*
X142332070Y-99781130D01*
X142434555Y-99776046D01*
X142478671Y-99773848D01*
X142403566Y-99702529D01*
X142319187Y-99650698D01*
X142230563Y-99607293D01*
X142097194Y-99564288D01*
X142014780Y-99548516D01*
X141936906Y-99541608D01*
X141868646Y-99543265D01*
X141807382Y-99552938D01*
X141795554Y-99555983D01*
X141779723Y-99574947D01*
X141511814Y-99574947D01*
X141524292Y-99527529D01*
X141533756Y-99515928D01*
X141544183Y-99509220D01*
X141545511Y-99509211D01*
X141551617Y-99503593D01*
X141549766Y-99493717D01*
X141560623Y-99492358D01*
X141562236Y-99490281D01*
X141576346Y-99472086D01*
X141601534Y-99447662D01*
X141619089Y-99437526D01*
X141647024Y-99419574D01*
X141652672Y-99420673D01*
X141664579Y-99411270D01*
X141686103Y-99403576D01*
X141705337Y-99391608D01*
X141717244Y-99384281D01*
X141786977Y-99354265D01*
X141917598Y-99336217D01*
X141951564Y-99335554D01*
X142049101Y-99339514D01*
X142143391Y-99351604D01*
X142229413Y-99370734D01*
X142312697Y-99397636D01*
X142398376Y-99435083D01*
X142406925Y-99426046D01*
X142410083Y-99424762D01*
X142416443Y-99417339D01*
X142416236Y-99417009D01*
X142413480Y-99390354D01*
X142420583Y-99382077D01*
X142431654Y-99380373D01*
X142449515Y-99384005D01*
X142456384Y-99385990D01*
X142461116Y-99386357D01*
X142459493Y-99375535D01*
X142457605Y-99362299D01*
X142456479Y-99345232D01*
X142479740Y-99350331D01*
X142502524Y-99357985D01*
X142507980Y-99358025D01*
X142521982Y-99360887D01*
X142517597Y-99349598D01*
X142512848Y-99337088D01*
X142520651Y-99333839D01*
X142538816Y-99341782D01*
X142545532Y-99346423D01*
X142554973Y-99330373D01*
X142574994Y-99334455D01*
G37*
G36*
X141451782Y-100159019D02*
G01*
X141447282Y-100168211D01*
X141444760Y-100168545D01*
X141437341Y-100173099D01*
X141419878Y-100184420D01*
X141369808Y-100215928D01*
X141369097Y-100216215D01*
X141344621Y-100228872D01*
X141325692Y-100233147D01*
X141284781Y-100238642D01*
X141228758Y-100249877D01*
X141138129Y-100250641D01*
X141061147Y-100232780D01*
X140979042Y-100181611D01*
X140898725Y-100116765D01*
X140740979Y-99972677D01*
X140680433Y-99903419D01*
X140682265Y-99893695D01*
X140695088Y-99897435D01*
X140699266Y-99901557D01*
X140697835Y-99897801D01*
X140703483Y-99888932D01*
X140723786Y-99885467D01*
X140777396Y-99908939D01*
X140813851Y-99928210D01*
X140970625Y-99998852D01*
X141131366Y-100054239D01*
X141183604Y-100070156D01*
X141209765Y-100071773D01*
X141212424Y-100068893D01*
X141211194Y-100020547D01*
X141208913Y-100002215D01*
X141166863Y-99896785D01*
X141079923Y-99756507D01*
X140898267Y-99543283D01*
X140841633Y-99472330D01*
X140832424Y-99441607D01*
X140838469Y-99422830D01*
X140842702Y-99422016D01*
X140844839Y-99419330D01*
X140854265Y-99411850D01*
X140868500Y-99410781D01*
X140871463Y-99412052D01*
X140873615Y-99409973D01*
X140872927Y-99406263D01*
X140872927Y-99386113D01*
X140881132Y-99372740D01*
X140895977Y-99371458D01*
X140915822Y-99377930D01*
X140920059Y-99380004D01*
X140928769Y-99382999D01*
X140929153Y-99374027D01*
X140928797Y-99369993D01*
X140930245Y-99347098D01*
X140943203Y-99345177D01*
X140952001Y-99350942D01*
X140969556Y-99360223D01*
X140979434Y-99362297D01*
X140989706Y-99366939D01*
X140994385Y-99367831D01*
X140996728Y-99368649D01*
X140997980Y-99369082D01*
X140995659Y-99362787D01*
X140991135Y-99348274D01*
X140997083Y-99341255D01*
X141014282Y-99347400D01*
X141016420Y-99350209D01*
X141028174Y-99337875D01*
X141053880Y-99350930D01*
X141109232Y-99403820D01*
X141119043Y-99414048D01*
X141196701Y-99499075D01*
X141323009Y-99640714D01*
X141406954Y-99759927D01*
X141417894Y-99779954D01*
X141433719Y-99807643D01*
X141442318Y-99821964D01*
X141489097Y-99943714D01*
X141505669Y-100024930D01*
X141490717Y-100089112D01*
X141462010Y-100148272D01*
X141459098Y-100151910D01*
X141451782Y-100159385D01*
X141451782Y-100159019D01*
G37*
G36*
X140865142Y-99188886D02*
G01*
X140858120Y-99210136D01*
X140843312Y-99257152D01*
X140832131Y-99268470D01*
X140807699Y-99291644D01*
X140799152Y-99295630D01*
X140795838Y-99289637D01*
X140790953Y-99296231D01*
X140765765Y-99303681D01*
X140759336Y-99303420D01*
X140749584Y-99305024D01*
X140736456Y-99312107D01*
X140646697Y-99263258D01*
X140605565Y-99224466D01*
X140578952Y-99190457D01*
X140578920Y-99189986D01*
X140551748Y-99152494D01*
X140526174Y-99122811D01*
X140513127Y-99107554D01*
X140504419Y-99082314D01*
X140506808Y-99063268D01*
X140518317Y-99062247D01*
X140524423Y-99060659D01*
X140550984Y-99062735D01*
X140563386Y-99069387D01*
X140560708Y-99070871D01*
X140544268Y-99053820D01*
X140541695Y-99038133D01*
X140548472Y-99026430D01*
X140572755Y-99011237D01*
X140580904Y-99007048D01*
X140616110Y-98989522D01*
X140649404Y-98983652D01*
X140678296Y-98993370D01*
X140684860Y-99001430D01*
X140682212Y-98994774D01*
X140689783Y-98992513D01*
X140695698Y-98992271D01*
X140741036Y-99015840D01*
X140808589Y-99080879D01*
X140850291Y-99136091D01*
X140870156Y-99176115D01*
X140865142Y-99184979D01*
X140865142Y-99188886D01*
G37*
G36*
X141290124Y-99656245D02*
G01*
X141098241Y-99445341D01*
X141172277Y-99517515D01*
X141266769Y-99626814D01*
X141290124Y-99656245D01*
G37*
G36*
X141289972Y-99703750D02*
G01*
X141112285Y-99500174D01*
X141115796Y-99500296D01*
X141239857Y-99636834D01*
X141252877Y-99651971D01*
X141289972Y-99703750D01*
G37*
G36*
X140965281Y-99523743D02*
G01*
X141046187Y-99607030D01*
X141110587Y-99680227D01*
X141119367Y-99693017D01*
X141111674Y-99689951D01*
X140965281Y-99523743D01*
G37*
G36*
X141175788Y-99652093D02*
G01*
X141190186Y-99670898D01*
X141199754Y-99686165D01*
X141174719Y-99656367D01*
X141150892Y-99631209D01*
X141147242Y-99627302D01*
X141175788Y-99652093D01*
G37*
G36*
X141095188Y-99562456D02*
G01*
X141110680Y-99578907D01*
X141136709Y-99603855D01*
X141133790Y-99609778D01*
X141115185Y-99594818D01*
X141088467Y-99562042D01*
X141080381Y-99553053D01*
X141082747Y-99549603D01*
X141095188Y-99562456D01*
G37*
G36*
X140688371Y-99222714D02*
G01*
X140676311Y-99210136D01*
X140689592Y-99218196D01*
X140701194Y-99227477D01*
X140688371Y-99222714D01*
G37*
G36*
X141313785Y-99688607D02*
G01*
X141312381Y-99686398D01*
X141311801Y-99682257D01*
X141316228Y-99686043D01*
X141320807Y-99692271D01*
X141316495Y-99693828D01*
X141313785Y-99688607D01*
G37*
D13*
G36*
X148429409Y-94385512D02*
G01*
X148445236Y-94375450D01*
X148455397Y-94359769D01*
X148458767Y-94341842D01*
X148458767Y-94204187D01*
X148455397Y-94186259D01*
X148445285Y-94171751D01*
X148429605Y-94161639D01*
X148411677Y-94157194D01*
X148301719Y-94157194D01*
X148280421Y-94162763D01*
X148213108Y-94198569D01*
X148149165Y-94265736D01*
X148121126Y-94321716D01*
X148118000Y-94341842D01*
X148118000Y-94452630D01*
X148122445Y-94472805D01*
X148159325Y-94539972D01*
X148214085Y-94595903D01*
X148281105Y-94631709D01*
X148385055Y-94664193D01*
X148521342Y-94664193D01*
X148618551Y-94633956D01*
X148692263Y-94595903D01*
X148755962Y-94527662D01*
X148783903Y-94472805D01*
X148790156Y-94452630D01*
X148790156Y-94341842D01*
X148785662Y-94321716D01*
X148757720Y-94265736D01*
X148693973Y-94198569D01*
X148626806Y-94162763D01*
X148608879Y-94158318D01*
X148587630Y-94161639D01*
X148571949Y-94171751D01*
X148564133Y-94184061D01*
X148558516Y-94200816D01*
X148558516Y-94232177D01*
X148561886Y-94248932D01*
X148570826Y-94263489D01*
X148584259Y-94274675D01*
X148632424Y-94298220D01*
X148649179Y-94314975D01*
X148668230Y-94353028D01*
X148668230Y-94441444D01*
X148649179Y-94479497D01*
X148632375Y-94496301D01*
X148587483Y-94518674D01*
X148515725Y-94542170D01*
X148392431Y-94542170D01*
X148320672Y-94518674D01*
X148275780Y-94496301D01*
X148258976Y-94479497D01*
X148239926Y-94441444D01*
X148239926Y-94353028D01*
X148258635Y-94314975D01*
X148275145Y-94298220D01*
X148312612Y-94279169D01*
X148336841Y-94279169D01*
X148336841Y-94341842D01*
X148340212Y-94359769D01*
X148350372Y-94375450D01*
X148365076Y-94385512D01*
X148411335Y-94388834D01*
X148429409Y-94385512D01*
G37*
G36*
X148741210Y-94058960D02*
G01*
X148765780Y-94052267D01*
X148779214Y-94039909D01*
X148787030Y-94023154D01*
X148784782Y-93994040D01*
X148774720Y-93978360D01*
X148392089Y-93701926D01*
X148743163Y-93701926D01*
X148761140Y-93697431D01*
X148776918Y-93687369D01*
X148787030Y-93672812D01*
X148790400Y-93654884D01*
X148787030Y-93609016D01*
X148776918Y-93593335D01*
X148761189Y-93583272D01*
X148743261Y-93579951D01*
X148164015Y-93579951D01*
X148139346Y-93586643D01*
X148125864Y-93599002D01*
X148118000Y-93615757D01*
X148118000Y-93634808D01*
X148130309Y-93660551D01*
X148512940Y-93936985D01*
X148164650Y-93936985D01*
X148146820Y-93941430D01*
X148131189Y-93951493D01*
X148121126Y-93966050D01*
X148117755Y-94011919D01*
X148121126Y-94029846D01*
X148131189Y-94045526D01*
X148146820Y-94055589D01*
X148164699Y-94058960D01*
X148741210Y-94058960D01*
G37*
G36*
X148538097Y-92979162D02*
G01*
X148619870Y-93006029D01*
X148681468Y-93036217D01*
X148748683Y-93100013D01*
X148759919Y-93117941D01*
X148790156Y-93215296D01*
X148790156Y-93407759D01*
X148787030Y-93426810D01*
X148776918Y-93441367D01*
X148761237Y-93451430D01*
X148743310Y-93454801D01*
X148164845Y-93454801D01*
X148146918Y-93451430D01*
X148131237Y-93441367D01*
X148121126Y-93426810D01*
X148118000Y-93407808D01*
X148118000Y-93223112D01*
X148239926Y-93223112D01*
X148239926Y-93333900D01*
X148668230Y-93333900D01*
X148668230Y-93223112D01*
X148646932Y-93158192D01*
X148632375Y-93144759D01*
X148587483Y-93121263D01*
X148515725Y-93097766D01*
X148392431Y-93097766D01*
X148320672Y-93121263D01*
X148275780Y-93144759D01*
X148261224Y-93158192D01*
X148239926Y-93223112D01*
X148118000Y-93223112D01*
X148118000Y-93215296D01*
X148148237Y-93117941D01*
X148159472Y-93100013D01*
X148226688Y-93036217D01*
X148288286Y-93006029D01*
X148385739Y-92975792D01*
X148538097Y-92979162D01*
G37*
D14*
G36*
X153711382Y-94682068D02*
G01*
X153742351Y-94703160D01*
X153763526Y-94734138D01*
X153770561Y-94770693D01*
X153763522Y-94807340D01*
X153742351Y-94838333D01*
X153711382Y-94859425D01*
X153674818Y-94866436D01*
X153638144Y-94859423D01*
X153607071Y-94838333D01*
X153585984Y-94807349D01*
X153578968Y-94770693D01*
X153585979Y-94734129D01*
X153607071Y-94703160D01*
X153638144Y-94682070D01*
X153674818Y-94675057D01*
X153711382Y-94682068D01*
G37*
G36*
X155244429Y-93952602D02*
G01*
X155120690Y-94001649D01*
X155056682Y-94018133D01*
X154979639Y-94031034D01*
X154789649Y-94045353D01*
X154517700Y-94049520D01*
X154288776Y-94055249D01*
X154100426Y-94070998D01*
X153924091Y-94100294D01*
X153772912Y-94142058D01*
X153631434Y-94200227D01*
X153498612Y-94275735D01*
X153372658Y-94368019D01*
X153294785Y-94437422D01*
X153371989Y-94492275D01*
X153433399Y-94522541D01*
X153591848Y-94409997D01*
X153760410Y-94318157D01*
X153930630Y-94251359D01*
X154088031Y-94211621D01*
X154244677Y-94190160D01*
X154393212Y-94183197D01*
X154570703Y-94189109D01*
X154744235Y-94206706D01*
X154915367Y-94224469D01*
X155076131Y-94230214D01*
X155167922Y-94226750D01*
X155257679Y-94216430D01*
X155346311Y-94197173D01*
X155436877Y-94166314D01*
X155476842Y-94262485D01*
X155374302Y-94296966D01*
X155273174Y-94318157D01*
X155171378Y-94329398D01*
X155070788Y-94333117D01*
X154908567Y-94327445D01*
X154734084Y-94309822D01*
X154558583Y-94292209D01*
X154387976Y-94286421D01*
X154255544Y-94292357D01*
X154117203Y-94310570D01*
X153978237Y-94344051D01*
X153828477Y-94399474D01*
X153680166Y-94475902D01*
X153646774Y-94498477D01*
X153806999Y-94490409D01*
X153978455Y-94500354D01*
X154126246Y-94528493D01*
X154253753Y-94572905D01*
X154363859Y-94632565D01*
X154458839Y-94707395D01*
X154540247Y-94798262D01*
X154602734Y-94764933D01*
X154913744Y-94764933D01*
X154938434Y-94796689D01*
X154996523Y-94910461D01*
X155032213Y-95032256D01*
X155044074Y-95157726D01*
X155037884Y-95249538D01*
X155025282Y-95311104D01*
X155025433Y-95311065D01*
X155060303Y-95298213D01*
X155298191Y-95298213D01*
X155336087Y-95339544D01*
X155378748Y-95412044D01*
X155408373Y-95491723D01*
X155426881Y-95581819D01*
X155428852Y-95612992D01*
X155429204Y-95613217D01*
X155478551Y-95632916D01*
X155582095Y-95656425D01*
X155604591Y-95658453D01*
X155618460Y-95622260D01*
X155640439Y-95545828D01*
X155653571Y-95471271D01*
X155657856Y-95399328D01*
X155651471Y-95304110D01*
X155633652Y-95224986D01*
X155605817Y-95159222D01*
X155565697Y-95100538D01*
X155513373Y-95050100D01*
X155503169Y-95043508D01*
X155479841Y-95098179D01*
X155431535Y-95171083D01*
X155372102Y-95236161D01*
X155298191Y-95298213D01*
X155060303Y-95298213D01*
X155180054Y-95254077D01*
X155266722Y-95194883D01*
X155346370Y-95115732D01*
X155386589Y-95056416D01*
X155412325Y-94997037D01*
X155421740Y-94952231D01*
X155410308Y-94927509D01*
X155361610Y-94864164D01*
X155300636Y-94814932D01*
X155229788Y-94780028D01*
X155146714Y-94758131D01*
X155048775Y-94750390D01*
X154931194Y-94760536D01*
X154913744Y-94764933D01*
X154602734Y-94764933D01*
X154680527Y-94723440D01*
X154810965Y-94673144D01*
X154933168Y-94644440D01*
X155048775Y-94635199D01*
X155163991Y-94644118D01*
X155264228Y-94669611D01*
X155352034Y-94710640D01*
X155429222Y-94768031D01*
X155489583Y-94838490D01*
X155534544Y-94923711D01*
X155605345Y-94978016D01*
X155663475Y-95042539D01*
X155709895Y-95118296D01*
X155742863Y-95201283D01*
X155763283Y-95293921D01*
X155770376Y-95397939D01*
X155762466Y-95504245D01*
X155738447Y-95611249D01*
X155697393Y-95720004D01*
X155710536Y-95830173D01*
X155700002Y-95926745D01*
X155668722Y-96016264D01*
X155615648Y-96100840D01*
X155546287Y-96173927D01*
X155458601Y-96238000D01*
X155349683Y-96292967D01*
X155233519Y-96331409D01*
X155100255Y-96355689D01*
X154947155Y-96364240D01*
X154966422Y-96300462D01*
X154995775Y-96229601D01*
X155031389Y-96161152D01*
X155069399Y-96102229D01*
X155019711Y-96108213D01*
X154967565Y-96110564D01*
X154891286Y-96105093D01*
X154807067Y-96087803D01*
X154838747Y-96000502D01*
X154959123Y-96000502D01*
X154984555Y-96002318D01*
X155011162Y-96002959D01*
X155128490Y-95996975D01*
X155266014Y-95981374D01*
X155181705Y-96113556D01*
X155108188Y-96245737D01*
X155244731Y-96217943D01*
X155361330Y-96170403D01*
X155461831Y-96103140D01*
X155535078Y-96023903D01*
X155570273Y-95962851D01*
X155591040Y-95898923D01*
X155598017Y-95830814D01*
X155593849Y-95774714D01*
X155589424Y-95751797D01*
X155519691Y-95740841D01*
X155411766Y-95710921D01*
X155385228Y-95698843D01*
X155350458Y-95709496D01*
X155257252Y-95750885D01*
X155167032Y-95803025D01*
X155083611Y-95864046D01*
X155010667Y-95932780D01*
X154959123Y-96000502D01*
X154838747Y-96000502D01*
X154845631Y-95981533D01*
X154906487Y-95883693D01*
X154991928Y-95792773D01*
X155092043Y-95716657D01*
X155202811Y-95656509D01*
X155325640Y-95611972D01*
X155316324Y-95539735D01*
X155293156Y-95471243D01*
X155256713Y-95410398D01*
X155232963Y-95387147D01*
X155235560Y-95403068D01*
X155223612Y-95454250D01*
X155187368Y-95494217D01*
X155136983Y-95519753D01*
X155083824Y-95528090D01*
X155049521Y-95524249D01*
X155016825Y-95512703D01*
X154988403Y-95493410D01*
X154966282Y-95466220D01*
X154941446Y-95522914D01*
X154900459Y-95561109D01*
X154849071Y-95584054D01*
X154797450Y-95591456D01*
X154742621Y-95583293D01*
X154695509Y-95559292D01*
X154662692Y-95520891D01*
X154659791Y-95507349D01*
X154649345Y-95509097D01*
X154457540Y-95519755D01*
X154319421Y-95513552D01*
X154050738Y-95601500D01*
X153999233Y-95893111D01*
X154029153Y-96190706D01*
X153902422Y-96202674D01*
X153872502Y-95888623D01*
X153938219Y-95505009D01*
X153968803Y-95495644D01*
X154729767Y-95495644D01*
X154740281Y-95507894D01*
X154763207Y-95519089D01*
X154796274Y-95523282D01*
X154839961Y-95515014D01*
X154875241Y-95490584D01*
X154893650Y-95463171D01*
X154841795Y-95476906D01*
X154729767Y-95495644D01*
X153968803Y-95495644D01*
X154045618Y-95472123D01*
X153954995Y-95450085D01*
X153924859Y-95439357D01*
X153727391Y-95568375D01*
X153619680Y-95873022D01*
X153619680Y-96079468D01*
X153491666Y-96077118D01*
X153491666Y-95847804D01*
X153620962Y-95486203D01*
X153708131Y-95429528D01*
X155020677Y-95429528D01*
X155033495Y-95443460D01*
X155055894Y-95456019D01*
X155081687Y-95460236D01*
X155115263Y-95455601D01*
X155142275Y-95442391D01*
X155161623Y-95422677D01*
X155167279Y-95403068D01*
X155161719Y-95380599D01*
X155030397Y-95426954D01*
X155020677Y-95429528D01*
X153708131Y-95429528D01*
X153778225Y-95383955D01*
X153667782Y-95330264D01*
X153657596Y-95323729D01*
X153519449Y-95477868D01*
X153300821Y-95853467D01*
X153189691Y-95789995D01*
X153414195Y-95402855D01*
X153548969Y-95254037D01*
X153548086Y-95253470D01*
X153498777Y-95211610D01*
X153116815Y-95387040D01*
X153063173Y-95270994D01*
X153400850Y-95116315D01*
X153354208Y-95062353D01*
X153287678Y-94953845D01*
X153130826Y-94900052D01*
X153041481Y-94855644D01*
X152994492Y-94819428D01*
X152971672Y-94788968D01*
X152965079Y-94762145D01*
X152972614Y-94726579D01*
X152994998Y-94698993D01*
X152917501Y-94643466D01*
X152861535Y-94594915D01*
X152821955Y-94543444D01*
X152810808Y-94499813D01*
X152919558Y-94499813D01*
X152924974Y-94511808D01*
X152951829Y-94539563D01*
X153035497Y-94603249D01*
X153144277Y-94668645D01*
X153084544Y-94705618D01*
X153064866Y-94725792D01*
X153059540Y-94742590D01*
X153065975Y-94756468D01*
X153093520Y-94775929D01*
X153178364Y-94810550D01*
X153281159Y-94840363D01*
X153369102Y-94861735D01*
X153431198Y-94967746D01*
X153510558Y-95063895D01*
X153608674Y-95150994D01*
X153718433Y-95223985D01*
X153843115Y-95285898D01*
X153984487Y-95336390D01*
X154130786Y-95371583D01*
X154288057Y-95393274D01*
X154457540Y-95400718D01*
X154526867Y-95397066D01*
X154552749Y-95315019D01*
X154565358Y-95198332D01*
X154555428Y-95093698D01*
X154525287Y-94989962D01*
X154476524Y-94893150D01*
X154590489Y-94893150D01*
X154620282Y-94951708D01*
X154655313Y-95072901D01*
X154666978Y-95198225D01*
X154653194Y-95335856D01*
X154639284Y-95391145D01*
X154645068Y-95390841D01*
X154835704Y-95360860D01*
X154907974Y-95341892D01*
X154929248Y-95274084D01*
X154941171Y-95157833D01*
X154931101Y-95053474D01*
X154900673Y-94951280D01*
X154851141Y-94855538D01*
X154802389Y-94793458D01*
X154676760Y-94845305D01*
X154590489Y-94893150D01*
X154476524Y-94893150D01*
X154476287Y-94892679D01*
X154419688Y-94818733D01*
X154334017Y-94744611D01*
X154226196Y-94681896D01*
X154108345Y-94638886D01*
X153969846Y-94611492D01*
X153806999Y-94601753D01*
X153620428Y-94611370D01*
X153430224Y-94637657D01*
X153366156Y-94611549D01*
X153295158Y-94570124D01*
X153224703Y-94517797D01*
X153143208Y-94445957D01*
X152965079Y-94262271D01*
X152961446Y-94258745D01*
X152956637Y-94257463D01*
X152949478Y-94265904D01*
X152964972Y-94311318D01*
X153005043Y-94392101D01*
X153054731Y-94472885D01*
X152961446Y-94480258D01*
X152926529Y-94490622D01*
X152919558Y-94499813D01*
X152810808Y-94499813D01*
X152810671Y-94499278D01*
X152816997Y-94467137D01*
X152835783Y-94441255D01*
X152863934Y-94423091D01*
X152900431Y-94413473D01*
X152858543Y-94327240D01*
X152848765Y-94285112D01*
X152845400Y-94238656D01*
X152851847Y-94199962D01*
X152870511Y-94169092D01*
X152898672Y-94148069D01*
X152932701Y-94141096D01*
X152963201Y-94146723D01*
X152997242Y-94165352D01*
X153094268Y-94253509D01*
X153219506Y-94368733D01*
X153309621Y-94288523D01*
X153443581Y-94190891D01*
X153585045Y-94110780D01*
X153736367Y-94048131D01*
X153897704Y-94002657D01*
X154084077Y-93970554D01*
X154282396Y-93952980D01*
X154520906Y-93946618D01*
X154780139Y-93943091D01*
X154956452Y-93929948D01*
X155084252Y-93903020D01*
X155196023Y-93858141D01*
X155244429Y-93952602D01*
G37*
D11*
G36*
X149993990Y-101932298D02*
G01*
X149978236Y-101932298D01*
X149963190Y-101930850D01*
X149950531Y-101926576D01*
X149941178Y-101920323D01*
X149933962Y-101911898D01*
X149926284Y-101889142D01*
X149925755Y-101879771D01*
X149925755Y-101442973D01*
X149927203Y-101427925D01*
X149931479Y-101415260D01*
X149937734Y-101405904D01*
X149946164Y-101398685D01*
X149968924Y-101391015D01*
X149978236Y-101390491D01*
X150030718Y-101390491D01*
X150045768Y-101391939D01*
X150058434Y-101396212D01*
X150067802Y-101402465D01*
X150075030Y-101410890D01*
X150082716Y-101433630D01*
X150083246Y-101442973D01*
X150083246Y-101533282D01*
X150078574Y-101611035D01*
X150072713Y-101661372D01*
X150128033Y-101608666D01*
X150186148Y-101558707D01*
X150231609Y-101523981D01*
X150277869Y-101493052D01*
X150316505Y-101471008D01*
X150355250Y-101452760D01*
X150388483Y-101440524D01*
X150421525Y-101431834D01*
X150474660Y-101426166D01*
X150504354Y-101427613D01*
X150532508Y-101431879D01*
X150558829Y-101438784D01*
X150583470Y-101448244D01*
X150606265Y-101460099D01*
X150627229Y-101474273D01*
X150663404Y-101509228D01*
X150691425Y-101552578D01*
X150710464Y-101603859D01*
X150719464Y-101662515D01*
X150720032Y-101682392D01*
X150718565Y-101718034D01*
X150714152Y-101751130D01*
X150707290Y-101780313D01*
X150697791Y-101807882D01*
X150670901Y-101859335D01*
X150637051Y-101903905D01*
X150625507Y-101913884D01*
X150613748Y-101920024D01*
X150603010Y-101922334D01*
X150592249Y-101921619D01*
X150570915Y-101911302D01*
X150562542Y-101903905D01*
X150535339Y-101876611D01*
X150525528Y-101864203D01*
X150519736Y-101851731D01*
X150517942Y-101840752D01*
X150519160Y-101829632D01*
X150530750Y-101806518D01*
X150534286Y-101802056D01*
X150551217Y-101779425D01*
X150564254Y-101755081D01*
X150570621Y-101736025D01*
X150573804Y-101715727D01*
X150574082Y-101707580D01*
X150572626Y-101687288D01*
X150568292Y-101668950D01*
X150561664Y-101653643D01*
X150552598Y-101640265D01*
X150541564Y-101629267D01*
X150528336Y-101620259D01*
X150495049Y-101608502D01*
X150464173Y-101605730D01*
X150421464Y-101611468D01*
X150372412Y-101630030D01*
X150313857Y-101664892D01*
X150241493Y-101721699D01*
X150148183Y-101809659D01*
X150059066Y-101902897D01*
X150045312Y-101915923D01*
X150030845Y-101924929D01*
X150002115Y-101932029D01*
X149993990Y-101932298D01*
G37*
G36*
X153600187Y-101359557D02*
G01*
X153648072Y-101363836D01*
X153690983Y-101370564D01*
X153730598Y-101379749D01*
X153765678Y-101390849D01*
X153797696Y-101404069D01*
X153825712Y-101418770D01*
X153850874Y-101435299D01*
X153872598Y-101453048D01*
X153891627Y-101472386D01*
X153907719Y-101492897D01*
X153921205Y-101514818D01*
X153940361Y-101562625D01*
X153949165Y-101616239D01*
X153949709Y-101634255D01*
X153948243Y-101663705D01*
X153943840Y-101691912D01*
X153936810Y-101717854D01*
X153927041Y-101742494D01*
X153914840Y-101765248D01*
X153900014Y-101786622D01*
X153862709Y-101824756D01*
X153814383Y-101856945D01*
X153753804Y-101882707D01*
X153679486Y-101901035D01*
X153589903Y-101910492D01*
X153548770Y-101911410D01*
X153497307Y-101909961D01*
X153449202Y-101905685D01*
X153405761Y-101898931D01*
X153365523Y-101889706D01*
X153329677Y-101878524D01*
X153296862Y-101865205D01*
X153268043Y-101850380D01*
X153242089Y-101833714D01*
X153219657Y-101815853D01*
X153199955Y-101796402D01*
X153183316Y-101775873D01*
X153169324Y-101753952D01*
X153149438Y-101706529D01*
X153140132Y-101653892D01*
X153139449Y-101634255D01*
X153284392Y-101634255D01*
X153285966Y-101650362D01*
X153291121Y-101665659D01*
X153298592Y-101677605D01*
X153309354Y-101688742D01*
X153341232Y-101707704D01*
X153392971Y-101722954D01*
X153473580Y-101732853D01*
X153548770Y-101735051D01*
X153609920Y-101733625D01*
X153661002Y-101729501D01*
X153699556Y-101723579D01*
X153731037Y-101715781D01*
X153754129Y-101707179D01*
X153772335Y-101697299D01*
X153785323Y-101687061D01*
X153794875Y-101675942D01*
X153805204Y-101651567D01*
X153806873Y-101634255D01*
X153805269Y-101617283D01*
X153799904Y-101601284D01*
X153792416Y-101589420D01*
X153781618Y-101578418D01*
X153749807Y-101559997D01*
X153697824Y-101545377D01*
X153615827Y-101536170D01*
X153548770Y-101534467D01*
X153486495Y-101535894D01*
X153434308Y-101540025D01*
X153394784Y-101545968D01*
X153362410Y-101553802D01*
X153338629Y-101562441D01*
X153319823Y-101572375D01*
X153306444Y-101582619D01*
X153296579Y-101593757D01*
X153286021Y-101617900D01*
X153284392Y-101634255D01*
X153139449Y-101634255D01*
X153140912Y-101605686D01*
X153145290Y-101578303D01*
X153152326Y-101552884D01*
X153162089Y-101528720D01*
X153174369Y-101506186D01*
X153189271Y-101484997D01*
X153226978Y-101446825D01*
X153275967Y-101414313D01*
X153337389Y-101388081D01*
X153412532Y-101369236D01*
X153502608Y-101359256D01*
X153548770Y-101358108D01*
X153600187Y-101359557D01*
G37*
G36*
X151664913Y-101872575D02*
G01*
X151618705Y-101872575D01*
X151603674Y-101871127D01*
X151591020Y-101866855D01*
X151581658Y-101860599D01*
X151574434Y-101852171D01*
X151566751Y-101829421D01*
X151566223Y-101820093D01*
X151566223Y-101431564D01*
X151567671Y-101416533D01*
X151571944Y-101403879D01*
X151578199Y-101394517D01*
X151586627Y-101387292D01*
X151609378Y-101379610D01*
X151618705Y-101379082D01*
X151664913Y-101379082D01*
X151679962Y-101380530D01*
X151692629Y-101384803D01*
X151701997Y-101391056D01*
X151709225Y-101399482D01*
X151716911Y-101422221D01*
X151717440Y-101431564D01*
X151717440Y-101519766D01*
X152297303Y-101519766D01*
X152312353Y-101521214D01*
X152325020Y-101525488D01*
X152334384Y-101531743D01*
X152341611Y-101540170D01*
X152349300Y-101562922D01*
X152349831Y-101572294D01*
X152349831Y-101622669D01*
X152348307Y-101643989D01*
X152343503Y-101663160D01*
X152331971Y-101687790D01*
X152312851Y-101728636D01*
X152296886Y-101773287D01*
X152288923Y-101803286D01*
X152282971Y-101819755D01*
X152274739Y-101832709D01*
X152265922Y-101840878D01*
X152255254Y-101846566D01*
X152231175Y-101850547D01*
X152215421Y-101850547D01*
X152200374Y-101849099D01*
X152187716Y-101844826D01*
X152178362Y-101838573D01*
X152171146Y-101830148D01*
X152163469Y-101807391D01*
X152162939Y-101798020D01*
X152162939Y-101706704D01*
X151717440Y-101706704D01*
X151717440Y-101820093D01*
X151715992Y-101835124D01*
X151711718Y-101847778D01*
X151705462Y-101857138D01*
X151697032Y-101864361D01*
X151674269Y-101872046D01*
X151664913Y-101872575D01*
G37*
D15*
G36*
X155008965Y-92778443D02*
G01*
X155096307Y-92807557D01*
X155108665Y-92815373D01*
X155166893Y-92873600D01*
X155201575Y-92939644D01*
X155204946Y-92953077D01*
X155204946Y-93040369D01*
X155201819Y-93053803D01*
X155172950Y-93111981D01*
X155162936Y-93125415D01*
X155376795Y-93125415D01*
X155389105Y-93127662D01*
X155399217Y-93134354D01*
X155405909Y-93144466D01*
X155408156Y-93184717D01*
X155405909Y-93197027D01*
X155399217Y-93207138D01*
X155389154Y-93213831D01*
X155376844Y-93216078D01*
X154768191Y-93216078D01*
X154755930Y-93213831D01*
X154745818Y-93207138D01*
X154739126Y-93197027D01*
X154736879Y-93184717D01*
X154739126Y-93144466D01*
X154745623Y-93134354D01*
X154755344Y-93127662D01*
X154778009Y-93125415D01*
X154768044Y-93111981D01*
X154739321Y-93053803D01*
X154736000Y-93040369D01*
X154736000Y-92960893D01*
X154826662Y-92960893D01*
X154826662Y-93032505D01*
X154872922Y-93125415D01*
X155068023Y-93125415D01*
X155114283Y-93032505D01*
X155114283Y-92960893D01*
X155090591Y-92913900D01*
X155070270Y-92893726D01*
X154994702Y-92869106D01*
X154946244Y-92869106D01*
X154870675Y-92893726D01*
X154850354Y-92913900D01*
X154826662Y-92960893D01*
X154736000Y-92960893D01*
X154736000Y-92953077D01*
X154739126Y-92939644D01*
X154773857Y-92873600D01*
X154832085Y-92815373D01*
X154844394Y-92807557D01*
X154940675Y-92777320D01*
X155008965Y-92778443D01*
G37*
G36*
X155405909Y-92617536D02*
G01*
X155408156Y-92576113D01*
X155405909Y-92563803D01*
X155370103Y-92524626D01*
X155360040Y-92517934D01*
X155318616Y-92515687D01*
X155306307Y-92517934D01*
X155296244Y-92524626D01*
X155260438Y-92563803D01*
X155258191Y-92605226D01*
X155260438Y-92617536D01*
X155296244Y-92656713D01*
X155306307Y-92663454D01*
X155347730Y-92665652D01*
X155360040Y-92663454D01*
X155370103Y-92656713D01*
X155405909Y-92617536D01*
G37*
G36*
X155184820Y-92634340D02*
G01*
X155194883Y-92627648D01*
X155202699Y-92617536D01*
X155204946Y-92576161D01*
X155202699Y-92563852D01*
X155194883Y-92553740D01*
X155184820Y-92547048D01*
X155173585Y-92544801D01*
X154767360Y-92544801D01*
X154755002Y-92547048D01*
X154744939Y-92553740D01*
X154738247Y-92563852D01*
X154736000Y-92576161D01*
X154738247Y-92617536D01*
X154744939Y-92627648D01*
X154755002Y-92634340D01*
X154767360Y-92636587D01*
X155173585Y-92636587D01*
X155184820Y-92634340D01*
G37*
G36*
X155183843Y-92429909D02*
G01*
X155193955Y-92423217D01*
X155201819Y-92412030D01*
X155204066Y-92344863D01*
X155376600Y-92344863D01*
X155389007Y-92342616D01*
X155399119Y-92335924D01*
X155405909Y-92325812D01*
X155408156Y-92313503D01*
X155408156Y-92284438D01*
X155405030Y-92272128D01*
X155398337Y-92262016D01*
X155388274Y-92255324D01*
X155375965Y-92253077D01*
X155204946Y-92253077D01*
X155204946Y-92197145D01*
X155201819Y-92185910D01*
X155193955Y-92175847D01*
X155183843Y-92169155D01*
X155172657Y-92165785D01*
X155143445Y-92165785D01*
X155131136Y-92169155D01*
X155121024Y-92175847D01*
X155114283Y-92185910D01*
X155112036Y-92253077D01*
X154767263Y-92253077D01*
X154754953Y-92255324D01*
X154744939Y-92262016D01*
X154738247Y-92272128D01*
X154736000Y-92313503D01*
X154738247Y-92325812D01*
X154744939Y-92335924D01*
X154754953Y-92342616D01*
X154767263Y-92344863D01*
X155112036Y-92344863D01*
X155112036Y-92400844D01*
X155114283Y-92412030D01*
X155121024Y-92423217D01*
X155131136Y-92429909D01*
X155143445Y-92432156D01*
X155172657Y-92432156D01*
X155183843Y-92429909D01*
G37*
G36*
X155008965Y-91617801D02*
G01*
X155096307Y-91646915D01*
X155108665Y-91654731D01*
X155166893Y-91712958D01*
X155201575Y-91779002D01*
X155204946Y-91792435D01*
X155204946Y-91879727D01*
X155201819Y-91893161D01*
X155172950Y-91951339D01*
X155162936Y-91964773D01*
X155376795Y-91964773D01*
X155389105Y-91967020D01*
X155399217Y-91973712D01*
X155405909Y-91983824D01*
X155408156Y-92024075D01*
X155405909Y-92036385D01*
X155399217Y-92046496D01*
X155389154Y-92053189D01*
X155376844Y-92055436D01*
X154768191Y-92055436D01*
X154755930Y-92053189D01*
X154745818Y-92046496D01*
X154739126Y-92036385D01*
X154736879Y-92024075D01*
X154739126Y-91983824D01*
X154745623Y-91973712D01*
X154755344Y-91967020D01*
X154778009Y-91964773D01*
X154768044Y-91951339D01*
X154739321Y-91893161D01*
X154736000Y-91879727D01*
X154736000Y-91800251D01*
X154826662Y-91800251D01*
X154826662Y-91871863D01*
X154872922Y-91964773D01*
X155068023Y-91964773D01*
X155114283Y-91871863D01*
X155114283Y-91800251D01*
X155090591Y-91753258D01*
X155070270Y-91733084D01*
X154994702Y-91708464D01*
X154946244Y-91708464D01*
X154870675Y-91733084D01*
X154850354Y-91753258D01*
X154826662Y-91800251D01*
X154736000Y-91800251D01*
X154736000Y-91792435D01*
X154739126Y-91779002D01*
X154773857Y-91712958D01*
X154832085Y-91654731D01*
X154844394Y-91646915D01*
X154940675Y-91616678D01*
X155008965Y-91617801D01*
G37*
G36*
X155184820Y-91474822D02*
G01*
X155194883Y-91468129D01*
X155202699Y-91458018D01*
X155204946Y-91445708D01*
X155202699Y-91405457D01*
X155194834Y-91395345D01*
X155184722Y-91388653D01*
X155173536Y-91386406D01*
X154889531Y-91386406D01*
X154848009Y-91365157D01*
X154826662Y-91322609D01*
X154826662Y-91280062D01*
X154851282Y-91229699D01*
X154899447Y-91158087D01*
X155172706Y-91158087D01*
X155183892Y-91155840D01*
X155194004Y-91149148D01*
X155201819Y-91139036D01*
X155204946Y-91126727D01*
X155204946Y-91098785D01*
X155202699Y-91086475D01*
X155194883Y-91076364D01*
X155184820Y-91069672D01*
X155173683Y-91067424D01*
X154768191Y-91067424D01*
X154755881Y-91069672D01*
X154745818Y-91076364D01*
X154739126Y-91086475D01*
X154736000Y-91098785D01*
X154736000Y-91126727D01*
X154738198Y-91139036D01*
X154744841Y-91149148D01*
X154754806Y-91155840D01*
X154766969Y-91158087D01*
X154806781Y-91158087D01*
X154767946Y-91200635D01*
X154739126Y-91257690D01*
X154736000Y-91272247D01*
X154736000Y-91359539D01*
X154739370Y-91372972D01*
X154776300Y-91441263D01*
X154786362Y-91446831D01*
X154883718Y-91477069D01*
X155173585Y-91477069D01*
X155184820Y-91474822D01*
G37*
G36*
X155405909Y-90878527D02*
G01*
X155408156Y-90837103D01*
X155405909Y-90824794D01*
X155370103Y-90785617D01*
X155360040Y-90778925D01*
X155318616Y-90776678D01*
X155306307Y-90778925D01*
X155296244Y-90785617D01*
X155260438Y-90824794D01*
X155258191Y-90866217D01*
X155260438Y-90878527D01*
X155296244Y-90917704D01*
X155306307Y-90924445D01*
X155347730Y-90926643D01*
X155360040Y-90924445D01*
X155370103Y-90917704D01*
X155405909Y-90878527D01*
G37*
G36*
X155184820Y-90895331D02*
G01*
X155194883Y-90888639D01*
X155202699Y-90878527D01*
X155204946Y-90837152D01*
X155202699Y-90824842D01*
X155194883Y-90814731D01*
X155184820Y-90808039D01*
X155173585Y-90805792D01*
X154767360Y-90805792D01*
X154755002Y-90808039D01*
X154744939Y-90814731D01*
X154738247Y-90824842D01*
X154736000Y-90837152D01*
X154738247Y-90878527D01*
X154744939Y-90888639D01*
X154755002Y-90895331D01*
X154767360Y-90897578D01*
X155173585Y-90897578D01*
X155184820Y-90895331D01*
G37*
G36*
X155389105Y-90632721D02*
G01*
X155399217Y-90626029D01*
X155405909Y-90615917D01*
X155408156Y-90574542D01*
X155405909Y-90562233D01*
X155399217Y-90552121D01*
X155389105Y-90545429D01*
X155376795Y-90543182D01*
X154767360Y-90543182D01*
X154755050Y-90545429D01*
X154744939Y-90552121D01*
X154738247Y-90562233D01*
X154736000Y-90574542D01*
X154738247Y-90615917D01*
X154744939Y-90626029D01*
X154755050Y-90632721D01*
X154767360Y-90634968D01*
X155376795Y-90634968D01*
X155389105Y-90632721D01*
G37*
G36*
X155183843Y-90428290D02*
G01*
X155193955Y-90421598D01*
X155201819Y-90410411D01*
X155204066Y-90343244D01*
X155376600Y-90343244D01*
X155389007Y-90340997D01*
X155399119Y-90334305D01*
X155405909Y-90324193D01*
X155408156Y-90311884D01*
X155408156Y-90282819D01*
X155405030Y-90270509D01*
X155398337Y-90260397D01*
X155388274Y-90253705D01*
X155375965Y-90251458D01*
X155204946Y-90251458D01*
X155204946Y-90195526D01*
X155201819Y-90184291D01*
X155193955Y-90174228D01*
X155183843Y-90167536D01*
X155172657Y-90164166D01*
X155143445Y-90164166D01*
X155131136Y-90167536D01*
X155121024Y-90174228D01*
X155114283Y-90184291D01*
X155112036Y-90251458D01*
X154767263Y-90251458D01*
X154754953Y-90253705D01*
X154744939Y-90260397D01*
X154738247Y-90270509D01*
X154736000Y-90311884D01*
X154738247Y-90324193D01*
X154744939Y-90334305D01*
X154754953Y-90340997D01*
X154767263Y-90343244D01*
X155112036Y-90343244D01*
X155112036Y-90399225D01*
X155114283Y-90410411D01*
X155121024Y-90421598D01*
X155131136Y-90428290D01*
X155143445Y-90430537D01*
X155172657Y-90430537D01*
X155183843Y-90428290D01*
G37*
G36*
X154886062Y-90004528D02*
G01*
X154889189Y-89963154D01*
X154886942Y-89950844D01*
X154850549Y-89911618D01*
X154840340Y-89904926D01*
X154798233Y-89902679D01*
X154785727Y-89904926D01*
X154775518Y-89911618D01*
X154739126Y-89950844D01*
X154736879Y-89992219D01*
X154739126Y-90004528D01*
X154745916Y-90014640D01*
X154785483Y-90050446D01*
X154827297Y-90052693D01*
X154839705Y-90050446D01*
X154849914Y-90043754D01*
X154886062Y-90004528D01*
G37*
G36*
X155183941Y-89731905D02*
G01*
X155194004Y-89725212D01*
X155201819Y-89715101D01*
X155204066Y-89674849D01*
X155201819Y-89662540D01*
X155194199Y-89652428D01*
X155184381Y-89645736D01*
X155134164Y-89643489D01*
X155172999Y-89600942D01*
X155201819Y-89543886D01*
X155204946Y-89529330D01*
X155204946Y-89442037D01*
X155201575Y-89428604D01*
X155164646Y-89360314D01*
X155154583Y-89354745D01*
X155057228Y-89324508D01*
X154767360Y-89324508D01*
X154755002Y-89326755D01*
X154744939Y-89333447D01*
X154738247Y-89343558D01*
X154736000Y-89355868D01*
X154736000Y-89383810D01*
X154739126Y-89396120D01*
X154745867Y-89406231D01*
X154755930Y-89412923D01*
X154768240Y-89415170D01*
X155050438Y-89415170D01*
X155092985Y-89436420D01*
X155114283Y-89478967D01*
X155114283Y-89521514D01*
X155089712Y-89571877D01*
X155041596Y-89643489D01*
X154768875Y-89643489D01*
X154756565Y-89645736D01*
X154745378Y-89654675D01*
X154736000Y-89674849D01*
X154736000Y-89702791D01*
X154738247Y-89715101D01*
X154744939Y-89725212D01*
X154755002Y-89731905D01*
X154767263Y-89734152D01*
X155172755Y-89734152D01*
X155183941Y-89731905D01*
G37*
G36*
X155072078Y-88777452D02*
G01*
X155129035Y-88805443D01*
X155172559Y-88849113D01*
X155201575Y-88907292D01*
X155204946Y-88920725D01*
X155204946Y-89008018D01*
X155201819Y-89021451D01*
X155167088Y-89088618D01*
X155108861Y-89145673D01*
X155096551Y-89153538D01*
X155009210Y-89182602D01*
X154931980Y-89182602D01*
X154844639Y-89153538D01*
X154832280Y-89145673D01*
X154768484Y-89079678D01*
X154739370Y-89021451D01*
X154736000Y-89008018D01*
X154736000Y-88920725D01*
X154739126Y-88907292D01*
X154773466Y-88841249D01*
X154831108Y-88783070D01*
X154841219Y-88776329D01*
X154853529Y-88774131D01*
X154864715Y-88776329D01*
X154875902Y-88783070D01*
X154910584Y-88821123D01*
X154911708Y-88844619D01*
X154896027Y-88862547D01*
X154847912Y-88886043D01*
X154826662Y-88928541D01*
X154826662Y-89000202D01*
X154850549Y-89047194D01*
X154871017Y-89067369D01*
X154939210Y-89089741D01*
X154939210Y-89080753D01*
X155029872Y-89080753D01*
X155069782Y-89067369D01*
X155090347Y-89047194D01*
X155114283Y-89000202D01*
X155114283Y-88928541D01*
X155092594Y-88886043D01*
X155049265Y-88864745D01*
X155029872Y-88864745D01*
X155029872Y-89080753D01*
X154939210Y-89080753D01*
X154939210Y-88805443D01*
X154941457Y-88793133D01*
X154949272Y-88783070D01*
X154959286Y-88776329D01*
X154970473Y-88774131D01*
X155057570Y-88774131D01*
X155072078Y-88777452D01*
G37*
G36*
X155183843Y-88689281D02*
G01*
X155193955Y-88682588D01*
X155201819Y-88671402D01*
X155204066Y-88604235D01*
X155376600Y-88604235D01*
X155389007Y-88601988D01*
X155399119Y-88595296D01*
X155405909Y-88585184D01*
X155408156Y-88572875D01*
X155408156Y-88543810D01*
X155405030Y-88531500D01*
X155398337Y-88521388D01*
X155388274Y-88514696D01*
X155375965Y-88512449D01*
X155204946Y-88512449D01*
X155204946Y-88456517D01*
X155201819Y-88445282D01*
X155193955Y-88435219D01*
X155183843Y-88428527D01*
X155172657Y-88425157D01*
X155143445Y-88425157D01*
X155131136Y-88428527D01*
X155121024Y-88435219D01*
X155114283Y-88445282D01*
X155112036Y-88512449D01*
X154767263Y-88512449D01*
X154754953Y-88514696D01*
X154744939Y-88521388D01*
X154738247Y-88531500D01*
X154736000Y-88572875D01*
X154738247Y-88585184D01*
X154744939Y-88595296D01*
X154754953Y-88601988D01*
X154767263Y-88604235D01*
X155112036Y-88604235D01*
X155112036Y-88660216D01*
X155114283Y-88671402D01*
X155121024Y-88682588D01*
X155131136Y-88689281D01*
X155143445Y-88691528D01*
X155172657Y-88691528D01*
X155183843Y-88689281D01*
G37*
G36*
X148363778Y-95495411D02*
G01*
X148176736Y-95191604D01*
X148172191Y-95181949D01*
X148171434Y-95173379D01*
X148173890Y-95166598D01*
X148179198Y-95160919D01*
X148197138Y-95153378D01*
X148221531Y-95151029D01*
X148267448Y-95151029D01*
X148284579Y-95152015D01*
X148299155Y-95155013D01*
X148309922Y-95159350D01*
X148318848Y-95165322D01*
X148330170Y-95179727D01*
X148386199Y-95287530D01*
X148446674Y-95396707D01*
X148451119Y-95396707D01*
X148511642Y-95287530D01*
X148567623Y-95179727D01*
X148574380Y-95169783D01*
X148583365Y-95162007D01*
X148593230Y-95156896D01*
X148604963Y-95153395D01*
X148630344Y-95151029D01*
X148676262Y-95151029D01*
X148692548Y-95151984D01*
X148705903Y-95154759D01*
X148715289Y-95158733D01*
X148721940Y-95163992D01*
X148726467Y-95177196D01*
X148721056Y-95191604D01*
X148534015Y-95495411D01*
X148526793Y-95504810D01*
X148517508Y-95512145D01*
X148507172Y-95517127D01*
X148495101Y-95520498D01*
X148470170Y-95522705D01*
X148427623Y-95522705D01*
X148410265Y-95521712D01*
X148395251Y-95518669D01*
X148384071Y-95514264D01*
X148374678Y-95508162D01*
X148363778Y-95495411D01*
G37*
D16*
X148450000Y-95450000D02*
X148450000Y-94850000D01*
D17*
X143500000Y-82950000D02*
X148500000Y-82950000D01*
X142900000Y-84950000D02*
X143500000Y-84950000D01*
X142900000Y-84950000D02*
X142900000Y-87325000D01*
X143500000Y-84950000D02*
X143500000Y-82950000D01*
X148500000Y-84950000D02*
X148500000Y-82950000D01*
X148500000Y-84950000D02*
X149100000Y-84950000D01*
X142900000Y-88975000D02*
X142900000Y-90325000D01*
X142900000Y-91975000D02*
X142900000Y-94375000D01*
X149100000Y-95475000D02*
X149100000Y-84950000D01*
X142900000Y-95925000D02*
X142900000Y-97050000D01*
X149100000Y-97050000D02*
X142900000Y-97050000D01*
X153187836Y-93115411D02*
X152972164Y-93115411D01*
X153187836Y-93835411D02*
X152972164Y-93835411D01*
X150076682Y-92343604D02*
X150292354Y-92343604D01*
X150076682Y-93063604D02*
X150292354Y-93063604D01*
X151390000Y-89465580D02*
X151390000Y-89184420D01*
X152410000Y-89465580D02*
X152410000Y-89184420D01*
X153165580Y-97090000D02*
X152884420Y-97090000D01*
X153165580Y-98110000D02*
X152884420Y-98110000D01*
X153187836Y-91615000D02*
X152972164Y-91615000D01*
X153187836Y-92335000D02*
X152972164Y-92335000D01*
M02*
