%TF.GenerationSoftware,KiCad,Pcbnew,9.0.0-rc2-6-ga1fa0bdb0b*%
%TF.CreationDate,2025-02-01T23:33:01-05:00*%
%TF.ProjectId,scampi,7363616d-7069-42e6-9b69-6361645f7063,rev?*%
%TF.SameCoordinates,Original*%
%TF.FileFunction,Soldermask,Bot*%
%TF.FilePolarity,Negative*%
%FSLAX46Y46*%
G04 Gerber Fmt 4.6, Leading zero omitted, Abs format (unit mm)*
G04 Created by KiCad (PCBNEW 9.0.0-rc2-6-ga1fa0bdb0b) date 2025-02-01 23:33:01*
%MOMM*%
%LPD*%
G01*
G04 APERTURE LIST*
G04 APERTURE END LIST*
G36*
G01*
X143700000Y-104290000D02*
X143700000Y-103310000D01*
G75*
G02*
X143910000Y-103100000I210000J0D01*
G01*
X144890000Y-103100000D01*
G75*
G02*
X145100000Y-103310000I0J-210000D01*
G01*
X145100000Y-104290000D01*
G75*
G02*
X144890000Y-104500000I-210000J0D01*
G01*
X143910000Y-104500000D01*
G75*
G02*
X143700000Y-104290000I0J210000D01*
G01*
G37*
G36*
G01*
X156100000Y-91290000D02*
X156100000Y-90310000D01*
G75*
G02*
X156310000Y-90100000I210000J0D01*
G01*
X157290000Y-90100000D01*
G75*
G02*
X157500000Y-90310000I0J-210000D01*
G01*
X157500000Y-91290000D01*
G75*
G02*
X157290000Y-91500000I-210000J0D01*
G01*
X156310000Y-91500000D01*
G75*
G02*
X156100000Y-91290000I0J210000D01*
G01*
G37*
G36*
G01*
X144500000Y-86690000D02*
X144500000Y-85710000D01*
G75*
G02*
X144710000Y-85500000I210000J0D01*
G01*
X145690000Y-85500000D01*
G75*
G02*
X145900000Y-85710000I0J-210000D01*
G01*
X145900000Y-86690000D01*
G75*
G02*
X145690000Y-86900000I-210000J0D01*
G01*
X144710000Y-86900000D01*
G75*
G02*
X144500000Y-86690000I0J210000D01*
G01*
G37*
G36*
G01*
X138500000Y-92690000D02*
X138500000Y-91710000D01*
G75*
G02*
X138710000Y-91500000I210000J0D01*
G01*
X139690000Y-91500000D01*
G75*
G02*
X139900000Y-91710000I0J-210000D01*
G01*
X139900000Y-92690000D01*
G75*
G02*
X139690000Y-92900000I-210000J0D01*
G01*
X138710000Y-92900000D01*
G75*
G02*
X138500000Y-92690000I0J210000D01*
G01*
G37*
G36*
G01*
X156100000Y-93890000D02*
X156100000Y-92910000D01*
G75*
G02*
X156310000Y-92700000I210000J0D01*
G01*
X157290000Y-92700000D01*
G75*
G02*
X157500000Y-92910000I0J-210000D01*
G01*
X157500000Y-93890000D01*
G75*
G02*
X157290000Y-94100000I-210000J0D01*
G01*
X156310000Y-94100000D01*
G75*
G02*
X156100000Y-93890000I0J210000D01*
G01*
G37*
G36*
G01*
X145300000Y-104290000D02*
X145300000Y-103310000D01*
G75*
G02*
X145510000Y-103100000I210000J0D01*
G01*
X146490000Y-103100000D01*
G75*
G02*
X146700000Y-103310000I0J-210000D01*
G01*
X146700000Y-104290000D01*
G75*
G02*
X146490000Y-104500000I-210000J0D01*
G01*
X145510000Y-104500000D01*
G75*
G02*
X145300000Y-104290000I0J210000D01*
G01*
G37*
G36*
G01*
X141300000Y-86690000D02*
X141300000Y-85710000D01*
G75*
G02*
X141510000Y-85500000I210000J0D01*
G01*
X142490000Y-85500000D01*
G75*
G02*
X142700000Y-85710000I0J-210000D01*
G01*
X142700000Y-86690000D01*
G75*
G02*
X142490000Y-86900000I-210000J0D01*
G01*
X141510000Y-86900000D01*
G75*
G02*
X141300000Y-86690000I0J210000D01*
G01*
G37*
G36*
G01*
X156100000Y-89690000D02*
X156100000Y-88710000D01*
G75*
G02*
X156310000Y-88500000I210000J0D01*
G01*
X157290000Y-88500000D01*
G75*
G02*
X157500000Y-88710000I0J-210000D01*
G01*
X157500000Y-89690000D01*
G75*
G02*
X157290000Y-89900000I-210000J0D01*
G01*
X156310000Y-89900000D01*
G75*
G02*
X156100000Y-89690000I0J210000D01*
G01*
G37*
G36*
G01*
X156109832Y-99625239D02*
X156109832Y-98645239D01*
G75*
G02*
X156319832Y-98435239I210000J0D01*
G01*
X157299832Y-98435239D01*
G75*
G02*
X157509832Y-98645239I0J-210000D01*
G01*
X157509832Y-99625239D01*
G75*
G02*
X157299832Y-99835239I-210000J0D01*
G01*
X156319832Y-99835239D01*
G75*
G02*
X156109832Y-99625239I0J210000D01*
G01*
G37*
G36*
G01*
X142100000Y-104290000D02*
X142100000Y-103310000D01*
G75*
G02*
X142310000Y-103100000I210000J0D01*
G01*
X143290000Y-103100000D01*
G75*
G02*
X143500000Y-103310000I0J-210000D01*
G01*
X143500000Y-104290000D01*
G75*
G02*
X143290000Y-104500000I-210000J0D01*
G01*
X142310000Y-104500000D01*
G75*
G02*
X142100000Y-104290000I0J210000D01*
G01*
G37*
G36*
G01*
X146700000Y-86690000D02*
X146700000Y-85710000D01*
G75*
G02*
X146910000Y-85500000I210000J0D01*
G01*
X147890000Y-85500000D01*
G75*
G02*
X148100000Y-85710000I0J-210000D01*
G01*
X148100000Y-86690000D01*
G75*
G02*
X147890000Y-86900000I-210000J0D01*
G01*
X146910000Y-86900000D01*
G75*
G02*
X146700000Y-86690000I0J210000D01*
G01*
G37*
G36*
G01*
X151500000Y-86690000D02*
X151500000Y-85710000D01*
G75*
G02*
X151710000Y-85500000I210000J0D01*
G01*
X152690000Y-85500000D01*
G75*
G02*
X152900000Y-85710000I0J-210000D01*
G01*
X152900000Y-86690000D01*
G75*
G02*
X152690000Y-86900000I-210000J0D01*
G01*
X151710000Y-86900000D01*
G75*
G02*
X151500000Y-86690000I0J210000D01*
G01*
G37*
G36*
G01*
X138500000Y-95890000D02*
X138500000Y-94910000D01*
G75*
G02*
X138710000Y-94700000I210000J0D01*
G01*
X139690000Y-94700000D01*
G75*
G02*
X139900000Y-94910000I0J-210000D01*
G01*
X139900000Y-95890000D01*
G75*
G02*
X139690000Y-96100000I-210000J0D01*
G01*
X138710000Y-96100000D01*
G75*
G02*
X138500000Y-95890000I0J210000D01*
G01*
G37*
G36*
G01*
X138500000Y-101290000D02*
X138500000Y-100310000D01*
G75*
G02*
X138710000Y-100100000I210000J0D01*
G01*
X139690000Y-100100000D01*
G75*
G02*
X139900000Y-100310000I0J-210000D01*
G01*
X139900000Y-101290000D01*
G75*
G02*
X139690000Y-101500000I-210000J0D01*
G01*
X138710000Y-101500000D01*
G75*
G02*
X138500000Y-101290000I0J210000D01*
G01*
G37*
G36*
G01*
X138500000Y-89490000D02*
X138500000Y-88510000D01*
G75*
G02*
X138710000Y-88300000I210000J0D01*
G01*
X139690000Y-88300000D01*
G75*
G02*
X139900000Y-88510000I0J-210000D01*
G01*
X139900000Y-89490000D01*
G75*
G02*
X139690000Y-89700000I-210000J0D01*
G01*
X138710000Y-89700000D01*
G75*
G02*
X138500000Y-89490000I0J210000D01*
G01*
G37*
G36*
G01*
X142900000Y-86690000D02*
X142900000Y-85710000D01*
G75*
G02*
X143110000Y-85500000I210000J0D01*
G01*
X144090000Y-85500000D01*
G75*
G02*
X144300000Y-85710000I0J-210000D01*
G01*
X144300000Y-86690000D01*
G75*
G02*
X144090000Y-86900000I-210000J0D01*
G01*
X143110000Y-86900000D01*
G75*
G02*
X142900000Y-86690000I0J210000D01*
G01*
G37*
G36*
G01*
X138500000Y-94290000D02*
X138500000Y-93310000D01*
G75*
G02*
X138710000Y-93100000I210000J0D01*
G01*
X139690000Y-93100000D01*
G75*
G02*
X139900000Y-93310000I0J-210000D01*
G01*
X139900000Y-94290000D01*
G75*
G02*
X139690000Y-94500000I-210000J0D01*
G01*
X138710000Y-94500000D01*
G75*
G02*
X138500000Y-94290000I0J210000D01*
G01*
G37*
G36*
G01*
X156109832Y-97775239D02*
X156109832Y-96795239D01*
G75*
G02*
X156319832Y-96585239I210000J0D01*
G01*
X157299832Y-96585239D01*
G75*
G02*
X157509832Y-96795239I0J-210000D01*
G01*
X157509832Y-97775239D01*
G75*
G02*
X157299832Y-97985239I-210000J0D01*
G01*
X156319832Y-97985239D01*
G75*
G02*
X156109832Y-97775239I0J210000D01*
G01*
G37*
G36*
G01*
X156100000Y-95490000D02*
X156100000Y-94510000D01*
G75*
G02*
X156310000Y-94300000I210000J0D01*
G01*
X157290000Y-94300000D01*
G75*
G02*
X157500000Y-94510000I0J-210000D01*
G01*
X157500000Y-95490000D01*
G75*
G02*
X157290000Y-95700000I-210000J0D01*
G01*
X156310000Y-95700000D01*
G75*
G02*
X156100000Y-95490000I0J210000D01*
G01*
G37*
G36*
G01*
X138500000Y-91090000D02*
X138500000Y-90110000D01*
G75*
G02*
X138710000Y-89900000I210000J0D01*
G01*
X139690000Y-89900000D01*
G75*
G02*
X139900000Y-90110000I0J-210000D01*
G01*
X139900000Y-91090000D01*
G75*
G02*
X139690000Y-91300000I-210000J0D01*
G01*
X138710000Y-91300000D01*
G75*
G02*
X138500000Y-91090000I0J210000D01*
G01*
G37*
G36*
G01*
X139900000Y-98710000D02*
X139900000Y-99690000D01*
G75*
G02*
X139690000Y-99900000I-210000J0D01*
G01*
X138710000Y-99900000D01*
G75*
G02*
X138500000Y-99690000I0J210000D01*
G01*
X138500000Y-98710000D01*
G75*
G02*
X138710000Y-98500000I210000J0D01*
G01*
X139690000Y-98500000D01*
G75*
G02*
X139900000Y-98710000I0J-210000D01*
G01*
G37*
G36*
G01*
X139900000Y-97110000D02*
X139900000Y-98090000D01*
G75*
G02*
X139690000Y-98300000I-210000J0D01*
G01*
X138710000Y-98300000D01*
G75*
G02*
X138500000Y-98090000I0J210000D01*
G01*
X138500000Y-97110000D01*
G75*
G02*
X138710000Y-96900000I210000J0D01*
G01*
X139690000Y-96900000D01*
G75*
G02*
X139900000Y-97110000I0J-210000D01*
G01*
G37*
G36*
G01*
X153300000Y-86690000D02*
X153300000Y-85710000D01*
G75*
G02*
X153510000Y-85500000I210000J0D01*
G01*
X154490000Y-85500000D01*
G75*
G02*
X154700000Y-85710000I0J-210000D01*
G01*
X154700000Y-86690000D01*
G75*
G02*
X154490000Y-86900000I-210000J0D01*
G01*
X153510000Y-86900000D01*
G75*
G02*
X153300000Y-86690000I0J210000D01*
G01*
G37*
G36*
G01*
X153840000Y-93305411D02*
X153840000Y-93645411D01*
G75*
G02*
X153700000Y-93785411I-140000J0D01*
G01*
X153420000Y-93785411D01*
G75*
G02*
X153280000Y-93645411I0J140000D01*
G01*
X153280000Y-93305411D01*
G75*
G02*
X153420000Y-93165411I140000J0D01*
G01*
X153700000Y-93165411D01*
G75*
G02*
X153840000Y-93305411I0J-140000D01*
G01*
G37*
G36*
G01*
X152880000Y-93305411D02*
X152880000Y-93645411D01*
G75*
G02*
X152740000Y-93785411I-140000J0D01*
G01*
X152460000Y-93785411D01*
G75*
G02*
X152320000Y-93645411I0J140000D01*
G01*
X152320000Y-93305411D01*
G75*
G02*
X152460000Y-93165411I140000J0D01*
G01*
X152740000Y-93165411D01*
G75*
G02*
X152880000Y-93305411I0J-140000D01*
G01*
G37*
G36*
X150975000Y-103300000D02*
G01*
X150975000Y-103800000D01*
X150970722Y-103800000D01*
X150970722Y-103865263D01*
X150936940Y-103991342D01*
X150871677Y-104104381D01*
X150779381Y-104196677D01*
X150666342Y-104261940D01*
X150540263Y-104295722D01*
X150475000Y-104295722D01*
X150475000Y-104300000D01*
X150125000Y-104300000D01*
X150125000Y-104295722D01*
X150059737Y-104295722D01*
X149933658Y-104261940D01*
X149820619Y-104196677D01*
X149728323Y-104104381D01*
X149663060Y-103991342D01*
X149629278Y-103865263D01*
X149629278Y-103800000D01*
X149625000Y-103800000D01*
X149625000Y-103300000D01*
X150975000Y-103300000D01*
G37*
G36*
X149629278Y-102600000D02*
G01*
X149629278Y-102534737D01*
X149663060Y-102408658D01*
X149728323Y-102295619D01*
X149820619Y-102203323D01*
X149933658Y-102138060D01*
X150059737Y-102104278D01*
X150125000Y-102104278D01*
X150125000Y-102100000D01*
X150475000Y-102100000D01*
X150475000Y-102104278D01*
X150540263Y-102104278D01*
X150666342Y-102138060D01*
X150779381Y-102203323D01*
X150871677Y-102295619D01*
X150936940Y-102408658D01*
X150970722Y-102534737D01*
X150970722Y-102600000D01*
X150975000Y-102600000D01*
X150975000Y-103100000D01*
X149625000Y-103100000D01*
X149625000Y-102600000D01*
X149629278Y-102600000D01*
G37*
G36*
X149375000Y-103300000D02*
G01*
X149375000Y-103800000D01*
X149370722Y-103800000D01*
X149370722Y-103865263D01*
X149336940Y-103991342D01*
X149271677Y-104104381D01*
X149179381Y-104196677D01*
X149066342Y-104261940D01*
X148940263Y-104295722D01*
X148875000Y-104295722D01*
X148875000Y-104300000D01*
X148525000Y-104300000D01*
X148525000Y-104295722D01*
X148459737Y-104295722D01*
X148333658Y-104261940D01*
X148220619Y-104196677D01*
X148128323Y-104104381D01*
X148063060Y-103991342D01*
X148029278Y-103865263D01*
X148029278Y-103800000D01*
X148025000Y-103800000D01*
X148025000Y-103300000D01*
X149375000Y-103300000D01*
G37*
G36*
X148029278Y-102600000D02*
G01*
X148029278Y-102534737D01*
X148063060Y-102408658D01*
X148128323Y-102295619D01*
X148220619Y-102203323D01*
X148333658Y-102138060D01*
X148459737Y-102104278D01*
X148525000Y-102104278D01*
X148525000Y-102100000D01*
X148875000Y-102100000D01*
X148875000Y-102104278D01*
X148940263Y-102104278D01*
X149066342Y-102138060D01*
X149179381Y-102203323D01*
X149271677Y-102295619D01*
X149336940Y-102408658D01*
X149370722Y-102534737D01*
X149370722Y-102600000D01*
X149375000Y-102600000D01*
X149375000Y-103100000D01*
X148025000Y-103100000D01*
X148025000Y-102600000D01*
X148029278Y-102600000D01*
G37*
G36*
X154175000Y-103300000D02*
G01*
X154175000Y-103800000D01*
X154170722Y-103800000D01*
X154170722Y-103865263D01*
X154136940Y-103991342D01*
X154071677Y-104104381D01*
X153979381Y-104196677D01*
X153866342Y-104261940D01*
X153740263Y-104295722D01*
X153675000Y-104295722D01*
X153675000Y-104300000D01*
X153325000Y-104300000D01*
X153325000Y-104295722D01*
X153259737Y-104295722D01*
X153133658Y-104261940D01*
X153020619Y-104196677D01*
X152928323Y-104104381D01*
X152863060Y-103991342D01*
X152829278Y-103865263D01*
X152829278Y-103800000D01*
X152825000Y-103800000D01*
X152825000Y-103300000D01*
X154175000Y-103300000D01*
G37*
G36*
X152829278Y-102600000D02*
G01*
X152829278Y-102534737D01*
X152863060Y-102408658D01*
X152928323Y-102295619D01*
X153020619Y-102203323D01*
X153133658Y-102138060D01*
X153259737Y-102104278D01*
X153325000Y-102104278D01*
X153325000Y-102100000D01*
X153675000Y-102100000D01*
X153675000Y-102104278D01*
X153740263Y-102104278D01*
X153866342Y-102138060D01*
X153979381Y-102203323D01*
X154071677Y-102295619D01*
X154136940Y-102408658D01*
X154170722Y-102534737D01*
X154170722Y-102600000D01*
X154175000Y-102600000D01*
X154175000Y-103100000D01*
X152825000Y-103100000D01*
X152825000Y-102600000D01*
X152829278Y-102600000D01*
G37*
G36*
X143890000Y-100485000D02*
G01*
X144390000Y-100485000D01*
X144390000Y-100489278D01*
X144455263Y-100489278D01*
X144581342Y-100523060D01*
X144694381Y-100588323D01*
X144786677Y-100680619D01*
X144851940Y-100793658D01*
X144885722Y-100919737D01*
X144885722Y-100985000D01*
X144890000Y-100985000D01*
X144890000Y-101335000D01*
X144885722Y-101335000D01*
X144885722Y-101400263D01*
X144851940Y-101526342D01*
X144786677Y-101639381D01*
X144694381Y-101731677D01*
X144581342Y-101796940D01*
X144455263Y-101830722D01*
X144390000Y-101830722D01*
X144390000Y-101835000D01*
X143890000Y-101835000D01*
X143890000Y-100485000D01*
G37*
G36*
X143190000Y-101830722D02*
G01*
X143124737Y-101830722D01*
X142998658Y-101796940D01*
X142885619Y-101731677D01*
X142793323Y-101639381D01*
X142728060Y-101526342D01*
X142694278Y-101400263D01*
X142694278Y-101335000D01*
X142690000Y-101335000D01*
X142690000Y-100985000D01*
X142694278Y-100985000D01*
X142694278Y-100919737D01*
X142728060Y-100793658D01*
X142793323Y-100680619D01*
X142885619Y-100588323D01*
X142998658Y-100523060D01*
X143124737Y-100489278D01*
X143190000Y-100489278D01*
X143190000Y-100485000D01*
X143690000Y-100485000D01*
X143690000Y-101835000D01*
X143190000Y-101835000D01*
X143190000Y-101830722D01*
G37*
G36*
G01*
X149424518Y-92873604D02*
X149424518Y-92533604D01*
G75*
G02*
X149564518Y-92393604I140000J0D01*
G01*
X149844518Y-92393604D01*
G75*
G02*
X149984518Y-92533604I0J-140000D01*
G01*
X149984518Y-92873604D01*
G75*
G02*
X149844518Y-93013604I-140000J0D01*
G01*
X149564518Y-93013604D01*
G75*
G02*
X149424518Y-92873604I0J140000D01*
G01*
G37*
G36*
G01*
X150384518Y-92873604D02*
X150384518Y-92533604D01*
G75*
G02*
X150524518Y-92393604I140000J0D01*
G01*
X150804518Y-92393604D01*
G75*
G02*
X150944518Y-92533604I0J-140000D01*
G01*
X150944518Y-92873604D01*
G75*
G02*
X150804518Y-93013604I-140000J0D01*
G01*
X150524518Y-93013604D01*
G75*
G02*
X150384518Y-92873604I0J140000D01*
G01*
G37*
G36*
G01*
X152150000Y-90550000D02*
X151650000Y-90550000D01*
G75*
G02*
X151425000Y-90325000I0J225000D01*
G01*
X151425000Y-89875000D01*
G75*
G02*
X151650000Y-89650000I225000J0D01*
G01*
X152150000Y-89650000D01*
G75*
G02*
X152375000Y-89875000I0J-225000D01*
G01*
X152375000Y-90325000D01*
G75*
G02*
X152150000Y-90550000I-225000J0D01*
G01*
G37*
G36*
G01*
X152150000Y-89000000D02*
X151650000Y-89000000D01*
G75*
G02*
X151425000Y-88775000I0J225000D01*
G01*
X151425000Y-88325000D01*
G75*
G02*
X151650000Y-88100000I225000J0D01*
G01*
X152150000Y-88100000D01*
G75*
G02*
X152375000Y-88325000I0J-225000D01*
G01*
X152375000Y-88775000D01*
G75*
G02*
X152150000Y-89000000I-225000J0D01*
G01*
G37*
G36*
X152575000Y-103300000D02*
G01*
X152575000Y-103800000D01*
X152570722Y-103800000D01*
X152570722Y-103865263D01*
X152536940Y-103991342D01*
X152471677Y-104104381D01*
X152379381Y-104196677D01*
X152266342Y-104261940D01*
X152140263Y-104295722D01*
X152075000Y-104295722D01*
X152075000Y-104300000D01*
X151725000Y-104300000D01*
X151725000Y-104295722D01*
X151659737Y-104295722D01*
X151533658Y-104261940D01*
X151420619Y-104196677D01*
X151328323Y-104104381D01*
X151263060Y-103991342D01*
X151229278Y-103865263D01*
X151229278Y-103800000D01*
X151225000Y-103800000D01*
X151225000Y-103300000D01*
X152575000Y-103300000D01*
G37*
G36*
X151229278Y-102600000D02*
G01*
X151229278Y-102534737D01*
X151263060Y-102408658D01*
X151328323Y-102295619D01*
X151420619Y-102203323D01*
X151533658Y-102138060D01*
X151659737Y-102104278D01*
X151725000Y-102104278D01*
X151725000Y-102100000D01*
X152075000Y-102100000D01*
X152075000Y-102104278D01*
X152140263Y-102104278D01*
X152266342Y-102138060D01*
X152379381Y-102203323D01*
X152471677Y-102295619D01*
X152536940Y-102408658D01*
X152570722Y-102534737D01*
X152570722Y-102600000D01*
X152575000Y-102600000D01*
X152575000Y-103100000D01*
X151225000Y-103100000D01*
X151225000Y-102600000D01*
X151229278Y-102600000D01*
G37*
G36*
G01*
X154250000Y-97350000D02*
X154250000Y-97850000D01*
G75*
G02*
X154025000Y-98075000I-225000J0D01*
G01*
X153575000Y-98075000D01*
G75*
G02*
X153350000Y-97850000I0J225000D01*
G01*
X153350000Y-97350000D01*
G75*
G02*
X153575000Y-97125000I225000J0D01*
G01*
X154025000Y-97125000D01*
G75*
G02*
X154250000Y-97350000I0J-225000D01*
G01*
G37*
G36*
G01*
X152700000Y-97350000D02*
X152700000Y-97850000D01*
G75*
G02*
X152475000Y-98075000I-225000J0D01*
G01*
X152025000Y-98075000D01*
G75*
G02*
X151800000Y-97850000I0J225000D01*
G01*
X151800000Y-97350000D01*
G75*
G02*
X152025000Y-97125000I225000J0D01*
G01*
X152475000Y-97125000D01*
G75*
G02*
X152700000Y-97350000I0J-225000D01*
G01*
G37*
G36*
G01*
X153840000Y-91805000D02*
X153840000Y-92145000D01*
G75*
G02*
X153700000Y-92285000I-140000J0D01*
G01*
X153420000Y-92285000D01*
G75*
G02*
X153280000Y-92145000I0J140000D01*
G01*
X153280000Y-91805000D01*
G75*
G02*
X153420000Y-91665000I140000J0D01*
G01*
X153700000Y-91665000D01*
G75*
G02*
X153840000Y-91805000I0J-140000D01*
G01*
G37*
G36*
G01*
X152880000Y-91805000D02*
X152880000Y-92145000D01*
G75*
G02*
X152740000Y-92285000I-140000J0D01*
G01*
X152460000Y-92285000D01*
G75*
G02*
X152320000Y-92145000I0J140000D01*
G01*
X152320000Y-91805000D01*
G75*
G02*
X152460000Y-91665000I140000J0D01*
G01*
X152740000Y-91665000D01*
G75*
G02*
X152880000Y-91805000I0J-140000D01*
G01*
G37*
G36*
G01*
X141750000Y-90450000D02*
X143550000Y-90450000D01*
G75*
G02*
X143900000Y-90800000I0J-350000D01*
G01*
X143900000Y-91500000D01*
G75*
G02*
X143550000Y-91850000I-350000J0D01*
G01*
X141750000Y-91850000D01*
G75*
G02*
X141400000Y-91500000I0J350000D01*
G01*
X141400000Y-90800000D01*
G75*
G02*
X141750000Y-90450000I350000J0D01*
G01*
G37*
G36*
G01*
X141750000Y-87450000D02*
X143550000Y-87450000D01*
G75*
G02*
X143900000Y-87800000I0J-350000D01*
G01*
X143900000Y-88500000D01*
G75*
G02*
X143550000Y-88850000I-350000J0D01*
G01*
X141750000Y-88850000D01*
G75*
G02*
X141400000Y-88500000I0J350000D01*
G01*
X141400000Y-87800000D01*
G75*
G02*
X141750000Y-87450000I350000J0D01*
G01*
G37*
G36*
G01*
X148450000Y-95550000D02*
X150250000Y-95550000D01*
G75*
G02*
X150600000Y-95900000I0J-350000D01*
G01*
X150600000Y-96600000D01*
G75*
G02*
X150250000Y-96950000I-350000J0D01*
G01*
X148450000Y-96950000D01*
G75*
G02*
X148100000Y-96600000I0J350000D01*
G01*
X148100000Y-95900000D01*
G75*
G02*
X148450000Y-95550000I350000J0D01*
G01*
G37*
G36*
G01*
X141750000Y-94450000D02*
X143550000Y-94450000D01*
G75*
G02*
X143900000Y-94800000I0J-350000D01*
G01*
X143900000Y-95500000D01*
G75*
G02*
X143550000Y-95850000I-350000J0D01*
G01*
X141750000Y-95850000D01*
G75*
G02*
X141400000Y-95500000I0J350000D01*
G01*
X141400000Y-94800000D01*
G75*
G02*
X141750000Y-94450000I350000J0D01*
G01*
G37*
M02*
