%TF.GenerationSoftware,KiCad,Pcbnew,9.0.0-rc2-6-ga1fa0bdb0b*%
%TF.CreationDate,2025-02-01T23:33:01-05:00*%
%TF.ProjectId,scampi,7363616d-7069-42e6-9b69-6361645f7063,rev?*%
%TF.SameCoordinates,Original*%
%TF.FileFunction,Copper,L2,Bot*%
%TF.FilePolarity,Positive*%
%FSLAX46Y46*%
G04 Gerber Fmt 4.6, Leading zero omitted, Abs format (unit mm)*
G04 Created by KiCad (PCBNEW 9.0.0-rc2-6-ga1fa0bdb0b) date 2025-02-01 23:33:01*
%MOMM*%
%LPD*%
G01*
G04 APERTURE LIST*
%TA.AperFunction,ViaPad*%
%ADD10C,0.500000*%
%TD*%
%TA.AperFunction,Conductor*%
%ADD11C,0.300000*%
%TD*%
%TA.AperFunction,Conductor*%
%ADD12C,0.400000*%
%TD*%
%TA.AperFunction,Conductor*%
%ADD13C,0.600000*%
%TD*%
%TA.AperFunction,Conductor*%
%ADD14C,0.127000*%
%TD*%
%TA.AperFunction,Conductor*%
%ADD15C,0.200000*%
%TD*%
G04 APERTURE END LIST*
%TA.AperFunction,ComponentPad*%
G36*
G01*
X143700000Y-104290000D02*
X143700000Y-103310000D01*
G75*
G02*
X143910000Y-103100000I210000J0D01*
G01*
X144890000Y-103100000D01*
G75*
G02*
X145100000Y-103310000I0J-210000D01*
G01*
X145100000Y-104290000D01*
G75*
G02*
X144890000Y-104500000I-210000J0D01*
G01*
X143910000Y-104500000D01*
G75*
G02*
X143700000Y-104290000I0J210000D01*
G01*
G37*
%TD.AperFunction*%
%TA.AperFunction,ComponentPad*%
G36*
G01*
X156100000Y-91290000D02*
X156100000Y-90310000D01*
G75*
G02*
X156310000Y-90100000I210000J0D01*
G01*
X157290000Y-90100000D01*
G75*
G02*
X157500000Y-90310000I0J-210000D01*
G01*
X157500000Y-91290000D01*
G75*
G02*
X157290000Y-91500000I-210000J0D01*
G01*
X156310000Y-91500000D01*
G75*
G02*
X156100000Y-91290000I0J210000D01*
G01*
G37*
%TD.AperFunction*%
%TA.AperFunction,ComponentPad*%
G36*
G01*
X144500000Y-86690000D02*
X144500000Y-85710000D01*
G75*
G02*
X144710000Y-85500000I210000J0D01*
G01*
X145690000Y-85500000D01*
G75*
G02*
X145900000Y-85710000I0J-210000D01*
G01*
X145900000Y-86690000D01*
G75*
G02*
X145690000Y-86900000I-210000J0D01*
G01*
X144710000Y-86900000D01*
G75*
G02*
X144500000Y-86690000I0J210000D01*
G01*
G37*
%TD.AperFunction*%
%TA.AperFunction,ComponentPad*%
G36*
G01*
X138500000Y-92690000D02*
X138500000Y-91710000D01*
G75*
G02*
X138710000Y-91500000I210000J0D01*
G01*
X139690000Y-91500000D01*
G75*
G02*
X139900000Y-91710000I0J-210000D01*
G01*
X139900000Y-92690000D01*
G75*
G02*
X139690000Y-92900000I-210000J0D01*
G01*
X138710000Y-92900000D01*
G75*
G02*
X138500000Y-92690000I0J210000D01*
G01*
G37*
%TD.AperFunction*%
%TA.AperFunction,ComponentPad*%
G36*
G01*
X156100000Y-93890000D02*
X156100000Y-92910000D01*
G75*
G02*
X156310000Y-92700000I210000J0D01*
G01*
X157290000Y-92700000D01*
G75*
G02*
X157500000Y-92910000I0J-210000D01*
G01*
X157500000Y-93890000D01*
G75*
G02*
X157290000Y-94100000I-210000J0D01*
G01*
X156310000Y-94100000D01*
G75*
G02*
X156100000Y-93890000I0J210000D01*
G01*
G37*
%TD.AperFunction*%
%TA.AperFunction,ComponentPad*%
G36*
G01*
X145300000Y-104290000D02*
X145300000Y-103310000D01*
G75*
G02*
X145510000Y-103100000I210000J0D01*
G01*
X146490000Y-103100000D01*
G75*
G02*
X146700000Y-103310000I0J-210000D01*
G01*
X146700000Y-104290000D01*
G75*
G02*
X146490000Y-104500000I-210000J0D01*
G01*
X145510000Y-104500000D01*
G75*
G02*
X145300000Y-104290000I0J210000D01*
G01*
G37*
%TD.AperFunction*%
%TA.AperFunction,ComponentPad*%
G36*
G01*
X141300000Y-86690000D02*
X141300000Y-85710000D01*
G75*
G02*
X141510000Y-85500000I210000J0D01*
G01*
X142490000Y-85500000D01*
G75*
G02*
X142700000Y-85710000I0J-210000D01*
G01*
X142700000Y-86690000D01*
G75*
G02*
X142490000Y-86900000I-210000J0D01*
G01*
X141510000Y-86900000D01*
G75*
G02*
X141300000Y-86690000I0J210000D01*
G01*
G37*
%TD.AperFunction*%
%TA.AperFunction,ComponentPad*%
G36*
G01*
X156100000Y-89690000D02*
X156100000Y-88710000D01*
G75*
G02*
X156310000Y-88500000I210000J0D01*
G01*
X157290000Y-88500000D01*
G75*
G02*
X157500000Y-88710000I0J-210000D01*
G01*
X157500000Y-89690000D01*
G75*
G02*
X157290000Y-89900000I-210000J0D01*
G01*
X156310000Y-89900000D01*
G75*
G02*
X156100000Y-89690000I0J210000D01*
G01*
G37*
%TD.AperFunction*%
%TA.AperFunction,ComponentPad*%
G36*
G01*
X156109832Y-99625239D02*
X156109832Y-98645239D01*
G75*
G02*
X156319832Y-98435239I210000J0D01*
G01*
X157299832Y-98435239D01*
G75*
G02*
X157509832Y-98645239I0J-210000D01*
G01*
X157509832Y-99625239D01*
G75*
G02*
X157299832Y-99835239I-210000J0D01*
G01*
X156319832Y-99835239D01*
G75*
G02*
X156109832Y-99625239I0J210000D01*
G01*
G37*
%TD.AperFunction*%
%TA.AperFunction,ComponentPad*%
G36*
G01*
X142100000Y-104290000D02*
X142100000Y-103310000D01*
G75*
G02*
X142310000Y-103100000I210000J0D01*
G01*
X143290000Y-103100000D01*
G75*
G02*
X143500000Y-103310000I0J-210000D01*
G01*
X143500000Y-104290000D01*
G75*
G02*
X143290000Y-104500000I-210000J0D01*
G01*
X142310000Y-104500000D01*
G75*
G02*
X142100000Y-104290000I0J210000D01*
G01*
G37*
%TD.AperFunction*%
%TA.AperFunction,ComponentPad*%
G36*
G01*
X146700000Y-86690000D02*
X146700000Y-85710000D01*
G75*
G02*
X146910000Y-85500000I210000J0D01*
G01*
X147890000Y-85500000D01*
G75*
G02*
X148100000Y-85710000I0J-210000D01*
G01*
X148100000Y-86690000D01*
G75*
G02*
X147890000Y-86900000I-210000J0D01*
G01*
X146910000Y-86900000D01*
G75*
G02*
X146700000Y-86690000I0J210000D01*
G01*
G37*
%TD.AperFunction*%
%TA.AperFunction,ComponentPad*%
G36*
G01*
X151500000Y-86690000D02*
X151500000Y-85710000D01*
G75*
G02*
X151710000Y-85500000I210000J0D01*
G01*
X152690000Y-85500000D01*
G75*
G02*
X152900000Y-85710000I0J-210000D01*
G01*
X152900000Y-86690000D01*
G75*
G02*
X152690000Y-86900000I-210000J0D01*
G01*
X151710000Y-86900000D01*
G75*
G02*
X151500000Y-86690000I0J210000D01*
G01*
G37*
%TD.AperFunction*%
%TA.AperFunction,ComponentPad*%
G36*
G01*
X138500000Y-95890000D02*
X138500000Y-94910000D01*
G75*
G02*
X138710000Y-94700000I210000J0D01*
G01*
X139690000Y-94700000D01*
G75*
G02*
X139900000Y-94910000I0J-210000D01*
G01*
X139900000Y-95890000D01*
G75*
G02*
X139690000Y-96100000I-210000J0D01*
G01*
X138710000Y-96100000D01*
G75*
G02*
X138500000Y-95890000I0J210000D01*
G01*
G37*
%TD.AperFunction*%
%TA.AperFunction,ComponentPad*%
G36*
G01*
X138500000Y-101290000D02*
X138500000Y-100310000D01*
G75*
G02*
X138710000Y-100100000I210000J0D01*
G01*
X139690000Y-100100000D01*
G75*
G02*
X139900000Y-100310000I0J-210000D01*
G01*
X139900000Y-101290000D01*
G75*
G02*
X139690000Y-101500000I-210000J0D01*
G01*
X138710000Y-101500000D01*
G75*
G02*
X138500000Y-101290000I0J210000D01*
G01*
G37*
%TD.AperFunction*%
%TA.AperFunction,ComponentPad*%
G36*
G01*
X138500000Y-89490000D02*
X138500000Y-88510000D01*
G75*
G02*
X138710000Y-88300000I210000J0D01*
G01*
X139690000Y-88300000D01*
G75*
G02*
X139900000Y-88510000I0J-210000D01*
G01*
X139900000Y-89490000D01*
G75*
G02*
X139690000Y-89700000I-210000J0D01*
G01*
X138710000Y-89700000D01*
G75*
G02*
X138500000Y-89490000I0J210000D01*
G01*
G37*
%TD.AperFunction*%
%TA.AperFunction,ComponentPad*%
G36*
G01*
X142900000Y-86690000D02*
X142900000Y-85710000D01*
G75*
G02*
X143110000Y-85500000I210000J0D01*
G01*
X144090000Y-85500000D01*
G75*
G02*
X144300000Y-85710000I0J-210000D01*
G01*
X144300000Y-86690000D01*
G75*
G02*
X144090000Y-86900000I-210000J0D01*
G01*
X143110000Y-86900000D01*
G75*
G02*
X142900000Y-86690000I0J210000D01*
G01*
G37*
%TD.AperFunction*%
%TA.AperFunction,ComponentPad*%
G36*
G01*
X138500000Y-94290000D02*
X138500000Y-93310000D01*
G75*
G02*
X138710000Y-93100000I210000J0D01*
G01*
X139690000Y-93100000D01*
G75*
G02*
X139900000Y-93310000I0J-210000D01*
G01*
X139900000Y-94290000D01*
G75*
G02*
X139690000Y-94500000I-210000J0D01*
G01*
X138710000Y-94500000D01*
G75*
G02*
X138500000Y-94290000I0J210000D01*
G01*
G37*
%TD.AperFunction*%
%TA.AperFunction,ComponentPad*%
G36*
G01*
X156109832Y-97775239D02*
X156109832Y-96795239D01*
G75*
G02*
X156319832Y-96585239I210000J0D01*
G01*
X157299832Y-96585239D01*
G75*
G02*
X157509832Y-96795239I0J-210000D01*
G01*
X157509832Y-97775239D01*
G75*
G02*
X157299832Y-97985239I-210000J0D01*
G01*
X156319832Y-97985239D01*
G75*
G02*
X156109832Y-97775239I0J210000D01*
G01*
G37*
%TD.AperFunction*%
%TA.AperFunction,ComponentPad*%
G36*
G01*
X156100000Y-95490000D02*
X156100000Y-94510000D01*
G75*
G02*
X156310000Y-94300000I210000J0D01*
G01*
X157290000Y-94300000D01*
G75*
G02*
X157500000Y-94510000I0J-210000D01*
G01*
X157500000Y-95490000D01*
G75*
G02*
X157290000Y-95700000I-210000J0D01*
G01*
X156310000Y-95700000D01*
G75*
G02*
X156100000Y-95490000I0J210000D01*
G01*
G37*
%TD.AperFunction*%
%TA.AperFunction,ComponentPad*%
G36*
G01*
X138500000Y-91090000D02*
X138500000Y-90110000D01*
G75*
G02*
X138710000Y-89900000I210000J0D01*
G01*
X139690000Y-89900000D01*
G75*
G02*
X139900000Y-90110000I0J-210000D01*
G01*
X139900000Y-91090000D01*
G75*
G02*
X139690000Y-91300000I-210000J0D01*
G01*
X138710000Y-91300000D01*
G75*
G02*
X138500000Y-91090000I0J210000D01*
G01*
G37*
%TD.AperFunction*%
%TA.AperFunction,ComponentPad*%
G36*
G01*
X139900000Y-98710000D02*
X139900000Y-99690000D01*
G75*
G02*
X139690000Y-99900000I-210000J0D01*
G01*
X138710000Y-99900000D01*
G75*
G02*
X138500000Y-99690000I0J210000D01*
G01*
X138500000Y-98710000D01*
G75*
G02*
X138710000Y-98500000I210000J0D01*
G01*
X139690000Y-98500000D01*
G75*
G02*
X139900000Y-98710000I0J-210000D01*
G01*
G37*
%TD.AperFunction*%
%TA.AperFunction,ComponentPad*%
G36*
G01*
X139900000Y-97110000D02*
X139900000Y-98090000D01*
G75*
G02*
X139690000Y-98300000I-210000J0D01*
G01*
X138710000Y-98300000D01*
G75*
G02*
X138500000Y-98090000I0J210000D01*
G01*
X138500000Y-97110000D01*
G75*
G02*
X138710000Y-96900000I210000J0D01*
G01*
X139690000Y-96900000D01*
G75*
G02*
X139900000Y-97110000I0J-210000D01*
G01*
G37*
%TD.AperFunction*%
%TA.AperFunction,ComponentPad*%
G36*
G01*
X153300000Y-86690000D02*
X153300000Y-85710000D01*
G75*
G02*
X153510000Y-85500000I210000J0D01*
G01*
X154490000Y-85500000D01*
G75*
G02*
X154700000Y-85710000I0J-210000D01*
G01*
X154700000Y-86690000D01*
G75*
G02*
X154490000Y-86900000I-210000J0D01*
G01*
X153510000Y-86900000D01*
G75*
G02*
X153300000Y-86690000I0J210000D01*
G01*
G37*
%TD.AperFunction*%
%TA.AperFunction,SMDPad,CuDef*%
G36*
G01*
X153840000Y-93305411D02*
X153840000Y-93645411D01*
G75*
G02*
X153700000Y-93785411I-140000J0D01*
G01*
X153420000Y-93785411D01*
G75*
G02*
X153280000Y-93645411I0J140000D01*
G01*
X153280000Y-93305411D01*
G75*
G02*
X153420000Y-93165411I140000J0D01*
G01*
X153700000Y-93165411D01*
G75*
G02*
X153840000Y-93305411I0J-140000D01*
G01*
G37*
%TD.AperFunction*%
%TA.AperFunction,SMDPad,CuDef*%
G36*
G01*
X152880000Y-93305411D02*
X152880000Y-93645411D01*
G75*
G02*
X152740000Y-93785411I-140000J0D01*
G01*
X152460000Y-93785411D01*
G75*
G02*
X152320000Y-93645411I0J140000D01*
G01*
X152320000Y-93305411D01*
G75*
G02*
X152460000Y-93165411I140000J0D01*
G01*
X152740000Y-93165411D01*
G75*
G02*
X152880000Y-93305411I0J-140000D01*
G01*
G37*
%TD.AperFunction*%
%TA.AperFunction,SMDPad,CuDef*%
G36*
X150975000Y-103300000D02*
G01*
X150975000Y-103800000D01*
X150970722Y-103800000D01*
X150970722Y-103865263D01*
X150936940Y-103991342D01*
X150871677Y-104104381D01*
X150779381Y-104196677D01*
X150666342Y-104261940D01*
X150540263Y-104295722D01*
X150475000Y-104295722D01*
X150475000Y-104300000D01*
X150125000Y-104300000D01*
X150125000Y-104295722D01*
X150059737Y-104295722D01*
X149933658Y-104261940D01*
X149820619Y-104196677D01*
X149728323Y-104104381D01*
X149663060Y-103991342D01*
X149629278Y-103865263D01*
X149629278Y-103800000D01*
X149625000Y-103800000D01*
X149625000Y-103300000D01*
X150975000Y-103300000D01*
G37*
%TD.AperFunction*%
%TA.AperFunction,SMDPad,CuDef*%
G36*
X149629278Y-102600000D02*
G01*
X149629278Y-102534737D01*
X149663060Y-102408658D01*
X149728323Y-102295619D01*
X149820619Y-102203323D01*
X149933658Y-102138060D01*
X150059737Y-102104278D01*
X150125000Y-102104278D01*
X150125000Y-102100000D01*
X150475000Y-102100000D01*
X150475000Y-102104278D01*
X150540263Y-102104278D01*
X150666342Y-102138060D01*
X150779381Y-102203323D01*
X150871677Y-102295619D01*
X150936940Y-102408658D01*
X150970722Y-102534737D01*
X150970722Y-102600000D01*
X150975000Y-102600000D01*
X150975000Y-103100000D01*
X149625000Y-103100000D01*
X149625000Y-102600000D01*
X149629278Y-102600000D01*
G37*
%TD.AperFunction*%
%TA.AperFunction,SMDPad,CuDef*%
G36*
X149375000Y-103300000D02*
G01*
X149375000Y-103800000D01*
X149370722Y-103800000D01*
X149370722Y-103865263D01*
X149336940Y-103991342D01*
X149271677Y-104104381D01*
X149179381Y-104196677D01*
X149066342Y-104261940D01*
X148940263Y-104295722D01*
X148875000Y-104295722D01*
X148875000Y-104300000D01*
X148525000Y-104300000D01*
X148525000Y-104295722D01*
X148459737Y-104295722D01*
X148333658Y-104261940D01*
X148220619Y-104196677D01*
X148128323Y-104104381D01*
X148063060Y-103991342D01*
X148029278Y-103865263D01*
X148029278Y-103800000D01*
X148025000Y-103800000D01*
X148025000Y-103300000D01*
X149375000Y-103300000D01*
G37*
%TD.AperFunction*%
%TA.AperFunction,SMDPad,CuDef*%
G36*
X148029278Y-102600000D02*
G01*
X148029278Y-102534737D01*
X148063060Y-102408658D01*
X148128323Y-102295619D01*
X148220619Y-102203323D01*
X148333658Y-102138060D01*
X148459737Y-102104278D01*
X148525000Y-102104278D01*
X148525000Y-102100000D01*
X148875000Y-102100000D01*
X148875000Y-102104278D01*
X148940263Y-102104278D01*
X149066342Y-102138060D01*
X149179381Y-102203323D01*
X149271677Y-102295619D01*
X149336940Y-102408658D01*
X149370722Y-102534737D01*
X149370722Y-102600000D01*
X149375000Y-102600000D01*
X149375000Y-103100000D01*
X148025000Y-103100000D01*
X148025000Y-102600000D01*
X148029278Y-102600000D01*
G37*
%TD.AperFunction*%
%TA.AperFunction,SMDPad,CuDef*%
G36*
X154175000Y-103300000D02*
G01*
X154175000Y-103800000D01*
X154170722Y-103800000D01*
X154170722Y-103865263D01*
X154136940Y-103991342D01*
X154071677Y-104104381D01*
X153979381Y-104196677D01*
X153866342Y-104261940D01*
X153740263Y-104295722D01*
X153675000Y-104295722D01*
X153675000Y-104300000D01*
X153325000Y-104300000D01*
X153325000Y-104295722D01*
X153259737Y-104295722D01*
X153133658Y-104261940D01*
X153020619Y-104196677D01*
X152928323Y-104104381D01*
X152863060Y-103991342D01*
X152829278Y-103865263D01*
X152829278Y-103800000D01*
X152825000Y-103800000D01*
X152825000Y-103300000D01*
X154175000Y-103300000D01*
G37*
%TD.AperFunction*%
%TA.AperFunction,SMDPad,CuDef*%
G36*
X152829278Y-102600000D02*
G01*
X152829278Y-102534737D01*
X152863060Y-102408658D01*
X152928323Y-102295619D01*
X153020619Y-102203323D01*
X153133658Y-102138060D01*
X153259737Y-102104278D01*
X153325000Y-102104278D01*
X153325000Y-102100000D01*
X153675000Y-102100000D01*
X153675000Y-102104278D01*
X153740263Y-102104278D01*
X153866342Y-102138060D01*
X153979381Y-102203323D01*
X154071677Y-102295619D01*
X154136940Y-102408658D01*
X154170722Y-102534737D01*
X154170722Y-102600000D01*
X154175000Y-102600000D01*
X154175000Y-103100000D01*
X152825000Y-103100000D01*
X152825000Y-102600000D01*
X152829278Y-102600000D01*
G37*
%TD.AperFunction*%
%TA.AperFunction,SMDPad,CuDef*%
G36*
X143890000Y-100485000D02*
G01*
X144390000Y-100485000D01*
X144390000Y-100489278D01*
X144455263Y-100489278D01*
X144581342Y-100523060D01*
X144694381Y-100588323D01*
X144786677Y-100680619D01*
X144851940Y-100793658D01*
X144885722Y-100919737D01*
X144885722Y-100985000D01*
X144890000Y-100985000D01*
X144890000Y-101335000D01*
X144885722Y-101335000D01*
X144885722Y-101400263D01*
X144851940Y-101526342D01*
X144786677Y-101639381D01*
X144694381Y-101731677D01*
X144581342Y-101796940D01*
X144455263Y-101830722D01*
X144390000Y-101830722D01*
X144390000Y-101835000D01*
X143890000Y-101835000D01*
X143890000Y-100485000D01*
G37*
%TD.AperFunction*%
%TA.AperFunction,SMDPad,CuDef*%
G36*
X143190000Y-101830722D02*
G01*
X143124737Y-101830722D01*
X142998658Y-101796940D01*
X142885619Y-101731677D01*
X142793323Y-101639381D01*
X142728060Y-101526342D01*
X142694278Y-101400263D01*
X142694278Y-101335000D01*
X142690000Y-101335000D01*
X142690000Y-100985000D01*
X142694278Y-100985000D01*
X142694278Y-100919737D01*
X142728060Y-100793658D01*
X142793323Y-100680619D01*
X142885619Y-100588323D01*
X142998658Y-100523060D01*
X143124737Y-100489278D01*
X143190000Y-100489278D01*
X143190000Y-100485000D01*
X143690000Y-100485000D01*
X143690000Y-101835000D01*
X143190000Y-101835000D01*
X143190000Y-101830722D01*
G37*
%TD.AperFunction*%
%TA.AperFunction,SMDPad,CuDef*%
G36*
G01*
X149424518Y-92873604D02*
X149424518Y-92533604D01*
G75*
G02*
X149564518Y-92393604I140000J0D01*
G01*
X149844518Y-92393604D01*
G75*
G02*
X149984518Y-92533604I0J-140000D01*
G01*
X149984518Y-92873604D01*
G75*
G02*
X149844518Y-93013604I-140000J0D01*
G01*
X149564518Y-93013604D01*
G75*
G02*
X149424518Y-92873604I0J140000D01*
G01*
G37*
%TD.AperFunction*%
%TA.AperFunction,SMDPad,CuDef*%
G36*
G01*
X150384518Y-92873604D02*
X150384518Y-92533604D01*
G75*
G02*
X150524518Y-92393604I140000J0D01*
G01*
X150804518Y-92393604D01*
G75*
G02*
X150944518Y-92533604I0J-140000D01*
G01*
X150944518Y-92873604D01*
G75*
G02*
X150804518Y-93013604I-140000J0D01*
G01*
X150524518Y-93013604D01*
G75*
G02*
X150384518Y-92873604I0J140000D01*
G01*
G37*
%TD.AperFunction*%
%TA.AperFunction,SMDPad,CuDef*%
G36*
G01*
X152150000Y-90550000D02*
X151650000Y-90550000D01*
G75*
G02*
X151425000Y-90325000I0J225000D01*
G01*
X151425000Y-89875000D01*
G75*
G02*
X151650000Y-89650000I225000J0D01*
G01*
X152150000Y-89650000D01*
G75*
G02*
X152375000Y-89875000I0J-225000D01*
G01*
X152375000Y-90325000D01*
G75*
G02*
X152150000Y-90550000I-225000J0D01*
G01*
G37*
%TD.AperFunction*%
%TA.AperFunction,SMDPad,CuDef*%
G36*
G01*
X152150000Y-89000000D02*
X151650000Y-89000000D01*
G75*
G02*
X151425000Y-88775000I0J225000D01*
G01*
X151425000Y-88325000D01*
G75*
G02*
X151650000Y-88100000I225000J0D01*
G01*
X152150000Y-88100000D01*
G75*
G02*
X152375000Y-88325000I0J-225000D01*
G01*
X152375000Y-88775000D01*
G75*
G02*
X152150000Y-89000000I-225000J0D01*
G01*
G37*
%TD.AperFunction*%
%TA.AperFunction,SMDPad,CuDef*%
G36*
X152575000Y-103300000D02*
G01*
X152575000Y-103800000D01*
X152570722Y-103800000D01*
X152570722Y-103865263D01*
X152536940Y-103991342D01*
X152471677Y-104104381D01*
X152379381Y-104196677D01*
X152266342Y-104261940D01*
X152140263Y-104295722D01*
X152075000Y-104295722D01*
X152075000Y-104300000D01*
X151725000Y-104300000D01*
X151725000Y-104295722D01*
X151659737Y-104295722D01*
X151533658Y-104261940D01*
X151420619Y-104196677D01*
X151328323Y-104104381D01*
X151263060Y-103991342D01*
X151229278Y-103865263D01*
X151229278Y-103800000D01*
X151225000Y-103800000D01*
X151225000Y-103300000D01*
X152575000Y-103300000D01*
G37*
%TD.AperFunction*%
%TA.AperFunction,SMDPad,CuDef*%
G36*
X151229278Y-102600000D02*
G01*
X151229278Y-102534737D01*
X151263060Y-102408658D01*
X151328323Y-102295619D01*
X151420619Y-102203323D01*
X151533658Y-102138060D01*
X151659737Y-102104278D01*
X151725000Y-102104278D01*
X151725000Y-102100000D01*
X152075000Y-102100000D01*
X152075000Y-102104278D01*
X152140263Y-102104278D01*
X152266342Y-102138060D01*
X152379381Y-102203323D01*
X152471677Y-102295619D01*
X152536940Y-102408658D01*
X152570722Y-102534737D01*
X152570722Y-102600000D01*
X152575000Y-102600000D01*
X152575000Y-103100000D01*
X151225000Y-103100000D01*
X151225000Y-102600000D01*
X151229278Y-102600000D01*
G37*
%TD.AperFunction*%
%TA.AperFunction,SMDPad,CuDef*%
G36*
G01*
X154250000Y-97350000D02*
X154250000Y-97850000D01*
G75*
G02*
X154025000Y-98075000I-225000J0D01*
G01*
X153575000Y-98075000D01*
G75*
G02*
X153350000Y-97850000I0J225000D01*
G01*
X153350000Y-97350000D01*
G75*
G02*
X153575000Y-97125000I225000J0D01*
G01*
X154025000Y-97125000D01*
G75*
G02*
X154250000Y-97350000I0J-225000D01*
G01*
G37*
%TD.AperFunction*%
%TA.AperFunction,SMDPad,CuDef*%
G36*
G01*
X152700000Y-97350000D02*
X152700000Y-97850000D01*
G75*
G02*
X152475000Y-98075000I-225000J0D01*
G01*
X152025000Y-98075000D01*
G75*
G02*
X151800000Y-97850000I0J225000D01*
G01*
X151800000Y-97350000D01*
G75*
G02*
X152025000Y-97125000I225000J0D01*
G01*
X152475000Y-97125000D01*
G75*
G02*
X152700000Y-97350000I0J-225000D01*
G01*
G37*
%TD.AperFunction*%
%TA.AperFunction,SMDPad,CuDef*%
G36*
G01*
X153840000Y-91805000D02*
X153840000Y-92145000D01*
G75*
G02*
X153700000Y-92285000I-140000J0D01*
G01*
X153420000Y-92285000D01*
G75*
G02*
X153280000Y-92145000I0J140000D01*
G01*
X153280000Y-91805000D01*
G75*
G02*
X153420000Y-91665000I140000J0D01*
G01*
X153700000Y-91665000D01*
G75*
G02*
X153840000Y-91805000I0J-140000D01*
G01*
G37*
%TD.AperFunction*%
%TA.AperFunction,SMDPad,CuDef*%
G36*
G01*
X152880000Y-91805000D02*
X152880000Y-92145000D01*
G75*
G02*
X152740000Y-92285000I-140000J0D01*
G01*
X152460000Y-92285000D01*
G75*
G02*
X152320000Y-92145000I0J140000D01*
G01*
X152320000Y-91805000D01*
G75*
G02*
X152460000Y-91665000I140000J0D01*
G01*
X152740000Y-91665000D01*
G75*
G02*
X152880000Y-91805000I0J-140000D01*
G01*
G37*
%TD.AperFunction*%
%TA.AperFunction,SMDPad,CuDef*%
G36*
G01*
X141750000Y-90450000D02*
X143550000Y-90450000D01*
G75*
G02*
X143900000Y-90800000I0J-350000D01*
G01*
X143900000Y-91500000D01*
G75*
G02*
X143550000Y-91850000I-350000J0D01*
G01*
X141750000Y-91850000D01*
G75*
G02*
X141400000Y-91500000I0J350000D01*
G01*
X141400000Y-90800000D01*
G75*
G02*
X141750000Y-90450000I350000J0D01*
G01*
G37*
%TD.AperFunction*%
%TA.AperFunction,SMDPad,CuDef*%
G36*
G01*
X141750000Y-87450000D02*
X143550000Y-87450000D01*
G75*
G02*
X143900000Y-87800000I0J-350000D01*
G01*
X143900000Y-88500000D01*
G75*
G02*
X143550000Y-88850000I-350000J0D01*
G01*
X141750000Y-88850000D01*
G75*
G02*
X141400000Y-88500000I0J350000D01*
G01*
X141400000Y-87800000D01*
G75*
G02*
X141750000Y-87450000I350000J0D01*
G01*
G37*
%TD.AperFunction*%
%TA.AperFunction,SMDPad,CuDef*%
G36*
G01*
X148450000Y-95550000D02*
X150250000Y-95550000D01*
G75*
G02*
X150600000Y-95900000I0J-350000D01*
G01*
X150600000Y-96600000D01*
G75*
G02*
X150250000Y-96950000I-350000J0D01*
G01*
X148450000Y-96950000D01*
G75*
G02*
X148100000Y-96600000I0J350000D01*
G01*
X148100000Y-95900000D01*
G75*
G02*
X148450000Y-95550000I350000J0D01*
G01*
G37*
%TD.AperFunction*%
%TA.AperFunction,SMDPad,CuDef*%
G36*
G01*
X141750000Y-94450000D02*
X143550000Y-94450000D01*
G75*
G02*
X143900000Y-94800000I0J-350000D01*
G01*
X143900000Y-95500000D01*
G75*
G02*
X143550000Y-95850000I-350000J0D01*
G01*
X141750000Y-95850000D01*
G75*
G02*
X141400000Y-95500000I0J350000D01*
G01*
X141400000Y-94800000D01*
G75*
G02*
X141750000Y-94450000I350000J0D01*
G01*
G37*
%TD.AperFunction*%
D10*
X147600000Y-101400000D03*
X147500000Y-92300000D03*
X145742013Y-91683407D03*
X144400000Y-95300000D03*
X153259726Y-96345912D03*
X154725846Y-102825846D03*
X150932227Y-90460000D03*
X147660875Y-96031795D03*
X150675000Y-93725000D03*
X142437163Y-96318299D03*
X146628734Y-101180351D03*
X144930000Y-98510000D03*
X147090000Y-104000000D03*
X140650000Y-96450000D03*
X148766461Y-89168761D03*
X155498919Y-98731486D03*
X141500000Y-93950000D03*
X145600000Y-94600000D03*
X152450000Y-100700000D03*
X141347667Y-89295030D03*
X152100000Y-95200000D03*
X153050000Y-87950000D03*
X146094763Y-98043240D03*
X140241844Y-89830053D03*
X156250000Y-101500000D03*
X150734900Y-85730635D03*
X146231267Y-87073168D03*
X149329349Y-95000000D03*
X145029276Y-96886129D03*
X141019320Y-98452748D03*
X151830000Y-98330000D03*
X147700000Y-91050000D03*
X150500000Y-89200000D03*
X146500000Y-89900000D03*
X140245146Y-93007561D03*
X148700000Y-103800000D03*
X141430000Y-102620000D03*
X157150000Y-100300000D03*
X148200330Y-87221401D03*
X155809233Y-92092842D03*
X155000000Y-88100000D03*
X141400000Y-104000000D03*
X151250000Y-87250000D03*
X140750000Y-88050000D03*
X154100000Y-91100000D03*
X148250000Y-98200000D03*
X145100000Y-100150000D03*
X140580000Y-101730000D03*
X147392781Y-93483309D03*
X143427000Y-98777000D03*
X154119756Y-91969043D03*
X154100000Y-93475411D03*
X146764724Y-98109168D03*
X150213060Y-101443252D03*
X149900000Y-100900000D03*
X146534121Y-97517784D03*
X148850000Y-98700000D03*
X148200000Y-87900000D03*
X142772997Y-89750000D03*
X143400000Y-89750000D03*
X150094689Y-100259952D03*
X145916702Y-97402483D03*
X153072451Y-98484931D03*
X154078546Y-99332983D03*
X153713381Y-98729789D03*
X152447901Y-98540324D03*
X147208323Y-101991841D03*
X146760575Y-102430764D03*
X146605824Y-101818270D03*
D11*
X142900000Y-97300000D02*
X142900000Y-98995291D01*
D12*
X144800000Y-90741394D02*
X144800000Y-87560000D01*
D11*
X144400000Y-95300000D02*
X144400000Y-95800000D01*
D12*
X144400000Y-93025420D02*
X145742013Y-91683407D01*
X148600000Y-92300000D02*
X147500000Y-92300000D01*
D11*
X154700000Y-98500000D02*
X153800000Y-97600000D01*
D12*
X143600000Y-86360000D02*
X143600000Y-86200000D01*
D11*
X154000000Y-104600000D02*
X154700000Y-103900000D01*
X144400000Y-95800000D02*
X142900000Y-97300000D01*
X145504000Y-99304000D02*
X147743000Y-101543000D01*
D12*
X150932227Y-90460000D02*
X151900000Y-90100000D01*
D11*
X142900000Y-98995291D02*
X143208709Y-99304000D01*
D12*
X150932227Y-90460000D02*
X150440000Y-90460000D01*
D11*
X153800000Y-97600000D02*
X153800000Y-96900000D01*
D12*
X149003604Y-92703604D02*
X148600000Y-92300000D01*
D11*
X147743000Y-104129349D02*
X148213651Y-104600000D01*
D12*
X150440000Y-90460000D02*
X148600000Y-92300000D01*
X145742013Y-91683407D02*
X145758606Y-91700000D01*
X144800000Y-87560000D02*
X143600000Y-86360000D01*
X145742013Y-91683407D02*
X144800000Y-90741394D01*
X144400000Y-95300000D02*
X144400000Y-93025420D01*
X146900000Y-91700000D02*
X147500000Y-92300000D01*
D11*
X148213651Y-104600000D02*
X154000000Y-104600000D01*
X147743000Y-101543000D02*
X147743000Y-104129349D01*
X143208709Y-99304000D02*
X145504000Y-99304000D01*
D12*
X149704518Y-92703604D02*
X149003604Y-92703604D01*
X145758606Y-91700000D02*
X146900000Y-91700000D01*
D11*
X154700000Y-103900000D02*
X154700000Y-98500000D01*
X153800000Y-96900000D02*
X153250000Y-96350000D01*
X147392781Y-93483309D02*
X147392781Y-92992781D01*
X144927000Y-93173000D02*
X144927000Y-95973000D01*
X143427000Y-97473000D02*
X143427000Y-98777000D01*
X145900000Y-92200000D02*
X144927000Y-93173000D01*
X146600000Y-92200000D02*
X145900000Y-92200000D01*
X144927000Y-95973000D02*
X143427000Y-97473000D01*
X147392781Y-92992781D02*
X146600000Y-92200000D01*
D13*
X153560000Y-94060000D02*
X153560000Y-93475411D01*
X156785239Y-97285239D02*
X153560000Y-94060000D01*
X153565957Y-91969043D02*
X154119756Y-91969043D01*
X153560000Y-91975000D02*
X153560000Y-93475411D01*
X154119756Y-91969043D02*
X153975794Y-91969043D01*
X153955627Y-93475000D02*
X153956038Y-93475411D01*
X153560000Y-93475411D02*
X154100000Y-93475411D01*
X153560000Y-91975000D02*
X153565957Y-91969043D01*
X156809832Y-97285239D02*
X156785239Y-97285239D01*
D14*
X150213060Y-101443252D02*
X149820290Y-101443252D01*
X148549532Y-100767952D02*
X146764724Y-98983144D01*
X146764724Y-98983144D02*
X146764724Y-98109168D01*
X149820290Y-101443252D02*
X149144990Y-100767952D01*
X149144990Y-100767952D02*
X148549532Y-100767952D01*
X147205224Y-99064434D02*
X148654742Y-100513952D01*
X147205224Y-97805224D02*
X147205224Y-99064434D01*
X149513952Y-100513952D02*
X149900000Y-100900000D01*
X146917784Y-97517784D02*
X147205224Y-97805224D01*
X146534121Y-97517784D02*
X146917784Y-97517784D01*
X148654742Y-100513952D02*
X149513952Y-100513952D01*
X146463500Y-85263500D02*
X147400000Y-86200000D01*
X152500000Y-95450000D02*
X153422383Y-95450000D01*
X149250000Y-98700000D02*
X152500000Y-95450000D01*
X148336500Y-85263500D02*
X147400000Y-86200000D01*
X141286500Y-85263500D02*
X146463500Y-85263500D01*
X157452210Y-88300000D02*
X156150000Y-88300000D01*
X154900000Y-87050000D02*
X154900000Y-85547790D01*
X153422383Y-95450000D02*
X156172383Y-98200000D01*
X156172383Y-98200000D02*
X157447281Y-98200000D01*
X142750000Y-88150000D02*
X142100000Y-88150000D01*
X157447281Y-98200000D02*
X157736500Y-97910781D01*
X141000000Y-87050000D02*
X141000000Y-85550000D01*
X154900000Y-85547790D02*
X154615710Y-85263500D01*
X148850000Y-98700000D02*
X149250000Y-98700000D01*
X157736500Y-97910781D02*
X157736500Y-88584290D01*
X156150000Y-88300000D02*
X154900000Y-87050000D01*
X142100000Y-88150000D02*
X141000000Y-87050000D01*
X154615710Y-85263500D02*
X148336500Y-85263500D01*
X141000000Y-85550000D02*
X141286500Y-85263500D01*
X157736500Y-88584290D02*
X157452210Y-88300000D01*
D15*
X142750000Y-93350000D02*
X142750000Y-95150000D01*
X141150000Y-91750000D02*
X142750000Y-93350000D01*
X141850000Y-89750000D02*
X141150000Y-90450000D01*
X148227000Y-87873000D02*
X148200000Y-87900000D01*
X152800000Y-87400000D02*
X152327000Y-87873000D01*
X151750000Y-87873000D02*
X148227000Y-87873000D01*
X154000000Y-86200000D02*
X152800000Y-87400000D01*
X141150000Y-90450000D02*
X141150000Y-91750000D01*
X152327000Y-87873000D02*
X151750000Y-87873000D01*
X142772997Y-89750000D02*
X141850000Y-89750000D01*
X143400000Y-90500000D02*
X143400000Y-89750000D01*
X142750000Y-91150000D02*
X143400000Y-90500000D01*
D14*
X147459224Y-97673505D02*
X147459224Y-98959224D01*
X146284922Y-97034263D02*
X146819982Y-97034263D01*
X145916702Y-97402483D02*
X146284922Y-97034263D01*
X148759952Y-100259952D02*
X150094689Y-100259952D01*
X147459224Y-98959224D02*
X148759952Y-100259952D01*
X146819982Y-97034263D02*
X147459224Y-97673505D01*
X153072451Y-98686759D02*
X153072451Y-98484931D01*
X150300000Y-102338484D02*
X150907560Y-101730924D01*
X150907560Y-100851650D02*
X153072451Y-98686759D01*
X150907560Y-101730924D02*
X150907560Y-100851650D01*
X150300000Y-102600000D02*
X150300000Y-102338484D01*
X151454000Y-101454000D02*
X151454000Y-101023630D01*
X153500000Y-102000000D02*
X153300000Y-101800000D01*
X153300000Y-101800000D02*
X151800000Y-101800000D01*
X151454000Y-101023630D02*
X153277630Y-99200000D01*
X153277630Y-99200000D02*
X153945563Y-99200000D01*
X151800000Y-101800000D02*
X151454000Y-101454000D01*
X153500000Y-102600000D02*
X153500000Y-102000000D01*
X153945563Y-99200000D02*
X154078546Y-99332983D01*
X153713381Y-98729789D02*
X153517739Y-98925431D01*
X151200000Y-101700000D02*
X151900000Y-102400000D01*
X151900000Y-102400000D02*
X151900000Y-102600000D01*
X151200000Y-100918420D02*
X151200000Y-101700000D01*
X153192989Y-98925431D02*
X151200000Y-100918420D01*
X153517739Y-98925431D02*
X153192989Y-98925431D01*
X150395522Y-101883752D02*
X150653560Y-101625714D01*
X150653560Y-100746440D02*
X152447901Y-98952099D01*
X148700000Y-102600000D02*
X148700000Y-102000000D01*
X152447901Y-98952099D02*
X152447901Y-98540324D01*
X148700000Y-102000000D02*
X148816248Y-101883752D01*
X150653560Y-101625714D02*
X150653560Y-100746440D01*
X148816248Y-101883752D02*
X150395522Y-101883752D01*
X146943037Y-102871264D02*
X147208323Y-102605978D01*
X147208323Y-102605978D02*
X147208323Y-101991841D01*
X139200000Y-99200000D02*
X142684764Y-102684764D01*
X146391613Y-102684764D02*
X146578113Y-102871264D01*
X142684764Y-102684764D02*
X146391613Y-102684764D01*
X146578113Y-102871264D02*
X146943037Y-102871264D01*
X146760575Y-102430764D02*
X142790764Y-102430764D01*
X139600000Y-97600000D02*
X139200000Y-97600000D01*
X140400000Y-98400000D02*
X139600000Y-97600000D01*
X140400000Y-100040000D02*
X140400000Y-98400000D01*
X142790764Y-102430764D02*
X140400000Y-100040000D01*
X145480000Y-101160000D02*
X144390000Y-101160000D01*
X146605824Y-101818270D02*
X146138270Y-101818270D01*
X146138270Y-101818270D02*
X145480000Y-101160000D01*
%TA.AperFunction,Conductor*%
G36*
X142844194Y-86901491D02*
G01*
X142913430Y-86970727D01*
X142913431Y-86970727D01*
X142913432Y-86970728D01*
X143021301Y-87021029D01*
X143070455Y-87027500D01*
X143778456Y-87027499D01*
X143822650Y-87045805D01*
X144454194Y-87677349D01*
X144472500Y-87721543D01*
X144472500Y-90784515D01*
X144494818Y-90867801D01*
X144494818Y-90867803D01*
X144494819Y-90867804D01*
X144537935Y-90942484D01*
X144537939Y-90942488D01*
X145234664Y-91639213D01*
X145252970Y-91683407D01*
X145234664Y-91727601D01*
X144137939Y-92824325D01*
X144137936Y-92824329D01*
X144137935Y-92824330D01*
X144131255Y-92835900D01*
X144094818Y-92899010D01*
X144094818Y-92899012D01*
X144072500Y-92982298D01*
X144072500Y-94513402D01*
X144054194Y-94557596D01*
X144010000Y-94575902D01*
X143965806Y-94557596D01*
X143959967Y-94550858D01*
X143891114Y-94458884D01*
X143891112Y-94458882D01*
X143781200Y-94376601D01*
X143781197Y-94376599D01*
X143652545Y-94328615D01*
X143595675Y-94322500D01*
X143595668Y-94322500D01*
X143040000Y-94322500D01*
X142995806Y-94304194D01*
X142977500Y-94260000D01*
X142977500Y-93304748D01*
X142977500Y-93304747D01*
X142968677Y-93283447D01*
X142942866Y-93221132D01*
X141805928Y-92084194D01*
X141787622Y-92040000D01*
X141805928Y-91995806D01*
X141850122Y-91977500D01*
X143595662Y-91977500D01*
X143595668Y-91977500D01*
X143652544Y-91971385D01*
X143781195Y-91923401D01*
X143781195Y-91923400D01*
X143781197Y-91923400D01*
X143781200Y-91923398D01*
X143876541Y-91852025D01*
X143891115Y-91841115D01*
X143937875Y-91778652D01*
X143973398Y-91731200D01*
X143973400Y-91731197D01*
X143982592Y-91706552D01*
X144021385Y-91602544D01*
X144027500Y-91545668D01*
X144027500Y-90754332D01*
X144021385Y-90697456D01*
X143973401Y-90568805D01*
X143973400Y-90568802D01*
X143973398Y-90568799D01*
X143891117Y-90458887D01*
X143891112Y-90458882D01*
X143781200Y-90376601D01*
X143781197Y-90376599D01*
X143668158Y-90334438D01*
X143633148Y-90301842D01*
X143627500Y-90275879D01*
X143627500Y-90082253D01*
X143645806Y-90038059D01*
X143702075Y-89981790D01*
X143751774Y-89895709D01*
X143777500Y-89799699D01*
X143777500Y-89700301D01*
X143773820Y-89686569D01*
X143767517Y-89663046D01*
X143751774Y-89604291D01*
X143702075Y-89518210D01*
X143702073Y-89518208D01*
X143702070Y-89518204D01*
X143631795Y-89447929D01*
X143631791Y-89447926D01*
X143631790Y-89447925D01*
X143545709Y-89398226D01*
X143545708Y-89398225D01*
X143545707Y-89398225D01*
X143449703Y-89372500D01*
X143449699Y-89372500D01*
X143350301Y-89372500D01*
X143350296Y-89372500D01*
X143254293Y-89398225D01*
X143254291Y-89398225D01*
X143168208Y-89447926D01*
X143130692Y-89485442D01*
X143086497Y-89503747D01*
X143042304Y-89485441D01*
X143004792Y-89447929D01*
X143004788Y-89447926D01*
X143004787Y-89447925D01*
X142918706Y-89398226D01*
X142918705Y-89398225D01*
X142918704Y-89398225D01*
X142822700Y-89372500D01*
X142822696Y-89372500D01*
X142723298Y-89372500D01*
X142723293Y-89372500D01*
X142627290Y-89398225D01*
X142627288Y-89398225D01*
X142541205Y-89447926D01*
X142513072Y-89476060D01*
X142484937Y-89504194D01*
X142440745Y-89522500D01*
X141804745Y-89522500D01*
X141738024Y-89550138D01*
X141731783Y-89552722D01*
X141721132Y-89557134D01*
X140957136Y-90321130D01*
X140957132Y-90321135D01*
X140922500Y-90404744D01*
X140922500Y-91795255D01*
X140957132Y-91878864D01*
X140957136Y-91878869D01*
X142504194Y-93425927D01*
X142522500Y-93470121D01*
X142522500Y-94260000D01*
X142504194Y-94304194D01*
X142460000Y-94322500D01*
X141704324Y-94322500D01*
X141647454Y-94328615D01*
X141518802Y-94376599D01*
X141518799Y-94376601D01*
X141408887Y-94458882D01*
X141408882Y-94458887D01*
X141326601Y-94568799D01*
X141326599Y-94568802D01*
X141278615Y-94697454D01*
X141272500Y-94754324D01*
X141272500Y-95545675D01*
X141278615Y-95602545D01*
X141326599Y-95731197D01*
X141326601Y-95731200D01*
X141408882Y-95841112D01*
X141408887Y-95841117D01*
X141518799Y-95923398D01*
X141518802Y-95923400D01*
X141518805Y-95923401D01*
X141647456Y-95971385D01*
X141704332Y-95977500D01*
X141704338Y-95977500D01*
X143595662Y-95977500D01*
X143595668Y-95977500D01*
X143652544Y-95971385D01*
X143676207Y-95962559D01*
X143724010Y-95964265D01*
X143756607Y-95999275D01*
X143754901Y-96047080D01*
X143742242Y-96065312D01*
X142677943Y-97129611D01*
X142641411Y-97192888D01*
X142641410Y-97192890D01*
X142622499Y-97263460D01*
X142622499Y-97341565D01*
X142622500Y-97341578D01*
X142622500Y-98954915D01*
X142622499Y-98954933D01*
X142622499Y-99031830D01*
X142641410Y-99102400D01*
X142641411Y-99102402D01*
X142677942Y-99165678D01*
X142677946Y-99165683D01*
X142984465Y-99472200D01*
X142984470Y-99472206D01*
X142986653Y-99474389D01*
X143038320Y-99526056D01*
X143101598Y-99562589D01*
X143172175Y-99581500D01*
X145363167Y-99581500D01*
X145407361Y-99599806D01*
X147204194Y-101396638D01*
X147220954Y-101427015D01*
X147222500Y-101433835D01*
X147222500Y-101449699D01*
X147245849Y-101536841D01*
X147246118Y-101538024D01*
X147242265Y-101560496D01*
X147239291Y-101583091D01*
X147238255Y-101583885D01*
X147238035Y-101585171D01*
X147219423Y-101598335D01*
X147201340Y-101612211D01*
X147199455Y-101612459D01*
X147198981Y-101612795D01*
X147198079Y-101612640D01*
X147185164Y-101614341D01*
X147158619Y-101614341D01*
X147062616Y-101640066D01*
X147062614Y-101640066D01*
X147023908Y-101662414D01*
X146976481Y-101668657D01*
X146938531Y-101639537D01*
X146907899Y-101586480D01*
X146907897Y-101586478D01*
X146907894Y-101586474D01*
X146837619Y-101516199D01*
X146837615Y-101516196D01*
X146837614Y-101516195D01*
X146751533Y-101466496D01*
X146751532Y-101466495D01*
X146751531Y-101466495D01*
X146655527Y-101440770D01*
X146655523Y-101440770D01*
X146556125Y-101440770D01*
X146556120Y-101440770D01*
X146460117Y-101466495D01*
X146460115Y-101466495D01*
X146374032Y-101516196D01*
X146374028Y-101516199D01*
X146303753Y-101586474D01*
X146303748Y-101586480D01*
X146298242Y-101596019D01*
X146291541Y-101601160D01*
X146288309Y-101608964D01*
X146273235Y-101615207D01*
X146260292Y-101625140D01*
X146244115Y-101627270D01*
X146243273Y-101627270D01*
X146199079Y-101608964D01*
X145588194Y-100998079D01*
X145588193Y-100998078D01*
X145517992Y-100969000D01*
X145517991Y-100969000D01*
X145083870Y-100969000D01*
X145039676Y-100950694D01*
X145021905Y-100914657D01*
X145017986Y-100884887D01*
X145017982Y-100884868D01*
X144983912Y-100757720D01*
X144983911Y-100757719D01*
X144983910Y-100757713D01*
X144970673Y-100725757D01*
X144920148Y-100638245D01*
X144904848Y-100611744D01*
X144895682Y-100599799D01*
X144883791Y-100584301D01*
X144790699Y-100491209D01*
X144782603Y-100484997D01*
X144763255Y-100470151D01*
X144649249Y-100404330D01*
X144649245Y-100404328D01*
X144649243Y-100404327D01*
X144617287Y-100391090D01*
X144617284Y-100391089D01*
X144617279Y-100391087D01*
X144490131Y-100357017D01*
X144490121Y-100357015D01*
X144490120Y-100357015D01*
X144490115Y-100357014D01*
X144490113Y-100357014D01*
X144455830Y-100352500D01*
X144455826Y-100352500D01*
X143890000Y-100352500D01*
X143862479Y-100358487D01*
X143834957Y-100364474D01*
X143778533Y-100413365D01*
X143778532Y-100413366D01*
X143757500Y-100484997D01*
X143757500Y-100485000D01*
X143757500Y-101835000D01*
X143768062Y-101883550D01*
X143769474Y-101890042D01*
X143818365Y-101946466D01*
X143818366Y-101946467D01*
X143889997Y-101967499D01*
X143889999Y-101967500D01*
X143890000Y-101967500D01*
X144455820Y-101967500D01*
X144455826Y-101967500D01*
X144490120Y-101962985D01*
X144617287Y-101928910D01*
X144649243Y-101915673D01*
X144763257Y-101849847D01*
X144790699Y-101828791D01*
X144883791Y-101735699D01*
X144904847Y-101708257D01*
X144970673Y-101594243D01*
X144983910Y-101562287D01*
X145017985Y-101435120D01*
X145021905Y-101405342D01*
X145045822Y-101363916D01*
X145083870Y-101351000D01*
X145374997Y-101351000D01*
X145419191Y-101369306D01*
X146030077Y-101980192D01*
X146100278Y-102009270D01*
X146176262Y-102009270D01*
X146244115Y-102009270D01*
X146288309Y-102027576D01*
X146298242Y-102040521D01*
X146303748Y-102050059D01*
X146303753Y-102050065D01*
X146374031Y-102120343D01*
X146374033Y-102120344D01*
X146374034Y-102120345D01*
X146378871Y-102123138D01*
X146407991Y-102161087D01*
X146401748Y-102208514D01*
X146363798Y-102237634D01*
X146347621Y-102239764D01*
X142895767Y-102239764D01*
X142851573Y-102221458D01*
X140609306Y-99979191D01*
X140591000Y-99934997D01*
X140591000Y-98362010D01*
X140591000Y-98362008D01*
X140561922Y-98291807D01*
X140508193Y-98238078D01*
X140045805Y-97775690D01*
X140027499Y-97731496D01*
X140027499Y-97070464D01*
X140027499Y-97070456D01*
X140021029Y-97021301D01*
X139970728Y-96913432D01*
X139970727Y-96913431D01*
X139970727Y-96913430D01*
X139886569Y-96829272D01*
X139778698Y-96778970D01*
X139729545Y-96772500D01*
X138670464Y-96772500D01*
X138670462Y-96772500D01*
X138670456Y-96772501D01*
X138621301Y-96778971D01*
X138621299Y-96778971D01*
X138621298Y-96778972D01*
X138513430Y-96829272D01*
X138513430Y-96829273D01*
X138429273Y-96913430D01*
X138429272Y-96913430D01*
X138378970Y-97021301D01*
X138372500Y-97070448D01*
X138372500Y-98129535D01*
X138372500Y-98129536D01*
X138372501Y-98129544D01*
X138378971Y-98178699D01*
X138380910Y-98182857D01*
X138429272Y-98286569D01*
X138498509Y-98355806D01*
X138516815Y-98400000D01*
X138498509Y-98444194D01*
X138429273Y-98513430D01*
X138429272Y-98513430D01*
X138378970Y-98621301D01*
X138372500Y-98670448D01*
X138372500Y-99729535D01*
X138372500Y-99729536D01*
X138372501Y-99729544D01*
X138378971Y-99778699D01*
X138378972Y-99778701D01*
X138429272Y-99886569D01*
X138513430Y-99970727D01*
X138513431Y-99970727D01*
X138513432Y-99970728D01*
X138621301Y-100021029D01*
X138670455Y-100027500D01*
X139729544Y-100027499D01*
X139731496Y-100027499D01*
X139775690Y-100045805D01*
X142522842Y-102792957D01*
X142576571Y-102846686D01*
X142576572Y-102846686D01*
X142576573Y-102846687D01*
X142590021Y-102852257D01*
X142623847Y-102886081D01*
X142623848Y-102933916D01*
X142590024Y-102967742D01*
X142566105Y-102972500D01*
X142270464Y-102972500D01*
X142270462Y-102972500D01*
X142270456Y-102972501D01*
X142221301Y-102978971D01*
X142221299Y-102978971D01*
X142221298Y-102978972D01*
X142113430Y-103029272D01*
X142113430Y-103029273D01*
X142029273Y-103113430D01*
X142029272Y-103113430D01*
X141978970Y-103221301D01*
X141972500Y-103270448D01*
X141972500Y-104329535D01*
X141972500Y-104329536D01*
X141972501Y-104329544D01*
X141978971Y-104378699D01*
X141978972Y-104378701D01*
X142029272Y-104486569D01*
X142113430Y-104570727D01*
X142113431Y-104570727D01*
X142113432Y-104570728D01*
X142221301Y-104621029D01*
X142270455Y-104627500D01*
X143329544Y-104627499D01*
X143378699Y-104621029D01*
X143486568Y-104570728D01*
X143486569Y-104570727D01*
X143486570Y-104570727D01*
X143555806Y-104501491D01*
X143600000Y-104483185D01*
X143644194Y-104501491D01*
X143713430Y-104570727D01*
X143713431Y-104570727D01*
X143713432Y-104570728D01*
X143821301Y-104621029D01*
X143870455Y-104627500D01*
X144929544Y-104627499D01*
X144978699Y-104621029D01*
X145086568Y-104570728D01*
X145086569Y-104570727D01*
X145086570Y-104570727D01*
X145170727Y-104486570D01*
X145170727Y-104486569D01*
X145170728Y-104486568D01*
X145221029Y-104378699D01*
X145227500Y-104329545D01*
X145227499Y-103270456D01*
X145221029Y-103221301D01*
X145170728Y-103113432D01*
X145170727Y-103113431D01*
X145170727Y-103113430D01*
X145086569Y-103029272D01*
X145025470Y-103000781D01*
X145012874Y-102994907D01*
X144980558Y-102959640D01*
X144982645Y-102911850D01*
X145017913Y-102879533D01*
X145039289Y-102875764D01*
X146286610Y-102875764D01*
X146330804Y-102894070D01*
X146416191Y-102979457D01*
X146469920Y-103033186D01*
X146540121Y-103062264D01*
X146540123Y-103062264D01*
X146981027Y-103062264D01*
X146981029Y-103062264D01*
X147051230Y-103033186D01*
X147358806Y-102725610D01*
X147403000Y-102707304D01*
X147447194Y-102725610D01*
X147465500Y-102769804D01*
X147465500Y-104088973D01*
X147465499Y-104088991D01*
X147465499Y-104165888D01*
X147484410Y-104236458D01*
X147484411Y-104236460D01*
X147520943Y-104299737D01*
X147914012Y-104692806D01*
X147932318Y-104737000D01*
X147914012Y-104781194D01*
X147869818Y-104799500D01*
X140074515Y-104799500D01*
X140030321Y-104781194D01*
X140012015Y-104737000D01*
X140030321Y-104692806D01*
X140046141Y-104681312D01*
X140181610Y-104612287D01*
X140347219Y-104491966D01*
X140491966Y-104347219D01*
X140612287Y-104181610D01*
X140705220Y-103999219D01*
X140768477Y-103804534D01*
X140800500Y-103602352D01*
X140800500Y-103397648D01*
X140768477Y-103195466D01*
X140705220Y-103000781D01*
X140612287Y-102818390D01*
X140491966Y-102652781D01*
X140491964Y-102652778D01*
X140347221Y-102508035D01*
X140181613Y-102387715D01*
X140181612Y-102387714D01*
X140181610Y-102387713D01*
X140043743Y-102317466D01*
X139999220Y-102294780D01*
X139999217Y-102294779D01*
X139804532Y-102231522D01*
X139804533Y-102231522D01*
X139602363Y-102199501D01*
X139602353Y-102199500D01*
X139602352Y-102199500D01*
X139397648Y-102199500D01*
X139397646Y-102199500D01*
X139397636Y-102199501D01*
X139195466Y-102231522D01*
X139000782Y-102294779D01*
X139000779Y-102294780D01*
X138818386Y-102387715D01*
X138652778Y-102508035D01*
X138508035Y-102652778D01*
X138387715Y-102818386D01*
X138318688Y-102953859D01*
X138282313Y-102984925D01*
X138234625Y-102981172D01*
X138203559Y-102944797D01*
X138200500Y-102925484D01*
X138200500Y-88470448D01*
X138372500Y-88470448D01*
X138372500Y-89529535D01*
X138372500Y-89529536D01*
X138372501Y-89529544D01*
X138378971Y-89578699D01*
X138378972Y-89578701D01*
X138429272Y-89686569D01*
X138498509Y-89755806D01*
X138516815Y-89800000D01*
X138498509Y-89844194D01*
X138429273Y-89913430D01*
X138429272Y-89913430D01*
X138378970Y-90021301D01*
X138372500Y-90070448D01*
X138372500Y-91129535D01*
X138372500Y-91129536D01*
X138372501Y-91129544D01*
X138378971Y-91178699D01*
X138378972Y-91178701D01*
X138429272Y-91286569D01*
X138498509Y-91355806D01*
X138516815Y-91400000D01*
X138498509Y-91444194D01*
X138429273Y-91513430D01*
X138429272Y-91513430D01*
X138378970Y-91621301D01*
X138372500Y-91670448D01*
X138372500Y-92729535D01*
X138372500Y-92729536D01*
X138372501Y-92729544D01*
X138378971Y-92778699D01*
X138378972Y-92778701D01*
X138429272Y-92886569D01*
X138498509Y-92955806D01*
X138516815Y-93000000D01*
X138498509Y-93044194D01*
X138429273Y-93113430D01*
X138429272Y-93113430D01*
X138378970Y-93221301D01*
X138372500Y-93270448D01*
X138372500Y-94329535D01*
X138372500Y-94329536D01*
X138372501Y-94329544D01*
X138378971Y-94378699D01*
X138378972Y-94378701D01*
X138429272Y-94486569D01*
X138513430Y-94570727D01*
X138513431Y-94570727D01*
X138513432Y-94570728D01*
X138621301Y-94621029D01*
X138670455Y-94627500D01*
X139729544Y-94627499D01*
X139778699Y-94621029D01*
X139886568Y-94570728D01*
X139886569Y-94570727D01*
X139886570Y-94570727D01*
X139970727Y-94486570D01*
X139970727Y-94486569D01*
X139970728Y-94486568D01*
X140021029Y-94378699D01*
X140027500Y-94329545D01*
X140027499Y-93270456D01*
X140021029Y-93221301D01*
X139970728Y-93113432D01*
X139970727Y-93113431D01*
X139970727Y-93113430D01*
X139901491Y-93044194D01*
X139883185Y-93000000D01*
X139901491Y-92955806D01*
X139970727Y-92886570D01*
X139970727Y-92886569D01*
X139970728Y-92886568D01*
X140021029Y-92778699D01*
X140027500Y-92729545D01*
X140027499Y-91670456D01*
X140021029Y-91621301D01*
X139970728Y-91513432D01*
X139970727Y-91513431D01*
X139970727Y-91513430D01*
X139901491Y-91444194D01*
X139883185Y-91400000D01*
X139901491Y-91355806D01*
X139970727Y-91286570D01*
X139970727Y-91286569D01*
X139970728Y-91286568D01*
X140021029Y-91178699D01*
X140027500Y-91129545D01*
X140027499Y-90070456D01*
X140021029Y-90021301D01*
X139970728Y-89913432D01*
X139970727Y-89913431D01*
X139970727Y-89913430D01*
X139901491Y-89844194D01*
X139883185Y-89800000D01*
X139901491Y-89755806D01*
X139970727Y-89686570D01*
X139970727Y-89686569D01*
X139970728Y-89686568D01*
X140021029Y-89578699D01*
X140027500Y-89529545D01*
X140027499Y-88470456D01*
X140021029Y-88421301D01*
X139970728Y-88313432D01*
X139970727Y-88313431D01*
X139970727Y-88313430D01*
X139886569Y-88229272D01*
X139778698Y-88178970D01*
X139729545Y-88172500D01*
X138670464Y-88172500D01*
X138670462Y-88172500D01*
X138670456Y-88172501D01*
X138621301Y-88178971D01*
X138621299Y-88178971D01*
X138621298Y-88178972D01*
X138513430Y-88229272D01*
X138513430Y-88229273D01*
X138429273Y-88313430D01*
X138429272Y-88313430D01*
X138378970Y-88421301D01*
X138372500Y-88470448D01*
X138200500Y-88470448D01*
X138200500Y-87074515D01*
X138218806Y-87030321D01*
X138263000Y-87012015D01*
X138307194Y-87030321D01*
X138318688Y-87046141D01*
X138387713Y-87181611D01*
X138508035Y-87347221D01*
X138652778Y-87491964D01*
X138730217Y-87548226D01*
X138818390Y-87612287D01*
X139000781Y-87705220D01*
X139195466Y-87768477D01*
X139397648Y-87800500D01*
X139397650Y-87800500D01*
X139602350Y-87800500D01*
X139602352Y-87800500D01*
X139804534Y-87768477D01*
X139999219Y-87705220D01*
X140181610Y-87612287D01*
X140347219Y-87491966D01*
X140491966Y-87347219D01*
X140612287Y-87181610D01*
X140690812Y-87027495D01*
X140727186Y-86996429D01*
X140774874Y-87000182D01*
X140805941Y-87036556D01*
X140809000Y-87055870D01*
X140809000Y-87087992D01*
X140828137Y-87134193D01*
X140838077Y-87158191D01*
X140838079Y-87158194D01*
X141277032Y-87597147D01*
X141295338Y-87641341D01*
X141291398Y-87663181D01*
X141278615Y-87697454D01*
X141272500Y-87754324D01*
X141272500Y-88545675D01*
X141278615Y-88602545D01*
X141326599Y-88731197D01*
X141326601Y-88731200D01*
X141408882Y-88841112D01*
X141408887Y-88841117D01*
X141518799Y-88923398D01*
X141518802Y-88923400D01*
X141518805Y-88923401D01*
X141647456Y-88971385D01*
X141704332Y-88977500D01*
X141704338Y-88977500D01*
X143595662Y-88977500D01*
X143595668Y-88977500D01*
X143652544Y-88971385D01*
X143781195Y-88923401D01*
X143781195Y-88923400D01*
X143781197Y-88923400D01*
X143781200Y-88923398D01*
X143891112Y-88841117D01*
X143891111Y-88841117D01*
X143891115Y-88841115D01*
X143911570Y-88813789D01*
X143973398Y-88731200D01*
X143973400Y-88731197D01*
X143973401Y-88731195D01*
X144021385Y-88602544D01*
X144027500Y-88545668D01*
X144027500Y-87754332D01*
X144021385Y-87697456D01*
X143984263Y-87597928D01*
X143973400Y-87568802D01*
X143973398Y-87568799D01*
X143891117Y-87458887D01*
X143891112Y-87458882D01*
X143781200Y-87376601D01*
X143781197Y-87376599D01*
X143652545Y-87328615D01*
X143595675Y-87322500D01*
X143595668Y-87322500D01*
X141704332Y-87322500D01*
X141704324Y-87322500D01*
X141647454Y-87328615D01*
X141613181Y-87341398D01*
X141565377Y-87339690D01*
X141547147Y-87327032D01*
X141334370Y-87114255D01*
X141316064Y-87070061D01*
X141334370Y-87025867D01*
X141378564Y-87007561D01*
X141404975Y-87013416D01*
X141421301Y-87021029D01*
X141470455Y-87027500D01*
X142529544Y-87027499D01*
X142578699Y-87021029D01*
X142686568Y-86970728D01*
X142686569Y-86970727D01*
X142686570Y-86970727D01*
X142755806Y-86901491D01*
X142800000Y-86883185D01*
X142844194Y-86901491D01*
G37*
%TD.AperFunction*%
%TA.AperFunction,Conductor*%
G36*
X146402691Y-85472806D02*
G01*
X146554194Y-85624309D01*
X146572500Y-85668503D01*
X146572500Y-86729535D01*
X146572500Y-86729536D01*
X146572501Y-86729544D01*
X146578971Y-86778699D01*
X146578972Y-86778701D01*
X146629272Y-86886569D01*
X146713430Y-86970727D01*
X146713431Y-86970727D01*
X146713432Y-86970728D01*
X146821301Y-87021029D01*
X146870455Y-87027500D01*
X147929544Y-87027499D01*
X147978699Y-87021029D01*
X148086568Y-86970728D01*
X148086569Y-86970727D01*
X148086570Y-86970727D01*
X148170727Y-86886570D01*
X148170727Y-86886569D01*
X148170728Y-86886568D01*
X148221029Y-86778699D01*
X148227500Y-86729545D01*
X148227499Y-85670456D01*
X148227499Y-85670455D01*
X148227499Y-85668503D01*
X148245805Y-85624309D01*
X148397309Y-85472806D01*
X148441503Y-85454500D01*
X151358647Y-85454500D01*
X151402841Y-85472806D01*
X151421147Y-85517000D01*
X151415291Y-85543414D01*
X151378970Y-85621301D01*
X151372500Y-85670448D01*
X151372500Y-86729535D01*
X151372500Y-86729536D01*
X151372501Y-86729544D01*
X151378971Y-86778699D01*
X151378972Y-86778701D01*
X151429272Y-86886569D01*
X151513430Y-86970727D01*
X151513431Y-86970727D01*
X151513432Y-86970728D01*
X151621301Y-87021029D01*
X151670455Y-87027500D01*
X152699879Y-87027499D01*
X152744073Y-87045805D01*
X152762379Y-87089999D01*
X152744073Y-87134193D01*
X152671132Y-87207135D01*
X152251073Y-87627194D01*
X152206879Y-87645500D01*
X148505253Y-87645500D01*
X148461059Y-87627194D01*
X148461058Y-87627193D01*
X148431794Y-87597928D01*
X148431791Y-87597926D01*
X148431790Y-87597925D01*
X148345709Y-87548226D01*
X148345708Y-87548225D01*
X148345707Y-87548225D01*
X148249703Y-87522500D01*
X148249699Y-87522500D01*
X148150301Y-87522500D01*
X148150296Y-87522500D01*
X148054293Y-87548225D01*
X148054291Y-87548225D01*
X147968208Y-87597926D01*
X147968204Y-87597929D01*
X147897929Y-87668204D01*
X147897926Y-87668208D01*
X147848225Y-87754291D01*
X147848225Y-87754293D01*
X147822500Y-87850296D01*
X147822500Y-87949703D01*
X147848225Y-88045706D01*
X147848225Y-88045708D01*
X147848226Y-88045709D01*
X147897924Y-88131789D01*
X147897926Y-88131791D01*
X147897929Y-88131795D01*
X147968204Y-88202070D01*
X147968208Y-88202073D01*
X147968210Y-88202075D01*
X148054291Y-88251774D01*
X148096622Y-88263116D01*
X148150296Y-88277499D01*
X148150299Y-88277499D01*
X148150301Y-88277500D01*
X148150302Y-88277500D01*
X148249698Y-88277500D01*
X148249699Y-88277500D01*
X148345709Y-88251774D01*
X148431790Y-88202075D01*
X148502075Y-88131790D01*
X148502099Y-88131749D01*
X148502118Y-88131734D01*
X148504571Y-88128538D01*
X148505427Y-88129195D01*
X148540049Y-88102629D01*
X148556225Y-88100500D01*
X152372253Y-88100500D01*
X152400124Y-88088955D01*
X152455864Y-88065867D01*
X152455864Y-88065866D01*
X152455868Y-88065865D01*
X152992865Y-87528868D01*
X153475927Y-87045804D01*
X153520121Y-87027499D01*
X154529536Y-87027499D01*
X154529544Y-87027499D01*
X154578699Y-87021029D01*
X154620087Y-87001728D01*
X154667875Y-86999642D01*
X154703144Y-87031958D01*
X154709000Y-87058373D01*
X154709000Y-87087992D01*
X154728137Y-87134193D01*
X154738077Y-87158191D01*
X154738079Y-87158194D01*
X156018694Y-88438809D01*
X156037000Y-88483003D01*
X156031144Y-88509417D01*
X155978970Y-88621301D01*
X155972500Y-88670448D01*
X155972500Y-89729535D01*
X155972500Y-89729536D01*
X155972501Y-89729544D01*
X155978971Y-89778699D01*
X155978972Y-89778701D01*
X156029272Y-89886569D01*
X156098509Y-89955806D01*
X156116815Y-90000000D01*
X156098509Y-90044194D01*
X156029273Y-90113430D01*
X156029272Y-90113430D01*
X155978970Y-90221301D01*
X155972500Y-90270448D01*
X155972500Y-91329535D01*
X155972500Y-91329536D01*
X155972501Y-91329544D01*
X155978971Y-91378699D01*
X155978972Y-91378701D01*
X156029272Y-91486569D01*
X156113430Y-91570727D01*
X156113431Y-91570727D01*
X156113432Y-91570728D01*
X156221301Y-91621029D01*
X156270455Y-91627500D01*
X157329544Y-91627499D01*
X157378699Y-91621029D01*
X157456586Y-91584708D01*
X157504376Y-91582622D01*
X157539644Y-91614939D01*
X157545500Y-91641353D01*
X157545500Y-92558646D01*
X157527194Y-92602840D01*
X157483000Y-92621146D01*
X157456587Y-92615290D01*
X157378701Y-92578971D01*
X157378698Y-92578970D01*
X157329545Y-92572500D01*
X156270464Y-92572500D01*
X156270462Y-92572500D01*
X156270456Y-92572501D01*
X156221301Y-92578971D01*
X156221299Y-92578971D01*
X156221298Y-92578972D01*
X156113430Y-92629272D01*
X156113430Y-92629273D01*
X156029273Y-92713430D01*
X156029272Y-92713430D01*
X155978970Y-92821301D01*
X155972500Y-92870448D01*
X155972500Y-93929535D01*
X155972500Y-93929536D01*
X155972501Y-93929544D01*
X155978971Y-93978699D01*
X155978972Y-93978701D01*
X156029272Y-94086569D01*
X156098509Y-94155806D01*
X156116815Y-94200000D01*
X156098509Y-94244194D01*
X156029273Y-94313430D01*
X156029272Y-94313430D01*
X155978970Y-94421301D01*
X155972500Y-94470448D01*
X155972500Y-95529535D01*
X155972500Y-95529536D01*
X155972501Y-95529544D01*
X155978971Y-95578699D01*
X155978972Y-95578701D01*
X156029272Y-95686569D01*
X156113430Y-95770727D01*
X156113431Y-95770727D01*
X156113432Y-95770728D01*
X156221301Y-95821029D01*
X156270455Y-95827500D01*
X157329544Y-95827499D01*
X157378699Y-95821029D01*
X157456586Y-95784708D01*
X157504376Y-95782622D01*
X157539644Y-95814939D01*
X157545500Y-95841353D01*
X157545500Y-96439301D01*
X157527194Y-96483495D01*
X157483000Y-96501801D01*
X157456586Y-96495945D01*
X157388530Y-96464209D01*
X157339383Y-96457739D01*
X157339377Y-96457739D01*
X156588203Y-96457739D01*
X156544009Y-96439433D01*
X154114181Y-94009605D01*
X154095875Y-93965411D01*
X154114181Y-93921217D01*
X154152473Y-93905355D01*
X154152222Y-93903445D01*
X154156272Y-93902911D01*
X154156281Y-93902911D01*
X154265009Y-93873778D01*
X154362491Y-93817496D01*
X154442085Y-93737902D01*
X154498367Y-93640420D01*
X154527500Y-93531692D01*
X154527500Y-93419130D01*
X154498367Y-93310402D01*
X154498366Y-93310399D01*
X154442085Y-93212920D01*
X154442080Y-93212914D01*
X154362496Y-93133330D01*
X154362490Y-93133325D01*
X154265011Y-93077044D01*
X154265008Y-93077043D01*
X154156287Y-93047912D01*
X154156282Y-93047911D01*
X154156281Y-93047911D01*
X154156280Y-93047911D01*
X154050000Y-93047911D01*
X154005806Y-93029605D01*
X153987500Y-92985411D01*
X153987500Y-92459043D01*
X154005806Y-92414849D01*
X154050000Y-92396543D01*
X154176036Y-92396543D01*
X154176037Y-92396543D01*
X154284765Y-92367410D01*
X154382247Y-92311128D01*
X154461841Y-92231534D01*
X154518123Y-92134052D01*
X154547256Y-92025324D01*
X154547256Y-91912762D01*
X154518123Y-91804034D01*
X154518122Y-91804031D01*
X154461841Y-91706552D01*
X154461836Y-91706546D01*
X154382252Y-91626962D01*
X154382246Y-91626957D01*
X154284767Y-91570676D01*
X154284764Y-91570675D01*
X154176043Y-91541544D01*
X154176038Y-91541543D01*
X154176037Y-91541543D01*
X154176036Y-91541543D01*
X153752829Y-91541543D01*
X153740636Y-91540342D01*
X153726348Y-91537500D01*
X153393652Y-91537500D01*
X153315628Y-91553019D01*
X153315624Y-91553021D01*
X153227143Y-91612143D01*
X153168021Y-91700624D01*
X153168019Y-91700628D01*
X153152500Y-91778651D01*
X153152500Y-91835849D01*
X153150370Y-91852025D01*
X153132501Y-91918712D01*
X153132500Y-91918720D01*
X153132500Y-94116279D01*
X153132501Y-94116287D01*
X153161632Y-94225008D01*
X153161633Y-94225011D01*
X153217914Y-94322490D01*
X153217919Y-94322496D01*
X155964026Y-97068602D01*
X155982332Y-97112796D01*
X155982332Y-97588946D01*
X155964026Y-97633140D01*
X155919832Y-97651446D01*
X155875638Y-97633140D01*
X153530577Y-95288079D01*
X153530576Y-95288078D01*
X153460375Y-95259000D01*
X152537992Y-95259000D01*
X152462008Y-95259000D01*
X152391808Y-95288077D01*
X152391805Y-95288079D01*
X149226069Y-98453815D01*
X149181875Y-98472121D01*
X149137681Y-98453815D01*
X149081795Y-98397929D01*
X149081791Y-98397926D01*
X149081790Y-98397925D01*
X148995709Y-98348226D01*
X148995708Y-98348225D01*
X148995707Y-98348225D01*
X148899703Y-98322500D01*
X148899699Y-98322500D01*
X148800301Y-98322500D01*
X148800296Y-98322500D01*
X148704293Y-98348225D01*
X148704291Y-98348225D01*
X148618208Y-98397926D01*
X148618204Y-98397929D01*
X148547929Y-98468204D01*
X148547926Y-98468208D01*
X148498225Y-98554291D01*
X148498225Y-98554293D01*
X148472500Y-98650296D01*
X148472500Y-98749703D01*
X148498225Y-98845706D01*
X148498225Y-98845708D01*
X148513973Y-98872984D01*
X148547924Y-98931789D01*
X148547926Y-98931791D01*
X148547929Y-98931795D01*
X148618204Y-99002070D01*
X148618208Y-99002073D01*
X148618210Y-99002075D01*
X148704291Y-99051774D01*
X148746622Y-99063116D01*
X148800296Y-99077499D01*
X148800299Y-99077499D01*
X148800301Y-99077500D01*
X148800302Y-99077500D01*
X148899698Y-99077500D01*
X148899699Y-99077500D01*
X148995709Y-99051774D01*
X149081790Y-99002075D01*
X149152075Y-98931790D01*
X149157582Y-98922250D01*
X149195532Y-98893130D01*
X149211709Y-98891000D01*
X149287990Y-98891000D01*
X149287992Y-98891000D01*
X149358193Y-98861922D01*
X152560809Y-95659306D01*
X152605003Y-95641000D01*
X153317380Y-95641000D01*
X153361574Y-95659306D01*
X156010461Y-98308193D01*
X156064190Y-98361922D01*
X156134391Y-98391000D01*
X156134393Y-98391000D01*
X157485271Y-98391000D01*
X157485273Y-98391000D01*
X157555474Y-98361922D01*
X157692806Y-98224588D01*
X157737000Y-98206283D01*
X157781194Y-98224589D01*
X157799500Y-98268783D01*
X157799500Y-102925484D01*
X157781194Y-102969678D01*
X157737000Y-102987984D01*
X157692806Y-102969678D01*
X157681312Y-102953859D01*
X157673366Y-102938264D01*
X157612287Y-102818390D01*
X157491966Y-102652781D01*
X157491964Y-102652778D01*
X157347221Y-102508035D01*
X157181613Y-102387715D01*
X157181612Y-102387714D01*
X157181610Y-102387713D01*
X157043743Y-102317466D01*
X156999220Y-102294780D01*
X156999217Y-102294779D01*
X156804532Y-102231522D01*
X156804533Y-102231522D01*
X156602363Y-102199501D01*
X156602353Y-102199500D01*
X156602352Y-102199500D01*
X156397648Y-102199500D01*
X156397646Y-102199500D01*
X156397636Y-102199501D01*
X156195466Y-102231522D01*
X156000782Y-102294779D01*
X156000779Y-102294780D01*
X155818386Y-102387715D01*
X155652778Y-102508035D01*
X155508035Y-102652778D01*
X155387715Y-102818386D01*
X155294780Y-103000779D01*
X155294779Y-103000782D01*
X155231522Y-103195466D01*
X155199501Y-103397636D01*
X155199500Y-103397650D01*
X155199500Y-103602349D01*
X155199501Y-103602363D01*
X155231522Y-103804533D01*
X155294779Y-103999217D01*
X155294780Y-103999220D01*
X155331042Y-104070388D01*
X155379702Y-104165888D01*
X155387715Y-104181613D01*
X155508035Y-104347221D01*
X155652778Y-104491964D01*
X155818388Y-104612286D01*
X155953859Y-104681312D01*
X155984926Y-104717687D01*
X155981173Y-104765374D01*
X155944798Y-104796441D01*
X155925485Y-104799500D01*
X154343833Y-104799500D01*
X154299639Y-104781194D01*
X154281333Y-104737000D01*
X154299639Y-104692806D01*
X154568649Y-104423795D01*
X154865242Y-104127200D01*
X154865247Y-104127197D01*
X154870387Y-104122056D01*
X154870389Y-104122056D01*
X154922056Y-104070389D01*
X154958589Y-104007111D01*
X154977500Y-103936534D01*
X154977500Y-103133945D01*
X154995806Y-103089751D01*
X155027921Y-103057636D01*
X155077620Y-102971555D01*
X155103346Y-102875545D01*
X155103346Y-102776147D01*
X155101646Y-102769804D01*
X155093363Y-102738892D01*
X155077620Y-102680137D01*
X155027921Y-102594056D01*
X155027919Y-102594054D01*
X155027916Y-102594050D01*
X154995806Y-102561940D01*
X154977500Y-102517746D01*
X154977500Y-98463467D01*
X154977498Y-98463459D01*
X154967920Y-98427715D01*
X154958589Y-98392889D01*
X154922056Y-98329611D01*
X154870389Y-98277944D01*
X154868211Y-98275766D01*
X154868200Y-98275756D01*
X154395805Y-97803361D01*
X154377499Y-97759167D01*
X154377499Y-97316548D01*
X154367517Y-97248030D01*
X154367517Y-97248028D01*
X154315848Y-97142338D01*
X154232662Y-97059152D01*
X154126972Y-97007483D01*
X154126970Y-97007482D01*
X154126967Y-97007481D01*
X154122334Y-97006050D01*
X154123150Y-97003407D01*
X154089873Y-96983552D01*
X154077500Y-96946221D01*
X154077500Y-96863467D01*
X154077498Y-96863459D01*
X154058590Y-96792893D01*
X154058589Y-96792889D01*
X154022056Y-96729611D01*
X153970389Y-96677944D01*
X153968211Y-96675766D01*
X153968200Y-96675756D01*
X153655532Y-96363087D01*
X153637226Y-96318893D01*
X153637226Y-96296214D01*
X153637225Y-96296208D01*
X153627243Y-96258958D01*
X153611500Y-96200203D01*
X153561801Y-96114122D01*
X153561799Y-96114120D01*
X153561796Y-96114116D01*
X153491521Y-96043841D01*
X153491517Y-96043838D01*
X153491516Y-96043837D01*
X153405435Y-95994138D01*
X153405434Y-95994137D01*
X153405433Y-95994137D01*
X153309429Y-95968412D01*
X153309425Y-95968412D01*
X153210027Y-95968412D01*
X153210022Y-95968412D01*
X153114019Y-95994137D01*
X153114017Y-95994137D01*
X153027934Y-96043838D01*
X153027930Y-96043841D01*
X152957655Y-96114116D01*
X152957652Y-96114120D01*
X152957651Y-96114122D01*
X152907956Y-96200197D01*
X152907953Y-96200202D01*
X152907951Y-96200205D01*
X152882226Y-96296208D01*
X152882226Y-96395615D01*
X152907951Y-96491618D01*
X152907951Y-96491620D01*
X152957652Y-96577703D01*
X152957655Y-96577707D01*
X153027930Y-96647982D01*
X153027934Y-96647985D01*
X153027936Y-96647987D01*
X153114017Y-96697686D01*
X153151873Y-96707829D01*
X153210018Y-96723410D01*
X153210021Y-96723410D01*
X153210027Y-96723412D01*
X153210033Y-96723412D01*
X153213097Y-96723815D01*
X153249143Y-96741588D01*
X153439346Y-96931791D01*
X153457652Y-96975985D01*
X153439346Y-97020179D01*
X153422602Y-97032134D01*
X153367341Y-97059149D01*
X153367338Y-97059151D01*
X153284152Y-97142337D01*
X153232482Y-97248030D01*
X153222500Y-97316547D01*
X153222500Y-97883451D01*
X153232482Y-97951969D01*
X153232482Y-97951970D01*
X153232483Y-97951972D01*
X153238097Y-97963455D01*
X153276263Y-98041526D01*
X153279226Y-98089269D01*
X153247562Y-98125125D01*
X153203937Y-98129345D01*
X153122156Y-98107432D01*
X153122151Y-98107431D01*
X153122150Y-98107431D01*
X153022752Y-98107431D01*
X153022747Y-98107431D01*
X152926744Y-98133156D01*
X152926742Y-98133156D01*
X152840659Y-98182857D01*
X152776673Y-98246843D01*
X152732479Y-98265148D01*
X152688285Y-98246842D01*
X152679696Y-98238253D01*
X152679692Y-98238250D01*
X152679691Y-98238249D01*
X152593610Y-98188550D01*
X152593609Y-98188549D01*
X152593608Y-98188549D01*
X152497604Y-98162824D01*
X152497600Y-98162824D01*
X152398202Y-98162824D01*
X152398197Y-98162824D01*
X152302194Y-98188549D01*
X152302192Y-98188549D01*
X152216109Y-98238250D01*
X152216105Y-98238253D01*
X152145830Y-98308528D01*
X152145827Y-98308532D01*
X152096126Y-98394615D01*
X152096126Y-98394617D01*
X152070401Y-98490620D01*
X152070401Y-98590027D01*
X152096126Y-98686030D01*
X152096126Y-98686032D01*
X152145827Y-98772115D01*
X152145830Y-98772119D01*
X152207604Y-98833893D01*
X152225910Y-98878087D01*
X152207604Y-98922281D01*
X150491639Y-100638245D01*
X150491637Y-100638248D01*
X150462560Y-100708448D01*
X150462560Y-101043148D01*
X150444254Y-101087342D01*
X150400060Y-101105648D01*
X150380056Y-101102360D01*
X150374177Y-101100374D01*
X150358769Y-101091478D01*
X150305952Y-101077325D01*
X150304041Y-101076680D01*
X150287424Y-101062150D01*
X150269918Y-101048717D01*
X150269639Y-101046599D01*
X150268031Y-101045193D01*
X150266555Y-101023174D01*
X150263675Y-101001293D01*
X150277500Y-100949699D01*
X150277500Y-100850301D01*
X150251774Y-100754291D01*
X150225306Y-100708448D01*
X150218447Y-100696567D01*
X150212203Y-100649141D01*
X150241321Y-100611192D01*
X150326479Y-100562027D01*
X150396764Y-100491742D01*
X150446463Y-100405661D01*
X150472189Y-100309651D01*
X150472189Y-100210253D01*
X150446463Y-100114243D01*
X150396764Y-100028162D01*
X150396762Y-100028160D01*
X150396759Y-100028156D01*
X150326484Y-99957881D01*
X150326480Y-99957878D01*
X150326479Y-99957877D01*
X150240398Y-99908178D01*
X150240397Y-99908177D01*
X150240396Y-99908177D01*
X150144392Y-99882452D01*
X150144388Y-99882452D01*
X150044990Y-99882452D01*
X150044985Y-99882452D01*
X149948982Y-99908177D01*
X149948980Y-99908177D01*
X149862897Y-99957878D01*
X149862893Y-99957881D01*
X149792618Y-100028156D01*
X149792613Y-100028162D01*
X149787107Y-100037701D01*
X149749157Y-100066822D01*
X149732980Y-100068952D01*
X148864955Y-100068952D01*
X148820761Y-100050646D01*
X147668530Y-98898415D01*
X147650224Y-98854221D01*
X147650224Y-97635515D01*
X147650224Y-97635513D01*
X147621146Y-97565312D01*
X147567417Y-97511583D01*
X146928175Y-96872341D01*
X146857974Y-96843263D01*
X146322914Y-96843263D01*
X146246930Y-96843263D01*
X146176730Y-96872340D01*
X146176727Y-96872342D01*
X146037411Y-97011657D01*
X145993217Y-97029963D01*
X145977042Y-97027834D01*
X145966402Y-97024983D01*
X145966401Y-97024983D01*
X145867003Y-97024983D01*
X145866998Y-97024983D01*
X145770995Y-97050708D01*
X145770993Y-97050708D01*
X145684910Y-97100409D01*
X145684906Y-97100412D01*
X145614631Y-97170687D01*
X145614628Y-97170691D01*
X145564927Y-97256774D01*
X145564927Y-97256776D01*
X145539202Y-97352779D01*
X145539202Y-97452186D01*
X145564927Y-97548189D01*
X145564927Y-97548191D01*
X145614628Y-97634274D01*
X145614631Y-97634278D01*
X145684906Y-97704553D01*
X145684910Y-97704556D01*
X145684912Y-97704558D01*
X145770993Y-97754257D01*
X145813324Y-97765599D01*
X145866998Y-97779982D01*
X145867001Y-97779982D01*
X145867003Y-97779983D01*
X145867004Y-97779983D01*
X145966400Y-97779983D01*
X145966401Y-97779983D01*
X146062411Y-97754257D01*
X146137538Y-97710881D01*
X146184964Y-97704637D01*
X146222914Y-97733758D01*
X146232044Y-97749572D01*
X146232046Y-97749574D01*
X146302331Y-97819859D01*
X146388412Y-97869558D01*
X146388413Y-97869558D01*
X146391960Y-97871606D01*
X146390920Y-97873406D01*
X146419949Y-97902440D01*
X146419944Y-97950275D01*
X146416333Y-97957598D01*
X146412951Y-97963455D01*
X146412949Y-97963461D01*
X146387224Y-98059464D01*
X146387224Y-98158871D01*
X146412949Y-98254874D01*
X146412949Y-98254876D01*
X146426268Y-98277944D01*
X146443925Y-98308528D01*
X146462650Y-98340959D01*
X146462653Y-98340963D01*
X146532928Y-98411238D01*
X146532934Y-98411243D01*
X146542473Y-98416750D01*
X146571594Y-98454700D01*
X146573724Y-98470877D01*
X146573724Y-98945152D01*
X146573724Y-99021136D01*
X146602802Y-99091337D01*
X148387610Y-100876145D01*
X148441339Y-100929874D01*
X148511540Y-100958952D01*
X149039987Y-100958952D01*
X149084181Y-100977258D01*
X149658367Y-101551443D01*
X149658368Y-101551445D01*
X149692982Y-101586059D01*
X149700564Y-101604363D01*
X149711287Y-101630251D01*
X149711286Y-101630252D01*
X149711287Y-101630253D01*
X149706572Y-101641635D01*
X149692982Y-101674446D01*
X149692981Y-101674446D01*
X149692981Y-101674447D01*
X149674675Y-101682029D01*
X149648788Y-101692752D01*
X148778256Y-101692752D01*
X148708056Y-101721829D01*
X148708053Y-101721831D01*
X148654326Y-101775559D01*
X148583019Y-101846864D01*
X148583015Y-101846870D01*
X148538077Y-101891808D01*
X148522707Y-101928917D01*
X148488882Y-101962742D01*
X148464964Y-101967500D01*
X148459169Y-101967500D01*
X148424886Y-101972014D01*
X148424868Y-101972017D01*
X148297720Y-102006087D01*
X148265757Y-102019327D01*
X148265750Y-102019330D01*
X148151744Y-102085151D01*
X148124293Y-102106214D01*
X148124203Y-102106294D01*
X148124179Y-102106301D01*
X148122677Y-102107455D01*
X148122285Y-102106944D01*
X148078905Y-102121665D01*
X148036005Y-102100502D01*
X148020500Y-102059299D01*
X148020500Y-101506467D01*
X148020498Y-101506459D01*
X148001590Y-101435893D01*
X148001589Y-101435889D01*
X148001587Y-101435885D01*
X147985873Y-101408666D01*
X147977500Y-101377417D01*
X147977500Y-101350302D01*
X147977499Y-101350296D01*
X147967517Y-101313046D01*
X147951774Y-101254291D01*
X147902075Y-101168210D01*
X147902073Y-101168208D01*
X147902070Y-101168204D01*
X147831795Y-101097929D01*
X147831791Y-101097926D01*
X147831790Y-101097925D01*
X147745709Y-101048226D01*
X147745708Y-101048225D01*
X147745707Y-101048225D01*
X147649703Y-101022500D01*
X147649699Y-101022500D01*
X147640832Y-101022500D01*
X147596638Y-101004194D01*
X146643090Y-100050646D01*
X145674389Y-99081944D01*
X145674388Y-99081943D01*
X145611111Y-99045411D01*
X145611109Y-99045410D01*
X145540539Y-99026499D01*
X145540534Y-99026499D01*
X145467466Y-99026499D01*
X145463641Y-99026499D01*
X145463625Y-99026500D01*
X143827103Y-99026500D01*
X143782909Y-99008194D01*
X143764603Y-98964000D01*
X143772977Y-98932749D01*
X143773531Y-98931790D01*
X143778774Y-98922709D01*
X143804500Y-98826699D01*
X143804500Y-98727301D01*
X143778774Y-98631291D01*
X143729075Y-98545210D01*
X143729073Y-98545208D01*
X143729070Y-98545204D01*
X143722806Y-98538940D01*
X143704500Y-98494746D01*
X143704500Y-97613831D01*
X143722805Y-97569638D01*
X145092242Y-96200200D01*
X145092247Y-96200197D01*
X145097387Y-96195056D01*
X145097389Y-96195056D01*
X145149056Y-96143389D01*
X145185589Y-96080111D01*
X145204500Y-96009534D01*
X145204500Y-93313833D01*
X145222806Y-93269639D01*
X145996639Y-92495806D01*
X146040833Y-92477500D01*
X146459167Y-92477500D01*
X146503361Y-92495806D01*
X147096975Y-93089419D01*
X147115281Y-93133613D01*
X147115281Y-93201055D01*
X147096975Y-93245249D01*
X147090710Y-93251513D01*
X147090707Y-93251517D01*
X147041006Y-93337600D01*
X147041006Y-93337602D01*
X147015281Y-93433605D01*
X147015281Y-93533012D01*
X147041006Y-93629015D01*
X147041006Y-93629017D01*
X147090707Y-93715100D01*
X147090710Y-93715104D01*
X147160985Y-93785379D01*
X147160989Y-93785382D01*
X147160991Y-93785384D01*
X147247072Y-93835083D01*
X147289403Y-93846425D01*
X147343077Y-93860808D01*
X147343080Y-93860808D01*
X147343082Y-93860809D01*
X147343083Y-93860809D01*
X147442479Y-93860809D01*
X147442480Y-93860809D01*
X147538490Y-93835083D01*
X147624571Y-93785384D01*
X147694856Y-93715099D01*
X147744555Y-93629018D01*
X147770281Y-93533008D01*
X147770281Y-93433610D01*
X147768222Y-93425927D01*
X147760298Y-93396355D01*
X147744555Y-93337600D01*
X147694856Y-93251519D01*
X147694854Y-93251517D01*
X147694851Y-93251513D01*
X147688587Y-93245249D01*
X147670281Y-93201055D01*
X147670281Y-93034359D01*
X147670282Y-93034346D01*
X147670282Y-92956247D01*
X147670281Y-92956241D01*
X147651611Y-92886569D01*
X147651370Y-92885670D01*
X147651370Y-92885669D01*
X147622635Y-92835900D01*
X147619237Y-92830014D01*
X147614837Y-92822392D01*
X147563170Y-92770725D01*
X147563167Y-92770723D01*
X147562354Y-92769910D01*
X147561394Y-92768859D01*
X147553693Y-92747599D01*
X147545039Y-92726706D01*
X147545618Y-92725306D01*
X147545103Y-92723883D01*
X147554691Y-92703403D01*
X147563345Y-92682512D01*
X147564890Y-92681619D01*
X147565386Y-92680561D01*
X147568977Y-92679260D01*
X147591363Y-92666336D01*
X147645705Y-92651775D01*
X147645703Y-92651775D01*
X147645709Y-92651774D01*
X147673250Y-92635872D01*
X147704500Y-92627500D01*
X148438457Y-92627500D01*
X148482651Y-92645806D01*
X148741539Y-92904694D01*
X148802514Y-92965669D01*
X148877194Y-93008785D01*
X148902680Y-93015614D01*
X148960482Y-93031103D01*
X148960488Y-93031104D01*
X149314629Y-93031104D01*
X149358823Y-93049410D01*
X149366596Y-93058881D01*
X149371661Y-93066461D01*
X149460145Y-93125584D01*
X149538170Y-93141104D01*
X149870866Y-93141104D01*
X149948891Y-93125584D01*
X150037375Y-93066461D01*
X150096498Y-92977977D01*
X150112018Y-92899952D01*
X150112018Y-92507256D01*
X150096498Y-92429231D01*
X150037375Y-92340747D01*
X149976393Y-92300000D01*
X149948893Y-92281625D01*
X149948889Y-92281623D01*
X149870866Y-92266104D01*
X149538170Y-92266104D01*
X149460146Y-92281623D01*
X149460142Y-92281625D01*
X149371661Y-92340746D01*
X149371659Y-92340749D01*
X149366596Y-92348327D01*
X149326823Y-92374903D01*
X149314629Y-92376104D01*
X149165147Y-92376104D01*
X149120953Y-92357798D01*
X149107349Y-92344194D01*
X149089043Y-92300000D01*
X149107349Y-92255806D01*
X150557349Y-90805806D01*
X150601543Y-90787500D01*
X150727727Y-90787500D01*
X150758976Y-90795872D01*
X150786518Y-90811774D01*
X150828849Y-90823116D01*
X150882523Y-90837499D01*
X150882526Y-90837499D01*
X150882528Y-90837500D01*
X150882529Y-90837500D01*
X150981925Y-90837500D01*
X150981926Y-90837500D01*
X151077936Y-90811774D01*
X151164017Y-90762075D01*
X151216282Y-90709808D01*
X151238683Y-90695426D01*
X151421636Y-90627370D01*
X151469438Y-90629119D01*
X151470875Y-90629799D01*
X151548028Y-90667517D01*
X151616547Y-90677500D01*
X152183452Y-90677499D01*
X152251972Y-90667517D01*
X152357662Y-90615848D01*
X152440848Y-90532662D01*
X152492517Y-90426972D01*
X152502500Y-90358453D01*
X152502499Y-89841548D01*
X152492517Y-89773028D01*
X152440848Y-89667338D01*
X152357662Y-89584152D01*
X152251972Y-89532483D01*
X152251970Y-89532482D01*
X152251969Y-89532482D01*
X152197539Y-89524552D01*
X152183453Y-89522500D01*
X152183452Y-89522500D01*
X151616548Y-89522500D01*
X151548030Y-89532482D01*
X151548029Y-89532482D01*
X151548028Y-89532483D01*
X151497604Y-89557134D01*
X151442337Y-89584152D01*
X151359152Y-89667337D01*
X151307482Y-89773030D01*
X151297500Y-89841547D01*
X151297500Y-89931262D01*
X151279194Y-89975456D01*
X151256790Y-89989840D01*
X151015515Y-90079591D01*
X150985576Y-90082979D01*
X150981934Y-90082500D01*
X150981926Y-90082500D01*
X150882528Y-90082500D01*
X150882523Y-90082500D01*
X150786520Y-90108225D01*
X150786518Y-90108225D01*
X150758977Y-90124127D01*
X150727727Y-90132500D01*
X150396878Y-90132500D01*
X150313592Y-90154818D01*
X150313590Y-90154818D01*
X150261095Y-90185126D01*
X150238910Y-90197935D01*
X150238909Y-90197936D01*
X150238905Y-90197939D01*
X148482651Y-91954194D01*
X148438457Y-91972500D01*
X147704500Y-91972500D01*
X147680582Y-91967742D01*
X147676794Y-91966173D01*
X147645709Y-91948226D01*
X147611037Y-91938935D01*
X147607249Y-91937366D01*
X147602892Y-91933009D01*
X147586973Y-91923818D01*
X147101094Y-91437939D01*
X147101090Y-91437935D01*
X147026410Y-91394819D01*
X147026409Y-91394818D01*
X147026408Y-91394818D01*
X146943121Y-91372500D01*
X146943116Y-91372500D01*
X145975253Y-91372500D01*
X145949127Y-91366777D01*
X145946498Y-91365567D01*
X145887722Y-91331633D01*
X145851879Y-91322028D01*
X145847054Y-91319808D01*
X145842776Y-91315186D01*
X145828986Y-91307225D01*
X145145806Y-90624045D01*
X145127500Y-90579851D01*
X145127500Y-87516884D01*
X145127499Y-87516878D01*
X145111958Y-87458882D01*
X145105181Y-87433590D01*
X145062065Y-87358910D01*
X145001090Y-87297935D01*
X144445805Y-86742650D01*
X144427499Y-86698456D01*
X144427499Y-85670464D01*
X144427499Y-85670456D01*
X144421029Y-85621301D01*
X144384708Y-85543413D01*
X144382622Y-85495624D01*
X144414939Y-85460356D01*
X144441353Y-85454500D01*
X146358497Y-85454500D01*
X146402691Y-85472806D01*
G37*
%TD.AperFunction*%
%TA.AperFunction,Conductor*%
G36*
X154414855Y-103113091D02*
G01*
X154422500Y-103143044D01*
X154422500Y-103759167D01*
X154404194Y-103803361D01*
X153903361Y-104304194D01*
X153859167Y-104322500D01*
X148354484Y-104322500D01*
X148310290Y-104304194D01*
X148038806Y-104032710D01*
X148020500Y-103988516D01*
X148020500Y-103295000D01*
X148038806Y-103250806D01*
X148083000Y-103232500D01*
X149374999Y-103232500D01*
X149375000Y-103232500D01*
X149430042Y-103220526D01*
X149457728Y-103196535D01*
X149503116Y-103181429D01*
X149545891Y-103202841D01*
X149553365Y-103211466D01*
X149553366Y-103211467D01*
X149624997Y-103232499D01*
X149624999Y-103232500D01*
X149625000Y-103232500D01*
X150974999Y-103232500D01*
X150975000Y-103232500D01*
X151030042Y-103220526D01*
X151057728Y-103196535D01*
X151103116Y-103181429D01*
X151145891Y-103202841D01*
X151153365Y-103211466D01*
X151153366Y-103211467D01*
X151224997Y-103232499D01*
X151224999Y-103232500D01*
X151225000Y-103232500D01*
X152574999Y-103232500D01*
X152575000Y-103232500D01*
X152630042Y-103220526D01*
X152657728Y-103196535D01*
X152703116Y-103181429D01*
X152745891Y-103202841D01*
X152753365Y-103211466D01*
X152753366Y-103211467D01*
X152824997Y-103232499D01*
X152824999Y-103232500D01*
X152825000Y-103232500D01*
X154174999Y-103232500D01*
X154175000Y-103232500D01*
X154230042Y-103220526D01*
X154286466Y-103171635D01*
X154286467Y-103171633D01*
X154300032Y-103125436D01*
X154330047Y-103088189D01*
X154377608Y-103083076D01*
X154414855Y-103113091D01*
G37*
%TD.AperFunction*%
%TA.AperFunction,Conductor*%
G36*
X153670389Y-99397243D02*
G01*
X153686567Y-99399373D01*
X153691708Y-99406074D01*
X153699511Y-99409306D01*
X153715687Y-99437324D01*
X153726770Y-99478687D01*
X153726771Y-99478691D01*
X153776472Y-99564774D01*
X153776475Y-99564778D01*
X153846750Y-99635053D01*
X153846754Y-99635056D01*
X153846756Y-99635058D01*
X153932837Y-99684757D01*
X153975168Y-99696099D01*
X154028842Y-99710482D01*
X154028845Y-99710482D01*
X154028847Y-99710483D01*
X154028848Y-99710483D01*
X154128244Y-99710483D01*
X154128245Y-99710483D01*
X154224255Y-99684757D01*
X154310336Y-99635058D01*
X154310341Y-99635053D01*
X154315806Y-99629589D01*
X154360000Y-99611283D01*
X154404194Y-99629589D01*
X154422500Y-99673783D01*
X154422500Y-102471181D01*
X154404194Y-102515375D01*
X154360000Y-102533681D01*
X154315806Y-102515375D01*
X154299630Y-102487357D01*
X154268912Y-102372720D01*
X154268911Y-102372719D01*
X154268910Y-102372713D01*
X154255673Y-102340757D01*
X154255669Y-102340750D01*
X154189848Y-102226744D01*
X154168944Y-102199501D01*
X154168791Y-102199301D01*
X154075699Y-102106209D01*
X154064602Y-102097694D01*
X154048255Y-102085151D01*
X153934249Y-102019330D01*
X153934245Y-102019328D01*
X153934243Y-102019327D01*
X153902287Y-102006090D01*
X153902284Y-102006089D01*
X153902279Y-102006087D01*
X153775131Y-101972017D01*
X153775121Y-101972015D01*
X153775120Y-101972015D01*
X153775115Y-101972014D01*
X153775113Y-101972014D01*
X153740830Y-101967500D01*
X153740826Y-101967500D01*
X153735036Y-101967500D01*
X153690842Y-101949194D01*
X153677293Y-101928917D01*
X153677290Y-101928910D01*
X153661922Y-101891807D01*
X153608193Y-101838078D01*
X153408193Y-101638078D01*
X153337992Y-101609000D01*
X153337991Y-101609000D01*
X151905003Y-101609000D01*
X151860809Y-101590694D01*
X151663306Y-101393191D01*
X151645000Y-101348997D01*
X151645000Y-101128633D01*
X151663306Y-101084439D01*
X153338439Y-99409306D01*
X153382633Y-99391000D01*
X153655317Y-99391000D01*
X153670389Y-99397243D01*
G37*
%TD.AperFunction*%
M02*
