%TF.GenerationSoftware,KiCad,Pcbnew,8.99.0-2608-ga0707285a1*%
%TF.CreationDate,2024-11-14T19:29:31-05:00*%
%TF.ProjectId,scampi,7363616d-7069-42e6-9b69-6361645f7063,rev?*%
%TF.SameCoordinates,Original*%
%TF.FileFunction,Copper,L1,Top*%
%TF.FilePolarity,Positive*%
%FSLAX46Y46*%
G04 Gerber Fmt 4.6, Leading zero omitted, Abs format (unit mm)*
G04 Created by KiCad (PCBNEW 8.99.0-2608-ga0707285a1) date 2024-11-14 19:29:31*
%MOMM*%
%LPD*%
G01*
G04 APERTURE LIST*
%TA.AperFunction,SMDPad,CuDef*%
%ADD10C,1.000000*%
%TD*%
%TA.AperFunction,SMDPad,CuDef*%
%ADD11C,0.700000*%
%TD*%
%TA.AperFunction,ViaPad*%
%ADD12C,0.500000*%
%TD*%
%TA.AperFunction,Conductor*%
%ADD13C,0.200000*%
%TD*%
%TA.AperFunction,Conductor*%
%ADD14C,0.250000*%
%TD*%
%TA.AperFunction,Conductor*%
%ADD15C,0.300000*%
%TD*%
%TA.AperFunction,Conductor*%
%ADD16C,0.127000*%
%TD*%
G04 APERTURE END LIST*
%TA.AperFunction,ComponentPad*%
G36*
G01*
X143700000Y-104290000D02*
X143700000Y-103310000D01*
G75*
G02*
X143910000Y-103100000I210000J0D01*
G01*
X144890000Y-103100000D01*
G75*
G02*
X145100000Y-103310000I0J-210000D01*
G01*
X145100000Y-104290000D01*
G75*
G02*
X144890000Y-104500000I-210000J0D01*
G01*
X143910000Y-104500000D01*
G75*
G02*
X143700000Y-104290000I0J210000D01*
G01*
G37*
%TD.AperFunction*%
D10*
X152870184Y-104100000D03*
%TA.AperFunction,SMDPad,CuDef*%
G36*
G01*
X154370000Y-96480000D02*
X154030000Y-96480000D01*
G75*
G02*
X153890000Y-96340000I0J140000D01*
G01*
X153890000Y-96060000D01*
G75*
G02*
X154030000Y-95920000I140000J0D01*
G01*
X154370000Y-95920000D01*
G75*
G02*
X154510000Y-96060000I0J-140000D01*
G01*
X154510000Y-96340000D01*
G75*
G02*
X154370000Y-96480000I-140000J0D01*
G01*
G37*
%TD.AperFunction*%
%TA.AperFunction,SMDPad,CuDef*%
G36*
G01*
X154370000Y-95520000D02*
X154030000Y-95520000D01*
G75*
G02*
X153890000Y-95380000I0J140000D01*
G01*
X153890000Y-95100000D01*
G75*
G02*
X154030000Y-94960000I140000J0D01*
G01*
X154370000Y-94960000D01*
G75*
G02*
X154510000Y-95100000I0J-140000D01*
G01*
X154510000Y-95380000D01*
G75*
G02*
X154370000Y-95520000I-140000J0D01*
G01*
G37*
%TD.AperFunction*%
%TA.AperFunction,ComponentPad*%
G36*
G01*
X156100000Y-91290000D02*
X156100000Y-90310000D01*
G75*
G02*
X156310000Y-90100000I210000J0D01*
G01*
X157290000Y-90100000D01*
G75*
G02*
X157500000Y-90310000I0J-210000D01*
G01*
X157500000Y-91290000D01*
G75*
G02*
X157290000Y-91500000I-210000J0D01*
G01*
X156310000Y-91500000D01*
G75*
G02*
X156100000Y-91290000I0J210000D01*
G01*
G37*
%TD.AperFunction*%
%TA.AperFunction,SMDPad,CuDef*%
G36*
G01*
X147825000Y-92037500D02*
X147825000Y-91912500D01*
G75*
G02*
X147887500Y-91850000I62500J0D01*
G01*
X148562500Y-91850000D01*
G75*
G02*
X148625000Y-91912500I0J-62500D01*
G01*
X148625000Y-92037500D01*
G75*
G02*
X148562500Y-92100000I-62500J0D01*
G01*
X147887500Y-92100000D01*
G75*
G02*
X147825000Y-92037500I0J62500D01*
G01*
G37*
%TD.AperFunction*%
%TA.AperFunction,SMDPad,CuDef*%
G36*
G01*
X147825000Y-92537500D02*
X147825000Y-92412500D01*
G75*
G02*
X147887500Y-92350000I62500J0D01*
G01*
X148562500Y-92350000D01*
G75*
G02*
X148625000Y-92412500I0J-62500D01*
G01*
X148625000Y-92537500D01*
G75*
G02*
X148562500Y-92600000I-62500J0D01*
G01*
X147887500Y-92600000D01*
G75*
G02*
X147825000Y-92537500I0J62500D01*
G01*
G37*
%TD.AperFunction*%
%TA.AperFunction,SMDPad,CuDef*%
G36*
G01*
X147825000Y-93037500D02*
X147825000Y-92912500D01*
G75*
G02*
X147887500Y-92850000I62500J0D01*
G01*
X148562500Y-92850000D01*
G75*
G02*
X148625000Y-92912500I0J-62500D01*
G01*
X148625000Y-93037500D01*
G75*
G02*
X148562500Y-93100000I-62500J0D01*
G01*
X147887500Y-93100000D01*
G75*
G02*
X147825000Y-93037500I0J62500D01*
G01*
G37*
%TD.AperFunction*%
%TA.AperFunction,SMDPad,CuDef*%
G36*
G01*
X147825000Y-93537500D02*
X147825000Y-93412500D01*
G75*
G02*
X147887500Y-93350000I62500J0D01*
G01*
X148562500Y-93350000D01*
G75*
G02*
X148625000Y-93412500I0J-62500D01*
G01*
X148625000Y-93537500D01*
G75*
G02*
X148562500Y-93600000I-62500J0D01*
G01*
X147887500Y-93600000D01*
G75*
G02*
X147825000Y-93537500I0J62500D01*
G01*
G37*
%TD.AperFunction*%
%TA.AperFunction,SMDPad,CuDef*%
G36*
G01*
X147825000Y-94037500D02*
X147825000Y-93912500D01*
G75*
G02*
X147887500Y-93850000I62500J0D01*
G01*
X148562500Y-93850000D01*
G75*
G02*
X148625000Y-93912500I0J-62500D01*
G01*
X148625000Y-94037500D01*
G75*
G02*
X148562500Y-94100000I-62500J0D01*
G01*
X147887500Y-94100000D01*
G75*
G02*
X147825000Y-94037500I0J62500D01*
G01*
G37*
%TD.AperFunction*%
%TA.AperFunction,SMDPad,CuDef*%
G36*
G01*
X147825000Y-94537500D02*
X147825000Y-94412500D01*
G75*
G02*
X147887500Y-94350000I62500J0D01*
G01*
X148562500Y-94350000D01*
G75*
G02*
X148625000Y-94412500I0J-62500D01*
G01*
X148625000Y-94537500D01*
G75*
G02*
X148562500Y-94600000I-62500J0D01*
G01*
X147887500Y-94600000D01*
G75*
G02*
X147825000Y-94537500I0J62500D01*
G01*
G37*
%TD.AperFunction*%
%TA.AperFunction,SMDPad,CuDef*%
G36*
G01*
X147825000Y-95037500D02*
X147825000Y-94912500D01*
G75*
G02*
X147887500Y-94850000I62500J0D01*
G01*
X148562500Y-94850000D01*
G75*
G02*
X148625000Y-94912500I0J-62500D01*
G01*
X148625000Y-95037500D01*
G75*
G02*
X148562500Y-95100000I-62500J0D01*
G01*
X147887500Y-95100000D01*
G75*
G02*
X147825000Y-95037500I0J62500D01*
G01*
G37*
%TD.AperFunction*%
%TA.AperFunction,SMDPad,CuDef*%
G36*
G01*
X147825000Y-95537500D02*
X147825000Y-95412500D01*
G75*
G02*
X147887500Y-95350000I62500J0D01*
G01*
X148562500Y-95350000D01*
G75*
G02*
X148625000Y-95412500I0J-62500D01*
G01*
X148625000Y-95537500D01*
G75*
G02*
X148562500Y-95600000I-62500J0D01*
G01*
X147887500Y-95600000D01*
G75*
G02*
X147825000Y-95537500I0J62500D01*
G01*
G37*
%TD.AperFunction*%
%TA.AperFunction,SMDPad,CuDef*%
G36*
G01*
X148800000Y-96512500D02*
X148800000Y-95837500D01*
G75*
G02*
X148862500Y-95775000I62500J0D01*
G01*
X148987500Y-95775000D01*
G75*
G02*
X149050000Y-95837500I0J-62500D01*
G01*
X149050000Y-96512500D01*
G75*
G02*
X148987500Y-96575000I-62500J0D01*
G01*
X148862500Y-96575000D01*
G75*
G02*
X148800000Y-96512500I0J62500D01*
G01*
G37*
%TD.AperFunction*%
%TA.AperFunction,SMDPad,CuDef*%
G36*
G01*
X149300000Y-96512500D02*
X149300000Y-95837500D01*
G75*
G02*
X149362500Y-95775000I62500J0D01*
G01*
X149487500Y-95775000D01*
G75*
G02*
X149550000Y-95837500I0J-62500D01*
G01*
X149550000Y-96512500D01*
G75*
G02*
X149487500Y-96575000I-62500J0D01*
G01*
X149362500Y-96575000D01*
G75*
G02*
X149300000Y-96512500I0J62500D01*
G01*
G37*
%TD.AperFunction*%
%TA.AperFunction,SMDPad,CuDef*%
G36*
G01*
X149800000Y-96512500D02*
X149800000Y-95837500D01*
G75*
G02*
X149862500Y-95775000I62500J0D01*
G01*
X149987500Y-95775000D01*
G75*
G02*
X150050000Y-95837500I0J-62500D01*
G01*
X150050000Y-96512500D01*
G75*
G02*
X149987500Y-96575000I-62500J0D01*
G01*
X149862500Y-96575000D01*
G75*
G02*
X149800000Y-96512500I0J62500D01*
G01*
G37*
%TD.AperFunction*%
%TA.AperFunction,SMDPad,CuDef*%
G36*
G01*
X150300000Y-96512500D02*
X150300000Y-95837500D01*
G75*
G02*
X150362500Y-95775000I62500J0D01*
G01*
X150487500Y-95775000D01*
G75*
G02*
X150550000Y-95837500I0J-62500D01*
G01*
X150550000Y-96512500D01*
G75*
G02*
X150487500Y-96575000I-62500J0D01*
G01*
X150362500Y-96575000D01*
G75*
G02*
X150300000Y-96512500I0J62500D01*
G01*
G37*
%TD.AperFunction*%
%TA.AperFunction,SMDPad,CuDef*%
G36*
G01*
X150800000Y-96512500D02*
X150800000Y-95837500D01*
G75*
G02*
X150862500Y-95775000I62500J0D01*
G01*
X150987500Y-95775000D01*
G75*
G02*
X151050000Y-95837500I0J-62500D01*
G01*
X151050000Y-96512500D01*
G75*
G02*
X150987500Y-96575000I-62500J0D01*
G01*
X150862500Y-96575000D01*
G75*
G02*
X150800000Y-96512500I0J62500D01*
G01*
G37*
%TD.AperFunction*%
%TA.AperFunction,SMDPad,CuDef*%
G36*
G01*
X151300000Y-96512500D02*
X151300000Y-95837500D01*
G75*
G02*
X151362500Y-95775000I62500J0D01*
G01*
X151487500Y-95775000D01*
G75*
G02*
X151550000Y-95837500I0J-62500D01*
G01*
X151550000Y-96512500D01*
G75*
G02*
X151487500Y-96575000I-62500J0D01*
G01*
X151362500Y-96575000D01*
G75*
G02*
X151300000Y-96512500I0J62500D01*
G01*
G37*
%TD.AperFunction*%
%TA.AperFunction,SMDPad,CuDef*%
G36*
G01*
X151800000Y-96512500D02*
X151800000Y-95837500D01*
G75*
G02*
X151862500Y-95775000I62500J0D01*
G01*
X151987500Y-95775000D01*
G75*
G02*
X152050000Y-95837500I0J-62500D01*
G01*
X152050000Y-96512500D01*
G75*
G02*
X151987500Y-96575000I-62500J0D01*
G01*
X151862500Y-96575000D01*
G75*
G02*
X151800000Y-96512500I0J62500D01*
G01*
G37*
%TD.AperFunction*%
%TA.AperFunction,SMDPad,CuDef*%
G36*
G01*
X152300000Y-96512500D02*
X152300000Y-95837500D01*
G75*
G02*
X152362500Y-95775000I62500J0D01*
G01*
X152487500Y-95775000D01*
G75*
G02*
X152550000Y-95837500I0J-62500D01*
G01*
X152550000Y-96512500D01*
G75*
G02*
X152487500Y-96575000I-62500J0D01*
G01*
X152362500Y-96575000D01*
G75*
G02*
X152300000Y-96512500I0J62500D01*
G01*
G37*
%TD.AperFunction*%
%TA.AperFunction,SMDPad,CuDef*%
G36*
G01*
X152725000Y-95537500D02*
X152725000Y-95412500D01*
G75*
G02*
X152787500Y-95350000I62500J0D01*
G01*
X153462500Y-95350000D01*
G75*
G02*
X153525000Y-95412500I0J-62500D01*
G01*
X153525000Y-95537500D01*
G75*
G02*
X153462500Y-95600000I-62500J0D01*
G01*
X152787500Y-95600000D01*
G75*
G02*
X152725000Y-95537500I0J62500D01*
G01*
G37*
%TD.AperFunction*%
%TA.AperFunction,SMDPad,CuDef*%
G36*
G01*
X152725000Y-95037500D02*
X152725000Y-94912500D01*
G75*
G02*
X152787500Y-94850000I62500J0D01*
G01*
X153462500Y-94850000D01*
G75*
G02*
X153525000Y-94912500I0J-62500D01*
G01*
X153525000Y-95037500D01*
G75*
G02*
X153462500Y-95100000I-62500J0D01*
G01*
X152787500Y-95100000D01*
G75*
G02*
X152725000Y-95037500I0J62500D01*
G01*
G37*
%TD.AperFunction*%
%TA.AperFunction,SMDPad,CuDef*%
G36*
G01*
X152725000Y-94537500D02*
X152725000Y-94412500D01*
G75*
G02*
X152787500Y-94350000I62500J0D01*
G01*
X153462500Y-94350000D01*
G75*
G02*
X153525000Y-94412500I0J-62500D01*
G01*
X153525000Y-94537500D01*
G75*
G02*
X153462500Y-94600000I-62500J0D01*
G01*
X152787500Y-94600000D01*
G75*
G02*
X152725000Y-94537500I0J62500D01*
G01*
G37*
%TD.AperFunction*%
%TA.AperFunction,SMDPad,CuDef*%
G36*
G01*
X152725000Y-94037500D02*
X152725000Y-93912500D01*
G75*
G02*
X152787500Y-93850000I62500J0D01*
G01*
X153462500Y-93850000D01*
G75*
G02*
X153525000Y-93912500I0J-62500D01*
G01*
X153525000Y-94037500D01*
G75*
G02*
X153462500Y-94100000I-62500J0D01*
G01*
X152787500Y-94100000D01*
G75*
G02*
X152725000Y-94037500I0J62500D01*
G01*
G37*
%TD.AperFunction*%
%TA.AperFunction,SMDPad,CuDef*%
G36*
G01*
X152725000Y-93537500D02*
X152725000Y-93412500D01*
G75*
G02*
X152787500Y-93350000I62500J0D01*
G01*
X153462500Y-93350000D01*
G75*
G02*
X153525000Y-93412500I0J-62500D01*
G01*
X153525000Y-93537500D01*
G75*
G02*
X153462500Y-93600000I-62500J0D01*
G01*
X152787500Y-93600000D01*
G75*
G02*
X152725000Y-93537500I0J62500D01*
G01*
G37*
%TD.AperFunction*%
%TA.AperFunction,SMDPad,CuDef*%
G36*
G01*
X152725000Y-93037500D02*
X152725000Y-92912500D01*
G75*
G02*
X152787500Y-92850000I62500J0D01*
G01*
X153462500Y-92850000D01*
G75*
G02*
X153525000Y-92912500I0J-62500D01*
G01*
X153525000Y-93037500D01*
G75*
G02*
X153462500Y-93100000I-62500J0D01*
G01*
X152787500Y-93100000D01*
G75*
G02*
X152725000Y-93037500I0J62500D01*
G01*
G37*
%TD.AperFunction*%
%TA.AperFunction,SMDPad,CuDef*%
G36*
G01*
X152725000Y-92537500D02*
X152725000Y-92412500D01*
G75*
G02*
X152787500Y-92350000I62500J0D01*
G01*
X153462500Y-92350000D01*
G75*
G02*
X153525000Y-92412500I0J-62500D01*
G01*
X153525000Y-92537500D01*
G75*
G02*
X153462500Y-92600000I-62500J0D01*
G01*
X152787500Y-92600000D01*
G75*
G02*
X152725000Y-92537500I0J62500D01*
G01*
G37*
%TD.AperFunction*%
%TA.AperFunction,SMDPad,CuDef*%
G36*
G01*
X152725000Y-92037500D02*
X152725000Y-91912500D01*
G75*
G02*
X152787500Y-91850000I62500J0D01*
G01*
X153462500Y-91850000D01*
G75*
G02*
X153525000Y-91912500I0J-62500D01*
G01*
X153525000Y-92037500D01*
G75*
G02*
X153462500Y-92100000I-62500J0D01*
G01*
X152787500Y-92100000D01*
G75*
G02*
X152725000Y-92037500I0J62500D01*
G01*
G37*
%TD.AperFunction*%
%TA.AperFunction,SMDPad,CuDef*%
G36*
G01*
X152300000Y-91612500D02*
X152300000Y-90937500D01*
G75*
G02*
X152362500Y-90875000I62500J0D01*
G01*
X152487500Y-90875000D01*
G75*
G02*
X152550000Y-90937500I0J-62500D01*
G01*
X152550000Y-91612500D01*
G75*
G02*
X152487500Y-91675000I-62500J0D01*
G01*
X152362500Y-91675000D01*
G75*
G02*
X152300000Y-91612500I0J62500D01*
G01*
G37*
%TD.AperFunction*%
%TA.AperFunction,SMDPad,CuDef*%
G36*
G01*
X151800000Y-91612500D02*
X151800000Y-90937500D01*
G75*
G02*
X151862500Y-90875000I62500J0D01*
G01*
X151987500Y-90875000D01*
G75*
G02*
X152050000Y-90937500I0J-62500D01*
G01*
X152050000Y-91612500D01*
G75*
G02*
X151987500Y-91675000I-62500J0D01*
G01*
X151862500Y-91675000D01*
G75*
G02*
X151800000Y-91612500I0J62500D01*
G01*
G37*
%TD.AperFunction*%
%TA.AperFunction,SMDPad,CuDef*%
G36*
G01*
X151300000Y-91612500D02*
X151300000Y-90937500D01*
G75*
G02*
X151362500Y-90875000I62500J0D01*
G01*
X151487500Y-90875000D01*
G75*
G02*
X151550000Y-90937500I0J-62500D01*
G01*
X151550000Y-91612500D01*
G75*
G02*
X151487500Y-91675000I-62500J0D01*
G01*
X151362500Y-91675000D01*
G75*
G02*
X151300000Y-91612500I0J62500D01*
G01*
G37*
%TD.AperFunction*%
%TA.AperFunction,SMDPad,CuDef*%
G36*
G01*
X150800000Y-91612500D02*
X150800000Y-90937500D01*
G75*
G02*
X150862500Y-90875000I62500J0D01*
G01*
X150987500Y-90875000D01*
G75*
G02*
X151050000Y-90937500I0J-62500D01*
G01*
X151050000Y-91612500D01*
G75*
G02*
X150987500Y-91675000I-62500J0D01*
G01*
X150862500Y-91675000D01*
G75*
G02*
X150800000Y-91612500I0J62500D01*
G01*
G37*
%TD.AperFunction*%
%TA.AperFunction,SMDPad,CuDef*%
G36*
G01*
X150300000Y-91612500D02*
X150300000Y-90937500D01*
G75*
G02*
X150362500Y-90875000I62500J0D01*
G01*
X150487500Y-90875000D01*
G75*
G02*
X150550000Y-90937500I0J-62500D01*
G01*
X150550000Y-91612500D01*
G75*
G02*
X150487500Y-91675000I-62500J0D01*
G01*
X150362500Y-91675000D01*
G75*
G02*
X150300000Y-91612500I0J62500D01*
G01*
G37*
%TD.AperFunction*%
%TA.AperFunction,SMDPad,CuDef*%
G36*
G01*
X149800000Y-91612500D02*
X149800000Y-90937500D01*
G75*
G02*
X149862500Y-90875000I62500J0D01*
G01*
X149987500Y-90875000D01*
G75*
G02*
X150050000Y-90937500I0J-62500D01*
G01*
X150050000Y-91612500D01*
G75*
G02*
X149987500Y-91675000I-62500J0D01*
G01*
X149862500Y-91675000D01*
G75*
G02*
X149800000Y-91612500I0J62500D01*
G01*
G37*
%TD.AperFunction*%
%TA.AperFunction,SMDPad,CuDef*%
G36*
G01*
X149300000Y-91612500D02*
X149300000Y-90937500D01*
G75*
G02*
X149362500Y-90875000I62500J0D01*
G01*
X149487500Y-90875000D01*
G75*
G02*
X149550000Y-90937500I0J-62500D01*
G01*
X149550000Y-91612500D01*
G75*
G02*
X149487500Y-91675000I-62500J0D01*
G01*
X149362500Y-91675000D01*
G75*
G02*
X149300000Y-91612500I0J62500D01*
G01*
G37*
%TD.AperFunction*%
%TA.AperFunction,SMDPad,CuDef*%
G36*
G01*
X148800000Y-91612500D02*
X148800000Y-90937500D01*
G75*
G02*
X148862500Y-90875000I62500J0D01*
G01*
X148987500Y-90875000D01*
G75*
G02*
X149050000Y-90937500I0J-62500D01*
G01*
X149050000Y-91612500D01*
G75*
G02*
X148987500Y-91675000I-62500J0D01*
G01*
X148862500Y-91675000D01*
G75*
G02*
X148800000Y-91612500I0J62500D01*
G01*
G37*
%TD.AperFunction*%
%TA.AperFunction,HeatsinkPad*%
G36*
G01*
X148925000Y-95300000D02*
X148925000Y-92150000D01*
G75*
G02*
X149100000Y-91975000I175000J0D01*
G01*
X152250000Y-91975000D01*
G75*
G02*
X152425000Y-92150000I0J-175000D01*
G01*
X152425000Y-95300000D01*
G75*
G02*
X152250000Y-95475000I-175000J0D01*
G01*
X149100000Y-95475000D01*
G75*
G02*
X148925000Y-95300000I0J175000D01*
G01*
G37*
%TD.AperFunction*%
%TA.AperFunction,ComponentPad*%
G36*
G01*
X144500000Y-86690000D02*
X144500000Y-85710000D01*
G75*
G02*
X144710000Y-85500000I210000J0D01*
G01*
X145690000Y-85500000D01*
G75*
G02*
X145900000Y-85710000I0J-210000D01*
G01*
X145900000Y-86690000D01*
G75*
G02*
X145690000Y-86900000I-210000J0D01*
G01*
X144710000Y-86900000D01*
G75*
G02*
X144500000Y-86690000I0J210000D01*
G01*
G37*
%TD.AperFunction*%
%TA.AperFunction,ComponentPad*%
G36*
G01*
X138500000Y-92690000D02*
X138500000Y-91710000D01*
G75*
G02*
X138710000Y-91500000I210000J0D01*
G01*
X139690000Y-91500000D01*
G75*
G02*
X139900000Y-91710000I0J-210000D01*
G01*
X139900000Y-92690000D01*
G75*
G02*
X139690000Y-92900000I-210000J0D01*
G01*
X138710000Y-92900000D01*
G75*
G02*
X138500000Y-92690000I0J210000D01*
G01*
G37*
%TD.AperFunction*%
%TA.AperFunction,SMDPad,CuDef*%
G36*
G01*
X149289896Y-98571733D02*
X149028267Y-98310104D01*
G75*
G02*
X149028267Y-98119186I95459J95459D01*
G01*
X149219186Y-97928267D01*
G75*
G02*
X149410104Y-97928267I95459J-95459D01*
G01*
X149671733Y-98189896D01*
G75*
G02*
X149671733Y-98380814I-95459J-95459D01*
G01*
X149480814Y-98571733D01*
G75*
G02*
X149289896Y-98571733I-95459J95459D01*
G01*
G37*
%TD.AperFunction*%
%TA.AperFunction,SMDPad,CuDef*%
G36*
G01*
X150011144Y-97850485D02*
X149749515Y-97588856D01*
G75*
G02*
X149749515Y-97397938I95459J95459D01*
G01*
X149940434Y-97207019D01*
G75*
G02*
X150131352Y-97207019I95459J-95459D01*
G01*
X150392981Y-97468648D01*
G75*
G02*
X150392981Y-97659566I-95459J-95459D01*
G01*
X150202062Y-97850485D01*
G75*
G02*
X150011144Y-97850485I-95459J95459D01*
G01*
G37*
%TD.AperFunction*%
%TA.AperFunction,SMDPad,CuDef*%
G36*
G01*
X147910000Y-102485000D02*
X147910000Y-102115000D01*
G75*
G02*
X148045000Y-101980000I135000J0D01*
G01*
X148315000Y-101980000D01*
G75*
G02*
X148450000Y-102115000I0J-135000D01*
G01*
X148450000Y-102485000D01*
G75*
G02*
X148315000Y-102620000I-135000J0D01*
G01*
X148045000Y-102620000D01*
G75*
G02*
X147910000Y-102485000I0J135000D01*
G01*
G37*
%TD.AperFunction*%
%TA.AperFunction,SMDPad,CuDef*%
G36*
G01*
X148930000Y-102485000D02*
X148930000Y-102115000D01*
G75*
G02*
X149065000Y-101980000I135000J0D01*
G01*
X149335000Y-101980000D01*
G75*
G02*
X149470000Y-102115000I0J-135000D01*
G01*
X149470000Y-102485000D01*
G75*
G02*
X149335000Y-102620000I-135000J0D01*
G01*
X149065000Y-102620000D01*
G75*
G02*
X148930000Y-102485000I0J135000D01*
G01*
G37*
%TD.AperFunction*%
%TA.AperFunction,ComponentPad*%
G36*
G01*
X156100000Y-93890000D02*
X156100000Y-92910000D01*
G75*
G02*
X156310000Y-92700000I210000J0D01*
G01*
X157290000Y-92700000D01*
G75*
G02*
X157500000Y-92910000I0J-210000D01*
G01*
X157500000Y-93890000D01*
G75*
G02*
X157290000Y-94100000I-210000J0D01*
G01*
X156310000Y-94100000D01*
G75*
G02*
X156100000Y-93890000I0J210000D01*
G01*
G37*
%TD.AperFunction*%
%TA.AperFunction,SMDPad,CuDef*%
G36*
G01*
X151650000Y-89900000D02*
X151650000Y-89400000D01*
G75*
G02*
X151875000Y-89175000I225000J0D01*
G01*
X152325000Y-89175000D01*
G75*
G02*
X152550000Y-89400000I0J-225000D01*
G01*
X152550000Y-89900000D01*
G75*
G02*
X152325000Y-90125000I-225000J0D01*
G01*
X151875000Y-90125000D01*
G75*
G02*
X151650000Y-89900000I0J225000D01*
G01*
G37*
%TD.AperFunction*%
%TA.AperFunction,SMDPad,CuDef*%
G36*
G01*
X153200000Y-89900000D02*
X153200000Y-89400000D01*
G75*
G02*
X153425000Y-89175000I225000J0D01*
G01*
X153875000Y-89175000D01*
G75*
G02*
X154100000Y-89400000I0J-225000D01*
G01*
X154100000Y-89900000D01*
G75*
G02*
X153875000Y-90125000I-225000J0D01*
G01*
X153425000Y-90125000D01*
G75*
G02*
X153200000Y-89900000I0J225000D01*
G01*
G37*
%TD.AperFunction*%
%TA.AperFunction,ComponentPad*%
G36*
G01*
X145300000Y-104290000D02*
X145300000Y-103310000D01*
G75*
G02*
X145510000Y-103100000I210000J0D01*
G01*
X146490000Y-103100000D01*
G75*
G02*
X146700000Y-103310000I0J-210000D01*
G01*
X146700000Y-104290000D01*
G75*
G02*
X146490000Y-104500000I-210000J0D01*
G01*
X145510000Y-104500000D01*
G75*
G02*
X145300000Y-104290000I0J210000D01*
G01*
G37*
%TD.AperFunction*%
%TA.AperFunction,ComponentPad*%
G36*
G01*
X141300000Y-86690000D02*
X141300000Y-85710000D01*
G75*
G02*
X141510000Y-85500000I210000J0D01*
G01*
X142490000Y-85500000D01*
G75*
G02*
X142700000Y-85710000I0J-210000D01*
G01*
X142700000Y-86690000D01*
G75*
G02*
X142490000Y-86900000I-210000J0D01*
G01*
X141510000Y-86900000D01*
G75*
G02*
X141300000Y-86690000I0J210000D01*
G01*
G37*
%TD.AperFunction*%
%TA.AperFunction,SMDPad,CuDef*%
G36*
X153565356Y-101585355D02*
G01*
X153514645Y-101534644D01*
X153500000Y-101499289D01*
X153500000Y-101450000D01*
X153514645Y-101414645D01*
X153550000Y-101400000D01*
X154250000Y-101400000D01*
X154285355Y-101414645D01*
X154300000Y-101450000D01*
X154300000Y-101550000D01*
X154285355Y-101585355D01*
X154250000Y-101600000D01*
X153600711Y-101600000D01*
X153565356Y-101585355D01*
G37*
%TD.AperFunction*%
%TA.AperFunction,SMDPad,CuDef*%
G36*
G01*
X154300000Y-101050000D02*
X154300000Y-101150000D01*
G75*
G02*
X154250000Y-101200000I-50000J0D01*
G01*
X153550000Y-101200000D01*
G75*
G02*
X153500000Y-101150000I0J50000D01*
G01*
X153500000Y-101050000D01*
G75*
G02*
X153550000Y-101000000I50000J0D01*
G01*
X154250000Y-101000000D01*
G75*
G02*
X154300000Y-101050000I0J-50000D01*
G01*
G37*
%TD.AperFunction*%
%TA.AperFunction,SMDPad,CuDef*%
G36*
G01*
X154300000Y-100650000D02*
X154300000Y-100750000D01*
G75*
G02*
X154250000Y-100800000I-50000J0D01*
G01*
X153550000Y-100800000D01*
G75*
G02*
X153500000Y-100750000I0J50000D01*
G01*
X153500000Y-100650000D01*
G75*
G02*
X153550000Y-100600000I50000J0D01*
G01*
X154250000Y-100600000D01*
G75*
G02*
X154300000Y-100650000I0J-50000D01*
G01*
G37*
%TD.AperFunction*%
%TA.AperFunction,SMDPad,CuDef*%
G36*
G01*
X154300000Y-100250000D02*
X154300000Y-100350000D01*
G75*
G02*
X154250000Y-100400000I-50000J0D01*
G01*
X153550000Y-100400000D01*
G75*
G02*
X153500000Y-100350000I0J50000D01*
G01*
X153500000Y-100250000D01*
G75*
G02*
X153550000Y-100200000I50000J0D01*
G01*
X154250000Y-100200000D01*
G75*
G02*
X154300000Y-100250000I0J-50000D01*
G01*
G37*
%TD.AperFunction*%
%TA.AperFunction,SMDPad,CuDef*%
G36*
X153514645Y-99985355D02*
G01*
X153500000Y-99950000D01*
X153500000Y-99900711D01*
X153514645Y-99865356D01*
X153565356Y-99814645D01*
X153600711Y-99800000D01*
X154250000Y-99800000D01*
X154285355Y-99814645D01*
X154300000Y-99850000D01*
X154300000Y-99950000D01*
X154285355Y-99985355D01*
X154250000Y-100000000D01*
X153550000Y-100000000D01*
X153514645Y-99985355D01*
G37*
%TD.AperFunction*%
%TA.AperFunction,SMDPad,CuDef*%
G36*
X153164645Y-99635355D02*
G01*
X153150000Y-99600000D01*
X153150000Y-98900000D01*
X153164645Y-98864645D01*
X153200000Y-98850000D01*
X153300000Y-98850000D01*
X153335355Y-98864645D01*
X153350000Y-98900000D01*
X153350000Y-99549289D01*
X153335355Y-99584644D01*
X153284644Y-99635355D01*
X153249289Y-99650000D01*
X153200000Y-99650000D01*
X153164645Y-99635355D01*
G37*
%TD.AperFunction*%
%TA.AperFunction,SMDPad,CuDef*%
G36*
G01*
X152950000Y-98900000D02*
X152950000Y-99600000D01*
G75*
G02*
X152900000Y-99650000I-50000J0D01*
G01*
X152800000Y-99650000D01*
G75*
G02*
X152750000Y-99600000I0J50000D01*
G01*
X152750000Y-98900000D01*
G75*
G02*
X152800000Y-98850000I50000J0D01*
G01*
X152900000Y-98850000D01*
G75*
G02*
X152950000Y-98900000I0J-50000D01*
G01*
G37*
%TD.AperFunction*%
%TA.AperFunction,SMDPad,CuDef*%
G36*
G01*
X152550000Y-98900000D02*
X152550000Y-99600000D01*
G75*
G02*
X152500000Y-99650000I-50000J0D01*
G01*
X152400000Y-99650000D01*
G75*
G02*
X152350000Y-99600000I0J50000D01*
G01*
X152350000Y-98900000D01*
G75*
G02*
X152400000Y-98850000I50000J0D01*
G01*
X152500000Y-98850000D01*
G75*
G02*
X152550000Y-98900000I0J-50000D01*
G01*
G37*
%TD.AperFunction*%
%TA.AperFunction,SMDPad,CuDef*%
G36*
G01*
X152150000Y-98900000D02*
X152150000Y-99600000D01*
G75*
G02*
X152100000Y-99650000I-50000J0D01*
G01*
X152000000Y-99650000D01*
G75*
G02*
X151950000Y-99600000I0J50000D01*
G01*
X151950000Y-98900000D01*
G75*
G02*
X152000000Y-98850000I50000J0D01*
G01*
X152100000Y-98850000D01*
G75*
G02*
X152150000Y-98900000I0J-50000D01*
G01*
G37*
%TD.AperFunction*%
%TA.AperFunction,SMDPad,CuDef*%
G36*
X151615356Y-99635355D02*
G01*
X151564645Y-99584644D01*
X151550000Y-99549289D01*
X151550000Y-98900000D01*
X151564645Y-98864645D01*
X151600000Y-98850000D01*
X151700000Y-98850000D01*
X151735355Y-98864645D01*
X151750000Y-98900000D01*
X151750000Y-99600000D01*
X151735355Y-99635355D01*
X151700000Y-99650000D01*
X151650711Y-99650000D01*
X151615356Y-99635355D01*
G37*
%TD.AperFunction*%
%TA.AperFunction,SMDPad,CuDef*%
G36*
X150614645Y-99985355D02*
G01*
X150600000Y-99950000D01*
X150600000Y-99850000D01*
X150614645Y-99814645D01*
X150650000Y-99800000D01*
X151299289Y-99800000D01*
X151334644Y-99814645D01*
X151385355Y-99865356D01*
X151400000Y-99900711D01*
X151400000Y-99950000D01*
X151385355Y-99985355D01*
X151350000Y-100000000D01*
X150650000Y-100000000D01*
X150614645Y-99985355D01*
G37*
%TD.AperFunction*%
%TA.AperFunction,SMDPad,CuDef*%
G36*
G01*
X151400000Y-100250000D02*
X151400000Y-100350000D01*
G75*
G02*
X151350000Y-100400000I-50000J0D01*
G01*
X150650000Y-100400000D01*
G75*
G02*
X150600000Y-100350000I0J50000D01*
G01*
X150600000Y-100250000D01*
G75*
G02*
X150650000Y-100200000I50000J0D01*
G01*
X151350000Y-100200000D01*
G75*
G02*
X151400000Y-100250000I0J-50000D01*
G01*
G37*
%TD.AperFunction*%
%TA.AperFunction,SMDPad,CuDef*%
G36*
G01*
X151400000Y-100650000D02*
X151400000Y-100750000D01*
G75*
G02*
X151350000Y-100800000I-50000J0D01*
G01*
X150650000Y-100800000D01*
G75*
G02*
X150600000Y-100750000I0J50000D01*
G01*
X150600000Y-100650000D01*
G75*
G02*
X150650000Y-100600000I50000J0D01*
G01*
X151350000Y-100600000D01*
G75*
G02*
X151400000Y-100650000I0J-50000D01*
G01*
G37*
%TD.AperFunction*%
%TA.AperFunction,SMDPad,CuDef*%
G36*
G01*
X151400000Y-101050000D02*
X151400000Y-101150000D01*
G75*
G02*
X151350000Y-101200000I-50000J0D01*
G01*
X150650000Y-101200000D01*
G75*
G02*
X150600000Y-101150000I0J50000D01*
G01*
X150600000Y-101050000D01*
G75*
G02*
X150650000Y-101000000I50000J0D01*
G01*
X151350000Y-101000000D01*
G75*
G02*
X151400000Y-101050000I0J-50000D01*
G01*
G37*
%TD.AperFunction*%
%TA.AperFunction,SMDPad,CuDef*%
G36*
X150614645Y-101585355D02*
G01*
X150600000Y-101550000D01*
X150600000Y-101450000D01*
X150614645Y-101414645D01*
X150650000Y-101400000D01*
X151350000Y-101400000D01*
X151385355Y-101414645D01*
X151400000Y-101450000D01*
X151400000Y-101499289D01*
X151385355Y-101534644D01*
X151334644Y-101585355D01*
X151299289Y-101600000D01*
X150650000Y-101600000D01*
X150614645Y-101585355D01*
G37*
%TD.AperFunction*%
%TA.AperFunction,SMDPad,CuDef*%
G36*
X151564645Y-102535355D02*
G01*
X151550000Y-102500000D01*
X151550000Y-101850711D01*
X151564645Y-101815356D01*
X151615356Y-101764645D01*
X151650711Y-101750000D01*
X151700000Y-101750000D01*
X151735355Y-101764645D01*
X151750000Y-101800000D01*
X151750000Y-102500000D01*
X151735355Y-102535355D01*
X151700000Y-102550000D01*
X151600000Y-102550000D01*
X151564645Y-102535355D01*
G37*
%TD.AperFunction*%
%TA.AperFunction,SMDPad,CuDef*%
G36*
G01*
X152150000Y-101800000D02*
X152150000Y-102500000D01*
G75*
G02*
X152100000Y-102550000I-50000J0D01*
G01*
X152000000Y-102550000D01*
G75*
G02*
X151950000Y-102500000I0J50000D01*
G01*
X151950000Y-101800000D01*
G75*
G02*
X152000000Y-101750000I50000J0D01*
G01*
X152100000Y-101750000D01*
G75*
G02*
X152150000Y-101800000I0J-50000D01*
G01*
G37*
%TD.AperFunction*%
%TA.AperFunction,SMDPad,CuDef*%
G36*
G01*
X152550000Y-101800000D02*
X152550000Y-102500000D01*
G75*
G02*
X152500000Y-102550000I-50000J0D01*
G01*
X152400000Y-102550000D01*
G75*
G02*
X152350000Y-102500000I0J50000D01*
G01*
X152350000Y-101800000D01*
G75*
G02*
X152400000Y-101750000I50000J0D01*
G01*
X152500000Y-101750000D01*
G75*
G02*
X152550000Y-101800000I0J-50000D01*
G01*
G37*
%TD.AperFunction*%
%TA.AperFunction,SMDPad,CuDef*%
G36*
G01*
X152950000Y-101800000D02*
X152950000Y-102500000D01*
G75*
G02*
X152900000Y-102550000I-50000J0D01*
G01*
X152800000Y-102550000D01*
G75*
G02*
X152750000Y-102500000I0J50000D01*
G01*
X152750000Y-101800000D01*
G75*
G02*
X152800000Y-101750000I50000J0D01*
G01*
X152900000Y-101750000D01*
G75*
G02*
X152950000Y-101800000I0J-50000D01*
G01*
G37*
%TD.AperFunction*%
%TA.AperFunction,SMDPad,CuDef*%
G36*
X153164645Y-102535355D02*
G01*
X153150000Y-102500000D01*
X153150000Y-101800000D01*
X153164645Y-101764645D01*
X153200000Y-101750000D01*
X153249289Y-101750000D01*
X153284644Y-101764645D01*
X153335355Y-101815356D01*
X153350000Y-101850711D01*
X153350000Y-102500000D01*
X153335355Y-102535355D01*
X153300000Y-102550000D01*
X153200000Y-102550000D01*
X153164645Y-102535355D01*
G37*
%TD.AperFunction*%
%TA.AperFunction,HeatsinkPad*%
G36*
G01*
X153300000Y-100020000D02*
X153300000Y-101380000D01*
G75*
G02*
X153130000Y-101550000I-170000J0D01*
G01*
X151770000Y-101550000D01*
G75*
G02*
X151600000Y-101380000I0J170000D01*
G01*
X151600000Y-100020000D01*
G75*
G02*
X151770000Y-99850000I170000J0D01*
G01*
X153130000Y-99850000D01*
G75*
G02*
X153300000Y-100020000I0J-170000D01*
G01*
G37*
%TD.AperFunction*%
D11*
X147300000Y-96782031D03*
%TA.AperFunction,SMDPad,CuDef*%
G36*
G01*
X151320000Y-90140000D02*
X150980000Y-90140000D01*
G75*
G02*
X150840000Y-90000000I0J140000D01*
G01*
X150840000Y-89720000D01*
G75*
G02*
X150980000Y-89580000I140000J0D01*
G01*
X151320000Y-89580000D01*
G75*
G02*
X151460000Y-89720000I0J-140000D01*
G01*
X151460000Y-90000000D01*
G75*
G02*
X151320000Y-90140000I-140000J0D01*
G01*
G37*
%TD.AperFunction*%
%TA.AperFunction,SMDPad,CuDef*%
G36*
G01*
X151320000Y-89180000D02*
X150980000Y-89180000D01*
G75*
G02*
X150840000Y-89040000I0J140000D01*
G01*
X150840000Y-88760000D01*
G75*
G02*
X150980000Y-88620000I140000J0D01*
G01*
X151320000Y-88620000D01*
G75*
G02*
X151460000Y-88760000I0J-140000D01*
G01*
X151460000Y-89040000D01*
G75*
G02*
X151320000Y-89180000I-140000J0D01*
G01*
G37*
%TD.AperFunction*%
%TA.AperFunction,ComponentPad*%
G36*
G01*
X156100000Y-89690000D02*
X156100000Y-88710000D01*
G75*
G02*
X156310000Y-88500000I210000J0D01*
G01*
X157290000Y-88500000D01*
G75*
G02*
X157500000Y-88710000I0J-210000D01*
G01*
X157500000Y-89690000D01*
G75*
G02*
X157290000Y-89900000I-210000J0D01*
G01*
X156310000Y-89900000D01*
G75*
G02*
X156100000Y-89690000I0J210000D01*
G01*
G37*
%TD.AperFunction*%
%TA.AperFunction,SMDPad,CuDef*%
G36*
G01*
X143217872Y-90819926D02*
X143217872Y-90479926D01*
G75*
G02*
X143357872Y-90339926I140000J0D01*
G01*
X143637872Y-90339926D01*
G75*
G02*
X143777872Y-90479926I0J-140000D01*
G01*
X143777872Y-90819926D01*
G75*
G02*
X143637872Y-90959926I-140000J0D01*
G01*
X143357872Y-90959926D01*
G75*
G02*
X143217872Y-90819926I0J140000D01*
G01*
G37*
%TD.AperFunction*%
%TA.AperFunction,SMDPad,CuDef*%
G36*
G01*
X144177872Y-90819926D02*
X144177872Y-90479926D01*
G75*
G02*
X144317872Y-90339926I140000J0D01*
G01*
X144597872Y-90339926D01*
G75*
G02*
X144737872Y-90479926I0J-140000D01*
G01*
X144737872Y-90819926D01*
G75*
G02*
X144597872Y-90959926I-140000J0D01*
G01*
X144317872Y-90959926D01*
G75*
G02*
X144177872Y-90819926I0J140000D01*
G01*
G37*
%TD.AperFunction*%
%TA.AperFunction,ComponentPad*%
G36*
G01*
X156109832Y-99625239D02*
X156109832Y-98645239D01*
G75*
G02*
X156319832Y-98435239I210000J0D01*
G01*
X157299832Y-98435239D01*
G75*
G02*
X157509832Y-98645239I0J-210000D01*
G01*
X157509832Y-99625239D01*
G75*
G02*
X157299832Y-99835239I-210000J0D01*
G01*
X156319832Y-99835239D01*
G75*
G02*
X156109832Y-99625239I0J210000D01*
G01*
G37*
%TD.AperFunction*%
%TA.AperFunction,ComponentPad*%
G36*
G01*
X142100000Y-104290000D02*
X142100000Y-103310000D01*
G75*
G02*
X142310000Y-103100000I210000J0D01*
G01*
X143290000Y-103100000D01*
G75*
G02*
X143500000Y-103310000I0J-210000D01*
G01*
X143500000Y-104290000D01*
G75*
G02*
X143290000Y-104500000I-210000J0D01*
G01*
X142310000Y-104500000D01*
G75*
G02*
X142100000Y-104290000I0J210000D01*
G01*
G37*
%TD.AperFunction*%
%TA.AperFunction,SMDPad,CuDef*%
G36*
G01*
X147053802Y-93080000D02*
X146713802Y-93080000D01*
G75*
G02*
X146573802Y-92940000I0J140000D01*
G01*
X146573802Y-92660000D01*
G75*
G02*
X146713802Y-92520000I140000J0D01*
G01*
X147053802Y-92520000D01*
G75*
G02*
X147193802Y-92660000I0J-140000D01*
G01*
X147193802Y-92940000D01*
G75*
G02*
X147053802Y-93080000I-140000J0D01*
G01*
G37*
%TD.AperFunction*%
%TA.AperFunction,SMDPad,CuDef*%
G36*
G01*
X147053802Y-92120000D02*
X146713802Y-92120000D01*
G75*
G02*
X146573802Y-91980000I0J140000D01*
G01*
X146573802Y-91700000D01*
G75*
G02*
X146713802Y-91560000I140000J0D01*
G01*
X147053802Y-91560000D01*
G75*
G02*
X147193802Y-91700000I0J-140000D01*
G01*
X147193802Y-91980000D01*
G75*
G02*
X147053802Y-92120000I-140000J0D01*
G01*
G37*
%TD.AperFunction*%
%TA.AperFunction,ComponentPad*%
G36*
G01*
X146700000Y-86690000D02*
X146700000Y-85710000D01*
G75*
G02*
X146910000Y-85500000I210000J0D01*
G01*
X147890000Y-85500000D01*
G75*
G02*
X148100000Y-85710000I0J-210000D01*
G01*
X148100000Y-86690000D01*
G75*
G02*
X147890000Y-86900000I-210000J0D01*
G01*
X146910000Y-86900000D01*
G75*
G02*
X146700000Y-86690000I0J210000D01*
G01*
G37*
%TD.AperFunction*%
%TA.AperFunction,SMDPad,CuDef*%
G36*
G01*
X144050000Y-96775000D02*
X144250000Y-96775000D01*
G75*
G02*
X144350000Y-96875000I0J-100000D01*
G01*
X144350000Y-97325000D01*
G75*
G02*
X144250000Y-97425000I-100000J0D01*
G01*
X144050000Y-97425000D01*
G75*
G02*
X143950000Y-97325000I0J100000D01*
G01*
X143950000Y-96875000D01*
G75*
G02*
X144050000Y-96775000I100000J0D01*
G01*
G37*
%TD.AperFunction*%
%TA.AperFunction,SMDPad,CuDef*%
G36*
G01*
X143400000Y-96775000D02*
X143600000Y-96775000D01*
G75*
G02*
X143700000Y-96875000I0J-100000D01*
G01*
X143700000Y-97325000D01*
G75*
G02*
X143600000Y-97425000I-100000J0D01*
G01*
X143400000Y-97425000D01*
G75*
G02*
X143300000Y-97325000I0J100000D01*
G01*
X143300000Y-96875000D01*
G75*
G02*
X143400000Y-96775000I100000J0D01*
G01*
G37*
%TD.AperFunction*%
%TA.AperFunction,SMDPad,CuDef*%
G36*
G01*
X142750000Y-96775000D02*
X142950000Y-96775000D01*
G75*
G02*
X143050000Y-96875000I0J-100000D01*
G01*
X143050000Y-97325000D01*
G75*
G02*
X142950000Y-97425000I-100000J0D01*
G01*
X142750000Y-97425000D01*
G75*
G02*
X142650000Y-97325000I0J100000D01*
G01*
X142650000Y-96875000D01*
G75*
G02*
X142750000Y-96775000I100000J0D01*
G01*
G37*
%TD.AperFunction*%
%TA.AperFunction,SMDPad,CuDef*%
G36*
G01*
X142750000Y-98675000D02*
X142950000Y-98675000D01*
G75*
G02*
X143050000Y-98775000I0J-100000D01*
G01*
X143050000Y-99225000D01*
G75*
G02*
X142950000Y-99325000I-100000J0D01*
G01*
X142750000Y-99325000D01*
G75*
G02*
X142650000Y-99225000I0J100000D01*
G01*
X142650000Y-98775000D01*
G75*
G02*
X142750000Y-98675000I100000J0D01*
G01*
G37*
%TD.AperFunction*%
%TA.AperFunction,SMDPad,CuDef*%
G36*
G01*
X144050000Y-98675000D02*
X144250000Y-98675000D01*
G75*
G02*
X144350000Y-98775000I0J-100000D01*
G01*
X144350000Y-99225000D01*
G75*
G02*
X144250000Y-99325000I-100000J0D01*
G01*
X144050000Y-99325000D01*
G75*
G02*
X143950000Y-99225000I0J100000D01*
G01*
X143950000Y-98775000D01*
G75*
G02*
X144050000Y-98675000I100000J0D01*
G01*
G37*
%TD.AperFunction*%
%TA.AperFunction,SMDPad,CuDef*%
G36*
G01*
X146095106Y-96912483D02*
X145725106Y-96912483D01*
G75*
G02*
X145590106Y-96777483I0J135000D01*
G01*
X145590106Y-96507483D01*
G75*
G02*
X145725106Y-96372483I135000J0D01*
G01*
X146095106Y-96372483D01*
G75*
G02*
X146230106Y-96507483I0J-135000D01*
G01*
X146230106Y-96777483D01*
G75*
G02*
X146095106Y-96912483I-135000J0D01*
G01*
G37*
%TD.AperFunction*%
%TA.AperFunction,SMDPad,CuDef*%
G36*
G01*
X146095106Y-95892483D02*
X145725106Y-95892483D01*
G75*
G02*
X145590106Y-95757483I0J135000D01*
G01*
X145590106Y-95487483D01*
G75*
G02*
X145725106Y-95352483I135000J0D01*
G01*
X146095106Y-95352483D01*
G75*
G02*
X146230106Y-95487483I0J-135000D01*
G01*
X146230106Y-95757483D01*
G75*
G02*
X146095106Y-95892483I-135000J0D01*
G01*
G37*
%TD.AperFunction*%
%TA.AperFunction,ComponentPad*%
G36*
G01*
X151500000Y-86690000D02*
X151500000Y-85710000D01*
G75*
G02*
X151710000Y-85500000I210000J0D01*
G01*
X152690000Y-85500000D01*
G75*
G02*
X152900000Y-85710000I0J-210000D01*
G01*
X152900000Y-86690000D01*
G75*
G02*
X152690000Y-86900000I-210000J0D01*
G01*
X151710000Y-86900000D01*
G75*
G02*
X151500000Y-86690000I0J210000D01*
G01*
G37*
%TD.AperFunction*%
%TA.AperFunction,SMDPad,CuDef*%
G36*
G01*
X147910000Y-101485000D02*
X147910000Y-101115000D01*
G75*
G02*
X148045000Y-100980000I135000J0D01*
G01*
X148315000Y-100980000D01*
G75*
G02*
X148450000Y-101115000I0J-135000D01*
G01*
X148450000Y-101485000D01*
G75*
G02*
X148315000Y-101620000I-135000J0D01*
G01*
X148045000Y-101620000D01*
G75*
G02*
X147910000Y-101485000I0J135000D01*
G01*
G37*
%TD.AperFunction*%
%TA.AperFunction,SMDPad,CuDef*%
G36*
G01*
X148930000Y-101485000D02*
X148930000Y-101115000D01*
G75*
G02*
X149065000Y-100980000I135000J0D01*
G01*
X149335000Y-100980000D01*
G75*
G02*
X149470000Y-101115000I0J-135000D01*
G01*
X149470000Y-101485000D01*
G75*
G02*
X149335000Y-101620000I-135000J0D01*
G01*
X149065000Y-101620000D01*
G75*
G02*
X148930000Y-101485000I0J135000D01*
G01*
G37*
%TD.AperFunction*%
%TA.AperFunction,ComponentPad*%
G36*
G01*
X138500000Y-95890000D02*
X138500000Y-94910000D01*
G75*
G02*
X138710000Y-94700000I210000J0D01*
G01*
X139690000Y-94700000D01*
G75*
G02*
X139900000Y-94910000I0J-210000D01*
G01*
X139900000Y-95890000D01*
G75*
G02*
X139690000Y-96100000I-210000J0D01*
G01*
X138710000Y-96100000D01*
G75*
G02*
X138500000Y-95890000I0J210000D01*
G01*
G37*
%TD.AperFunction*%
%TA.AperFunction,SMDPad,CuDef*%
G36*
G01*
X150050000Y-90450000D02*
X149550000Y-90450000D01*
G75*
G02*
X149325000Y-90225000I0J225000D01*
G01*
X149325000Y-89775000D01*
G75*
G02*
X149550000Y-89550000I225000J0D01*
G01*
X150050000Y-89550000D01*
G75*
G02*
X150275000Y-89775000I0J-225000D01*
G01*
X150275000Y-90225000D01*
G75*
G02*
X150050000Y-90450000I-225000J0D01*
G01*
G37*
%TD.AperFunction*%
%TA.AperFunction,SMDPad,CuDef*%
G36*
G01*
X150050000Y-88900000D02*
X149550000Y-88900000D01*
G75*
G02*
X149325000Y-88675000I0J225000D01*
G01*
X149325000Y-88225000D01*
G75*
G02*
X149550000Y-88000000I225000J0D01*
G01*
X150050000Y-88000000D01*
G75*
G02*
X150275000Y-88225000I0J-225000D01*
G01*
X150275000Y-88675000D01*
G75*
G02*
X150050000Y-88900000I-225000J0D01*
G01*
G37*
%TD.AperFunction*%
%TA.AperFunction,SMDPad,CuDef*%
G36*
G01*
X154400000Y-97350000D02*
X154400000Y-97850000D01*
G75*
G02*
X154175000Y-98075000I-225000J0D01*
G01*
X153725000Y-98075000D01*
G75*
G02*
X153500000Y-97850000I0J225000D01*
G01*
X153500000Y-97350000D01*
G75*
G02*
X153725000Y-97125000I225000J0D01*
G01*
X154175000Y-97125000D01*
G75*
G02*
X154400000Y-97350000I0J-225000D01*
G01*
G37*
%TD.AperFunction*%
%TA.AperFunction,SMDPad,CuDef*%
G36*
G01*
X152850000Y-97350000D02*
X152850000Y-97850000D01*
G75*
G02*
X152625000Y-98075000I-225000J0D01*
G01*
X152175000Y-98075000D01*
G75*
G02*
X151950000Y-97850000I0J225000D01*
G01*
X151950000Y-97350000D01*
G75*
G02*
X152175000Y-97125000I225000J0D01*
G01*
X152625000Y-97125000D01*
G75*
G02*
X152850000Y-97350000I0J-225000D01*
G01*
G37*
%TD.AperFunction*%
%TA.AperFunction,SMDPad,CuDef*%
G36*
G01*
X154680000Y-100009348D02*
X155020000Y-100009348D01*
G75*
G02*
X155160000Y-100149348I0J-140000D01*
G01*
X155160000Y-100429348D01*
G75*
G02*
X155020000Y-100569348I-140000J0D01*
G01*
X154680000Y-100569348D01*
G75*
G02*
X154540000Y-100429348I0J140000D01*
G01*
X154540000Y-100149348D01*
G75*
G02*
X154680000Y-100009348I140000J0D01*
G01*
G37*
%TD.AperFunction*%
%TA.AperFunction,SMDPad,CuDef*%
G36*
G01*
X154680000Y-100969348D02*
X155020000Y-100969348D01*
G75*
G02*
X155160000Y-101109348I0J-140000D01*
G01*
X155160000Y-101389348D01*
G75*
G02*
X155020000Y-101529348I-140000J0D01*
G01*
X154680000Y-101529348D01*
G75*
G02*
X154540000Y-101389348I0J140000D01*
G01*
X154540000Y-101109348D01*
G75*
G02*
X154680000Y-100969348I140000J0D01*
G01*
G37*
%TD.AperFunction*%
%TA.AperFunction,ComponentPad*%
G36*
G01*
X138500000Y-101290000D02*
X138500000Y-100310000D01*
G75*
G02*
X138710000Y-100100000I210000J0D01*
G01*
X139690000Y-100100000D01*
G75*
G02*
X139900000Y-100310000I0J-210000D01*
G01*
X139900000Y-101290000D01*
G75*
G02*
X139690000Y-101500000I-210000J0D01*
G01*
X138710000Y-101500000D01*
G75*
G02*
X138500000Y-101290000I0J210000D01*
G01*
G37*
%TD.AperFunction*%
%TA.AperFunction,ComponentPad*%
G36*
G01*
X138500000Y-89490000D02*
X138500000Y-88510000D01*
G75*
G02*
X138710000Y-88300000I210000J0D01*
G01*
X139690000Y-88300000D01*
G75*
G02*
X139900000Y-88510000I0J-210000D01*
G01*
X139900000Y-89490000D01*
G75*
G02*
X139690000Y-89700000I-210000J0D01*
G01*
X138710000Y-89700000D01*
G75*
G02*
X138500000Y-89490000I0J210000D01*
G01*
G37*
%TD.AperFunction*%
%TA.AperFunction,ComponentPad*%
G36*
G01*
X142900000Y-86690000D02*
X142900000Y-85710000D01*
G75*
G02*
X143110000Y-85500000I210000J0D01*
G01*
X144090000Y-85500000D01*
G75*
G02*
X144300000Y-85710000I0J-210000D01*
G01*
X144300000Y-86690000D01*
G75*
G02*
X144090000Y-86900000I-210000J0D01*
G01*
X143110000Y-86900000D01*
G75*
G02*
X142900000Y-86690000I0J210000D01*
G01*
G37*
%TD.AperFunction*%
%TA.AperFunction,ComponentPad*%
G36*
G01*
X138500000Y-94290000D02*
X138500000Y-93310000D01*
G75*
G02*
X138710000Y-93100000I210000J0D01*
G01*
X139690000Y-93100000D01*
G75*
G02*
X139900000Y-93310000I0J-210000D01*
G01*
X139900000Y-94290000D01*
G75*
G02*
X139690000Y-94500000I-210000J0D01*
G01*
X138710000Y-94500000D01*
G75*
G02*
X138500000Y-94290000I0J210000D01*
G01*
G37*
%TD.AperFunction*%
%TA.AperFunction,ComponentPad*%
G36*
G01*
X156109832Y-97775239D02*
X156109832Y-96795239D01*
G75*
G02*
X156319832Y-96585239I210000J0D01*
G01*
X157299832Y-96585239D01*
G75*
G02*
X157509832Y-96795239I0J-210000D01*
G01*
X157509832Y-97775239D01*
G75*
G02*
X157299832Y-97985239I-210000J0D01*
G01*
X156319832Y-97985239D01*
G75*
G02*
X156109832Y-97775239I0J210000D01*
G01*
G37*
%TD.AperFunction*%
%TA.AperFunction,SMDPad,CuDef*%
G36*
G01*
X144288053Y-95937578D02*
X144288053Y-96277578D01*
G75*
G02*
X144148053Y-96417578I-140000J0D01*
G01*
X143868053Y-96417578D01*
G75*
G02*
X143728053Y-96277578I0J140000D01*
G01*
X143728053Y-95937578D01*
G75*
G02*
X143868053Y-95797578I140000J0D01*
G01*
X144148053Y-95797578D01*
G75*
G02*
X144288053Y-95937578I0J-140000D01*
G01*
G37*
%TD.AperFunction*%
%TA.AperFunction,SMDPad,CuDef*%
G36*
G01*
X143328053Y-95937578D02*
X143328053Y-96277578D01*
G75*
G02*
X143188053Y-96417578I-140000J0D01*
G01*
X142908053Y-96417578D01*
G75*
G02*
X142768053Y-96277578I0J140000D01*
G01*
X142768053Y-95937578D01*
G75*
G02*
X142908053Y-95797578I140000J0D01*
G01*
X143188053Y-95797578D01*
G75*
G02*
X143328053Y-95937578I0J-140000D01*
G01*
G37*
%TD.AperFunction*%
X145485000Y-99305000D03*
X148100000Y-90200000D03*
X147537482Y-97578631D03*
%TA.AperFunction,ComponentPad*%
G36*
G01*
X156100000Y-95490000D02*
X156100000Y-94510000D01*
G75*
G02*
X156310000Y-94300000I210000J0D01*
G01*
X157290000Y-94300000D01*
G75*
G02*
X157500000Y-94510000I0J-210000D01*
G01*
X157500000Y-95490000D01*
G75*
G02*
X157290000Y-95700000I-210000J0D01*
G01*
X156310000Y-95700000D01*
G75*
G02*
X156100000Y-95490000I0J210000D01*
G01*
G37*
%TD.AperFunction*%
%TA.AperFunction,SMDPad,CuDef*%
G36*
G01*
X148630000Y-100130000D02*
X148630000Y-100470000D01*
G75*
G02*
X148490000Y-100610000I-140000J0D01*
G01*
X148210000Y-100610000D01*
G75*
G02*
X148070000Y-100470000I0J140000D01*
G01*
X148070000Y-100130000D01*
G75*
G02*
X148210000Y-99990000I140000J0D01*
G01*
X148490000Y-99990000D01*
G75*
G02*
X148630000Y-100130000I0J-140000D01*
G01*
G37*
%TD.AperFunction*%
%TA.AperFunction,SMDPad,CuDef*%
G36*
G01*
X147670000Y-100130000D02*
X147670000Y-100470000D01*
G75*
G02*
X147530000Y-100610000I-140000J0D01*
G01*
X147250000Y-100610000D01*
G75*
G02*
X147110000Y-100470000I0J140000D01*
G01*
X147110000Y-100130000D01*
G75*
G02*
X147250000Y-99990000I140000J0D01*
G01*
X147530000Y-99990000D01*
G75*
G02*
X147670000Y-100130000I0J-140000D01*
G01*
G37*
%TD.AperFunction*%
%TA.AperFunction,ComponentPad*%
G36*
G01*
X138500000Y-91090000D02*
X138500000Y-90110000D01*
G75*
G02*
X138710000Y-89900000I210000J0D01*
G01*
X139690000Y-89900000D01*
G75*
G02*
X139900000Y-90110000I0J-210000D01*
G01*
X139900000Y-91090000D01*
G75*
G02*
X139690000Y-91300000I-210000J0D01*
G01*
X138710000Y-91300000D01*
G75*
G02*
X138500000Y-91090000I0J210000D01*
G01*
G37*
%TD.AperFunction*%
%TA.AperFunction,SMDPad,CuDef*%
G36*
G01*
X148640000Y-99230000D02*
X148640000Y-99570000D01*
G75*
G02*
X148500000Y-99710000I-140000J0D01*
G01*
X148220000Y-99710000D01*
G75*
G02*
X148080000Y-99570000I0J140000D01*
G01*
X148080000Y-99230000D01*
G75*
G02*
X148220000Y-99090000I140000J0D01*
G01*
X148500000Y-99090000D01*
G75*
G02*
X148640000Y-99230000I0J-140000D01*
G01*
G37*
%TD.AperFunction*%
%TA.AperFunction,SMDPad,CuDef*%
G36*
G01*
X147680000Y-99230000D02*
X147680000Y-99570000D01*
G75*
G02*
X147540000Y-99710000I-140000J0D01*
G01*
X147260000Y-99710000D01*
G75*
G02*
X147120000Y-99570000I0J140000D01*
G01*
X147120000Y-99230000D01*
G75*
G02*
X147260000Y-99090000I140000J0D01*
G01*
X147540000Y-99090000D01*
G75*
G02*
X147680000Y-99230000I0J-140000D01*
G01*
G37*
%TD.AperFunction*%
%TA.AperFunction,SMDPad,CuDef*%
G36*
G01*
X143241078Y-94388471D02*
X143241078Y-94048471D01*
G75*
G02*
X143381078Y-93908471I140000J0D01*
G01*
X143661078Y-93908471D01*
G75*
G02*
X143801078Y-94048471I0J-140000D01*
G01*
X143801078Y-94388471D01*
G75*
G02*
X143661078Y-94528471I-140000J0D01*
G01*
X143381078Y-94528471D01*
G75*
G02*
X143241078Y-94388471I0J140000D01*
G01*
G37*
%TD.AperFunction*%
%TA.AperFunction,SMDPad,CuDef*%
G36*
G01*
X144201078Y-94388471D02*
X144201078Y-94048471D01*
G75*
G02*
X144341078Y-93908471I140000J0D01*
G01*
X144621078Y-93908471D01*
G75*
G02*
X144761078Y-94048471I0J-140000D01*
G01*
X144761078Y-94388471D01*
G75*
G02*
X144621078Y-94528471I-140000J0D01*
G01*
X144341078Y-94528471D01*
G75*
G02*
X144201078Y-94388471I0J140000D01*
G01*
G37*
%TD.AperFunction*%
D10*
X150100000Y-104100000D03*
%TA.AperFunction,SMDPad,CuDef*%
G36*
G01*
X144205000Y-99780000D02*
X144205000Y-100120000D01*
G75*
G02*
X144065000Y-100260000I-140000J0D01*
G01*
X143785000Y-100260000D01*
G75*
G02*
X143645000Y-100120000I0J140000D01*
G01*
X143645000Y-99780000D01*
G75*
G02*
X143785000Y-99640000I140000J0D01*
G01*
X144065000Y-99640000D01*
G75*
G02*
X144205000Y-99780000I0J-140000D01*
G01*
G37*
%TD.AperFunction*%
%TA.AperFunction,SMDPad,CuDef*%
G36*
G01*
X143245000Y-99780000D02*
X143245000Y-100120000D01*
G75*
G02*
X143105000Y-100260000I-140000J0D01*
G01*
X142825000Y-100260000D01*
G75*
G02*
X142685000Y-100120000I0J140000D01*
G01*
X142685000Y-99780000D01*
G75*
G02*
X142825000Y-99640000I140000J0D01*
G01*
X143105000Y-99640000D01*
G75*
G02*
X143245000Y-99780000I0J-140000D01*
G01*
G37*
%TD.AperFunction*%
%TA.AperFunction,SMDPad,CuDef*%
G36*
G01*
X143420000Y-91735000D02*
X143080000Y-91735000D01*
G75*
G02*
X143000000Y-91655000I0J80000D01*
G01*
X143000000Y-91495000D01*
G75*
G02*
X143080000Y-91415000I80000J0D01*
G01*
X143420000Y-91415000D01*
G75*
G02*
X143500000Y-91495000I0J-80000D01*
G01*
X143500000Y-91655000D01*
G75*
G02*
X143420000Y-91735000I-80000J0D01*
G01*
G37*
%TD.AperFunction*%
%TA.AperFunction,SMDPad,CuDef*%
G36*
G01*
X143445000Y-92135000D02*
X143055000Y-92135000D01*
G75*
G02*
X143000000Y-92080000I0J55000D01*
G01*
X143000000Y-91970000D01*
G75*
G02*
X143055000Y-91915000I55000J0D01*
G01*
X143445000Y-91915000D01*
G75*
G02*
X143500000Y-91970000I0J-55000D01*
G01*
X143500000Y-92080000D01*
G75*
G02*
X143445000Y-92135000I-55000J0D01*
G01*
G37*
%TD.AperFunction*%
%TA.AperFunction,SMDPad,CuDef*%
G36*
G01*
X143445000Y-92535000D02*
X143055000Y-92535000D01*
G75*
G02*
X143000000Y-92480000I0J55000D01*
G01*
X143000000Y-92370000D01*
G75*
G02*
X143055000Y-92315000I55000J0D01*
G01*
X143445000Y-92315000D01*
G75*
G02*
X143500000Y-92370000I0J-55000D01*
G01*
X143500000Y-92480000D01*
G75*
G02*
X143445000Y-92535000I-55000J0D01*
G01*
G37*
%TD.AperFunction*%
%TA.AperFunction,SMDPad,CuDef*%
G36*
G01*
X143445000Y-92935000D02*
X143055000Y-92935000D01*
G75*
G02*
X143000000Y-92880000I0J55000D01*
G01*
X143000000Y-92770000D01*
G75*
G02*
X143055000Y-92715000I55000J0D01*
G01*
X143445000Y-92715000D01*
G75*
G02*
X143500000Y-92770000I0J-55000D01*
G01*
X143500000Y-92880000D01*
G75*
G02*
X143445000Y-92935000I-55000J0D01*
G01*
G37*
%TD.AperFunction*%
%TA.AperFunction,SMDPad,CuDef*%
G36*
G01*
X143445000Y-93335000D02*
X143055000Y-93335000D01*
G75*
G02*
X143000000Y-93280000I0J55000D01*
G01*
X143000000Y-93170000D01*
G75*
G02*
X143055000Y-93115000I55000J0D01*
G01*
X143445000Y-93115000D01*
G75*
G02*
X143500000Y-93170000I0J-55000D01*
G01*
X143500000Y-93280000D01*
G75*
G02*
X143445000Y-93335000I-55000J0D01*
G01*
G37*
%TD.AperFunction*%
%TA.AperFunction,SMDPad,CuDef*%
G36*
G01*
X143890000Y-93520000D02*
X143890000Y-92980000D01*
G75*
G02*
X143945000Y-92925000I55000J0D01*
G01*
X144055000Y-92925000D01*
G75*
G02*
X144110000Y-92980000I0J-55000D01*
G01*
X144110000Y-93520000D01*
G75*
G02*
X144055000Y-93575000I-55000J0D01*
G01*
X143945000Y-93575000D01*
G75*
G02*
X143890000Y-93520000I0J55000D01*
G01*
G37*
%TD.AperFunction*%
%TA.AperFunction,SMDPad,CuDef*%
G36*
G01*
X144945000Y-93335000D02*
X144555000Y-93335000D01*
G75*
G02*
X144500000Y-93280000I0J55000D01*
G01*
X144500000Y-93170000D01*
G75*
G02*
X144555000Y-93115000I55000J0D01*
G01*
X144945000Y-93115000D01*
G75*
G02*
X145000000Y-93170000I0J-55000D01*
G01*
X145000000Y-93280000D01*
G75*
G02*
X144945000Y-93335000I-55000J0D01*
G01*
G37*
%TD.AperFunction*%
%TA.AperFunction,SMDPad,CuDef*%
G36*
G01*
X144945000Y-92935000D02*
X144555000Y-92935000D01*
G75*
G02*
X144500000Y-92880000I0J55000D01*
G01*
X144500000Y-92770000D01*
G75*
G02*
X144555000Y-92715000I55000J0D01*
G01*
X144945000Y-92715000D01*
G75*
G02*
X145000000Y-92770000I0J-55000D01*
G01*
X145000000Y-92880000D01*
G75*
G02*
X144945000Y-92935000I-55000J0D01*
G01*
G37*
%TD.AperFunction*%
%TA.AperFunction,SMDPad,CuDef*%
G36*
G01*
X144945000Y-92535000D02*
X144555000Y-92535000D01*
G75*
G02*
X144500000Y-92480000I0J55000D01*
G01*
X144500000Y-92370000D01*
G75*
G02*
X144555000Y-92315000I55000J0D01*
G01*
X144945000Y-92315000D01*
G75*
G02*
X145000000Y-92370000I0J-55000D01*
G01*
X145000000Y-92480000D01*
G75*
G02*
X144945000Y-92535000I-55000J0D01*
G01*
G37*
%TD.AperFunction*%
%TA.AperFunction,SMDPad,CuDef*%
G36*
G01*
X144945000Y-92135000D02*
X144555000Y-92135000D01*
G75*
G02*
X144500000Y-92080000I0J55000D01*
G01*
X144500000Y-91970000D01*
G75*
G02*
X144555000Y-91915000I55000J0D01*
G01*
X144945000Y-91915000D01*
G75*
G02*
X145000000Y-91970000I0J-55000D01*
G01*
X145000000Y-92080000D01*
G75*
G02*
X144945000Y-92135000I-55000J0D01*
G01*
G37*
%TD.AperFunction*%
%TA.AperFunction,SMDPad,CuDef*%
G36*
G01*
X144945000Y-91735000D02*
X144555000Y-91735000D01*
G75*
G02*
X144500000Y-91680000I0J55000D01*
G01*
X144500000Y-91570000D01*
G75*
G02*
X144555000Y-91515000I55000J0D01*
G01*
X144945000Y-91515000D01*
G75*
G02*
X145000000Y-91570000I0J-55000D01*
G01*
X145000000Y-91680000D01*
G75*
G02*
X144945000Y-91735000I-55000J0D01*
G01*
G37*
%TD.AperFunction*%
%TA.AperFunction,SMDPad,CuDef*%
G36*
G01*
X143890000Y-91870000D02*
X143890000Y-91330000D01*
G75*
G02*
X143945000Y-91275000I55000J0D01*
G01*
X144055000Y-91275000D01*
G75*
G02*
X144110000Y-91330000I0J-55000D01*
G01*
X144110000Y-91870000D01*
G75*
G02*
X144055000Y-91925000I-55000J0D01*
G01*
X143945000Y-91925000D01*
G75*
G02*
X143890000Y-91870000I0J55000D01*
G01*
G37*
%TD.AperFunction*%
%TA.AperFunction,ComponentPad*%
G36*
G01*
X139900000Y-98710000D02*
X139900000Y-99690000D01*
G75*
G02*
X139690000Y-99900000I-210000J0D01*
G01*
X138710000Y-99900000D01*
G75*
G02*
X138500000Y-99690000I0J210000D01*
G01*
X138500000Y-98710000D01*
G75*
G02*
X138710000Y-98500000I210000J0D01*
G01*
X139690000Y-98500000D01*
G75*
G02*
X139900000Y-98710000I0J-210000D01*
G01*
G37*
%TD.AperFunction*%
X151500000Y-104100000D03*
%TA.AperFunction,ComponentPad*%
G36*
G01*
X139900000Y-97110000D02*
X139900000Y-98090000D01*
G75*
G02*
X139690000Y-98300000I-210000J0D01*
G01*
X138710000Y-98300000D01*
G75*
G02*
X138500000Y-98090000I0J210000D01*
G01*
X138500000Y-97110000D01*
G75*
G02*
X138710000Y-96900000I210000J0D01*
G01*
X139690000Y-96900000D01*
G75*
G02*
X139900000Y-97110000I0J-210000D01*
G01*
G37*
%TD.AperFunction*%
%TA.AperFunction,ComponentPad*%
G36*
G01*
X153300000Y-86690000D02*
X153300000Y-85710000D01*
G75*
G02*
X153510000Y-85500000I210000J0D01*
G01*
X154490000Y-85500000D01*
G75*
G02*
X154700000Y-85710000I0J-210000D01*
G01*
X154700000Y-86690000D01*
G75*
G02*
X154490000Y-86900000I-210000J0D01*
G01*
X153510000Y-86900000D01*
G75*
G02*
X153300000Y-86690000I0J210000D01*
G01*
G37*
%TD.AperFunction*%
D12*
X147600000Y-101400000D03*
X147500000Y-92300000D03*
X145742013Y-91683407D03*
X144400000Y-95300000D03*
X153259726Y-96345912D03*
X154725846Y-102825846D03*
X150932227Y-90460000D03*
X147660875Y-96031795D03*
X150675000Y-93725000D03*
X142437163Y-96318299D03*
X146628734Y-101180351D03*
X144930000Y-98510000D03*
X147090000Y-104000000D03*
X140650000Y-96450000D03*
X148766461Y-89168761D03*
X155498919Y-98731486D03*
X141500000Y-93950000D03*
X145600000Y-94600000D03*
X152450000Y-100700000D03*
X141347667Y-89295030D03*
X152100000Y-95200000D03*
X153050000Y-87950000D03*
X146094763Y-98043240D03*
X140241844Y-89830053D03*
X156250000Y-101500000D03*
X150734900Y-85730635D03*
X146231267Y-87073168D03*
X149329349Y-95000000D03*
X145029276Y-96886129D03*
X141019320Y-98452748D03*
X151830000Y-98330000D03*
X147700000Y-91050000D03*
X150500000Y-89200000D03*
X146500000Y-89900000D03*
X140245146Y-93007561D03*
X148700000Y-103800000D03*
X141430000Y-102620000D03*
X157150000Y-100300000D03*
X148200330Y-87221401D03*
X155809233Y-92092842D03*
X155000000Y-88100000D03*
X141400000Y-104000000D03*
X151250000Y-87250000D03*
X140750000Y-88050000D03*
X154100000Y-91100000D03*
X148250000Y-98200000D03*
X145100000Y-100150000D03*
X140580000Y-101730000D03*
X147392781Y-93483309D03*
X143427000Y-98777000D03*
X154119756Y-91969043D03*
X154100000Y-93475411D03*
X146764724Y-98109168D03*
X150213060Y-101443252D03*
X149900000Y-100900000D03*
X146534121Y-97517784D03*
X148850000Y-98700000D03*
X148200000Y-87900000D03*
X142772997Y-89750000D03*
X143400000Y-89750000D03*
X150094689Y-100259952D03*
X145916702Y-97402483D03*
X153072451Y-98484931D03*
X154078546Y-99332983D03*
X153713381Y-98729789D03*
X152447901Y-98540324D03*
X147208323Y-101991841D03*
X146760575Y-102430764D03*
X146605824Y-101818270D03*
D13*
X151150000Y-90242227D02*
X150932227Y-90460000D01*
X147675000Y-92475000D02*
X147500000Y-92300000D01*
D14*
X147600000Y-101400000D02*
X147610000Y-101390000D01*
D15*
X144400000Y-95300000D02*
X144400000Y-95715631D01*
D14*
X155450000Y-102101692D02*
X155450000Y-100762911D01*
D13*
X151150000Y-89860000D02*
X151150000Y-90242227D01*
X145742013Y-91683407D02*
X145725420Y-91700000D01*
X145725420Y-91700000D02*
X145300000Y-91700000D01*
X143000000Y-97700000D02*
X142850000Y-97550000D01*
X150932227Y-90460000D02*
X150925000Y-90467227D01*
D15*
X144400000Y-95715631D02*
X144008053Y-96107578D01*
D13*
X144150000Y-97100000D02*
X144150000Y-97550000D01*
D14*
X148180000Y-101390000D02*
X148180000Y-102400000D01*
D13*
X148225000Y-92475000D02*
X147675000Y-92475000D01*
X145910106Y-95622483D02*
X145587623Y-95300000D01*
X145300000Y-91700000D02*
X145225000Y-91625000D01*
D14*
X147610000Y-101390000D02*
X148180000Y-101390000D01*
D15*
X144150000Y-97100000D02*
X144150000Y-96249525D01*
D13*
X145225000Y-91625000D02*
X144750000Y-91625000D01*
X150925000Y-90467227D02*
X150925000Y-91275000D01*
X144150000Y-97550000D02*
X144000000Y-97700000D01*
X154965785Y-100300000D02*
X154976437Y-100289348D01*
D14*
X152870184Y-104000000D02*
X153551692Y-104000000D01*
D13*
X143950000Y-95300000D02*
X144400000Y-95300000D01*
X145587623Y-95300000D02*
X144400000Y-95300000D01*
X153900000Y-100300000D02*
X154965785Y-100300000D01*
X143521078Y-94871078D02*
X143950000Y-95300000D01*
D14*
X155450000Y-100762911D02*
X154976437Y-100289348D01*
D13*
X144000000Y-97700000D02*
X143000000Y-97700000D01*
D14*
X153551692Y-104000000D02*
X155450000Y-102101692D01*
D13*
X143521078Y-94218471D02*
X143521078Y-94871078D01*
X142850000Y-97550000D02*
X142850000Y-97100000D01*
X152425000Y-91275000D02*
X152425000Y-91975000D01*
X147849580Y-91975000D02*
X147697580Y-91823000D01*
X148225000Y-91975000D02*
X147849580Y-91975000D01*
X150425000Y-91275000D02*
X150425000Y-93475000D01*
X152425000Y-95475000D02*
X150675000Y-93725000D01*
X152450000Y-102150000D02*
X152450000Y-100700000D01*
X150925000Y-93975000D02*
X150675000Y-93725000D01*
X144000000Y-93250000D02*
X144000000Y-93737393D01*
X153900000Y-100700000D02*
X152450000Y-100700000D01*
X151925000Y-94975000D02*
X150675000Y-93725000D01*
X148925000Y-91975000D02*
X150675000Y-93725000D01*
X154427089Y-100700000D02*
X154976437Y-101249348D01*
X147697580Y-91823000D02*
X146900802Y-91823000D01*
X152050000Y-101100000D02*
X152450000Y-100700000D01*
X152425000Y-91975000D02*
X150675000Y-93725000D01*
X152425000Y-96175000D02*
X152425000Y-95475000D01*
X148225000Y-91975000D02*
X148925000Y-91975000D01*
X153125000Y-94975000D02*
X151925000Y-94975000D01*
X150425000Y-93475000D02*
X150675000Y-93725000D01*
X153125000Y-93975000D02*
X150925000Y-93975000D01*
X152425000Y-97575000D02*
X152400000Y-97600000D01*
X146900802Y-91823000D02*
X146883802Y-91840000D01*
X153900000Y-100700000D02*
X154427089Y-100700000D01*
X144000000Y-93737393D02*
X144481078Y-94218471D01*
X152425000Y-96175000D02*
X152425000Y-97575000D01*
X142749926Y-90649926D02*
X143497872Y-90649926D01*
X144000000Y-91600000D02*
X144000000Y-91152054D01*
X143975000Y-91575000D02*
X144000000Y-91600000D01*
X142000000Y-86200000D02*
X142000000Y-89900000D01*
X142000000Y-89900000D02*
X142749926Y-90649926D01*
X143250000Y-91575000D02*
X143975000Y-91575000D01*
X144000000Y-91152054D02*
X143497872Y-90649926D01*
D15*
X146883802Y-92985158D02*
X147381953Y-93483309D01*
D13*
X147575000Y-92975000D02*
X147400000Y-92800000D01*
D15*
X144150000Y-99000000D02*
X144150000Y-99725000D01*
D13*
X144940000Y-99290000D02*
X144650000Y-99000000D01*
D15*
X143427000Y-98777000D02*
X143427000Y-99452000D01*
D13*
X148225000Y-92975000D02*
X147575000Y-92975000D01*
D15*
X143427000Y-99452000D02*
X143925000Y-99950000D01*
X144150000Y-99725000D02*
X143925000Y-99950000D01*
X146883802Y-92800000D02*
X146883802Y-92985158D01*
D13*
X147400000Y-92800000D02*
X146883802Y-92800000D01*
X145490000Y-99290000D02*
X144940000Y-99290000D01*
D15*
X147381953Y-93483309D02*
X147392781Y-93483309D01*
D13*
X144650000Y-99000000D02*
X144150000Y-99000000D01*
D15*
X153125411Y-93475411D02*
X153125000Y-93475000D01*
X153955627Y-93475000D02*
X153956038Y-93475411D01*
X153125000Y-91975000D02*
X153969837Y-91975000D01*
X153969837Y-91975000D02*
X153975794Y-91969043D01*
X153956038Y-93475411D02*
X153125411Y-93475411D01*
D16*
X148200000Y-97400000D02*
X148710153Y-97400000D01*
X149425000Y-96685153D02*
X149425000Y-96175000D01*
X150500000Y-101100000D02*
X150000000Y-101600000D01*
X146764724Y-98109168D02*
X146790832Y-98109168D01*
X148021369Y-97578631D02*
X148200000Y-97400000D01*
X146790832Y-98109168D02*
X147321369Y-97578631D01*
X151000000Y-101100000D02*
X150500000Y-101100000D01*
X150156748Y-101443252D02*
X150000000Y-101600000D01*
X148710153Y-97400000D02*
X149425000Y-96685153D01*
X147537482Y-97578631D02*
X148021369Y-97578631D01*
X147321369Y-97578631D02*
X147537482Y-97578631D01*
X150213060Y-101443252D02*
X150156748Y-101443252D01*
X150000000Y-101600000D02*
X149200000Y-102400000D01*
X150283032Y-100866167D02*
X150277616Y-100866167D01*
X151000000Y-100700000D02*
X150449199Y-100700000D01*
X147778631Y-96778631D02*
X148000000Y-97000000D01*
X150000000Y-101000000D02*
X149900000Y-100900000D01*
X146564247Y-97517784D02*
X147303400Y-96778631D01*
X148600000Y-97000000D02*
X148925000Y-96675000D01*
X150243783Y-100900000D02*
X149900000Y-100900000D01*
X148000000Y-97000000D02*
X148600000Y-97000000D01*
X147303400Y-96778631D02*
X147778631Y-96778631D01*
X150449199Y-100700000D02*
X150283032Y-100866167D01*
X150277616Y-100866167D02*
X150243783Y-100900000D01*
X146534121Y-97517784D02*
X146564247Y-97517784D01*
X148925000Y-96675000D02*
X148925000Y-96175000D01*
X149200000Y-101390000D02*
X149900000Y-100900000D01*
X149350000Y-98250000D02*
X149300000Y-98250000D01*
X149350000Y-97400000D02*
X149350000Y-98250000D01*
X149925000Y-96825000D02*
X149350000Y-97400000D01*
X149300000Y-98250000D02*
X148850000Y-98700000D01*
X149925000Y-96175000D02*
X149925000Y-96825000D01*
D13*
X153650000Y-88500000D02*
X154000000Y-88150000D01*
X146850000Y-87900000D02*
X147300000Y-87900000D01*
X147300000Y-87900000D02*
X148200000Y-87900000D01*
X142772997Y-89702423D02*
X143162710Y-89312710D01*
X154000000Y-88150000D02*
X154000000Y-86200000D01*
X153650000Y-89650000D02*
X153650000Y-88500000D01*
X143162710Y-89312710D02*
X143202420Y-89273000D01*
X145477000Y-89273000D02*
X146850000Y-87900000D01*
X142772997Y-89750000D02*
X142772997Y-89702423D01*
X143202420Y-89273000D02*
X145477000Y-89273000D01*
X149800000Y-88450000D02*
X147050000Y-88450000D01*
X145750000Y-89750000D02*
X143400000Y-89750000D01*
X147050000Y-88450000D02*
X145750000Y-89750000D01*
X149800000Y-88450000D02*
X149950000Y-88300000D01*
X152200000Y-87400000D02*
X152200000Y-86200000D01*
X149950000Y-88300000D02*
X151300000Y-88300000D01*
X151300000Y-88300000D02*
X152200000Y-87400000D01*
D16*
X145328685Y-97990500D02*
X142390500Y-97990500D01*
X146250000Y-91200000D02*
X147790500Y-89659500D01*
X144300500Y-91399500D02*
X144500000Y-91200000D01*
X143125899Y-93624101D02*
X143449613Y-93624101D01*
X144300500Y-92099500D02*
X144300500Y-91399500D01*
X141800000Y-94950000D02*
X143125899Y-93624101D01*
X149425000Y-90725000D02*
X149425000Y-91275000D01*
X142390500Y-97990500D02*
X141800000Y-97400000D01*
X141800000Y-97400000D02*
X141800000Y-94950000D01*
X143699500Y-93374214D02*
X143699500Y-92700500D01*
X150134737Y-100300000D02*
X151000000Y-100300000D01*
X148359500Y-89659500D02*
X149425000Y-90725000D01*
X143449613Y-93624101D02*
X143699500Y-93374214D01*
X147790500Y-89659500D02*
X148359500Y-89659500D01*
X145916702Y-96649079D02*
X145910106Y-96642483D01*
X150094689Y-100259952D02*
X150134737Y-100300000D01*
X144500000Y-91200000D02*
X146250000Y-91200000D01*
X145916702Y-97402483D02*
X145328685Y-97990500D01*
X145916702Y-97402483D02*
X145916702Y-96649079D01*
X143699500Y-92700500D02*
X144300500Y-92099500D01*
X152850000Y-102150000D02*
X152850000Y-102750000D01*
X151600000Y-104100000D02*
X151500000Y-104100000D01*
X152850000Y-102750000D02*
X151500000Y-104100000D01*
X152850000Y-99250000D02*
X152850000Y-98850000D01*
X152850000Y-98850000D02*
X153072451Y-98627549D01*
X153072451Y-98627549D02*
X153072451Y-98484931D01*
X153900000Y-99511529D02*
X154078546Y-99332983D01*
X153900000Y-99900000D02*
X153900000Y-99511529D01*
X153250000Y-99250000D02*
X153550000Y-99250000D01*
X153550000Y-99250000D02*
X153713381Y-99086619D01*
X153713381Y-99086619D02*
X153713381Y-98729789D01*
X152450000Y-99250000D02*
X152450000Y-98542423D01*
X152450000Y-98542423D02*
X152447901Y-98540324D01*
X148225000Y-93975000D02*
X147170426Y-93975000D01*
X147170426Y-93975000D02*
X145220426Y-92025000D01*
X145220426Y-92025000D02*
X144750000Y-92025000D01*
X141425000Y-92025000D02*
X141000000Y-91600000D01*
X143250000Y-92025000D02*
X141425000Y-92025000D01*
X141000000Y-89800000D02*
X140200000Y-89000000D01*
X141000000Y-91600000D02*
X141000000Y-89800000D01*
X140200000Y-89000000D02*
X139200000Y-89000000D01*
X147311216Y-94475000D02*
X145261216Y-92425000D01*
X148225000Y-94475000D02*
X147311216Y-94475000D01*
X145261216Y-92425000D02*
X144750000Y-92425000D01*
X141084009Y-92825000D02*
X140459009Y-92200000D01*
X143250000Y-92825000D02*
X141084009Y-92825000D01*
X140459009Y-92200000D02*
X139200000Y-92200000D01*
X143250000Y-92425000D02*
X141225000Y-92425000D01*
X140600000Y-91800000D02*
X140600000Y-91020453D01*
X140179547Y-90600000D02*
X139200000Y-90600000D01*
X141225000Y-92425000D02*
X140600000Y-91800000D01*
X140600000Y-91020453D02*
X140179547Y-90600000D01*
X147452006Y-94975000D02*
X148225000Y-94975000D01*
X145302006Y-92825000D02*
X147452006Y-94975000D01*
X144750000Y-92825000D02*
X145302006Y-92825000D01*
X140500000Y-93800000D02*
X139200000Y-93800000D01*
X143250000Y-93225000D02*
X141075000Y-93225000D01*
X141075000Y-93225000D02*
X140500000Y-93800000D01*
X147592796Y-95475000D02*
X148225000Y-95475000D01*
X145342796Y-93225000D02*
X147592796Y-95475000D01*
X144750000Y-93225000D02*
X145342796Y-93225000D01*
D13*
X144050000Y-102050000D02*
X143450000Y-102050000D01*
X142800000Y-103800000D02*
X142800000Y-103550000D01*
X146700000Y-99400000D02*
X144050000Y-102050000D01*
X143450000Y-102050000D02*
X142800000Y-102700000D01*
X142800000Y-102700000D02*
X142800000Y-103800000D01*
X147400000Y-99400000D02*
X146700000Y-99400000D01*
X144400000Y-102500000D02*
X146600000Y-100300000D01*
X146600000Y-100300000D02*
X147390000Y-100300000D01*
X144400000Y-103800000D02*
X144400000Y-102500000D01*
X151425000Y-90925000D02*
X152100000Y-90250000D01*
X152100000Y-90250000D02*
X152100000Y-89650000D01*
X151425000Y-91275000D02*
X151425000Y-90925000D01*
X149925000Y-91275000D02*
X149925000Y-90725000D01*
X149925000Y-90725000D02*
X149800000Y-90600000D01*
X149800000Y-90600000D02*
X149800000Y-90000000D01*
X149250000Y-99400000D02*
X148360000Y-99400000D01*
X150925000Y-97725000D02*
X149250000Y-99400000D01*
X150925000Y-96175000D02*
X150925000Y-97725000D01*
X151425000Y-97975000D02*
X149100000Y-100300000D01*
X149100000Y-100300000D02*
X148350000Y-100300000D01*
X151425000Y-96175000D02*
X151425000Y-97975000D01*
D16*
X150425000Y-97175000D02*
X150071248Y-97528752D01*
X150425000Y-96175000D02*
X150425000Y-97175000D01*
D13*
X156800000Y-93400000D02*
X155400000Y-93400000D01*
X154975000Y-92975000D02*
X153125000Y-92975000D01*
X155400000Y-93400000D02*
X154975000Y-92975000D01*
X153125000Y-94475000D02*
X154975000Y-94475000D01*
X154975000Y-94475000D02*
X155500000Y-95000000D01*
X155500000Y-95000000D02*
X156800000Y-95000000D01*
X152438854Y-90450000D02*
X154200000Y-90450000D01*
X151925000Y-90963854D02*
X152438854Y-90450000D01*
X151925000Y-91275000D02*
X151925000Y-90963854D01*
X154200000Y-90450000D02*
X155450000Y-89200000D01*
X155450000Y-89200000D02*
X156800000Y-89200000D01*
X154700000Y-92200000D02*
X154425000Y-92475000D01*
X156800000Y-90800000D02*
X155600000Y-90800000D01*
X154700000Y-91700000D02*
X154700000Y-92200000D01*
X154425000Y-92475000D02*
X153125000Y-92475000D01*
X155600000Y-90800000D02*
X154700000Y-91700000D01*
D16*
X148925000Y-91275000D02*
X148925000Y-91025000D01*
X148925000Y-91025000D02*
X148100000Y-90200000D01*
X149689500Y-102810500D02*
X151000000Y-101500000D01*
X147201075Y-102401075D02*
X147610500Y-102810500D01*
X147610500Y-102810500D02*
X149689500Y-102810500D01*
X147208323Y-102241054D02*
X147201075Y-102248302D01*
X147208323Y-101991841D02*
X147208323Y-102241054D01*
X147201075Y-102248302D02*
X147201075Y-102401075D01*
X147394311Y-103064500D02*
X146760575Y-102430764D01*
X149835500Y-103064500D02*
X147394311Y-103064500D01*
X150750000Y-102150000D02*
X149835500Y-103064500D01*
X151650000Y-102150000D02*
X150750000Y-102150000D01*
X146841865Y-102871264D02*
X147289101Y-103318500D01*
X151859500Y-102750500D02*
X152050000Y-102560000D01*
X152050000Y-102560000D02*
X152050000Y-102150000D01*
X146320075Y-102104019D02*
X146320075Y-102613226D01*
X147289101Y-103318500D02*
X149940710Y-103318500D01*
X146578113Y-102871264D02*
X146841865Y-102871264D01*
X146605824Y-101818270D02*
X146320075Y-102104019D01*
X146320075Y-102613226D02*
X146578113Y-102871264D01*
X149940710Y-103318500D02*
X150508710Y-102750500D01*
X150508710Y-102750500D02*
X151859500Y-102750500D01*
%TA.AperFunction,Conductor*%
G36*
X157364616Y-96401200D02*
G01*
X157477043Y-96423563D01*
X157499568Y-96432893D01*
X157589663Y-96493093D01*
X157606906Y-96510336D01*
X157667105Y-96600429D01*
X157676436Y-96622958D01*
X157698799Y-96735383D01*
X157700000Y-96747576D01*
X157700000Y-97852423D01*
X157698799Y-97864616D01*
X157676436Y-97977041D01*
X157667104Y-97999572D01*
X157606906Y-98089663D01*
X157589663Y-98106906D01*
X157499572Y-98167104D01*
X157477041Y-98176436D01*
X157364617Y-98198799D01*
X157352424Y-98200000D01*
X153547576Y-98200000D01*
X153535383Y-98198799D01*
X153422958Y-98176436D01*
X153400429Y-98167105D01*
X153310336Y-98106906D01*
X153293093Y-98089663D01*
X153232893Y-97999568D01*
X153223563Y-97977041D01*
X153201201Y-97864616D01*
X153200000Y-97852423D01*
X153200000Y-97285404D01*
X153200837Y-97275213D01*
X153216229Y-97182083D01*
X153222787Y-97162783D01*
X153264878Y-97084134D01*
X153277295Y-97067976D01*
X153346259Y-97003497D01*
X153354257Y-96997161D01*
X153370227Y-96986515D01*
X153378187Y-96982016D01*
X153498130Y-96925402D01*
X153515646Y-96920099D01*
X153646836Y-96900673D01*
X153655990Y-96900000D01*
X154513396Y-96900000D01*
X154572001Y-96894961D01*
X154598729Y-96892664D01*
X154681561Y-96870871D01*
X155915938Y-96430022D01*
X155921013Y-96428451D01*
X155996084Y-96408700D01*
X156006616Y-96406876D01*
X156083932Y-96400230D01*
X156089285Y-96400000D01*
X157352424Y-96400000D01*
X157364616Y-96401200D01*
G37*
%TD.AperFunction*%
%TA.AperFunction,Conductor*%
G36*
X153456006Y-95464219D02*
G01*
X153460101Y-95465001D01*
X153519593Y-95478450D01*
X153527644Y-95480850D01*
X153584764Y-95502155D01*
X153588648Y-95503755D01*
X154417206Y-95878078D01*
X154417205Y-95878078D01*
X154417210Y-95878079D01*
X154452351Y-95893956D01*
X154467403Y-95903553D01*
X154482611Y-95916650D01*
X154501776Y-95946337D01*
X154507450Y-95965589D01*
X154510000Y-95983257D01*
X154510000Y-96434026D01*
X154508868Y-96445866D01*
X154505119Y-96465298D01*
X154496316Y-96487269D01*
X154485614Y-96503907D01*
X154478259Y-96513250D01*
X154409374Y-96585416D01*
X154399788Y-96593615D01*
X154298264Y-96664043D01*
X154275189Y-96673917D01*
X154154142Y-96698727D01*
X154141593Y-96700000D01*
X153247764Y-96700000D01*
X153237719Y-96699187D01*
X153106369Y-96677798D01*
X153087317Y-96671425D01*
X152974077Y-96611858D01*
X152958031Y-96599769D01*
X152952138Y-96593615D01*
X152865991Y-96503646D01*
X152859633Y-96495830D01*
X152825282Y-96445866D01*
X152815649Y-96431854D01*
X152810922Y-96423731D01*
X152751640Y-96301543D01*
X152746079Y-96283639D01*
X152725707Y-96149364D01*
X152725000Y-96139989D01*
X152725000Y-95438695D01*
X152730726Y-95412561D01*
X152735419Y-95402367D01*
X152770527Y-95369880D01*
X152775111Y-95368384D01*
X152785927Y-95365315D01*
X152812630Y-95363692D01*
X153456006Y-95464219D01*
G37*
%TD.AperFunction*%
%TA.AperFunction,Conductor*%
G36*
X143095272Y-94013231D02*
G01*
X143113578Y-94057425D01*
X143113578Y-94414819D01*
X143129097Y-94492842D01*
X143129098Y-94492844D01*
X143188221Y-94581328D01*
X143265801Y-94633165D01*
X143292377Y-94672939D01*
X143293578Y-94685132D01*
X143293578Y-94916333D01*
X143328210Y-94999942D01*
X143328212Y-94999945D01*
X143328213Y-94999946D01*
X143757135Y-95428868D01*
X143821132Y-95492865D01*
X143821133Y-95492865D01*
X143821135Y-95492867D01*
X143904744Y-95527499D01*
X143904747Y-95527500D01*
X144044798Y-95527500D01*
X144088992Y-95545806D01*
X144107298Y-95590000D01*
X144088992Y-95634194D01*
X144071414Y-95651772D01*
X144027220Y-95670078D01*
X143841705Y-95670078D01*
X143763681Y-95685597D01*
X143763677Y-95685599D01*
X143675196Y-95744721D01*
X143616074Y-95833202D01*
X143616072Y-95833206D01*
X143600553Y-95911229D01*
X143600553Y-96303926D01*
X143616072Y-96381949D01*
X143616074Y-96381953D01*
X143631514Y-96405060D01*
X143675196Y-96470435D01*
X143763680Y-96529558D01*
X143822193Y-96541196D01*
X143837350Y-96551324D01*
X143854194Y-96558301D01*
X143856643Y-96564214D01*
X143861966Y-96567771D01*
X143872500Y-96602495D01*
X143872500Y-96712199D01*
X143861967Y-96746922D01*
X143835700Y-96786232D01*
X143835699Y-96786234D01*
X143822500Y-96852593D01*
X143822500Y-97347406D01*
X143832525Y-97397807D01*
X143823193Y-97444723D01*
X143783419Y-97471299D01*
X143771226Y-97472500D01*
X143228774Y-97472500D01*
X143184580Y-97454194D01*
X143166274Y-97410000D01*
X143167475Y-97397807D01*
X143172577Y-97372156D01*
X143177500Y-97347406D01*
X143177500Y-96852594D01*
X143164300Y-96786234D01*
X143159446Y-96778970D01*
X143138032Y-96746922D01*
X143114018Y-96710982D01*
X143057815Y-96673428D01*
X143038767Y-96660700D01*
X143038765Y-96660699D01*
X142972406Y-96647500D01*
X142727594Y-96647500D01*
X142661234Y-96660699D01*
X142661232Y-96660700D01*
X142585982Y-96710982D01*
X142535700Y-96786232D01*
X142535699Y-96786234D01*
X142522500Y-96852593D01*
X142522500Y-97347406D01*
X142535699Y-97413765D01*
X142535700Y-97413767D01*
X142585979Y-97489015D01*
X142585981Y-97489016D01*
X142585982Y-97489018D01*
X142590998Y-97492369D01*
X142594722Y-97494858D01*
X142621299Y-97534631D01*
X142622500Y-97546825D01*
X142622500Y-97595255D01*
X142657132Y-97678864D01*
X142657136Y-97678869D01*
X142671073Y-97692806D01*
X142689379Y-97737000D01*
X142671073Y-97781194D01*
X142626879Y-97799500D01*
X142495503Y-97799500D01*
X142451309Y-97781194D01*
X142009306Y-97339191D01*
X141991000Y-97294997D01*
X141991000Y-95055003D01*
X142009306Y-95010809D01*
X143006884Y-94013231D01*
X143051078Y-93994925D01*
X143095272Y-94013231D01*
G37*
%TD.AperFunction*%
%TA.AperFunction,Conductor*%
G36*
X144354194Y-92404307D02*
G01*
X144372500Y-92448500D01*
X144372500Y-92497968D01*
X144383089Y-92551208D01*
X144409194Y-92590277D01*
X144418526Y-92637193D01*
X144409194Y-92659723D01*
X144383089Y-92698790D01*
X144383088Y-92698792D01*
X144372500Y-92752026D01*
X144372500Y-92897968D01*
X144383089Y-92951208D01*
X144409194Y-92990277D01*
X144418526Y-93037193D01*
X144409194Y-93059723D01*
X144383089Y-93098790D01*
X144383088Y-93098792D01*
X144372500Y-93152026D01*
X144372500Y-93297968D01*
X144372501Y-93297972D01*
X144383089Y-93351208D01*
X144423425Y-93411575D01*
X144468596Y-93441757D01*
X144483790Y-93451910D01*
X144483792Y-93451911D01*
X144537027Y-93462500D01*
X144962972Y-93462499D01*
X145016208Y-93451911D01*
X145054189Y-93426532D01*
X145088912Y-93416000D01*
X145237793Y-93416000D01*
X145281987Y-93434306D01*
X147484603Y-95636922D01*
X147554804Y-95666000D01*
X147630788Y-95666000D01*
X147718865Y-95666000D01*
X147753586Y-95676532D01*
X147813366Y-95716476D01*
X147868788Y-95727500D01*
X148581211Y-95727500D01*
X148581212Y-95727500D01*
X148603426Y-95723081D01*
X148650341Y-95732413D01*
X148676918Y-95772186D01*
X148676918Y-95796571D01*
X148672500Y-95818782D01*
X148672500Y-96531212D01*
X148683523Y-96586633D01*
X148685037Y-96590287D01*
X148685034Y-96638122D01*
X148671487Y-96658396D01*
X148539190Y-96790694D01*
X148494997Y-96809000D01*
X148105003Y-96809000D01*
X148060809Y-96790694D01*
X147886825Y-96616710D01*
X147886824Y-96616709D01*
X147816623Y-96587631D01*
X147816622Y-96587631D01*
X147776324Y-96587631D01*
X147732130Y-96569325D01*
X147719472Y-96551094D01*
X147718848Y-96549727D01*
X147705829Y-96521220D01*
X147700074Y-96514578D01*
X147615909Y-96417447D01*
X147500404Y-96343217D01*
X147500395Y-96343213D01*
X147368656Y-96304531D01*
X147368654Y-96304531D01*
X147231346Y-96304531D01*
X147231344Y-96304531D01*
X147099604Y-96343213D01*
X147099595Y-96343217D01*
X146984090Y-96417447D01*
X146894173Y-96521216D01*
X146894170Y-96521221D01*
X146837131Y-96646118D01*
X146837130Y-96646121D01*
X146817590Y-96782031D01*
X146837130Y-96917940D01*
X146838390Y-96922229D01*
X146837110Y-96922604D01*
X146838627Y-96965308D01*
X146824266Y-96987648D01*
X146679410Y-97132504D01*
X146635216Y-97150810D01*
X146625439Y-97150041D01*
X146558549Y-97139447D01*
X146534121Y-97135578D01*
X146416012Y-97154284D01*
X146416008Y-97154285D01*
X146311258Y-97207659D01*
X146263570Y-97211412D01*
X146236868Y-97194265D01*
X146231078Y-97187966D01*
X146225913Y-97177828D01*
X146174564Y-97126479D01*
X146173678Y-97125515D01*
X146165877Y-97104184D01*
X146157194Y-97083221D01*
X146157734Y-97081916D01*
X146157249Y-97080590D01*
X146166813Y-97059996D01*
X146175500Y-97039027D01*
X146177027Y-97038006D01*
X146177400Y-97037205D01*
X146179226Y-97036537D01*
X146195781Y-97025476D01*
X146197522Y-97024754D01*
X146197529Y-97024753D01*
X146284358Y-96966735D01*
X146342376Y-96879906D01*
X146357606Y-96803339D01*
X146357606Y-96481627D01*
X146342376Y-96405060D01*
X146338595Y-96399401D01*
X146284358Y-96318230D01*
X146197530Y-96260213D01*
X146197528Y-96260212D01*
X146120962Y-96244983D01*
X145699250Y-96244983D01*
X145622683Y-96260212D01*
X145622681Y-96260213D01*
X145535853Y-96318230D01*
X145477836Y-96405058D01*
X145477835Y-96405060D01*
X145462606Y-96481626D01*
X145462606Y-96803339D01*
X145477835Y-96879905D01*
X145477836Y-96879907D01*
X145535853Y-96966735D01*
X145622681Y-97024752D01*
X145622683Y-97024753D01*
X145623004Y-97024816D01*
X145623276Y-97024998D01*
X145628369Y-97027108D01*
X145627949Y-97028120D01*
X145662778Y-97051389D01*
X145672114Y-97098305D01*
X145655009Y-97130310D01*
X145607490Y-97177829D01*
X145553202Y-97284373D01*
X145553202Y-97284374D01*
X145534496Y-97402483D01*
X145544839Y-97467797D01*
X145533671Y-97514310D01*
X145527302Y-97521766D01*
X145267876Y-97781194D01*
X145223682Y-97799500D01*
X144373121Y-97799500D01*
X144328927Y-97781194D01*
X144310621Y-97737000D01*
X144328927Y-97692806D01*
X144342865Y-97678868D01*
X144377500Y-97595253D01*
X144377500Y-97546825D01*
X144395806Y-97502631D01*
X144405278Y-97494858D01*
X144407464Y-97493397D01*
X144414018Y-97489018D01*
X144464300Y-97413766D01*
X144477500Y-97347406D01*
X144477500Y-96852594D01*
X144464300Y-96786234D01*
X144459447Y-96778971D01*
X144438033Y-96746922D01*
X144427500Y-96712199D01*
X144427500Y-96212992D01*
X144427499Y-96212986D01*
X144417683Y-96176353D01*
X144415553Y-96160176D01*
X144415553Y-96118411D01*
X144433859Y-96074217D01*
X144524829Y-95983247D01*
X144622056Y-95886020D01*
X144658589Y-95822742D01*
X144676118Y-95757328D01*
X144677500Y-95752170D01*
X144677501Y-95752164D01*
X144677501Y-95675273D01*
X144677500Y-95675255D01*
X144677500Y-95590000D01*
X144695806Y-95545806D01*
X144740000Y-95527500D01*
X145400106Y-95527500D01*
X145444300Y-95545806D01*
X145462606Y-95590000D01*
X145462606Y-95783339D01*
X145477835Y-95859905D01*
X145477836Y-95859907D01*
X145535853Y-95946735D01*
X145622681Y-96004752D01*
X145622683Y-96004753D01*
X145699250Y-96019983D01*
X146120962Y-96019983D01*
X146197529Y-96004753D01*
X146284358Y-95946735D01*
X146342376Y-95859906D01*
X146357606Y-95783339D01*
X146357606Y-95461627D01*
X146342376Y-95385060D01*
X146342375Y-95385058D01*
X146284358Y-95298230D01*
X146197530Y-95240213D01*
X146197528Y-95240212D01*
X146120962Y-95224983D01*
X145860227Y-95224983D01*
X145816033Y-95206677D01*
X145716492Y-95107136D01*
X145716487Y-95107132D01*
X145632878Y-95072500D01*
X145632876Y-95072500D01*
X144732254Y-95072500D01*
X144688060Y-95054194D01*
X144624655Y-94990789D01*
X144518108Y-94936500D01*
X144400000Y-94917794D01*
X144281891Y-94936500D01*
X144281890Y-94936500D01*
X144175346Y-94990788D01*
X144113127Y-95053007D01*
X144068933Y-95071312D01*
X144024739Y-95053006D01*
X143766884Y-94795151D01*
X143748578Y-94750957D01*
X143748578Y-94685132D01*
X143766884Y-94640938D01*
X143776355Y-94633165D01*
X143853935Y-94581328D01*
X143913058Y-94492844D01*
X143928578Y-94414819D01*
X143928578Y-94022123D01*
X143913058Y-93944098D01*
X143853935Y-93855614D01*
X143793303Y-93815101D01*
X143765453Y-93796492D01*
X143765451Y-93796491D01*
X143736068Y-93790646D01*
X143698206Y-93783115D01*
X143658433Y-93756539D01*
X143649101Y-93709622D01*
X143666204Y-93677624D01*
X143861422Y-93482407D01*
X143890500Y-93412206D01*
X143890500Y-93336222D01*
X143890500Y-92805502D01*
X143908805Y-92761309D01*
X144265808Y-92404306D01*
X144310000Y-92386001D01*
X144354194Y-92404307D01*
G37*
%TD.AperFunction*%
%TA.AperFunction,Conductor*%
G36*
X140398200Y-92409306D02*
G01*
X140918518Y-92929623D01*
X140918524Y-92929630D01*
X140922086Y-92933192D01*
X140922087Y-92933193D01*
X140965195Y-92976301D01*
X140983501Y-93020494D01*
X140965196Y-93064689D01*
X140965195Y-93064689D01*
X140439191Y-93590694D01*
X140394997Y-93609000D01*
X140089999Y-93609000D01*
X140045805Y-93590694D01*
X140027499Y-93546500D01*
X140027499Y-93270464D01*
X140027499Y-93270456D01*
X140021029Y-93221301D01*
X139970728Y-93113432D01*
X139970727Y-93113431D01*
X139970727Y-93113430D01*
X139901491Y-93044194D01*
X139883185Y-93000000D01*
X139901491Y-92955806D01*
X139970727Y-92886570D01*
X139970727Y-92886569D01*
X139970728Y-92886568D01*
X140021029Y-92778699D01*
X140027500Y-92729545D01*
X140027500Y-92453500D01*
X140045806Y-92409306D01*
X140090000Y-92391000D01*
X140354006Y-92391000D01*
X140398200Y-92409306D01*
G37*
%TD.AperFunction*%
%TA.AperFunction,Conductor*%
G36*
X140139191Y-89209306D02*
G01*
X140790694Y-89860809D01*
X140809000Y-89905003D01*
X140809000Y-90808450D01*
X140790694Y-90852644D01*
X140746500Y-90870950D01*
X140702306Y-90852644D01*
X140287741Y-90438079D01*
X140287740Y-90438078D01*
X140217539Y-90409000D01*
X140217538Y-90409000D01*
X140089999Y-90409000D01*
X140045805Y-90390694D01*
X140027499Y-90346500D01*
X140027499Y-90070464D01*
X140027499Y-90070456D01*
X140021029Y-90021301D01*
X139970728Y-89913432D01*
X139970727Y-89913431D01*
X139970727Y-89913430D01*
X139901491Y-89844194D01*
X139883185Y-89800000D01*
X139901491Y-89755806D01*
X139970727Y-89686570D01*
X139970727Y-89686569D01*
X139970728Y-89686568D01*
X140021029Y-89578699D01*
X140027500Y-89529545D01*
X140027500Y-89253500D01*
X140045806Y-89209306D01*
X140090000Y-89191000D01*
X140094997Y-89191000D01*
X140139191Y-89209306D01*
G37*
%TD.AperFunction*%
%TA.AperFunction,Conductor*%
G36*
X155971816Y-85218806D02*
G01*
X155990122Y-85263000D01*
X155971816Y-85307194D01*
X155954036Y-85319644D01*
X155847266Y-85369431D01*
X155660859Y-85499953D01*
X155499953Y-85660859D01*
X155369431Y-85847266D01*
X155273260Y-86053505D01*
X155273259Y-86053507D01*
X155214367Y-86273295D01*
X155214364Y-86273311D01*
X155194532Y-86499997D01*
X155194532Y-86500002D01*
X155214364Y-86726688D01*
X155214367Y-86726704D01*
X155273259Y-86946492D01*
X155273260Y-86946494D01*
X155369431Y-87152733D01*
X155499953Y-87339140D01*
X155660859Y-87500046D01*
X155702015Y-87528863D01*
X155847266Y-87630568D01*
X155847265Y-87630568D01*
X155937189Y-87672500D01*
X156053504Y-87726739D01*
X156053506Y-87726739D01*
X156053507Y-87726740D01*
X156273295Y-87785632D01*
X156273301Y-87785633D01*
X156273308Y-87785635D01*
X156409323Y-87797534D01*
X156499998Y-87805468D01*
X156500000Y-87805468D01*
X156500002Y-87805468D01*
X156575564Y-87798857D01*
X156726692Y-87785635D01*
X156726701Y-87785632D01*
X156726704Y-87785632D01*
X156946492Y-87726740D01*
X156946491Y-87726740D01*
X156946496Y-87726739D01*
X157152734Y-87630568D01*
X157339139Y-87500047D01*
X157500047Y-87339139D01*
X157630568Y-87152734D01*
X157680356Y-87045962D01*
X157715624Y-87013646D01*
X157763414Y-87015733D01*
X157795731Y-87051001D01*
X157799500Y-87072377D01*
X157799500Y-96364657D01*
X157781194Y-96408851D01*
X157737000Y-96427157D01*
X157692806Y-96408851D01*
X157683364Y-96399409D01*
X157683353Y-96399399D01*
X157663291Y-96382936D01*
X157663284Y-96382931D01*
X157663276Y-96382924D01*
X157635938Y-96364657D01*
X157573183Y-96322725D01*
X157550278Y-96310481D01*
X157527758Y-96301153D01*
X157527756Y-96301152D01*
X157527748Y-96301149D01*
X157502892Y-96293609D01*
X157502887Y-96293608D01*
X157502877Y-96293605D01*
X157390481Y-96271248D01*
X157385690Y-96270537D01*
X157377595Y-96269337D01*
X157376406Y-96269220D01*
X157365421Y-96268138D01*
X157365405Y-96268137D01*
X157365403Y-96268137D01*
X157352424Y-96267500D01*
X156089285Y-96267500D01*
X156084734Y-96267597D01*
X156083592Y-96267622D01*
X156078200Y-96267853D01*
X156072591Y-96268215D01*
X155995278Y-96274861D01*
X155983993Y-96276320D01*
X155973489Y-96278139D01*
X155962360Y-96280563D01*
X155887306Y-96300309D01*
X155881823Y-96301879D01*
X155876760Y-96303445D01*
X155871384Y-96305236D01*
X154644864Y-96743279D01*
X154639745Y-96744863D01*
X154587136Y-96758704D01*
X154539739Y-96752245D01*
X154510791Y-96714163D01*
X154517250Y-96666766D01*
X154526021Y-96655110D01*
X154574104Y-96604738D01*
X154582370Y-96595208D01*
X154589725Y-96585865D01*
X154597051Y-96575586D01*
X154607753Y-96558948D01*
X154619311Y-96536549D01*
X154628114Y-96514578D01*
X154628114Y-96514577D01*
X154628116Y-96514573D01*
X154632840Y-96498497D01*
X154635220Y-96490398D01*
X154638969Y-96470966D01*
X154640767Y-96458477D01*
X154641899Y-96446637D01*
X154642500Y-96434026D01*
X154642500Y-95983257D01*
X154642500Y-95983249D01*
X154642499Y-95983247D01*
X154641141Y-95964332D01*
X154641141Y-95964330D01*
X154638591Y-95946662D01*
X154634545Y-95928131D01*
X154628871Y-95908879D01*
X154613095Y-95874473D01*
X154593930Y-95844786D01*
X154569075Y-95816250D01*
X154557427Y-95806219D01*
X154553870Y-95803155D01*
X154545013Y-95796571D01*
X154538636Y-95791830D01*
X154525319Y-95783339D01*
X154523585Y-95782233D01*
X154514560Y-95777349D01*
X154506906Y-95773208D01*
X154501415Y-95770727D01*
X154470333Y-95756683D01*
X154470280Y-95756661D01*
X153963036Y-95527500D01*
X153680355Y-95399791D01*
X153647618Y-95364915D01*
X153644792Y-95355041D01*
X153641476Y-95338366D01*
X153641474Y-95338363D01*
X153599482Y-95275517D01*
X153536635Y-95233524D01*
X153536633Y-95233523D01*
X153481212Y-95222500D01*
X152768788Y-95222500D01*
X152713366Y-95233523D01*
X152713364Y-95233524D01*
X152650517Y-95275517D01*
X152608524Y-95338364D01*
X152608523Y-95338366D01*
X152597500Y-95393787D01*
X152597500Y-95394759D01*
X152596052Y-95408134D01*
X152595570Y-95410333D01*
X152595569Y-95410340D01*
X152592500Y-95438692D01*
X152592500Y-96139987D01*
X152592874Y-96149958D01*
X152593582Y-96159337D01*
X152594703Y-96169221D01*
X152594706Y-96169239D01*
X152615078Y-96303514D01*
X152619542Y-96322941D01*
X152619544Y-96322949D01*
X152619545Y-96322951D01*
X152625098Y-96340830D01*
X152625105Y-96340852D01*
X152632432Y-96359386D01*
X152686568Y-96470966D01*
X152691712Y-96481568D01*
X152696401Y-96490374D01*
X152698764Y-96494435D01*
X152701124Y-96498491D01*
X152706476Y-96506939D01*
X152750436Y-96570880D01*
X152750448Y-96570896D01*
X152756846Y-96579443D01*
X152756852Y-96579450D01*
X152756854Y-96579453D01*
X152763199Y-96587254D01*
X152770295Y-96595290D01*
X152862328Y-96691405D01*
X152862334Y-96691411D01*
X152878299Y-96705594D01*
X152878313Y-96705606D01*
X152887065Y-96712199D01*
X152894347Y-96717685D01*
X152912392Y-96729124D01*
X152912401Y-96729128D01*
X152912405Y-96729131D01*
X152917570Y-96731848D01*
X153025632Y-96788691D01*
X153045284Y-96797081D01*
X153064336Y-96803454D01*
X153085073Y-96808575D01*
X153085087Y-96808577D01*
X153085090Y-96808578D01*
X153194263Y-96826356D01*
X153234941Y-96851526D01*
X153245905Y-96898088D01*
X153226903Y-96933696D01*
X153186821Y-96971171D01*
X153186817Y-96971175D01*
X153172227Y-96987247D01*
X153172223Y-96987252D01*
X153159828Y-97003382D01*
X153159818Y-97003396D01*
X153148054Y-97021617D01*
X153105963Y-97100265D01*
X153105958Y-97100275D01*
X153097336Y-97120142D01*
X153097333Y-97120148D01*
X153090775Y-97139447D01*
X153085503Y-97160470D01*
X153085502Y-97160477D01*
X153070110Y-97253607D01*
X153070109Y-97253617D01*
X153068780Y-97264378D01*
X153067944Y-97274560D01*
X153067542Y-97284373D01*
X153067500Y-97285404D01*
X153067500Y-97852423D01*
X153067571Y-97853868D01*
X153068138Y-97865416D01*
X153069338Y-97877603D01*
X153069339Y-97877607D01*
X153071245Y-97890459D01*
X153071247Y-97890469D01*
X153093609Y-98002891D01*
X153093611Y-98002899D01*
X153100709Y-98026301D01*
X153096019Y-98073906D01*
X153059041Y-98104251D01*
X153050678Y-98106172D01*
X152954347Y-98121429D01*
X152954341Y-98121431D01*
X152847795Y-98175720D01*
X152776673Y-98246842D01*
X152732479Y-98265148D01*
X152688285Y-98246842D01*
X152672556Y-98231113D01*
X152566009Y-98176824D01*
X152447901Y-98158118D01*
X152329792Y-98176824D01*
X152329791Y-98176824D01*
X152223245Y-98231113D01*
X152138690Y-98315668D01*
X152084401Y-98422214D01*
X152084401Y-98422215D01*
X152065695Y-98540324D01*
X152084401Y-98658432D01*
X152084401Y-98658433D01*
X152138690Y-98764979D01*
X152204622Y-98830911D01*
X152222928Y-98875105D01*
X152222627Y-98881232D01*
X152222500Y-98882521D01*
X152222500Y-99617480D01*
X152232798Y-99669255D01*
X152232798Y-99669256D01*
X152232799Y-99669257D01*
X152272030Y-99727970D01*
X152330743Y-99767201D01*
X152382520Y-99777500D01*
X152517480Y-99777500D01*
X152569257Y-99767201D01*
X152615277Y-99736450D01*
X152662193Y-99727119D01*
X152684720Y-99736449D01*
X152730743Y-99767201D01*
X152782520Y-99777500D01*
X152917480Y-99777500D01*
X152969257Y-99767201D01*
X153012239Y-99738480D01*
X153059155Y-99729149D01*
X153086177Y-99741782D01*
X153110404Y-99761305D01*
X153124638Y-99767201D01*
X153149291Y-99777413D01*
X153149294Y-99777413D01*
X153149295Y-99777414D01*
X153200000Y-99787500D01*
X153249288Y-99787500D01*
X153249289Y-99787500D01*
X153298870Y-99777637D01*
X153345785Y-99786969D01*
X153372362Y-99826742D01*
X153372362Y-99851129D01*
X153362500Y-99900710D01*
X153362500Y-99950000D01*
X153372586Y-100000708D01*
X153388689Y-100039582D01*
X153388701Y-100039609D01*
X153402268Y-100064456D01*
X153404626Y-100067277D01*
X153418918Y-100112928D01*
X153408634Y-100142078D01*
X153382799Y-100180741D01*
X153382798Y-100180743D01*
X153372500Y-100232519D01*
X153372500Y-100367480D01*
X153382798Y-100419255D01*
X153382798Y-100419256D01*
X153382799Y-100419257D01*
X153422030Y-100477970D01*
X153480743Y-100517201D01*
X153532520Y-100527500D01*
X153854747Y-100527500D01*
X154390457Y-100527500D01*
X154434651Y-100545806D01*
X154442419Y-100555271D01*
X154487143Y-100622205D01*
X154575627Y-100681328D01*
X154653652Y-100696848D01*
X155000960Y-100696848D01*
X155045154Y-100715154D01*
X155179194Y-100849194D01*
X155197500Y-100893388D01*
X155197500Y-101971214D01*
X155179194Y-102015408D01*
X154769268Y-102425334D01*
X154730471Y-102441404D01*
X154730704Y-102442871D01*
X154725847Y-102443640D01*
X154725846Y-102443640D01*
X154641863Y-102456941D01*
X154607737Y-102462346D01*
X154607736Y-102462346D01*
X154501190Y-102516635D01*
X154416635Y-102601190D01*
X154362346Y-102707736D01*
X154362346Y-102707737D01*
X154360179Y-102721419D01*
X154349636Y-102787992D01*
X154342871Y-102830704D01*
X154341404Y-102830471D01*
X154325334Y-102869268D01*
X153465958Y-103728644D01*
X153421764Y-103746950D01*
X153377570Y-103728644D01*
X153370328Y-103719954D01*
X153343329Y-103680840D01*
X153343322Y-103680832D01*
X153229262Y-103579783D01*
X153094333Y-103508968D01*
X152946378Y-103472500D01*
X152946376Y-103472500D01*
X152793992Y-103472500D01*
X152793989Y-103472500D01*
X152646034Y-103508968D01*
X152511105Y-103579783D01*
X152397045Y-103680832D01*
X152397041Y-103680836D01*
X152310480Y-103806240D01*
X152295005Y-103847045D01*
X152257290Y-103946494D01*
X152256442Y-103948729D01*
X152256441Y-103948733D01*
X152247136Y-104025370D01*
X152223637Y-104067036D01*
X152177559Y-104079881D01*
X152135893Y-104056382D01*
X152123048Y-104025370D01*
X152113742Y-103948733D01*
X152113741Y-103948727D01*
X152112894Y-103946494D01*
X152082314Y-103865860D01*
X152075179Y-103847045D01*
X152076624Y-103799232D01*
X152089421Y-103780692D01*
X153011922Y-102858193D01*
X153041000Y-102787992D01*
X153041000Y-102726094D01*
X153059306Y-102681900D01*
X153103500Y-102663594D01*
X153127414Y-102668350D01*
X153149295Y-102677414D01*
X153200000Y-102687500D01*
X153300000Y-102687500D01*
X153350705Y-102677414D01*
X153350706Y-102677413D01*
X153350708Y-102677413D01*
X153359763Y-102673661D01*
X153389596Y-102661305D01*
X153390413Y-102660859D01*
X153414456Y-102647731D01*
X153414456Y-102647730D01*
X153414459Y-102647729D01*
X153461305Y-102589596D01*
X153477414Y-102550705D01*
X153487500Y-102500000D01*
X153487500Y-101850711D01*
X153477637Y-101801128D01*
X153486969Y-101754213D01*
X153526742Y-101727637D01*
X153551127Y-101727637D01*
X153600711Y-101737500D01*
X153600712Y-101737500D01*
X154250000Y-101737500D01*
X154300705Y-101727414D01*
X154300706Y-101727413D01*
X154300708Y-101727413D01*
X154317607Y-101720413D01*
X154339596Y-101711305D01*
X154343431Y-101709211D01*
X154364456Y-101697731D01*
X154364456Y-101697730D01*
X154364459Y-101697729D01*
X154411305Y-101639596D01*
X154427414Y-101600705D01*
X154437500Y-101550000D01*
X154437500Y-101450000D01*
X154427414Y-101399295D01*
X154427413Y-101399294D01*
X154427413Y-101399291D01*
X154411310Y-101360417D01*
X154411305Y-101360405D01*
X154411305Y-101360404D01*
X154411300Y-101360396D01*
X154411298Y-101360390D01*
X154397731Y-101335543D01*
X154395377Y-101332727D01*
X154381080Y-101287077D01*
X154391366Y-101257921D01*
X154417200Y-101219259D01*
X154417201Y-101219256D01*
X154427500Y-101167480D01*
X154427500Y-101032520D01*
X154417201Y-100980743D01*
X154377970Y-100922030D01*
X154319257Y-100882799D01*
X154319256Y-100882798D01*
X154267480Y-100872500D01*
X153532520Y-100872500D01*
X153480744Y-100882798D01*
X153422030Y-100922030D01*
X153382798Y-100980744D01*
X153372500Y-101032519D01*
X153372500Y-101167480D01*
X153382798Y-101219256D01*
X153382799Y-101219258D01*
X153411518Y-101262239D01*
X153420850Y-101309155D01*
X153408217Y-101336178D01*
X153388694Y-101360405D01*
X153372586Y-101399291D01*
X153362500Y-101449999D01*
X153362500Y-101499289D01*
X153372362Y-101548870D01*
X153363030Y-101595786D01*
X153323256Y-101622362D01*
X153298870Y-101622362D01*
X153249289Y-101612500D01*
X153200000Y-101612500D01*
X153149291Y-101622586D01*
X153110417Y-101638689D01*
X153110399Y-101638697D01*
X153085539Y-101652272D01*
X153082720Y-101654628D01*
X153037068Y-101668918D01*
X153007922Y-101658634D01*
X152969258Y-101632799D01*
X152969256Y-101632798D01*
X152917480Y-101622500D01*
X152782520Y-101622500D01*
X152730744Y-101632798D01*
X152672030Y-101672030D01*
X152632798Y-101730744D01*
X152622500Y-101782519D01*
X152622500Y-102517480D01*
X152632798Y-102569256D01*
X152632799Y-102569259D01*
X152648466Y-102592704D01*
X152659000Y-102627428D01*
X152659000Y-102644996D01*
X152640694Y-102689190D01*
X151820128Y-103509755D01*
X151775934Y-103528061D01*
X151746891Y-103520903D01*
X151724149Y-103508968D01*
X151576194Y-103472500D01*
X151576192Y-103472500D01*
X151423808Y-103472500D01*
X151423805Y-103472500D01*
X151275850Y-103508968D01*
X151140921Y-103579783D01*
X151026861Y-103680832D01*
X151026857Y-103680836D01*
X150940296Y-103806240D01*
X150924821Y-103847045D01*
X150887106Y-103946494D01*
X150886258Y-103948729D01*
X150886257Y-103948733D01*
X150867891Y-104099996D01*
X150867891Y-104100003D01*
X150886257Y-104251266D01*
X150886258Y-104251270D01*
X150886258Y-104251271D01*
X150886259Y-104251274D01*
X150919582Y-104339139D01*
X150940296Y-104393759D01*
X151026857Y-104519163D01*
X151026861Y-104519167D01*
X151140921Y-104620216D01*
X151257992Y-104681659D01*
X151288617Y-104718406D01*
X151284288Y-104766045D01*
X151247541Y-104796670D01*
X151228947Y-104799500D01*
X140072378Y-104799500D01*
X140028184Y-104781194D01*
X140009878Y-104737000D01*
X140028184Y-104692806D01*
X140045964Y-104680356D01*
X140152734Y-104630568D01*
X140339139Y-104500047D01*
X140500047Y-104339139D01*
X140630568Y-104152734D01*
X140726739Y-103946496D01*
X140785635Y-103726692D01*
X140804637Y-103509499D01*
X140805468Y-103500002D01*
X140805468Y-103499997D01*
X140785683Y-103273856D01*
X140785680Y-103273829D01*
X140785635Y-103273308D01*
X140784872Y-103270462D01*
X140784868Y-103270448D01*
X141972500Y-103270448D01*
X141972500Y-104329535D01*
X141972500Y-104329536D01*
X141972501Y-104329544D01*
X141978971Y-104378699D01*
X141978972Y-104378701D01*
X142029272Y-104486569D01*
X142113430Y-104570727D01*
X142113431Y-104570727D01*
X142113432Y-104570728D01*
X142221301Y-104621029D01*
X142270455Y-104627500D01*
X143329544Y-104627499D01*
X143378699Y-104621029D01*
X143486568Y-104570728D01*
X143486569Y-104570727D01*
X143486570Y-104570727D01*
X143555806Y-104501491D01*
X143600000Y-104483185D01*
X143644194Y-104501491D01*
X143713430Y-104570727D01*
X143713431Y-104570727D01*
X143713432Y-104570728D01*
X143821301Y-104621029D01*
X143870455Y-104627500D01*
X144929544Y-104627499D01*
X144978699Y-104621029D01*
X145086568Y-104570728D01*
X145086569Y-104570727D01*
X145086570Y-104570727D01*
X145170727Y-104486570D01*
X145170727Y-104486569D01*
X145170728Y-104486568D01*
X145221029Y-104378699D01*
X145227500Y-104329545D01*
X145227499Y-103270456D01*
X145221029Y-103221301D01*
X145170728Y-103113432D01*
X145170727Y-103113431D01*
X145170727Y-103113430D01*
X145086569Y-103029272D01*
X144978698Y-102978970D01*
X144929551Y-102972500D01*
X144929545Y-102972500D01*
X144690000Y-102972500D01*
X144645806Y-102954194D01*
X144627500Y-102910000D01*
X144627500Y-102620121D01*
X144645806Y-102575927D01*
X146675928Y-100545806D01*
X146720122Y-100527500D01*
X146937404Y-100527500D01*
X146981598Y-100545806D01*
X146994161Y-100569309D01*
X146995665Y-100568687D01*
X146998020Y-100574374D01*
X147027581Y-100618615D01*
X147057143Y-100662857D01*
X147145627Y-100721980D01*
X147223652Y-100737500D01*
X147556348Y-100737500D01*
X147634373Y-100721980D01*
X147722857Y-100662857D01*
X147781980Y-100574373D01*
X147797500Y-100496348D01*
X147797500Y-100103652D01*
X147781980Y-100025627D01*
X147722857Y-99937143D01*
X147722856Y-99937142D01*
X147675211Y-99905306D01*
X147648636Y-99865532D01*
X147657969Y-99818616D01*
X147675208Y-99801376D01*
X147732857Y-99762857D01*
X147791980Y-99674373D01*
X147807500Y-99596348D01*
X147807500Y-99203652D01*
X147791980Y-99125627D01*
X147732857Y-99037143D01*
X147674001Y-98997817D01*
X147644375Y-98978021D01*
X147644371Y-98978019D01*
X147566348Y-98962500D01*
X147233652Y-98962500D01*
X147155628Y-98978019D01*
X147155624Y-98978021D01*
X147067143Y-99037143D01*
X147008020Y-99125625D01*
X147005665Y-99131313D01*
X147003272Y-99130321D01*
X146982127Y-99161967D01*
X146947404Y-99172500D01*
X146654747Y-99172500D01*
X146571133Y-99207133D01*
X146571130Y-99207135D01*
X143974073Y-101804194D01*
X143929879Y-101822500D01*
X143404747Y-101822500D01*
X143321133Y-101857133D01*
X143321131Y-101857135D01*
X142671132Y-102507135D01*
X142607136Y-102571130D01*
X142607132Y-102571135D01*
X142572500Y-102654744D01*
X142572500Y-102910000D01*
X142554194Y-102954194D01*
X142510000Y-102972500D01*
X142270464Y-102972500D01*
X142270462Y-102972500D01*
X142270456Y-102972501D01*
X142221301Y-102978971D01*
X142221299Y-102978971D01*
X142221298Y-102978972D01*
X142113430Y-103029272D01*
X142113430Y-103029273D01*
X142029273Y-103113430D01*
X142029272Y-103113430D01*
X141978970Y-103221301D01*
X141972500Y-103270448D01*
X140784868Y-103270448D01*
X140726740Y-103053507D01*
X140726739Y-103053505D01*
X140725338Y-103050501D01*
X140630568Y-102847266D01*
X140585164Y-102782422D01*
X140500046Y-102660859D01*
X140339140Y-102499953D01*
X140220547Y-102416915D01*
X140152734Y-102369432D01*
X140152732Y-102369431D01*
X140152734Y-102369431D01*
X139946494Y-102273260D01*
X139946492Y-102273259D01*
X139726704Y-102214367D01*
X139726688Y-102214364D01*
X139500002Y-102194532D01*
X139499998Y-102194532D01*
X139273311Y-102214364D01*
X139273295Y-102214367D01*
X139053507Y-102273259D01*
X139053505Y-102273260D01*
X138847266Y-102369431D01*
X138660859Y-102499953D01*
X138499953Y-102660859D01*
X138369431Y-102847266D01*
X138319644Y-102954036D01*
X138284376Y-102986353D01*
X138236586Y-102984266D01*
X138204269Y-102948998D01*
X138200500Y-102927622D01*
X138200500Y-97070448D01*
X138372500Y-97070448D01*
X138372500Y-98129535D01*
X138372500Y-98129536D01*
X138372501Y-98129544D01*
X138378971Y-98178699D01*
X138378972Y-98178701D01*
X138429272Y-98286569D01*
X138498509Y-98355806D01*
X138516815Y-98400000D01*
X138498509Y-98444194D01*
X138429273Y-98513430D01*
X138429272Y-98513430D01*
X138378970Y-98621301D01*
X138372500Y-98670448D01*
X138372500Y-99729535D01*
X138372500Y-99729536D01*
X138372501Y-99729544D01*
X138378971Y-99778699D01*
X138382827Y-99786969D01*
X138429272Y-99886569D01*
X138513430Y-99970727D01*
X138513431Y-99970727D01*
X138513432Y-99970728D01*
X138621301Y-100021029D01*
X138670455Y-100027500D01*
X139729544Y-100027499D01*
X139778699Y-100021029D01*
X139886568Y-99970728D01*
X139886569Y-99970727D01*
X139886570Y-99970727D01*
X139970727Y-99886570D01*
X139970727Y-99886569D01*
X139970728Y-99886568D01*
X140021029Y-99778699D01*
X140027500Y-99729545D01*
X140027499Y-98752593D01*
X142522500Y-98752593D01*
X142522500Y-99247406D01*
X142535699Y-99313765D01*
X142535700Y-99313767D01*
X142551261Y-99337055D01*
X142585982Y-99389018D01*
X142625564Y-99415466D01*
X142661232Y-99439299D01*
X142661234Y-99439300D01*
X142727594Y-99452500D01*
X142972406Y-99452500D01*
X143038766Y-99439300D01*
X143052276Y-99430273D01*
X143099192Y-99420941D01*
X143138966Y-99447517D01*
X143149499Y-99482240D01*
X143149499Y-99488539D01*
X143168410Y-99559109D01*
X143168411Y-99559111D01*
X143204942Y-99622387D01*
X143204946Y-99622392D01*
X143499194Y-99916638D01*
X143517500Y-99960832D01*
X143517500Y-100146348D01*
X143533019Y-100224371D01*
X143533021Y-100224375D01*
X143545681Y-100243322D01*
X143592143Y-100312857D01*
X143680627Y-100371980D01*
X143758652Y-100387500D01*
X144091348Y-100387500D01*
X144169373Y-100371980D01*
X144257857Y-100312857D01*
X144316980Y-100224373D01*
X144332500Y-100146348D01*
X144332500Y-99960832D01*
X144350806Y-99916639D01*
X144359990Y-99907455D01*
X144372056Y-99895389D01*
X144408589Y-99832111D01*
X144427500Y-99761534D01*
X144427500Y-99688466D01*
X144427500Y-99387800D01*
X144432859Y-99362480D01*
X144435042Y-99357551D01*
X144464300Y-99313766D01*
X144472327Y-99273409D01*
X144475134Y-99267076D01*
X144487818Y-99254995D01*
X144497552Y-99240429D01*
X144504583Y-99239030D01*
X144509774Y-99234087D01*
X144527285Y-99234514D01*
X144544468Y-99231097D01*
X144551990Y-99235118D01*
X144557595Y-99235255D01*
X144563139Y-99241077D01*
X144576468Y-99248201D01*
X144811132Y-99482866D01*
X144894747Y-99517500D01*
X145016942Y-99517500D01*
X145061136Y-99535806D01*
X145073794Y-99554038D01*
X145075438Y-99557638D01*
X145079171Y-99565811D01*
X145079173Y-99565813D01*
X145169090Y-99669583D01*
X145284595Y-99743813D01*
X145284600Y-99743816D01*
X145403398Y-99778698D01*
X145416343Y-99782499D01*
X145416345Y-99782500D01*
X145416346Y-99782500D01*
X145553655Y-99782500D01*
X145553655Y-99782499D01*
X145685400Y-99743816D01*
X145731080Y-99714459D01*
X145800909Y-99669583D01*
X145800911Y-99669581D01*
X145890829Y-99565811D01*
X145947869Y-99440911D01*
X145967410Y-99305000D01*
X145947869Y-99169089D01*
X145890829Y-99044189D01*
X145889266Y-99042385D01*
X145800909Y-98940416D01*
X145685404Y-98866186D01*
X145685395Y-98866182D01*
X145553656Y-98827500D01*
X145553654Y-98827500D01*
X145416346Y-98827500D01*
X145416344Y-98827500D01*
X145284604Y-98866182D01*
X145284595Y-98866186D01*
X145169092Y-98940415D01*
X145093768Y-99027342D01*
X145050992Y-99048753D01*
X145005604Y-99033646D01*
X145002340Y-99030606D01*
X144778869Y-98807136D01*
X144778864Y-98807132D01*
X144695255Y-98772500D01*
X144695253Y-98772500D01*
X144532752Y-98772500D01*
X144488558Y-98754194D01*
X144471453Y-98722194D01*
X144467038Y-98700000D01*
X144464300Y-98686234D01*
X144414018Y-98610982D01*
X144370482Y-98581892D01*
X144338767Y-98560700D01*
X144338765Y-98560699D01*
X144272406Y-98547500D01*
X144027594Y-98547500D01*
X143961234Y-98560699D01*
X143961232Y-98560700D01*
X143885982Y-98610981D01*
X143877202Y-98624122D01*
X143837427Y-98650696D01*
X143790511Y-98641363D01*
X143769548Y-98617772D01*
X143736211Y-98552345D01*
X143651655Y-98467789D01*
X143545108Y-98413500D01*
X143427000Y-98394794D01*
X143308891Y-98413500D01*
X143308890Y-98413500D01*
X143202344Y-98467789D01*
X143117397Y-98552736D01*
X143073203Y-98571042D01*
X143044724Y-98562402D01*
X143044454Y-98563056D01*
X143038765Y-98560699D01*
X142972406Y-98547500D01*
X142727594Y-98547500D01*
X142661234Y-98560699D01*
X142661232Y-98560700D01*
X142585982Y-98610982D01*
X142535700Y-98686232D01*
X142535699Y-98686234D01*
X142522500Y-98752593D01*
X140027499Y-98752593D01*
X140027499Y-98670456D01*
X140021029Y-98621301D01*
X139970728Y-98513432D01*
X139970727Y-98513431D01*
X139970727Y-98513430D01*
X139901491Y-98444194D01*
X139883185Y-98400000D01*
X139901491Y-98355806D01*
X139970727Y-98286570D01*
X139970727Y-98286569D01*
X139970728Y-98286568D01*
X140021029Y-98178699D01*
X140027500Y-98129545D01*
X140027499Y-97070456D01*
X140021029Y-97021301D01*
X139970728Y-96913432D01*
X139970727Y-96913431D01*
X139970727Y-96913430D01*
X139886569Y-96829272D01*
X139778698Y-96778970D01*
X139729545Y-96772500D01*
X138670464Y-96772500D01*
X138670462Y-96772500D01*
X138670456Y-96772501D01*
X138621301Y-96778971D01*
X138621299Y-96778971D01*
X138621298Y-96778972D01*
X138513430Y-96829272D01*
X138513430Y-96829273D01*
X138429273Y-96913430D01*
X138429272Y-96913430D01*
X138378970Y-97021301D01*
X138372500Y-97070448D01*
X138200500Y-97070448D01*
X138200500Y-88470448D01*
X138372500Y-88470448D01*
X138372500Y-89529535D01*
X138372500Y-89529536D01*
X138372501Y-89529544D01*
X138378971Y-89578699D01*
X138378972Y-89578701D01*
X138429272Y-89686569D01*
X138498509Y-89755806D01*
X138516815Y-89800000D01*
X138498509Y-89844194D01*
X138429273Y-89913430D01*
X138429272Y-89913430D01*
X138378970Y-90021301D01*
X138372500Y-90070448D01*
X138372500Y-91129535D01*
X138372500Y-91129536D01*
X138372501Y-91129544D01*
X138378971Y-91178699D01*
X138378972Y-91178701D01*
X138429272Y-91286569D01*
X138498509Y-91355806D01*
X138516815Y-91400000D01*
X138498509Y-91444194D01*
X138429273Y-91513430D01*
X138429272Y-91513430D01*
X138378970Y-91621301D01*
X138372500Y-91670448D01*
X138372500Y-92729535D01*
X138372500Y-92729536D01*
X138372501Y-92729544D01*
X138378971Y-92778699D01*
X138378972Y-92778701D01*
X138429272Y-92886569D01*
X138498509Y-92955806D01*
X138516815Y-93000000D01*
X138498509Y-93044194D01*
X138429273Y-93113430D01*
X138429272Y-93113430D01*
X138378970Y-93221301D01*
X138372500Y-93270448D01*
X138372500Y-94329535D01*
X138372500Y-94329536D01*
X138372501Y-94329544D01*
X138378971Y-94378699D01*
X138378972Y-94378701D01*
X138429272Y-94486569D01*
X138513430Y-94570727D01*
X138513431Y-94570727D01*
X138513432Y-94570728D01*
X138621301Y-94621029D01*
X138670455Y-94627500D01*
X139729544Y-94627499D01*
X139778699Y-94621029D01*
X139886568Y-94570728D01*
X139886569Y-94570727D01*
X139886570Y-94570727D01*
X139970727Y-94486570D01*
X139970727Y-94486569D01*
X139970728Y-94486568D01*
X140021029Y-94378699D01*
X140027500Y-94329545D01*
X140027500Y-94053500D01*
X140045806Y-94009306D01*
X140090000Y-93991000D01*
X140537990Y-93991000D01*
X140537992Y-93991000D01*
X140608193Y-93961922D01*
X141135809Y-93434306D01*
X141180003Y-93416000D01*
X142911088Y-93416000D01*
X142945820Y-93426539D01*
X142946963Y-93427303D01*
X142973532Y-93467081D01*
X142964192Y-93513996D01*
X142956425Y-93523458D01*
X141691807Y-94788078D01*
X141638079Y-94841805D01*
X141638077Y-94841808D01*
X141616547Y-94893787D01*
X141609000Y-94912008D01*
X141609000Y-97362008D01*
X141609000Y-97437992D01*
X141621346Y-97467797D01*
X141632554Y-97494858D01*
X141638078Y-97508193D01*
X142282307Y-98152422D01*
X142352508Y-98181500D01*
X142352510Y-98181500D01*
X145366675Y-98181500D01*
X145366677Y-98181500D01*
X145436878Y-98152422D01*
X145797418Y-97791880D01*
X145841611Y-97773575D01*
X145851382Y-97774343D01*
X145916702Y-97784689D01*
X146034810Y-97765983D01*
X146139565Y-97712606D01*
X146187251Y-97708854D01*
X146221962Y-97738497D01*
X146222017Y-97738458D01*
X146222182Y-97738685D01*
X146223623Y-97739916D01*
X146224906Y-97742435D01*
X146224910Y-97742439D01*
X146309466Y-97826995D01*
X146392989Y-97869552D01*
X146424056Y-97905926D01*
X146420303Y-97953613D01*
X146401225Y-97991056D01*
X146401224Y-97991058D01*
X146382518Y-98109168D01*
X146401224Y-98227276D01*
X146401224Y-98227277D01*
X146446262Y-98315668D01*
X146455513Y-98333823D01*
X146540069Y-98418379D01*
X146646616Y-98472668D01*
X146764724Y-98491374D01*
X146882832Y-98472668D01*
X146989379Y-98418379D01*
X147073935Y-98333823D01*
X147128224Y-98227276D01*
X147146930Y-98109168D01*
X147146455Y-98106172D01*
X147140155Y-98066394D01*
X147141358Y-98061380D01*
X147139385Y-98056616D01*
X147146798Y-98038717D01*
X147151321Y-98019880D01*
X147157685Y-98012428D01*
X147189203Y-97980910D01*
X147233396Y-97962605D01*
X147267183Y-97972525D01*
X147337082Y-98017447D01*
X147468825Y-98056130D01*
X147468827Y-98056131D01*
X147468828Y-98056131D01*
X147606137Y-98056131D01*
X147606137Y-98056130D01*
X147737882Y-98017447D01*
X147794733Y-97980911D01*
X147853391Y-97943214D01*
X147853393Y-97943212D01*
X147943311Y-97839442D01*
X147958507Y-97806168D01*
X147993517Y-97773572D01*
X148015359Y-97769631D01*
X148059359Y-97769631D01*
X148059361Y-97769631D01*
X148129562Y-97740553D01*
X148260809Y-97609306D01*
X148305003Y-97591000D01*
X148748143Y-97591000D01*
X148748145Y-97591000D01*
X148818346Y-97561922D01*
X149052306Y-97327962D01*
X149096500Y-97309656D01*
X149140694Y-97327962D01*
X149159000Y-97372156D01*
X149159000Y-97782251D01*
X149140694Y-97826445D01*
X148919828Y-98047310D01*
X148919826Y-98047312D01*
X148876457Y-98112219D01*
X148876455Y-98112223D01*
X148856083Y-98214644D01*
X148856083Y-98214646D01*
X148863106Y-98249954D01*
X148853774Y-98296870D01*
X148814000Y-98323446D01*
X148811585Y-98323877D01*
X148731896Y-98336498D01*
X148731890Y-98336500D01*
X148625344Y-98390789D01*
X148540789Y-98475344D01*
X148486500Y-98581890D01*
X148486500Y-98581891D01*
X148467794Y-98700000D01*
X148486500Y-98818108D01*
X148486500Y-98818109D01*
X148501301Y-98847156D01*
X148510997Y-98866186D01*
X148513769Y-98871625D01*
X148517522Y-98919313D01*
X148486456Y-98955688D01*
X148458081Y-98962500D01*
X148193652Y-98962500D01*
X148115628Y-98978019D01*
X148115624Y-98978021D01*
X148027143Y-99037143D01*
X147968021Y-99125624D01*
X147968019Y-99125628D01*
X147952500Y-99203651D01*
X147952500Y-99596348D01*
X147968019Y-99674371D01*
X147968021Y-99674375D01*
X147994805Y-99714459D01*
X148027143Y-99762857D01*
X148066133Y-99788909D01*
X148074788Y-99794692D01*
X148101363Y-99834466D01*
X148092031Y-99881383D01*
X148074788Y-99898625D01*
X148017145Y-99937142D01*
X148017142Y-99937144D01*
X147958021Y-100025624D01*
X147958019Y-100025628D01*
X147942500Y-100103651D01*
X147942500Y-100496348D01*
X147958019Y-100574371D01*
X147958021Y-100574375D01*
X147962276Y-100580743D01*
X148017143Y-100662857D01*
X148105627Y-100721980D01*
X148137868Y-100728393D01*
X148139416Y-100728701D01*
X148179190Y-100755277D01*
X148188522Y-100802193D01*
X148161946Y-100841967D01*
X148127223Y-100852500D01*
X148019144Y-100852500D01*
X147942577Y-100867729D01*
X147942575Y-100867730D01*
X147855747Y-100925748D01*
X147796436Y-101014511D01*
X147756662Y-101041086D01*
X147723288Y-101036470D01*
X147722785Y-101038020D01*
X147718109Y-101036500D01*
X147600000Y-101017794D01*
X147481891Y-101036500D01*
X147481890Y-101036500D01*
X147375344Y-101090789D01*
X147290789Y-101175344D01*
X147236500Y-101281890D01*
X147236500Y-101281891D01*
X147217794Y-101400000D01*
X147236500Y-101518108D01*
X147236502Y-101518113D01*
X147238495Y-101522025D01*
X147242246Y-101569714D01*
X147211178Y-101606086D01*
X147192583Y-101612127D01*
X147155104Y-101618063D01*
X147090214Y-101628341D01*
X147090210Y-101628342D01*
X147020875Y-101663671D01*
X146973187Y-101667424D01*
X146936813Y-101636357D01*
X146915035Y-101593615D01*
X146830479Y-101509059D01*
X146723932Y-101454770D01*
X146605824Y-101436064D01*
X146487715Y-101454770D01*
X146487714Y-101454770D01*
X146381168Y-101509059D01*
X146296613Y-101593614D01*
X146242324Y-101700160D01*
X146242324Y-101700161D01*
X146233511Y-101755806D01*
X146223618Y-101818270D01*
X146232046Y-101871489D01*
X146233962Y-101883583D01*
X146232759Y-101888592D01*
X146234731Y-101893352D01*
X146227318Y-101911253D01*
X146222794Y-101930096D01*
X146216430Y-101937548D01*
X146211887Y-101942092D01*
X146211882Y-101942097D01*
X146158154Y-101995824D01*
X146158152Y-101995827D01*
X146150042Y-102015408D01*
X146129075Y-102066027D01*
X146129075Y-102575234D01*
X146129075Y-102651218D01*
X146149635Y-102700855D01*
X146157983Y-102721010D01*
X146158153Y-102721419D01*
X146469920Y-103033186D01*
X146540121Y-103062264D01*
X146616105Y-103062264D01*
X146736862Y-103062264D01*
X146781056Y-103080570D01*
X147127179Y-103426693D01*
X147180908Y-103480422D01*
X147251109Y-103509500D01*
X147251111Y-103509500D01*
X149978700Y-103509500D01*
X149978702Y-103509500D01*
X150048903Y-103480422D01*
X150569519Y-102959806D01*
X150613713Y-102941500D01*
X151897490Y-102941500D01*
X151897492Y-102941500D01*
X151967693Y-102912422D01*
X152211922Y-102668193D01*
X152227227Y-102631240D01*
X152233003Y-102620437D01*
X152234432Y-102618299D01*
X152267201Y-102569257D01*
X152277500Y-102517480D01*
X152277500Y-101782520D01*
X152267201Y-101730743D01*
X152227970Y-101672030D01*
X152169257Y-101632799D01*
X152169256Y-101632798D01*
X152117480Y-101622500D01*
X151982520Y-101622500D01*
X151930743Y-101632798D01*
X151930741Y-101632799D01*
X151887761Y-101661518D01*
X151840845Y-101670850D01*
X151813822Y-101658217D01*
X151793326Y-101641701D01*
X151789596Y-101638695D01*
X151783952Y-101636357D01*
X151750708Y-101622586D01*
X151700000Y-101612500D01*
X151650711Y-101612500D01*
X151601129Y-101622362D01*
X151554212Y-101613030D01*
X151527637Y-101573256D01*
X151527637Y-101548872D01*
X151537500Y-101499289D01*
X151537500Y-101450000D01*
X151527414Y-101399295D01*
X151527413Y-101399294D01*
X151527413Y-101399291D01*
X151511310Y-101360417D01*
X151511305Y-101360405D01*
X151511305Y-101360404D01*
X151511300Y-101360396D01*
X151511298Y-101360390D01*
X151497731Y-101335543D01*
X151495377Y-101332727D01*
X151481080Y-101287077D01*
X151491366Y-101257921D01*
X151517200Y-101219259D01*
X151517201Y-101219256D01*
X151527500Y-101167480D01*
X151527500Y-101032520D01*
X151517201Y-100980743D01*
X151486450Y-100934722D01*
X151477119Y-100887807D01*
X151486449Y-100865279D01*
X151517201Y-100819257D01*
X151527500Y-100767480D01*
X151527500Y-100632520D01*
X151517201Y-100580743D01*
X151486450Y-100534722D01*
X151477119Y-100487807D01*
X151486449Y-100465279D01*
X151517201Y-100419257D01*
X151527500Y-100367480D01*
X151527500Y-100232520D01*
X151517201Y-100180743D01*
X151477970Y-100122030D01*
X151419257Y-100082799D01*
X151419256Y-100082798D01*
X151367480Y-100072500D01*
X150632520Y-100072500D01*
X150580743Y-100082798D01*
X150580741Y-100082799D01*
X150557294Y-100098467D01*
X150522571Y-100109000D01*
X150479754Y-100109000D01*
X150435560Y-100090694D01*
X150424066Y-100074875D01*
X150417489Y-100061967D01*
X150403900Y-100035297D01*
X150319344Y-99950741D01*
X150212797Y-99896452D01*
X150094689Y-99877746D01*
X150094688Y-99877746D01*
X149986793Y-99894834D01*
X149940280Y-99883666D01*
X149915286Y-99842879D01*
X149926454Y-99796366D01*
X149932815Y-99788917D01*
X151617866Y-98103868D01*
X151652500Y-98020252D01*
X151652500Y-97929747D01*
X151652500Y-96717622D01*
X151670806Y-96673428D01*
X151715000Y-96655122D01*
X151749723Y-96665655D01*
X151766558Y-96676904D01*
X151788363Y-96691474D01*
X151788366Y-96691476D01*
X151843788Y-96702500D01*
X152006212Y-96702500D01*
X152061634Y-96691476D01*
X152124482Y-96649482D01*
X152166476Y-96586634D01*
X152177500Y-96531212D01*
X152177500Y-95818788D01*
X152166476Y-95763366D01*
X152142511Y-95727500D01*
X152124482Y-95700517D01*
X152061635Y-95658524D01*
X152061633Y-95658523D01*
X152006212Y-95647500D01*
X151843788Y-95647500D01*
X151788366Y-95658523D01*
X151788364Y-95658524D01*
X151725516Y-95700518D01*
X151721165Y-95704870D01*
X151719580Y-95703285D01*
X151687185Y-95724926D01*
X151640270Y-95715587D01*
X151629194Y-95704511D01*
X151628835Y-95704870D01*
X151624483Y-95700518D01*
X151561635Y-95658524D01*
X151561633Y-95658523D01*
X151506212Y-95647500D01*
X151343788Y-95647500D01*
X151288366Y-95658523D01*
X151288364Y-95658524D01*
X151225516Y-95700518D01*
X151221165Y-95704870D01*
X151219580Y-95703285D01*
X151187185Y-95724926D01*
X151140270Y-95715587D01*
X151129194Y-95704511D01*
X151128835Y-95704870D01*
X151124483Y-95700518D01*
X151061635Y-95658524D01*
X151061633Y-95658523D01*
X151006212Y-95647500D01*
X150843788Y-95647500D01*
X150788366Y-95658523D01*
X150788364Y-95658524D01*
X150725516Y-95700518D01*
X150721165Y-95704870D01*
X150719580Y-95703285D01*
X150687185Y-95724926D01*
X150640270Y-95715587D01*
X150629194Y-95704511D01*
X150628835Y-95704870D01*
X150624483Y-95700518D01*
X150561635Y-95658524D01*
X150561633Y-95658523D01*
X150506212Y-95647500D01*
X150343788Y-95647500D01*
X150288366Y-95658523D01*
X150288364Y-95658524D01*
X150225516Y-95700518D01*
X150221165Y-95704870D01*
X150219580Y-95703285D01*
X150187185Y-95724926D01*
X150140270Y-95715587D01*
X150129194Y-95704511D01*
X150128835Y-95704870D01*
X150124483Y-95700518D01*
X150061635Y-95658524D01*
X150061633Y-95658523D01*
X150006212Y-95647500D01*
X149843788Y-95647500D01*
X149788366Y-95658523D01*
X149788364Y-95658524D01*
X149725516Y-95700518D01*
X149721165Y-95704870D01*
X149719580Y-95703285D01*
X149687185Y-95724926D01*
X149640270Y-95715587D01*
X149629194Y-95704511D01*
X149628835Y-95704870D01*
X149624483Y-95700518D01*
X149561635Y-95658524D01*
X149561633Y-95658523D01*
X149506212Y-95647500D01*
X149343788Y-95647500D01*
X149288366Y-95658523D01*
X149288364Y-95658524D01*
X149225516Y-95700518D01*
X149221165Y-95704870D01*
X149219580Y-95703285D01*
X149187185Y-95724926D01*
X149140270Y-95715587D01*
X149129194Y-95704511D01*
X149128835Y-95704870D01*
X149124483Y-95700518D01*
X149061635Y-95658524D01*
X149061633Y-95658523D01*
X149006212Y-95647500D01*
X148843788Y-95647500D01*
X148843782Y-95647500D01*
X148821571Y-95651918D01*
X148774655Y-95642585D01*
X148748081Y-95602810D01*
X148748081Y-95578428D01*
X148752500Y-95556212D01*
X148752500Y-95393788D01*
X148741476Y-95338366D01*
X148714659Y-95298231D01*
X148699481Y-95275516D01*
X148695130Y-95271165D01*
X148696715Y-95269579D01*
X148675075Y-95237195D01*
X148684406Y-95190278D01*
X148695489Y-95179194D01*
X148695130Y-95178835D01*
X148699481Y-95174483D01*
X148705150Y-95166000D01*
X148741476Y-95111634D01*
X148752500Y-95056212D01*
X148752500Y-94893788D01*
X148741476Y-94838366D01*
X148733097Y-94825825D01*
X148699481Y-94775516D01*
X148695130Y-94771165D01*
X148696715Y-94769579D01*
X148675075Y-94737195D01*
X148684406Y-94690278D01*
X148695489Y-94679194D01*
X148695130Y-94678835D01*
X148699481Y-94674483D01*
X148705150Y-94666000D01*
X148741476Y-94611634D01*
X148752500Y-94556212D01*
X148752500Y-94393788D01*
X148741476Y-94338366D01*
X148735582Y-94329544D01*
X148699481Y-94275516D01*
X148695130Y-94271165D01*
X148696715Y-94269579D01*
X148675075Y-94237195D01*
X148684406Y-94190278D01*
X148695489Y-94179194D01*
X148695130Y-94178835D01*
X148699481Y-94174483D01*
X148705150Y-94166000D01*
X148741476Y-94111634D01*
X148752500Y-94056212D01*
X148752500Y-93893788D01*
X148741476Y-93838366D01*
X148713497Y-93796492D01*
X148699481Y-93775516D01*
X148695130Y-93771165D01*
X148696715Y-93769579D01*
X148675075Y-93737195D01*
X148684406Y-93690278D01*
X148695489Y-93679194D01*
X148695130Y-93678835D01*
X148699481Y-93674483D01*
X148717335Y-93647764D01*
X148741476Y-93611634D01*
X148752500Y-93556212D01*
X148752500Y-93393788D01*
X148741476Y-93338366D01*
X148740044Y-93336222D01*
X148699481Y-93275516D01*
X148695130Y-93271165D01*
X148696715Y-93269579D01*
X148675075Y-93237195D01*
X148684406Y-93190278D01*
X148695489Y-93179194D01*
X148695130Y-93178835D01*
X148699481Y-93174483D01*
X148714487Y-93152026D01*
X148741476Y-93111634D01*
X148752500Y-93056212D01*
X148752500Y-92893788D01*
X148741476Y-92838366D01*
X148730074Y-92821301D01*
X148699481Y-92775516D01*
X148695130Y-92771165D01*
X148696715Y-92769579D01*
X148675075Y-92737195D01*
X148684406Y-92690278D01*
X148695489Y-92679194D01*
X148695130Y-92678835D01*
X148699481Y-92674483D01*
X148709344Y-92659723D01*
X148741476Y-92611634D01*
X148752500Y-92556212D01*
X148752500Y-92393788D01*
X148741476Y-92338366D01*
X148735130Y-92328868D01*
X148699482Y-92275517D01*
X148636635Y-92233524D01*
X148636633Y-92233523D01*
X148581212Y-92222500D01*
X147922103Y-92222500D01*
X147877909Y-92204194D01*
X147866644Y-92185810D01*
X147865733Y-92186275D01*
X147851925Y-92159176D01*
X147809211Y-92075345D01*
X147724655Y-91990789D01*
X147618108Y-91936500D01*
X147500000Y-91917794D01*
X147381891Y-91936500D01*
X147381890Y-91936500D01*
X147275344Y-91990789D01*
X147190789Y-92075344D01*
X147136500Y-92181890D01*
X147136500Y-92181891D01*
X147117794Y-92300000D01*
X147120997Y-92320224D01*
X147109829Y-92366737D01*
X147069042Y-92391731D01*
X147059266Y-92392500D01*
X146687454Y-92392500D01*
X146609430Y-92408019D01*
X146609426Y-92408021D01*
X146520945Y-92467143D01*
X146461823Y-92555624D01*
X146461821Y-92555628D01*
X146446302Y-92633651D01*
X146446302Y-92829873D01*
X146427996Y-92874067D01*
X146383802Y-92892373D01*
X146339608Y-92874067D01*
X145627487Y-92161946D01*
X145609181Y-92117752D01*
X145627487Y-92073558D01*
X145671681Y-92055252D01*
X145681453Y-92056021D01*
X145742013Y-92065613D01*
X145860121Y-92046907D01*
X145966668Y-91992618D01*
X146051224Y-91908062D01*
X146105513Y-91801515D01*
X146124219Y-91683407D01*
X146105513Y-91565299D01*
X146105511Y-91565296D01*
X146105511Y-91565294D01*
X146063006Y-91481874D01*
X146059253Y-91434186D01*
X146090320Y-91397812D01*
X146118694Y-91391000D01*
X146287990Y-91391000D01*
X146287992Y-91391000D01*
X146358193Y-91361922D01*
X147517049Y-90203064D01*
X147561242Y-90184759D01*
X147605436Y-90203065D01*
X147623105Y-90238363D01*
X147624316Y-90246781D01*
X147637130Y-90335909D01*
X147637131Y-90335912D01*
X147694170Y-90460809D01*
X147694173Y-90460814D01*
X147784090Y-90564583D01*
X147879015Y-90625587D01*
X147899600Y-90638816D01*
X147977097Y-90661571D01*
X148031343Y-90677499D01*
X148031345Y-90677500D01*
X148031346Y-90677500D01*
X148168654Y-90677500D01*
X148240315Y-90656458D01*
X148287875Y-90661571D01*
X148302117Y-90672232D01*
X148654194Y-91024309D01*
X148672500Y-91068503D01*
X148672500Y-91631212D01*
X148683523Y-91686633D01*
X148683524Y-91686635D01*
X148725517Y-91749482D01*
X148788364Y-91791475D01*
X148788366Y-91791476D01*
X148843788Y-91802500D01*
X149006212Y-91802500D01*
X149061634Y-91791476D01*
X149124482Y-91749482D01*
X149124483Y-91749481D01*
X149128835Y-91745130D01*
X149130420Y-91746715D01*
X149162805Y-91725075D01*
X149209722Y-91734406D01*
X149220805Y-91745489D01*
X149221165Y-91745130D01*
X149225516Y-91749481D01*
X149288364Y-91791475D01*
X149288366Y-91791476D01*
X149343788Y-91802500D01*
X149506212Y-91802500D01*
X149561634Y-91791476D01*
X149624482Y-91749482D01*
X149624483Y-91749481D01*
X149628835Y-91745130D01*
X149630420Y-91746715D01*
X149662805Y-91725075D01*
X149709722Y-91734406D01*
X149720805Y-91745489D01*
X149721165Y-91745130D01*
X149725516Y-91749481D01*
X149788364Y-91791475D01*
X149788366Y-91791476D01*
X149843788Y-91802500D01*
X150006212Y-91802500D01*
X150061634Y-91791476D01*
X150124482Y-91749482D01*
X150166476Y-91686634D01*
X150177500Y-91631212D01*
X150177500Y-90918788D01*
X150166476Y-90863366D01*
X150166474Y-90863363D01*
X150163032Y-90858211D01*
X150152500Y-90823490D01*
X150152500Y-90679749D01*
X150152499Y-90679745D01*
X150136231Y-90640468D01*
X150136232Y-90592633D01*
X150166522Y-90560403D01*
X150257662Y-90515848D01*
X150313510Y-90460000D01*
X150550021Y-90460000D01*
X150568727Y-90578108D01*
X150568727Y-90578109D01*
X150623016Y-90684655D01*
X150679194Y-90740833D01*
X150697500Y-90785027D01*
X150697500Y-90823490D01*
X150686968Y-90858211D01*
X150683525Y-90863363D01*
X150683523Y-90863367D01*
X150672500Y-90918787D01*
X150672500Y-91631212D01*
X150683523Y-91686633D01*
X150683524Y-91686635D01*
X150725517Y-91749482D01*
X150788364Y-91791475D01*
X150788366Y-91791476D01*
X150843788Y-91802500D01*
X151006212Y-91802500D01*
X151061634Y-91791476D01*
X151124482Y-91749482D01*
X151124483Y-91749481D01*
X151128835Y-91745130D01*
X151130420Y-91746715D01*
X151162805Y-91725075D01*
X151209722Y-91734406D01*
X151220805Y-91745489D01*
X151221165Y-91745130D01*
X151225516Y-91749481D01*
X151288364Y-91791475D01*
X151288366Y-91791476D01*
X151343788Y-91802500D01*
X151506212Y-91802500D01*
X151561634Y-91791476D01*
X151624482Y-91749482D01*
X151624483Y-91749481D01*
X151628835Y-91745130D01*
X151630420Y-91746715D01*
X151662805Y-91725075D01*
X151709722Y-91734406D01*
X151720805Y-91745489D01*
X151721165Y-91745130D01*
X151725516Y-91749481D01*
X151788364Y-91791475D01*
X151788366Y-91791476D01*
X151843788Y-91802500D01*
X152006212Y-91802500D01*
X152061634Y-91791476D01*
X152124482Y-91749482D01*
X152166476Y-91686634D01*
X152177500Y-91631212D01*
X152177500Y-91058975D01*
X152195806Y-91014781D01*
X152514781Y-90695806D01*
X152558975Y-90677500D01*
X154245253Y-90677500D01*
X154273124Y-90665955D01*
X154328864Y-90642867D01*
X154328864Y-90642866D01*
X154328868Y-90642865D01*
X155525928Y-89445806D01*
X155570122Y-89427500D01*
X155910001Y-89427500D01*
X155954195Y-89445806D01*
X155972501Y-89490000D01*
X155972501Y-89729544D01*
X155978971Y-89778699D01*
X155978972Y-89778701D01*
X156029272Y-89886569D01*
X156098509Y-89955806D01*
X156116815Y-90000000D01*
X156098509Y-90044194D01*
X156029273Y-90113430D01*
X156029272Y-90113430D01*
X155978970Y-90221301D01*
X155972500Y-90270448D01*
X155972500Y-90510000D01*
X155954194Y-90554194D01*
X155910000Y-90572500D01*
X155554744Y-90572500D01*
X155477077Y-90604671D01*
X155477078Y-90604672D01*
X155471133Y-90607134D01*
X155471130Y-90607136D01*
X154507136Y-91571130D01*
X154507132Y-91571135D01*
X154470144Y-91660434D01*
X154467692Y-91659418D01*
X154446623Y-91690928D01*
X154399703Y-91700245D01*
X154367723Y-91683144D01*
X154344411Y-91659832D01*
X154237864Y-91605543D01*
X154119756Y-91586837D01*
X154001647Y-91605543D01*
X154001646Y-91605543D01*
X153895100Y-91659832D01*
X153875739Y-91679194D01*
X153831545Y-91697500D01*
X153088466Y-91697500D01*
X153088465Y-91697500D01*
X153088459Y-91697501D01*
X153017889Y-91716410D01*
X153014678Y-91717741D01*
X152990758Y-91722500D01*
X152768788Y-91722500D01*
X152713366Y-91733523D01*
X152713364Y-91733524D01*
X152650517Y-91775517D01*
X152608524Y-91838364D01*
X152608523Y-91838366D01*
X152597500Y-91893787D01*
X152597500Y-92056212D01*
X152608523Y-92111633D01*
X152608524Y-92111635D01*
X152650518Y-92174483D01*
X152654870Y-92178835D01*
X152653285Y-92180419D01*
X152674926Y-92212815D01*
X152665587Y-92259730D01*
X152654511Y-92270806D01*
X152654870Y-92271165D01*
X152650518Y-92275516D01*
X152608524Y-92338364D01*
X152608523Y-92338366D01*
X152597500Y-92393787D01*
X152597500Y-92556212D01*
X152608523Y-92611633D01*
X152608524Y-92611635D01*
X152650518Y-92674483D01*
X152654870Y-92678835D01*
X152653285Y-92680419D01*
X152674926Y-92712815D01*
X152665587Y-92759730D01*
X152654511Y-92770806D01*
X152654870Y-92771165D01*
X152650518Y-92775516D01*
X152608524Y-92838364D01*
X152608523Y-92838366D01*
X152597500Y-92893787D01*
X152597500Y-93056212D01*
X152608523Y-93111633D01*
X152608524Y-93111635D01*
X152650518Y-93174483D01*
X152654870Y-93178835D01*
X152653285Y-93180419D01*
X152674926Y-93212815D01*
X152665587Y-93259730D01*
X152654511Y-93270806D01*
X152654870Y-93271165D01*
X152650518Y-93275516D01*
X152608524Y-93338364D01*
X152608523Y-93338366D01*
X152597500Y-93393787D01*
X152597500Y-93556212D01*
X152608523Y-93611633D01*
X152608524Y-93611635D01*
X152650517Y-93674482D01*
X152713364Y-93716475D01*
X152713366Y-93716476D01*
X152768788Y-93727500D01*
X152990296Y-93727500D01*
X153013936Y-93733836D01*
X153014518Y-93732433D01*
X153018295Y-93733997D01*
X153018300Y-93734000D01*
X153088877Y-93752911D01*
X153817746Y-93752911D01*
X153861940Y-93771217D01*
X153875345Y-93784622D01*
X153981892Y-93838911D01*
X154100000Y-93857617D01*
X154218108Y-93838911D01*
X154324655Y-93784622D01*
X154409211Y-93700066D01*
X154463500Y-93593519D01*
X154482206Y-93475411D01*
X154463500Y-93357303D01*
X154430925Y-93293373D01*
X154427173Y-93245687D01*
X154458239Y-93209312D01*
X154486614Y-93202500D01*
X154854879Y-93202500D01*
X154899072Y-93220805D01*
X155271132Y-93592866D01*
X155354747Y-93627500D01*
X155445253Y-93627500D01*
X155910001Y-93627500D01*
X155954195Y-93645806D01*
X155972501Y-93690000D01*
X155972501Y-93929544D01*
X155978971Y-93978699D01*
X155978972Y-93978701D01*
X156029272Y-94086569D01*
X156098509Y-94155806D01*
X156116815Y-94200000D01*
X156098509Y-94244194D01*
X156029273Y-94313430D01*
X156029272Y-94313430D01*
X155978970Y-94421301D01*
X155972500Y-94470448D01*
X155972500Y-94710000D01*
X155954194Y-94754194D01*
X155910000Y-94772500D01*
X155620121Y-94772500D01*
X155575927Y-94754194D01*
X155103869Y-94282136D01*
X155103864Y-94282132D01*
X155020255Y-94247500D01*
X155020253Y-94247500D01*
X153576510Y-94247500D01*
X153541787Y-94236967D01*
X153536634Y-94233524D01*
X153536633Y-94233523D01*
X153481212Y-94222500D01*
X152768788Y-94222500D01*
X152713366Y-94233523D01*
X152713364Y-94233524D01*
X152650517Y-94275517D01*
X152608524Y-94338364D01*
X152608523Y-94338366D01*
X152597500Y-94393787D01*
X152597500Y-94556212D01*
X152608523Y-94611633D01*
X152608524Y-94611635D01*
X152650517Y-94674482D01*
X152713364Y-94716475D01*
X152713366Y-94716476D01*
X152768788Y-94727500D01*
X153481212Y-94727500D01*
X153536634Y-94716476D01*
X153541787Y-94713032D01*
X153576510Y-94702500D01*
X154854879Y-94702500D01*
X154899073Y-94720806D01*
X155307135Y-95128868D01*
X155371132Y-95192865D01*
X155371133Y-95192865D01*
X155371135Y-95192867D01*
X155454744Y-95227499D01*
X155454747Y-95227500D01*
X155910001Y-95227500D01*
X155954195Y-95245806D01*
X155972501Y-95290000D01*
X155972501Y-95529544D01*
X155978971Y-95578699D01*
X155978972Y-95578701D01*
X156029272Y-95686569D01*
X156113430Y-95770727D01*
X156113431Y-95770727D01*
X156113432Y-95770728D01*
X156221301Y-95821029D01*
X156270455Y-95827500D01*
X157329544Y-95827499D01*
X157378699Y-95821029D01*
X157486568Y-95770728D01*
X157486569Y-95770727D01*
X157486570Y-95770727D01*
X157570727Y-95686570D01*
X157570727Y-95686569D01*
X157570728Y-95686568D01*
X157621029Y-95578699D01*
X157627500Y-95529545D01*
X157627499Y-94470456D01*
X157621029Y-94421301D01*
X157570728Y-94313432D01*
X157570727Y-94313431D01*
X157570727Y-94313430D01*
X157501491Y-94244194D01*
X157483185Y-94200000D01*
X157501491Y-94155806D01*
X157570727Y-94086570D01*
X157570727Y-94086569D01*
X157570728Y-94086568D01*
X157621029Y-93978699D01*
X157627500Y-93929545D01*
X157627499Y-92870456D01*
X157621029Y-92821301D01*
X157570728Y-92713432D01*
X157570727Y-92713431D01*
X157570727Y-92713430D01*
X157486569Y-92629272D01*
X157378698Y-92578970D01*
X157329545Y-92572500D01*
X156270464Y-92572500D01*
X156270462Y-92572500D01*
X156270456Y-92572501D01*
X156221301Y-92578971D01*
X156221299Y-92578971D01*
X156221298Y-92578972D01*
X156113430Y-92629272D01*
X156113430Y-92629273D01*
X156029273Y-92713430D01*
X156029272Y-92713430D01*
X155978970Y-92821301D01*
X155972500Y-92870448D01*
X155972500Y-93110000D01*
X155954194Y-93154194D01*
X155910000Y-93172500D01*
X155520122Y-93172500D01*
X155475928Y-93154194D01*
X155103869Y-92782136D01*
X155103864Y-92782132D01*
X155020255Y-92747500D01*
X155020253Y-92747500D01*
X154625121Y-92747500D01*
X154580927Y-92729194D01*
X154562621Y-92685000D01*
X154580927Y-92640806D01*
X154718253Y-92503480D01*
X154892866Y-92328868D01*
X154927500Y-92245253D01*
X154927500Y-92154747D01*
X154927500Y-91820121D01*
X154945806Y-91775927D01*
X155675927Y-91045806D01*
X155720121Y-91027500D01*
X155910001Y-91027500D01*
X155954195Y-91045806D01*
X155972501Y-91090000D01*
X155972501Y-91329544D01*
X155978971Y-91378699D01*
X155978972Y-91378701D01*
X156029272Y-91486569D01*
X156113430Y-91570727D01*
X156113431Y-91570727D01*
X156113432Y-91570728D01*
X156221301Y-91621029D01*
X156270455Y-91627500D01*
X157329544Y-91627499D01*
X157378699Y-91621029D01*
X157486568Y-91570728D01*
X157486569Y-91570727D01*
X157486570Y-91570727D01*
X157570727Y-91486570D01*
X157570727Y-91486569D01*
X157570728Y-91486568D01*
X157621029Y-91378699D01*
X157627500Y-91329545D01*
X157627499Y-90270456D01*
X157621029Y-90221301D01*
X157570728Y-90113432D01*
X157570727Y-90113431D01*
X157570727Y-90113430D01*
X157501491Y-90044194D01*
X157483185Y-90000000D01*
X157501491Y-89955806D01*
X157570727Y-89886570D01*
X157570727Y-89886569D01*
X157570728Y-89886568D01*
X157621029Y-89778699D01*
X157627500Y-89729545D01*
X157627499Y-88670456D01*
X157621029Y-88621301D01*
X157570728Y-88513432D01*
X157570727Y-88513431D01*
X157570727Y-88513430D01*
X157486569Y-88429272D01*
X157378698Y-88378970D01*
X157329545Y-88372500D01*
X156270464Y-88372500D01*
X156270462Y-88372500D01*
X156270456Y-88372501D01*
X156221301Y-88378971D01*
X156221299Y-88378971D01*
X156221298Y-88378972D01*
X156113430Y-88429272D01*
X156113430Y-88429273D01*
X156029273Y-88513430D01*
X156029272Y-88513430D01*
X155978970Y-88621301D01*
X155972500Y-88670448D01*
X155972500Y-88910000D01*
X155954194Y-88954194D01*
X155910000Y-88972500D01*
X155404747Y-88972500D01*
X155321133Y-89007133D01*
X155321130Y-89007135D01*
X154332164Y-89996101D01*
X154287970Y-90014407D01*
X154243776Y-89996101D01*
X154225470Y-89951907D01*
X154226122Y-89942904D01*
X154227500Y-89933453D01*
X154227499Y-89366548D01*
X154217517Y-89298028D01*
X154165848Y-89192338D01*
X154082662Y-89109152D01*
X153976972Y-89057483D01*
X153953425Y-89054052D01*
X153930988Y-89050783D01*
X153889895Y-89026296D01*
X153877500Y-88988936D01*
X153877500Y-88620121D01*
X153895806Y-88575927D01*
X154016989Y-88454744D01*
X154192866Y-88278868D01*
X154227500Y-88195253D01*
X154227500Y-88104747D01*
X154227500Y-87089999D01*
X154245806Y-87045805D01*
X154290000Y-87027499D01*
X154529536Y-87027499D01*
X154529544Y-87027499D01*
X154578699Y-87021029D01*
X154686568Y-86970728D01*
X154686569Y-86970727D01*
X154686570Y-86970727D01*
X154770727Y-86886570D01*
X154770727Y-86886569D01*
X154770728Y-86886568D01*
X154821029Y-86778699D01*
X154827500Y-86729545D01*
X154827499Y-85670456D01*
X154821029Y-85621301D01*
X154770728Y-85513432D01*
X154770727Y-85513431D01*
X154770727Y-85513430D01*
X154686569Y-85429272D01*
X154578698Y-85378970D01*
X154529545Y-85372500D01*
X153470464Y-85372500D01*
X153470462Y-85372500D01*
X153470456Y-85372501D01*
X153421301Y-85378971D01*
X153421299Y-85378971D01*
X153421298Y-85378972D01*
X153313430Y-85429272D01*
X153313430Y-85429273D01*
X153229273Y-85513430D01*
X153229272Y-85513430D01*
X153178970Y-85621301D01*
X153172500Y-85670448D01*
X153172500Y-86729535D01*
X153172500Y-86729536D01*
X153172501Y-86729544D01*
X153178971Y-86778699D01*
X153178972Y-86778701D01*
X153229272Y-86886569D01*
X153313430Y-86970727D01*
X153313431Y-86970727D01*
X153313432Y-86970728D01*
X153421301Y-87021029D01*
X153470455Y-87027500D01*
X153710000Y-87027499D01*
X153754194Y-87045805D01*
X153772500Y-87089999D01*
X153772500Y-88029878D01*
X153754194Y-88074072D01*
X153521132Y-88307135D01*
X153457136Y-88371130D01*
X153457132Y-88371135D01*
X153422500Y-88454744D01*
X153422500Y-88988937D01*
X153404194Y-89033131D01*
X153369011Y-89050784D01*
X153342850Y-89054595D01*
X153323028Y-89057483D01*
X153276699Y-89080132D01*
X153217337Y-89109152D01*
X153134152Y-89192337D01*
X153082482Y-89298030D01*
X153072500Y-89366547D01*
X153072500Y-89933451D01*
X153082482Y-90001969D01*
X153082483Y-90001972D01*
X153123638Y-90086156D01*
X153134152Y-90107662D01*
X153142296Y-90115806D01*
X153160602Y-90160000D01*
X153142296Y-90204194D01*
X153098102Y-90222500D01*
X152651898Y-90222500D01*
X152607704Y-90204194D01*
X152589398Y-90160000D01*
X152607704Y-90115806D01*
X152610080Y-90113430D01*
X152615848Y-90107662D01*
X152667517Y-90001972D01*
X152677500Y-89933453D01*
X152677499Y-89366548D01*
X152667517Y-89298028D01*
X152615848Y-89192338D01*
X152532662Y-89109152D01*
X152426972Y-89057483D01*
X152426970Y-89057482D01*
X152426969Y-89057482D01*
X152372539Y-89049552D01*
X152358453Y-89047500D01*
X152358452Y-89047500D01*
X151841548Y-89047500D01*
X151773030Y-89057482D01*
X151773029Y-89057482D01*
X151773028Y-89057483D01*
X151726699Y-89080132D01*
X151667337Y-89109152D01*
X151584152Y-89192337D01*
X151532482Y-89298030D01*
X151522500Y-89366547D01*
X151522500Y-89416656D01*
X151504194Y-89460850D01*
X151460000Y-89479156D01*
X151430173Y-89470109D01*
X151430063Y-89470377D01*
X151427350Y-89469253D01*
X151425281Y-89468626D01*
X151424377Y-89468022D01*
X151424371Y-89468019D01*
X151346348Y-89452500D01*
X150953652Y-89452500D01*
X150875628Y-89468019D01*
X150875624Y-89468021D01*
X150787143Y-89527143D01*
X150728021Y-89615624D01*
X150728019Y-89615628D01*
X150712867Y-89691805D01*
X150712500Y-89693652D01*
X150712500Y-90026348D01*
X150724396Y-90086156D01*
X150725811Y-90093267D01*
X150716479Y-90140183D01*
X150708706Y-90149654D01*
X150623016Y-90235344D01*
X150568727Y-90341890D01*
X150568727Y-90341891D01*
X150550021Y-90460000D01*
X150313510Y-90460000D01*
X150340848Y-90432662D01*
X150392517Y-90326972D01*
X150402500Y-90258453D01*
X150402499Y-89741548D01*
X150392517Y-89673028D01*
X150340848Y-89567338D01*
X150257662Y-89484152D01*
X150151972Y-89432483D01*
X150151970Y-89432482D01*
X150151969Y-89432482D01*
X150097539Y-89424552D01*
X150083453Y-89422500D01*
X150083452Y-89422500D01*
X149516548Y-89422500D01*
X149448030Y-89432482D01*
X149448029Y-89432482D01*
X149448028Y-89432483D01*
X149420776Y-89445806D01*
X149342337Y-89484152D01*
X149259152Y-89567337D01*
X149207482Y-89673030D01*
X149197500Y-89741547D01*
X149197500Y-90076497D01*
X149179194Y-90120691D01*
X149135000Y-90138997D01*
X149090806Y-90120691D01*
X148467694Y-89497579D01*
X148467693Y-89497578D01*
X148397492Y-89468500D01*
X147828492Y-89468500D01*
X147752508Y-89468500D01*
X147682308Y-89497577D01*
X147682305Y-89497579D01*
X146189191Y-90990694D01*
X146144997Y-91009000D01*
X144462008Y-91009000D01*
X144391808Y-91038077D01*
X144391805Y-91038079D01*
X144321637Y-91108247D01*
X144277443Y-91126553D01*
X144233249Y-91108247D01*
X144219701Y-91087971D01*
X144192867Y-91023189D01*
X144192863Y-91023184D01*
X143923678Y-90753999D01*
X143905372Y-90709805D01*
X143905372Y-90453578D01*
X143889852Y-90375553D01*
X143830729Y-90287069D01*
X143757837Y-90238364D01*
X143742247Y-90227947D01*
X143742243Y-90227945D01*
X143664220Y-90212426D01*
X143584286Y-90212426D01*
X143540092Y-90194120D01*
X143521786Y-90149926D01*
X143540092Y-90105732D01*
X143555911Y-90094238D01*
X143557817Y-90093267D01*
X143624655Y-90059211D01*
X143688060Y-89995806D01*
X143732254Y-89977500D01*
X145795253Y-89977500D01*
X145823124Y-89965955D01*
X145878864Y-89942867D01*
X145878864Y-89942866D01*
X145878868Y-89942865D01*
X147125928Y-88695806D01*
X147170122Y-88677500D01*
X149138937Y-88677500D01*
X149183131Y-88695806D01*
X149200784Y-88730989D01*
X149207483Y-88776972D01*
X149259152Y-88882662D01*
X149342338Y-88965848D01*
X149448028Y-89017517D01*
X149516547Y-89027500D01*
X150083452Y-89027499D01*
X150151972Y-89017517D01*
X150257662Y-88965848D01*
X150340848Y-88882662D01*
X150392517Y-88776972D01*
X150402500Y-88708453D01*
X150402500Y-88590000D01*
X150420806Y-88545806D01*
X150465000Y-88527500D01*
X151345253Y-88527500D01*
X151379216Y-88513432D01*
X151428864Y-88492867D01*
X151428864Y-88492866D01*
X151428868Y-88492865D01*
X152392865Y-87528868D01*
X152404803Y-87500047D01*
X152427500Y-87445253D01*
X152427500Y-87089999D01*
X152445806Y-87045805D01*
X152490000Y-87027499D01*
X152729536Y-87027499D01*
X152729544Y-87027499D01*
X152778699Y-87021029D01*
X152886568Y-86970728D01*
X152886569Y-86970727D01*
X152886570Y-86970727D01*
X152970727Y-86886570D01*
X152970727Y-86886569D01*
X152970728Y-86886568D01*
X153021029Y-86778699D01*
X153027500Y-86729545D01*
X153027499Y-85670456D01*
X153021029Y-85621301D01*
X152970728Y-85513432D01*
X152970727Y-85513431D01*
X152970727Y-85513430D01*
X152886569Y-85429272D01*
X152778698Y-85378970D01*
X152729545Y-85372500D01*
X151670464Y-85372500D01*
X151670462Y-85372500D01*
X151670456Y-85372501D01*
X151621301Y-85378971D01*
X151621299Y-85378971D01*
X151621298Y-85378972D01*
X151513430Y-85429272D01*
X151513430Y-85429273D01*
X151429273Y-85513430D01*
X151429272Y-85513430D01*
X151378970Y-85621301D01*
X151372500Y-85670448D01*
X151372500Y-86729535D01*
X151372500Y-86729536D01*
X151372501Y-86729544D01*
X151378971Y-86778699D01*
X151378972Y-86778701D01*
X151429272Y-86886569D01*
X151513430Y-86970727D01*
X151513431Y-86970727D01*
X151513432Y-86970728D01*
X151621301Y-87021029D01*
X151670455Y-87027500D01*
X151910000Y-87027499D01*
X151954194Y-87045805D01*
X151972500Y-87089999D01*
X151972500Y-87279879D01*
X151954194Y-87324073D01*
X151224073Y-88054194D01*
X151179879Y-88072500D01*
X150406829Y-88072500D01*
X150362635Y-88054194D01*
X150350681Y-88037451D01*
X150340848Y-88017338D01*
X150257662Y-87934152D01*
X150151972Y-87882483D01*
X150151970Y-87882482D01*
X150151969Y-87882482D01*
X150097539Y-87874552D01*
X150083453Y-87872500D01*
X150083452Y-87872500D01*
X149516548Y-87872500D01*
X149448030Y-87882482D01*
X149448029Y-87882482D01*
X149448028Y-87882483D01*
X149412197Y-87900000D01*
X149342337Y-87934152D01*
X149259152Y-88017337D01*
X149207482Y-88123030D01*
X149203316Y-88151622D01*
X149202097Y-88160000D01*
X149200784Y-88169010D01*
X149176298Y-88210104D01*
X149138937Y-88222500D01*
X148560786Y-88222500D01*
X148516592Y-88204194D01*
X148498286Y-88160000D01*
X148508151Y-88129634D01*
X148506978Y-88129037D01*
X148510040Y-88123028D01*
X148563500Y-88018108D01*
X148582206Y-87900000D01*
X148563500Y-87781892D01*
X148509211Y-87675345D01*
X148424655Y-87590789D01*
X148318108Y-87536500D01*
X148200000Y-87517794D01*
X148081891Y-87536500D01*
X148081890Y-87536500D01*
X147975344Y-87590789D01*
X147911940Y-87654194D01*
X147867746Y-87672500D01*
X146804744Y-87672500D01*
X146721135Y-87707132D01*
X146721130Y-87707136D01*
X145401073Y-89027194D01*
X145356879Y-89045500D01*
X143157164Y-89045500D01*
X143073555Y-89080132D01*
X143073550Y-89080136D01*
X143033842Y-89119845D01*
X142802678Y-89351007D01*
X142768261Y-89368544D01*
X142654888Y-89386500D01*
X142654887Y-89386500D01*
X142548341Y-89440789D01*
X142463786Y-89525344D01*
X142409497Y-89631890D01*
X142409497Y-89631891D01*
X142390791Y-89750000D01*
X142401924Y-89820295D01*
X142390756Y-89866808D01*
X142349969Y-89891802D01*
X142303456Y-89880634D01*
X142295999Y-89874265D01*
X142245806Y-89824072D01*
X142227500Y-89779878D01*
X142227500Y-87089999D01*
X142245806Y-87045805D01*
X142290000Y-87027499D01*
X142529536Y-87027499D01*
X142529544Y-87027499D01*
X142578699Y-87021029D01*
X142686568Y-86970728D01*
X142686569Y-86970727D01*
X142686570Y-86970727D01*
X142755806Y-86901491D01*
X142800000Y-86883185D01*
X142844194Y-86901491D01*
X142913430Y-86970727D01*
X142913431Y-86970727D01*
X142913432Y-86970728D01*
X143021301Y-87021029D01*
X143070455Y-87027500D01*
X144129544Y-87027499D01*
X144178699Y-87021029D01*
X144286568Y-86970728D01*
X144286569Y-86970727D01*
X144286570Y-86970727D01*
X144370727Y-86886570D01*
X144370727Y-86886569D01*
X144370728Y-86886568D01*
X144421029Y-86778699D01*
X144427500Y-86729545D01*
X144427499Y-85670456D01*
X144427498Y-85670448D01*
X146572500Y-85670448D01*
X146572500Y-86729535D01*
X146572500Y-86729536D01*
X146572501Y-86729544D01*
X146578971Y-86778699D01*
X146578972Y-86778701D01*
X146629272Y-86886569D01*
X146713430Y-86970727D01*
X146713431Y-86970727D01*
X146713432Y-86970728D01*
X146821301Y-87021029D01*
X146870455Y-87027500D01*
X147929544Y-87027499D01*
X147978699Y-87021029D01*
X148086568Y-86970728D01*
X148086569Y-86970727D01*
X148086570Y-86970727D01*
X148170727Y-86886570D01*
X148170727Y-86886569D01*
X148170728Y-86886568D01*
X148221029Y-86778699D01*
X148227500Y-86729545D01*
X148227499Y-85670456D01*
X148221029Y-85621301D01*
X148170728Y-85513432D01*
X148170727Y-85513431D01*
X148170727Y-85513430D01*
X148086569Y-85429272D01*
X147978698Y-85378970D01*
X147929545Y-85372500D01*
X146870464Y-85372500D01*
X146870462Y-85372500D01*
X146870456Y-85372501D01*
X146821301Y-85378971D01*
X146821299Y-85378971D01*
X146821298Y-85378972D01*
X146713430Y-85429272D01*
X146713430Y-85429273D01*
X146629273Y-85513430D01*
X146629272Y-85513430D01*
X146578970Y-85621301D01*
X146572500Y-85670448D01*
X144427498Y-85670448D01*
X144421029Y-85621301D01*
X144370728Y-85513432D01*
X144370727Y-85513431D01*
X144370727Y-85513430D01*
X144286569Y-85429272D01*
X144178698Y-85378970D01*
X144129545Y-85372500D01*
X143070464Y-85372500D01*
X143070462Y-85372500D01*
X143070456Y-85372501D01*
X143021301Y-85378971D01*
X143021299Y-85378971D01*
X143021298Y-85378972D01*
X142913430Y-85429272D01*
X142913430Y-85429273D01*
X142844194Y-85498509D01*
X142800000Y-85516815D01*
X142755806Y-85498509D01*
X142686569Y-85429272D01*
X142578698Y-85378970D01*
X142529545Y-85372500D01*
X141470464Y-85372500D01*
X141470462Y-85372500D01*
X141470456Y-85372501D01*
X141421301Y-85378971D01*
X141421299Y-85378971D01*
X141421298Y-85378972D01*
X141313430Y-85429272D01*
X141313430Y-85429273D01*
X141229273Y-85513430D01*
X141229272Y-85513430D01*
X141178970Y-85621301D01*
X141172500Y-85670448D01*
X141172500Y-86729535D01*
X141172500Y-86729536D01*
X141172501Y-86729544D01*
X141178971Y-86778699D01*
X141178972Y-86778701D01*
X141229272Y-86886569D01*
X141313430Y-86970727D01*
X141313431Y-86970727D01*
X141313432Y-86970728D01*
X141421301Y-87021029D01*
X141470455Y-87027500D01*
X141710000Y-87027499D01*
X141754194Y-87045805D01*
X141772500Y-87089999D01*
X141772500Y-89945255D01*
X141807132Y-90028864D01*
X141807134Y-90028867D01*
X141807135Y-90028868D01*
X142621058Y-90842792D01*
X142680179Y-90867279D01*
X142680181Y-90867281D01*
X142680182Y-90867281D01*
X142704673Y-90877426D01*
X142704674Y-90877426D01*
X142795179Y-90877426D01*
X143045276Y-90877426D01*
X143089470Y-90895732D01*
X143102033Y-90919235D01*
X143103537Y-90918613D01*
X143105892Y-90924300D01*
X143129205Y-90959189D01*
X143165015Y-91012783D01*
X143253499Y-91071906D01*
X143331524Y-91087426D01*
X143587751Y-91087426D01*
X143631945Y-91105732D01*
X143751443Y-91225230D01*
X143753891Y-91231142D01*
X143759213Y-91234697D01*
X143762771Y-91252579D01*
X143769749Y-91269424D01*
X143768549Y-91281612D01*
X143765452Y-91297188D01*
X143738879Y-91336964D01*
X143704152Y-91347500D01*
X143591699Y-91347500D01*
X143556975Y-91336966D01*
X143519651Y-91312027D01*
X143500962Y-91299539D01*
X143500961Y-91299538D01*
X143500960Y-91299538D01*
X143440437Y-91287500D01*
X143059565Y-91287500D01*
X143059561Y-91287501D01*
X142999039Y-91299538D01*
X142999035Y-91299540D01*
X142930401Y-91345401D01*
X142884540Y-91414035D01*
X142884538Y-91414039D01*
X142872500Y-91474562D01*
X142872500Y-91675434D01*
X142872501Y-91675438D01*
X142884538Y-91735960D01*
X142884541Y-91735967D01*
X142885084Y-91736779D01*
X142885274Y-91737736D01*
X142886896Y-91741652D01*
X142886117Y-91741974D01*
X142894415Y-91783695D01*
X142867837Y-91823468D01*
X142833116Y-91834000D01*
X141530003Y-91834000D01*
X141485809Y-91815694D01*
X141209306Y-91539191D01*
X141191000Y-91494997D01*
X141191000Y-89762010D01*
X141191000Y-89762008D01*
X141161922Y-89691807D01*
X141108193Y-89638078D01*
X140308193Y-88838078D01*
X140237992Y-88809000D01*
X140237991Y-88809000D01*
X140089999Y-88809000D01*
X140045805Y-88790694D01*
X140027499Y-88746500D01*
X140027499Y-88470464D01*
X140027499Y-88470456D01*
X140021029Y-88421301D01*
X139970728Y-88313432D01*
X139970727Y-88313431D01*
X139970727Y-88313430D01*
X139886569Y-88229272D01*
X139778698Y-88178970D01*
X139729545Y-88172500D01*
X138670464Y-88172500D01*
X138670462Y-88172500D01*
X138670456Y-88172501D01*
X138621301Y-88178971D01*
X138621299Y-88178971D01*
X138621298Y-88178972D01*
X138513430Y-88229272D01*
X138513430Y-88229273D01*
X138429273Y-88313430D01*
X138429272Y-88313430D01*
X138378970Y-88421301D01*
X138372500Y-88470448D01*
X138200500Y-88470448D01*
X138200500Y-87072377D01*
X138218806Y-87028183D01*
X138263000Y-87009877D01*
X138307194Y-87028183D01*
X138319644Y-87045963D01*
X138369431Y-87152733D01*
X138499953Y-87339140D01*
X138660859Y-87500046D01*
X138702015Y-87528863D01*
X138847266Y-87630568D01*
X138847265Y-87630568D01*
X138937189Y-87672500D01*
X139053504Y-87726739D01*
X139053506Y-87726739D01*
X139053507Y-87726740D01*
X139273295Y-87785632D01*
X139273301Y-87785633D01*
X139273308Y-87785635D01*
X139409323Y-87797534D01*
X139499998Y-87805468D01*
X139500000Y-87805468D01*
X139500002Y-87805468D01*
X139575564Y-87798857D01*
X139726692Y-87785635D01*
X139726701Y-87785632D01*
X139726704Y-87785632D01*
X139946492Y-87726740D01*
X139946491Y-87726740D01*
X139946496Y-87726739D01*
X140152734Y-87630568D01*
X140339139Y-87500047D01*
X140500047Y-87339139D01*
X140630568Y-87152734D01*
X140726739Y-86946496D01*
X140748345Y-86865860D01*
X140785632Y-86726704D01*
X140785632Y-86726701D01*
X140785635Y-86726692D01*
X140805468Y-86500000D01*
X140785635Y-86273308D01*
X140748345Y-86134140D01*
X140726740Y-86053507D01*
X140726739Y-86053505D01*
X140630568Y-85847266D01*
X140500046Y-85660859D01*
X140339140Y-85499953D01*
X140220547Y-85416915D01*
X140152734Y-85369432D01*
X140152732Y-85369431D01*
X140152734Y-85369431D01*
X140045964Y-85319644D01*
X140013647Y-85284376D01*
X140015734Y-85236586D01*
X140051002Y-85204269D01*
X140072378Y-85200500D01*
X155927622Y-85200500D01*
X155971816Y-85218806D01*
G37*
%TD.AperFunction*%
%TA.AperFunction,Conductor*%
G36*
X157781194Y-98191147D02*
G01*
X157799500Y-98235341D01*
X157799500Y-102927622D01*
X157781194Y-102971816D01*
X157737000Y-102990122D01*
X157692806Y-102971816D01*
X157680356Y-102954036D01*
X157630568Y-102847266D01*
X157500046Y-102660859D01*
X157339140Y-102499953D01*
X157220547Y-102416915D01*
X157152734Y-102369432D01*
X157152732Y-102369431D01*
X157152734Y-102369431D01*
X156946494Y-102273260D01*
X156946492Y-102273259D01*
X156726704Y-102214367D01*
X156726688Y-102214364D01*
X156500002Y-102194532D01*
X156499998Y-102194532D01*
X156273311Y-102214364D01*
X156273295Y-102214367D01*
X156053507Y-102273259D01*
X156053505Y-102273260D01*
X155847266Y-102369431D01*
X155660859Y-102499953D01*
X155499953Y-102660859D01*
X155369431Y-102847266D01*
X155273260Y-103053505D01*
X155273259Y-103053507D01*
X155214367Y-103273295D01*
X155214364Y-103273311D01*
X155194532Y-103499997D01*
X155194532Y-103500002D01*
X155214364Y-103726688D01*
X155214367Y-103726704D01*
X155273259Y-103946492D01*
X155273260Y-103946494D01*
X155369431Y-104152733D01*
X155499953Y-104339140D01*
X155660859Y-104500046D01*
X155688166Y-104519166D01*
X155847266Y-104630568D01*
X155847265Y-104630568D01*
X155954036Y-104680356D01*
X155986353Y-104715624D01*
X155984266Y-104763414D01*
X155948998Y-104795731D01*
X155927622Y-104799500D01*
X153141237Y-104799500D01*
X153097043Y-104781194D01*
X153078737Y-104737000D01*
X153097043Y-104692806D01*
X153112192Y-104681659D01*
X153118531Y-104678332D01*
X153229263Y-104620216D01*
X153343324Y-104519166D01*
X153429889Y-104393756D01*
X153468162Y-104292836D01*
X153500950Y-104258006D01*
X153526601Y-104252500D01*
X153601916Y-104252500D01*
X153601917Y-104252500D01*
X153694722Y-104214059D01*
X154682422Y-103226357D01*
X154721219Y-103210287D01*
X154720987Y-103208821D01*
X154725844Y-103208051D01*
X154725846Y-103208052D01*
X154843954Y-103189346D01*
X154950501Y-103135057D01*
X155035057Y-103050501D01*
X155089346Y-102943954D01*
X155108052Y-102825846D01*
X155108051Y-102825844D01*
X155108821Y-102820987D01*
X155110287Y-102821219D01*
X155126358Y-102782422D01*
X155383090Y-102525690D01*
X155664059Y-102244722D01*
X155702500Y-102151917D01*
X155702500Y-102051467D01*
X155702500Y-100712686D01*
X155664059Y-100619881D01*
X155593030Y-100548852D01*
X155305806Y-100261628D01*
X155287500Y-100217434D01*
X155287500Y-100123000D01*
X155271980Y-100044975D01*
X155212857Y-99956491D01*
X155153213Y-99916638D01*
X155124375Y-99897369D01*
X155124371Y-99897367D01*
X155046348Y-99881848D01*
X154653652Y-99881848D01*
X154575628Y-99897367D01*
X154575624Y-99897369D01*
X154534723Y-99924699D01*
X154487807Y-99934031D01*
X154448033Y-99907455D01*
X154437500Y-99872732D01*
X154437500Y-99850000D01*
X154427414Y-99799295D01*
X154427413Y-99799294D01*
X154427413Y-99799291D01*
X154412321Y-99762857D01*
X154411305Y-99760404D01*
X154411300Y-99760396D01*
X154411298Y-99760390D01*
X154397731Y-99735543D01*
X154397727Y-99735539D01*
X154347869Y-99695361D01*
X154324944Y-99653377D01*
X154338421Y-99607479D01*
X154342874Y-99602520D01*
X154387757Y-99557638D01*
X154442046Y-99451091D01*
X154460752Y-99332983D01*
X154442046Y-99214875D01*
X154387757Y-99108328D01*
X154303201Y-99023772D01*
X154274622Y-99009210D01*
X154196655Y-98969483D01*
X154196649Y-98969481D01*
X154113463Y-98956306D01*
X154072677Y-98931312D01*
X154061511Y-98884798D01*
X154067551Y-98866207D01*
X154076881Y-98847897D01*
X154095587Y-98729789D01*
X154076881Y-98611681D01*
X154022592Y-98505134D01*
X153956652Y-98439194D01*
X153938346Y-98395000D01*
X153956652Y-98350806D01*
X154000846Y-98332500D01*
X157352408Y-98332500D01*
X157352424Y-98332500D01*
X157365412Y-98331862D01*
X157373650Y-98331050D01*
X157377577Y-98330664D01*
X157377586Y-98330662D01*
X157377605Y-98330661D01*
X157390467Y-98328753D01*
X157502891Y-98306390D01*
X157527744Y-98298851D01*
X157550275Y-98289519D01*
X157573186Y-98277273D01*
X157663277Y-98217075D01*
X157683355Y-98200598D01*
X157692806Y-98191147D01*
X157737000Y-98172841D01*
X157781194Y-98191147D01*
G37*
%TD.AperFunction*%
M02*
