%TF.GenerationSoftware,KiCad,Pcbnew,8.99.0-2176-gc19aa8170b*%
%TF.CreationDate,2024-08-30T16:07:14-04:00*%
%TF.ProjectId,scampi,7363616d-7069-42e6-9b69-6361645f7063,rev?*%
%TF.SameCoordinates,Original*%
%TF.FileFunction,Soldermask,Bot*%
%TF.FilePolarity,Negative*%
%FSLAX46Y46*%
G04 Gerber Fmt 4.6, Leading zero omitted, Abs format (unit mm)*
G04 Created by KiCad (PCBNEW 8.99.0-2176-gc19aa8170b) date 2024-08-30 16:07:14*
%MOMM*%
%LPD*%
G01*
G04 APERTURE LIST*
G04 Aperture macros list*
%AMRoundRect*
0 Rectangle with rounded corners*
0 $1 Rounding radius*
0 $2 $3 $4 $5 $6 $7 $8 $9 X,Y pos of 4 corners*
0 Add a 4 corners polygon primitive as box body*
4,1,4,$2,$3,$4,$5,$6,$7,$8,$9,$2,$3,0*
0 Add four circle primitives for the rounded corners*
1,1,$1+$1,$2,$3*
1,1,$1+$1,$4,$5*
1,1,$1+$1,$6,$7*
1,1,$1+$1,$8,$9*
0 Add four rect primitives between the rounded corners*
20,1,$1+$1,$2,$3,$4,$5,0*
20,1,$1+$1,$4,$5,$6,$7,0*
20,1,$1+$1,$6,$7,$8,$9,0*
20,1,$1+$1,$8,$9,$2,$3,0*%
%AMFreePoly0*
4,1,19,0.500000,-0.675000,0.000000,-0.675000,0.000000,-0.669911,-0.071157,-0.669911,-0.207708,-0.629816,-0.327430,-0.552875,-0.420627,-0.445320,-0.479746,-0.315866,-0.500000,-0.175000,-0.500000,0.175000,-0.479746,0.315866,-0.420627,0.445320,-0.327430,0.552875,-0.207708,0.629816,-0.071157,0.669911,0.000000,0.669911,0.000000,0.675000,0.500000,0.675000,0.500000,-0.675000,0.500000,-0.675000,
$1*%
%AMFreePoly1*
4,1,19,0.000000,0.669911,0.071157,0.669911,0.207708,0.629816,0.327430,0.552875,0.420627,0.445320,0.479746,0.315866,0.500000,0.175000,0.500000,-0.175000,0.479746,-0.315866,0.420627,-0.445320,0.327430,-0.552875,0.207708,-0.629816,0.071157,-0.669911,0.000000,-0.669911,0.000000,-0.675000,-0.500000,-0.675000,-0.500000,0.675000,0.000000,0.675000,0.000000,0.669911,0.000000,0.669911,
$1*%
G04 Aperture macros list end*
%ADD10RoundRect,0.210000X-0.490000X-0.490000X0.490000X-0.490000X0.490000X0.490000X-0.490000X0.490000X0*%
%ADD11RoundRect,0.210000X0.490000X0.490000X-0.490000X0.490000X-0.490000X-0.490000X0.490000X-0.490000X0*%
%ADD12RoundRect,0.140000X0.140000X0.170000X-0.140000X0.170000X-0.140000X-0.170000X0.140000X-0.170000X0*%
%ADD13FreePoly0,90.000000*%
%ADD14FreePoly1,90.000000*%
%ADD15C,1.700000*%
%ADD16RoundRect,0.275000X1.125000X0.825000X-1.125000X0.825000X-1.125000X-0.825000X1.125000X-0.825000X0*%
%ADD17RoundRect,0.350000X1.050000X1.050000X-1.050000X1.050000X-1.050000X-1.050000X1.050000X-1.050000X0*%
%ADD18RoundRect,0.325000X1.075000X0.975000X-1.075000X0.975000X-1.075000X-0.975000X1.075000X-0.975000X0*%
%ADD19RoundRect,0.140000X-0.140000X-0.170000X0.140000X-0.170000X0.140000X0.170000X-0.140000X0.170000X0*%
%ADD20RoundRect,0.225000X0.250000X-0.225000X0.250000X0.225000X-0.250000X0.225000X-0.250000X-0.225000X0*%
%ADD21RoundRect,0.225000X0.225000X0.250000X-0.225000X0.250000X-0.225000X-0.250000X0.225000X-0.250000X0*%
G04 APERTURE END LIST*
D10*
%TO.C,TP9*%
X144400000Y-103800000D03*
%TD*%
%TO.C,SPKR-1*%
X156800000Y-90800000D03*
%TD*%
%TO.C,TP17*%
X145200000Y-86200000D03*
%TD*%
%TO.C,TP3*%
X139200000Y-90600000D03*
%TD*%
%TO.C,SPKL+1*%
X156800000Y-93400000D03*
%TD*%
%TO.C,TP13*%
X146000000Y-103800000D03*
%TD*%
%TO.C,TP1*%
X142000000Y-86200000D03*
%TD*%
%TO.C,SPKR+1*%
X156800000Y-89200000D03*
%TD*%
%TO.C,TP6*%
X156809832Y-99035239D03*
%TD*%
%TO.C,TP8*%
X142800000Y-103800000D03*
%TD*%
%TO.C,DET1*%
X147400000Y-86200000D03*
%TD*%
%TO.C,HPR1*%
X152200000Y-86200000D03*
%TD*%
%TO.C,TP16*%
X139200000Y-95400000D03*
%TD*%
%TO.C,TP15*%
X139200000Y-100800000D03*
%TD*%
%TO.C,TP2*%
X139200000Y-89000000D03*
%TD*%
%TO.C,TP18*%
X143600000Y-86200000D03*
%TD*%
%TO.C,TP5*%
X139200000Y-93800000D03*
%TD*%
%TO.C,SPVDD1*%
X156809832Y-97285239D03*
%TD*%
%TO.C,SPKL-1*%
X156800000Y-95000000D03*
%TD*%
%TO.C,TP4*%
X139200000Y-92200000D03*
%TD*%
D11*
%TO.C,VOL+1*%
X139200000Y-99200000D03*
%TD*%
%TO.C,VOL-1*%
X139200000Y-97600000D03*
%TD*%
D10*
%TO.C,HPL1*%
X154000000Y-86200000D03*
%TD*%
D12*
%TO.C,C12*%
X153460000Y-93475411D03*
X152500000Y-93475411D03*
%TD*%
D13*
%TO.C,JP3*%
X150300000Y-103800000D03*
D14*
X150300000Y-102600000D03*
%TD*%
D15*
%TO.C,J1*%
X146000000Y-95600000D03*
X146000000Y-88600000D03*
D16*
X142300000Y-89500000D03*
X149700000Y-87500000D03*
D17*
X149700000Y-96900000D03*
D18*
X145250000Y-100900000D03*
%TD*%
D13*
%TO.C,JP4*%
X148700000Y-103800000D03*
D14*
X148700000Y-102600000D03*
%TD*%
D13*
%TO.C,JP1*%
X153500000Y-103800000D03*
D14*
X153500000Y-102600000D03*
%TD*%
D19*
%TO.C,C10*%
X149704518Y-92703604D03*
X150664518Y-92703604D03*
%TD*%
D20*
%TO.C,C7*%
X151900000Y-90100000D03*
X151900000Y-88550000D03*
%TD*%
D13*
%TO.C,JP2*%
X151900000Y-103800000D03*
D14*
X151900000Y-102600000D03*
%TD*%
D21*
%TO.C,C6*%
X153800000Y-97600000D03*
X152250000Y-97600000D03*
%TD*%
D12*
%TO.C,C11*%
X153460000Y-91975000D03*
X152500000Y-91975000D03*
%TD*%
M02*
