%TF.GenerationSoftware,KiCad,Pcbnew,8.99.0-2176-gc19aa8170b*%
%TF.CreationDate,2024-08-30T16:07:14-04:00*%
%TF.ProjectId,scampi,7363616d-7069-42e6-9b69-6361645f7063,rev?*%
%TF.SameCoordinates,Original*%
%TF.FileFunction,Legend,Top*%
%TF.FilePolarity,Positive*%
%FSLAX46Y46*%
G04 Gerber Fmt 4.6, Leading zero omitted, Abs format (unit mm)*
G04 Created by KiCad (PCBNEW 8.99.0-2176-gc19aa8170b) date 2024-08-30 16:07:14*
%MOMM*%
%LPD*%
G01*
G04 APERTURE LIST*
%ADD10C,0.093750*%
%ADD11C,0.120000*%
%ADD12C,0.100000*%
G04 APERTURE END LIST*
D10*
G36*
X152577011Y-87190262D02*
G01*
X151899740Y-87190262D01*
X151884710Y-87191710D01*
X151872056Y-87195984D01*
X151862696Y-87202241D01*
X151855473Y-87210671D01*
X151847788Y-87233434D01*
X151847259Y-87242790D01*
X151847259Y-87325726D01*
X151848707Y-87340772D01*
X151852979Y-87353431D01*
X151859231Y-87362787D01*
X151867654Y-87370004D01*
X151890398Y-87377680D01*
X151899740Y-87378207D01*
X152168560Y-87378207D01*
X152168560Y-87635487D01*
X151899740Y-87635487D01*
X151884693Y-87636935D01*
X151872028Y-87641211D01*
X151862671Y-87647466D01*
X151855452Y-87655896D01*
X151847783Y-87678656D01*
X151847259Y-87687968D01*
X151847259Y-87769851D01*
X151848707Y-87784900D01*
X151852979Y-87797567D01*
X151859233Y-87806934D01*
X151867658Y-87814163D01*
X151890397Y-87821849D01*
X151899740Y-87822378D01*
X152577011Y-87822378D01*
X152592042Y-87820930D01*
X152604695Y-87816656D01*
X152614055Y-87810400D01*
X152621278Y-87801970D01*
X152628963Y-87779207D01*
X152629492Y-87769851D01*
X152629492Y-87687968D01*
X152628044Y-87672922D01*
X152623772Y-87660263D01*
X152617520Y-87650907D01*
X152609097Y-87643690D01*
X152586353Y-87636015D01*
X152577011Y-87635487D01*
X152331318Y-87635487D01*
X152331318Y-87378207D01*
X152577011Y-87378207D01*
X152592058Y-87376759D01*
X152604723Y-87372483D01*
X152614080Y-87366228D01*
X152621299Y-87357798D01*
X152628968Y-87335038D01*
X152629492Y-87325726D01*
X152629492Y-87242790D01*
X152628044Y-87227740D01*
X152623772Y-87215074D01*
X152617518Y-87205706D01*
X152609093Y-87198478D01*
X152586354Y-87190792D01*
X152577011Y-87190262D01*
G37*
G36*
X152586705Y-88003385D02*
G01*
X152609454Y-88011058D01*
X152617881Y-88018280D01*
X152624134Y-88027642D01*
X152628410Y-88040319D01*
X152629859Y-88055386D01*
X152629859Y-88289538D01*
X152626559Y-88354957D01*
X152614583Y-88420936D01*
X152595115Y-88474070D01*
X152568882Y-88516338D01*
X152535816Y-88549292D01*
X152516479Y-88562549D01*
X152494984Y-88573720D01*
X152471020Y-88582753D01*
X152444688Y-88589409D01*
X152415017Y-88593644D01*
X152382654Y-88595086D01*
X152374592Y-88594997D01*
X152343874Y-88592915D01*
X152315309Y-88588168D01*
X152288881Y-88580891D01*
X152264547Y-88571211D01*
X152241861Y-88559004D01*
X152221293Y-88544572D01*
X152202085Y-88527324D01*
X152185107Y-88507968D01*
X152169508Y-88485325D01*
X152156333Y-88460676D01*
X151909586Y-88599254D01*
X151884612Y-88607662D01*
X151865648Y-88604460D01*
X151857992Y-88598669D01*
X151852159Y-88590201D01*
X151848043Y-88577850D01*
X151846618Y-88562526D01*
X151846618Y-88466950D01*
X151848195Y-88450204D01*
X151852287Y-88437216D01*
X151858912Y-88425932D01*
X151869913Y-88414603D01*
X151884399Y-88405035D01*
X152121711Y-88281112D01*
X152121711Y-88274838D01*
X152269768Y-88274838D01*
X152269928Y-88284570D01*
X152276416Y-88331761D01*
X152290893Y-88366342D01*
X152312549Y-88390891D01*
X152326497Y-88399944D01*
X152342351Y-88406561D01*
X152361433Y-88410904D01*
X152382654Y-88412362D01*
X152409185Y-88409892D01*
X152437747Y-88398693D01*
X152449492Y-88389270D01*
X152459158Y-88377456D01*
X152467989Y-88360669D01*
X152474354Y-88340727D01*
X152479256Y-88310315D01*
X152480794Y-88274838D01*
X152480794Y-88190803D01*
X152269768Y-88190803D01*
X152269768Y-88274838D01*
X152121711Y-88274838D01*
X152121711Y-88190803D01*
X151899099Y-88190803D01*
X151889772Y-88190279D01*
X151867019Y-88182617D01*
X151858594Y-88175405D01*
X151852342Y-88166055D01*
X151848066Y-88153385D01*
X151846618Y-88138322D01*
X151846618Y-88055386D01*
X151847147Y-88046015D01*
X151854824Y-88023258D01*
X151862041Y-88014833D01*
X151871394Y-88008580D01*
X151884053Y-88004306D01*
X151899099Y-88002858D01*
X152577377Y-88002858D01*
X152586705Y-88003385D01*
G37*
G36*
X140421044Y-90967441D02*
G01*
X140454604Y-90965980D01*
X140486992Y-90961619D01*
X140517596Y-90954547D01*
X140546983Y-90944739D01*
X140574880Y-90932339D01*
X140601494Y-90917304D01*
X140641503Y-90887665D01*
X140650994Y-90877055D01*
X140656923Y-90865956D01*
X140659351Y-90855246D01*
X140658871Y-90844309D01*
X140649089Y-90821415D01*
X140643610Y-90814163D01*
X140611049Y-90775374D01*
X140599958Y-90764450D01*
X140588604Y-90757700D01*
X140578392Y-90755081D01*
X140567852Y-90755404D01*
X140544695Y-90764948D01*
X140538601Y-90769100D01*
X140515120Y-90783586D01*
X140489905Y-90794918D01*
X140467382Y-90801511D01*
X140443328Y-90805135D01*
X140428371Y-90805737D01*
X140404664Y-90804281D01*
X140382298Y-90799955D01*
X140361849Y-90793027D01*
X140342823Y-90783480D01*
X140309513Y-90756949D01*
X140282333Y-90720118D01*
X140261920Y-90672161D01*
X140249600Y-90612125D01*
X140246746Y-90560639D01*
X140248182Y-90526779D01*
X140252372Y-90495178D01*
X140259111Y-90466016D01*
X140268235Y-90439248D01*
X140279483Y-90415108D01*
X140292741Y-90393481D01*
X140307685Y-90374608D01*
X140324265Y-90358345D01*
X140342124Y-90344891D01*
X140361261Y-90334134D01*
X140381345Y-90326200D01*
X140402373Y-90321057D01*
X140430478Y-90318655D01*
X140472919Y-90324150D01*
X140512961Y-90340363D01*
X140526007Y-90348010D01*
X140541317Y-90356403D01*
X140555808Y-90360507D01*
X140567126Y-90360531D01*
X140577935Y-90357416D01*
X140597386Y-90342182D01*
X140599509Y-90339630D01*
X140632069Y-90299788D01*
X140640696Y-90287166D01*
X140645786Y-90274347D01*
X140647229Y-90262759D01*
X140645518Y-90251492D01*
X140640906Y-90241345D01*
X140633292Y-90231887D01*
X140626803Y-90226286D01*
X140599803Y-90207783D01*
X140570162Y-90191399D01*
X140540815Y-90178716D01*
X140509483Y-90168692D01*
X140478976Y-90162177D01*
X140446967Y-90158602D01*
X140427318Y-90158005D01*
X140393510Y-90159463D01*
X140360346Y-90163809D01*
X140328056Y-90170983D01*
X140296743Y-90180947D01*
X140266790Y-90193557D01*
X140238130Y-90208832D01*
X140211232Y-90226509D01*
X140185917Y-90246709D01*
X140162658Y-90269059D01*
X140141244Y-90293783D01*
X140122084Y-90320448D01*
X140105013Y-90349346D01*
X140090341Y-90380049D01*
X140077989Y-90412859D01*
X140068176Y-90447414D01*
X140060916Y-90483968D01*
X140056363Y-90522268D01*
X140054605Y-90562476D01*
X140054588Y-90566913D01*
X140056032Y-90608517D01*
X140060277Y-90647887D01*
X140067142Y-90684782D01*
X140076518Y-90719454D01*
X140088247Y-90751822D01*
X140102224Y-90781963D01*
X140118375Y-90809951D01*
X140136534Y-90835681D01*
X140178798Y-90880716D01*
X140228507Y-90916935D01*
X140285157Y-90943925D01*
X140348084Y-90961020D01*
X140416304Y-90967415D01*
X140421044Y-90967441D01*
G37*
G36*
X142371149Y-87108380D02*
G01*
X141691772Y-87311025D01*
X141677788Y-87316518D01*
X141666470Y-87324197D01*
X141658265Y-87333310D01*
X141652406Y-87344180D01*
X141647717Y-87370880D01*
X141647717Y-87504237D01*
X141649183Y-87519950D01*
X141653583Y-87533656D01*
X141660121Y-87544265D01*
X141669082Y-87553043D01*
X141691772Y-87564091D01*
X142371149Y-87766737D01*
X142386021Y-87769611D01*
X142399069Y-87769073D01*
X142409106Y-87765761D01*
X142417346Y-87759859D01*
X142427627Y-87741467D01*
X142429950Y-87722636D01*
X142429950Y-87640707D01*
X142428456Y-87624075D01*
X142423860Y-87609970D01*
X142417394Y-87600006D01*
X142408462Y-87591916D01*
X142384796Y-87581906D01*
X142072928Y-87505290D01*
X141954385Y-87476516D01*
X141823022Y-87444382D01*
X141823022Y-87439115D01*
X141931113Y-87413174D01*
X142072928Y-87378207D01*
X142384796Y-87300538D01*
X142399362Y-87295510D01*
X142411059Y-87288201D01*
X142419239Y-87279592D01*
X142425096Y-87269143D01*
X142429950Y-87241737D01*
X142429950Y-87152481D01*
X142428517Y-87137342D01*
X142424348Y-87124987D01*
X142418371Y-87116291D01*
X142410452Y-87110058D01*
X142390046Y-87105311D01*
X142371149Y-87108380D01*
G37*
G36*
X142384843Y-87865635D02*
G01*
X142407582Y-87873321D01*
X142416007Y-87880549D01*
X142422261Y-87889917D01*
X142426533Y-87902583D01*
X142427981Y-87917633D01*
X142427981Y-88089824D01*
X142427791Y-88106425D01*
X142420674Y-88187526D01*
X142404257Y-88256708D01*
X142379521Y-88315354D01*
X142346901Y-88364721D01*
X142306225Y-88405741D01*
X142282591Y-88423314D01*
X142256719Y-88438843D01*
X142228099Y-88452465D01*
X142197098Y-88463845D01*
X142162699Y-88473141D01*
X142125706Y-88479925D01*
X142084607Y-88484229D01*
X142040642Y-88485681D01*
X142037560Y-88485674D01*
X141954901Y-88479879D01*
X141884013Y-88464180D01*
X141823509Y-88439585D01*
X141796735Y-88424098D01*
X141772229Y-88406576D01*
X141749668Y-88386802D01*
X141729393Y-88365089D01*
X141710876Y-88340779D01*
X141694736Y-88314578D01*
X141680401Y-88285316D01*
X141668597Y-88254184D01*
X141658876Y-88219514D01*
X141651891Y-88182990D01*
X141647448Y-88142555D01*
X141645976Y-88100311D01*
X141645976Y-88078284D01*
X141797193Y-88078284D01*
X141802363Y-88138157D01*
X141816085Y-88183665D01*
X141837920Y-88220338D01*
X141852070Y-88235914D01*
X141868668Y-88249829D01*
X141888155Y-88262166D01*
X141910419Y-88272600D01*
X141936745Y-88281356D01*
X141966376Y-88287831D01*
X142001492Y-88292079D01*
X142040642Y-88293523D01*
X142094201Y-88290702D01*
X142151790Y-88278999D01*
X142195850Y-88259550D01*
X142213989Y-88246908D01*
X142229526Y-88232509D01*
X142243397Y-88215315D01*
X142254650Y-88196337D01*
X142264453Y-88172847D01*
X142271387Y-88147378D01*
X142276321Y-88114023D01*
X142277863Y-88078284D01*
X142277863Y-88053050D01*
X141797193Y-88053050D01*
X141797193Y-88078284D01*
X141645976Y-88078284D01*
X141645976Y-87917633D01*
X141646506Y-87908277D01*
X141654190Y-87885514D01*
X141661414Y-87877084D01*
X141670773Y-87870827D01*
X141683427Y-87866553D01*
X141698458Y-87865105D01*
X142375499Y-87865105D01*
X142384843Y-87865635D01*
G37*
G36*
X142384843Y-88630603D02*
G01*
X142407582Y-88638290D01*
X142416007Y-88645518D01*
X142422261Y-88654885D01*
X142426533Y-88667552D01*
X142427981Y-88682602D01*
X142427981Y-88854793D01*
X142427791Y-88871394D01*
X142420674Y-88952495D01*
X142404257Y-89021677D01*
X142379521Y-89080322D01*
X142346901Y-89129689D01*
X142306225Y-89170709D01*
X142282591Y-89188283D01*
X142256719Y-89203812D01*
X142228099Y-89217433D01*
X142197098Y-89228813D01*
X142162699Y-89238109D01*
X142125706Y-89244894D01*
X142084607Y-89249197D01*
X142040642Y-89250649D01*
X142037560Y-89250643D01*
X141954901Y-89244847D01*
X141884013Y-89229149D01*
X141823509Y-89204554D01*
X141796735Y-89189066D01*
X141772229Y-89171545D01*
X141749668Y-89151771D01*
X141729393Y-89130057D01*
X141710876Y-89105747D01*
X141694736Y-89079546D01*
X141680401Y-89050285D01*
X141668597Y-89019153D01*
X141658876Y-88984482D01*
X141651891Y-88947959D01*
X141647448Y-88907524D01*
X141645976Y-88865280D01*
X141645976Y-88843252D01*
X141797193Y-88843252D01*
X141802363Y-88903125D01*
X141816085Y-88948634D01*
X141837920Y-88985307D01*
X141852070Y-89000883D01*
X141868668Y-89014797D01*
X141888155Y-89027134D01*
X141910419Y-89037569D01*
X141936745Y-89046325D01*
X141966376Y-89052800D01*
X142001492Y-89057047D01*
X142040642Y-89058491D01*
X142094201Y-89055670D01*
X142151790Y-89043968D01*
X142195850Y-89024518D01*
X142213989Y-89011877D01*
X142229526Y-88997478D01*
X142243397Y-88980283D01*
X142254650Y-88961306D01*
X142264453Y-88937815D01*
X142271387Y-88912347D01*
X142276321Y-88878992D01*
X142277863Y-88843252D01*
X142277863Y-88818019D01*
X141797193Y-88818019D01*
X141797193Y-88843252D01*
X141645976Y-88843252D01*
X141645976Y-88682602D01*
X141646506Y-88673246D01*
X141654190Y-88650483D01*
X141661414Y-88642052D01*
X141670773Y-88635796D01*
X141683427Y-88631522D01*
X141698458Y-88630074D01*
X142375499Y-88630074D01*
X142384843Y-88630603D01*
G37*
G36*
X144727423Y-101140262D02*
G01*
X144050198Y-101140262D01*
X144035152Y-101141710D01*
X144022493Y-101145984D01*
X144013140Y-101152237D01*
X144005924Y-101160662D01*
X143998246Y-101183419D01*
X143997717Y-101192790D01*
X143997717Y-101275726D01*
X143999165Y-101290789D01*
X144003441Y-101303459D01*
X144009693Y-101312809D01*
X144018118Y-101320021D01*
X144040871Y-101327683D01*
X144050198Y-101328207D01*
X144727423Y-101328207D01*
X144742489Y-101326759D01*
X144755167Y-101322483D01*
X144764529Y-101316230D01*
X144771751Y-101307803D01*
X144779424Y-101285054D01*
X144779950Y-101275726D01*
X144779950Y-101192790D01*
X144778502Y-101177740D01*
X144774228Y-101165074D01*
X144767974Y-101155709D01*
X144759546Y-101148482D01*
X144736795Y-101140794D01*
X144727423Y-101140262D01*
G37*
G36*
X144727423Y-101507359D02*
G01*
X144050198Y-101507359D01*
X144035152Y-101508807D01*
X144022493Y-101513081D01*
X144013140Y-101519334D01*
X144005924Y-101527759D01*
X143998246Y-101550516D01*
X143997717Y-101559887D01*
X143997717Y-101633389D01*
X143999165Y-101648437D01*
X144003441Y-101661101D01*
X144009696Y-101670458D01*
X144018126Y-101677677D01*
X144040886Y-101685346D01*
X144050198Y-101685870D01*
X144257057Y-101685870D01*
X144360154Y-101681019D01*
X144473224Y-101669487D01*
X144545798Y-101661736D01*
X144545798Y-101666957D01*
X144374660Y-101743619D01*
X144035498Y-101917916D01*
X144020551Y-101927399D01*
X144009510Y-101938494D01*
X144003143Y-101949317D01*
X143999259Y-101961829D01*
X143997717Y-101978825D01*
X143997717Y-102075407D01*
X143999165Y-102090474D01*
X144003441Y-102103151D01*
X144009694Y-102112513D01*
X144018122Y-102119736D01*
X144040870Y-102127409D01*
X144050198Y-102127935D01*
X144727423Y-102127935D01*
X144742472Y-102126487D01*
X144755139Y-102122213D01*
X144764504Y-102115958D01*
X144771731Y-102107531D01*
X144779419Y-102084779D01*
X144779950Y-102075407D01*
X144779950Y-102001905D01*
X144778502Y-101986875D01*
X144774228Y-101974221D01*
X144767972Y-101964861D01*
X144759542Y-101957638D01*
X144736779Y-101949953D01*
X144727423Y-101949424D01*
X144520610Y-101949424D01*
X144416942Y-101954321D01*
X144277101Y-101969283D01*
X144231823Y-101974611D01*
X144231823Y-101969345D01*
X144405068Y-101892729D01*
X144742123Y-101718431D01*
X144756600Y-101708885D01*
X144767599Y-101697580D01*
X144774242Y-101686302D01*
X144778352Y-101673325D01*
X144779950Y-101656470D01*
X144779950Y-101559887D01*
X144778502Y-101544837D01*
X144774228Y-101532171D01*
X144767974Y-101522806D01*
X144759546Y-101515579D01*
X144736795Y-101507891D01*
X144727423Y-101507359D01*
G37*
G36*
X144736705Y-102309491D02*
G01*
X144759454Y-102317164D01*
X144767881Y-102324386D01*
X144774134Y-102333748D01*
X144778410Y-102346426D01*
X144779859Y-102361492D01*
X144779859Y-102595645D01*
X144776559Y-102661063D01*
X144764583Y-102727042D01*
X144745115Y-102780176D01*
X144718882Y-102822444D01*
X144685816Y-102855398D01*
X144666479Y-102868655D01*
X144644984Y-102879826D01*
X144621020Y-102888859D01*
X144594688Y-102895515D01*
X144565017Y-102899750D01*
X144532654Y-102901192D01*
X144524592Y-102901103D01*
X144493874Y-102899021D01*
X144465309Y-102894274D01*
X144438881Y-102886997D01*
X144414547Y-102877317D01*
X144391861Y-102865110D01*
X144371293Y-102850678D01*
X144352085Y-102833430D01*
X144335107Y-102814074D01*
X144319508Y-102791431D01*
X144306333Y-102766782D01*
X144059586Y-102905360D01*
X144034612Y-102913768D01*
X144015648Y-102910566D01*
X144007992Y-102904775D01*
X144002159Y-102896307D01*
X143998043Y-102883956D01*
X143996618Y-102868632D01*
X143996618Y-102773056D01*
X143998195Y-102756310D01*
X144002287Y-102743322D01*
X144008912Y-102732038D01*
X144019913Y-102720709D01*
X144034399Y-102711141D01*
X144271711Y-102587218D01*
X144271711Y-102580944D01*
X144419768Y-102580944D01*
X144419928Y-102590676D01*
X144426416Y-102637868D01*
X144440893Y-102672448D01*
X144462549Y-102696998D01*
X144476497Y-102706050D01*
X144492351Y-102712667D01*
X144511433Y-102717010D01*
X144532654Y-102718468D01*
X144559185Y-102715998D01*
X144587747Y-102704799D01*
X144599492Y-102695376D01*
X144609158Y-102683562D01*
X144617989Y-102666776D01*
X144624354Y-102646833D01*
X144629256Y-102616421D01*
X144630794Y-102580944D01*
X144630794Y-102496909D01*
X144419768Y-102496909D01*
X144419768Y-102580944D01*
X144271711Y-102580944D01*
X144271711Y-102496909D01*
X144049099Y-102496909D01*
X144039772Y-102496385D01*
X144017019Y-102488723D01*
X144008594Y-102481511D01*
X144002342Y-102472161D01*
X143998066Y-102459491D01*
X143996618Y-102444428D01*
X143996618Y-102361492D01*
X143997147Y-102352121D01*
X144004824Y-102329364D01*
X144012041Y-102320939D01*
X144021394Y-102314686D01*
X144034053Y-102310412D01*
X144049099Y-102308965D01*
X144727377Y-102308965D01*
X144736705Y-102309491D01*
G37*
G36*
X140442018Y-101167441D02*
G01*
X140509399Y-101161917D01*
X140575675Y-101145445D01*
X140636844Y-101118962D01*
X140680384Y-101090825D01*
X140689469Y-101082191D01*
X140695861Y-101071947D01*
X140701979Y-101045543D01*
X140702411Y-101033077D01*
X140702411Y-100759311D01*
X140700964Y-100744261D01*
X140696691Y-100731594D01*
X140690437Y-100722227D01*
X140682012Y-100714999D01*
X140659273Y-100707312D01*
X140649930Y-100706783D01*
X140464091Y-100706783D01*
X140449042Y-100708231D01*
X140436375Y-100712505D01*
X140427010Y-100718760D01*
X140419784Y-100727187D01*
X140412095Y-100749939D01*
X140411564Y-100759311D01*
X140411564Y-100807625D01*
X140413012Y-100822656D01*
X140417286Y-100835310D01*
X140423542Y-100844669D01*
X140431972Y-100851893D01*
X140454736Y-100859578D01*
X140464091Y-100860107D01*
X140535487Y-100860107D01*
X140535487Y-100985861D01*
X140509598Y-100998478D01*
X140469511Y-101005555D01*
X140461985Y-101005737D01*
X140430986Y-101004281D01*
X140402463Y-100999954D01*
X140377683Y-100993251D01*
X140355099Y-100984069D01*
X140335341Y-100972884D01*
X140317609Y-100959476D01*
X140288306Y-100926378D01*
X140266402Y-100883842D01*
X140252147Y-100830088D01*
X140246746Y-100760364D01*
X140248189Y-100726518D01*
X140252425Y-100694936D01*
X140259177Y-100666186D01*
X140268364Y-100639767D01*
X140279617Y-100616185D01*
X140292968Y-100594982D01*
X140308020Y-100576520D01*
X140324866Y-100560489D01*
X140343196Y-100547075D01*
X140363057Y-100536170D01*
X140406926Y-100522137D01*
X140445178Y-100518655D01*
X140470470Y-100520074D01*
X140493428Y-100524147D01*
X140534625Y-100539647D01*
X140549134Y-100547964D01*
X140564476Y-100556331D01*
X140578991Y-100560406D01*
X140590318Y-100560405D01*
X140601139Y-100557266D01*
X140620641Y-100541975D01*
X140622636Y-100539584D01*
X140656204Y-100499788D01*
X140665032Y-100486426D01*
X140670073Y-100473123D01*
X140671234Y-100461675D01*
X140669206Y-100450630D01*
X140656337Y-100431554D01*
X140649930Y-100426286D01*
X140623667Y-100408368D01*
X140594483Y-100392413D01*
X140565149Y-100379928D01*
X140533354Y-100369893D01*
X140501457Y-100363072D01*
X140467415Y-100359030D01*
X140438858Y-100358005D01*
X140403341Y-100359463D01*
X140368644Y-100363808D01*
X140335128Y-100370945D01*
X140302735Y-100380849D01*
X140271950Y-100393326D01*
X140242569Y-100408427D01*
X140215121Y-100425846D01*
X140189331Y-100445737D01*
X140165692Y-100467706D01*
X140143942Y-100491996D01*
X140124479Y-100518183D01*
X140107120Y-100546554D01*
X140092154Y-100576724D01*
X140079505Y-100608958D01*
X140069366Y-100642969D01*
X140061764Y-100678947D01*
X140056836Y-100716733D01*
X140054679Y-100756406D01*
X140054588Y-100766638D01*
X140056034Y-100807909D01*
X140060296Y-100846981D01*
X140067170Y-100883465D01*
X140076575Y-100917784D01*
X140088320Y-100949738D01*
X140102346Y-100979538D01*
X140118550Y-101007186D01*
X140136817Y-101032663D01*
X140179478Y-101077399D01*
X140230038Y-101113721D01*
X140288297Y-101141276D01*
X140353959Y-101159399D01*
X140426450Y-101167203D01*
X140442018Y-101167441D01*
G37*
G36*
X140859627Y-100422576D02*
G01*
X140859627Y-101099801D01*
X140861075Y-101114847D01*
X140865349Y-101127506D01*
X140871602Y-101136859D01*
X140880027Y-101144075D01*
X140902784Y-101151753D01*
X140912155Y-101152282D01*
X140985657Y-101152282D01*
X141000705Y-101150834D01*
X141013369Y-101146558D01*
X141022726Y-101140303D01*
X141029945Y-101131873D01*
X141037614Y-101109113D01*
X141038138Y-101099801D01*
X141038138Y-100892942D01*
X141033287Y-100789845D01*
X141021755Y-100676775D01*
X141014004Y-100604201D01*
X141019225Y-100604201D01*
X141095887Y-100775339D01*
X141270184Y-101114501D01*
X141279667Y-101129448D01*
X141290762Y-101140489D01*
X141301585Y-101146856D01*
X141314097Y-101150740D01*
X141331092Y-101152282D01*
X141427675Y-101152282D01*
X141442742Y-101150834D01*
X141455419Y-101146558D01*
X141464781Y-101140305D01*
X141472004Y-101131877D01*
X141479677Y-101109129D01*
X141480203Y-101099801D01*
X141480203Y-100422576D01*
X141478755Y-100407527D01*
X141474481Y-100394860D01*
X141468226Y-100385495D01*
X141459799Y-100378268D01*
X141437047Y-100370580D01*
X141427675Y-100370049D01*
X141354173Y-100370049D01*
X141339143Y-100371497D01*
X141326489Y-100375771D01*
X141317129Y-100382027D01*
X141309906Y-100390457D01*
X141302221Y-100413220D01*
X141301692Y-100422576D01*
X141301692Y-100629389D01*
X141306589Y-100733057D01*
X141321551Y-100872898D01*
X141326879Y-100918176D01*
X141321613Y-100918176D01*
X141244997Y-100744931D01*
X141070699Y-100407876D01*
X141061153Y-100393399D01*
X141049848Y-100382400D01*
X141038570Y-100375757D01*
X141025593Y-100371647D01*
X141008738Y-100370049D01*
X140912155Y-100370049D01*
X140897105Y-100371497D01*
X140884439Y-100375771D01*
X140875074Y-100382025D01*
X140867847Y-100390453D01*
X140860159Y-100413204D01*
X140859627Y-100422576D01*
G37*
G36*
X141902552Y-100372208D02*
G01*
X141983653Y-100379325D01*
X142052835Y-100395742D01*
X142111481Y-100420478D01*
X142160848Y-100453098D01*
X142201868Y-100493774D01*
X142219441Y-100517408D01*
X142234970Y-100543280D01*
X142248592Y-100571900D01*
X142259972Y-100602901D01*
X142269268Y-100637300D01*
X142276052Y-100674293D01*
X142280356Y-100715392D01*
X142281808Y-100759357D01*
X142281801Y-100762439D01*
X142276006Y-100845098D01*
X142260307Y-100915986D01*
X142235712Y-100976490D01*
X142220225Y-101003264D01*
X142202703Y-101027770D01*
X142182929Y-101050331D01*
X142161216Y-101070606D01*
X142136906Y-101089123D01*
X142110705Y-101105263D01*
X142081443Y-101119598D01*
X142050311Y-101131402D01*
X142015641Y-101141123D01*
X141979117Y-101148108D01*
X141938682Y-101152551D01*
X141896438Y-101154023D01*
X141713760Y-101154023D01*
X141704404Y-101153493D01*
X141681641Y-101145809D01*
X141673211Y-101138585D01*
X141666954Y-101129226D01*
X141662680Y-101116572D01*
X141661232Y-101101541D01*
X141661232Y-101002806D01*
X141849177Y-101002806D01*
X141874411Y-101002806D01*
X141934284Y-100997636D01*
X141979792Y-100983914D01*
X142016465Y-100962079D01*
X142032041Y-100947929D01*
X142045956Y-100931331D01*
X142058293Y-100911844D01*
X142068727Y-100889580D01*
X142077483Y-100863254D01*
X142083958Y-100833623D01*
X142088206Y-100798507D01*
X142089650Y-100759357D01*
X142086829Y-100705798D01*
X142075126Y-100648209D01*
X142055677Y-100604149D01*
X142043035Y-100586010D01*
X142028636Y-100570473D01*
X142011442Y-100556602D01*
X141992464Y-100545349D01*
X141968974Y-100535546D01*
X141943505Y-100528612D01*
X141910150Y-100523678D01*
X141874411Y-100522136D01*
X141849177Y-100522136D01*
X141849177Y-101002806D01*
X141661232Y-101002806D01*
X141661232Y-100424500D01*
X141661762Y-100415156D01*
X141669448Y-100392417D01*
X141676676Y-100383992D01*
X141686044Y-100377738D01*
X141698710Y-100373466D01*
X141713760Y-100372018D01*
X141885951Y-100372018D01*
X141902552Y-100372208D01*
G37*
G36*
X140442018Y-95767441D02*
G01*
X140509399Y-95761917D01*
X140575675Y-95745445D01*
X140636844Y-95718962D01*
X140680384Y-95690825D01*
X140689469Y-95682191D01*
X140695861Y-95671947D01*
X140701979Y-95645543D01*
X140702411Y-95633077D01*
X140702411Y-95359311D01*
X140700964Y-95344261D01*
X140696691Y-95331594D01*
X140690437Y-95322227D01*
X140682012Y-95314999D01*
X140659273Y-95307312D01*
X140649930Y-95306783D01*
X140464091Y-95306783D01*
X140449042Y-95308231D01*
X140436375Y-95312505D01*
X140427010Y-95318760D01*
X140419784Y-95327187D01*
X140412095Y-95349939D01*
X140411564Y-95359311D01*
X140411564Y-95407625D01*
X140413012Y-95422656D01*
X140417286Y-95435310D01*
X140423542Y-95444669D01*
X140431972Y-95451893D01*
X140454736Y-95459578D01*
X140464091Y-95460107D01*
X140535487Y-95460107D01*
X140535487Y-95585861D01*
X140509598Y-95598478D01*
X140469511Y-95605555D01*
X140461985Y-95605737D01*
X140430986Y-95604281D01*
X140402463Y-95599954D01*
X140377683Y-95593251D01*
X140355099Y-95584069D01*
X140335341Y-95572884D01*
X140317609Y-95559476D01*
X140288306Y-95526378D01*
X140266402Y-95483842D01*
X140252147Y-95430088D01*
X140246746Y-95360364D01*
X140248189Y-95326518D01*
X140252425Y-95294936D01*
X140259177Y-95266186D01*
X140268364Y-95239767D01*
X140279617Y-95216185D01*
X140292968Y-95194982D01*
X140308020Y-95176520D01*
X140324866Y-95160489D01*
X140343196Y-95147075D01*
X140363057Y-95136170D01*
X140406926Y-95122137D01*
X140445178Y-95118655D01*
X140470470Y-95120074D01*
X140493428Y-95124147D01*
X140534625Y-95139647D01*
X140549134Y-95147964D01*
X140564476Y-95156331D01*
X140578991Y-95160406D01*
X140590318Y-95160405D01*
X140601139Y-95157266D01*
X140620641Y-95141975D01*
X140622636Y-95139584D01*
X140656204Y-95099788D01*
X140665032Y-95086426D01*
X140670073Y-95073123D01*
X140671234Y-95061675D01*
X140669206Y-95050630D01*
X140656337Y-95031554D01*
X140649930Y-95026286D01*
X140623667Y-95008368D01*
X140594483Y-94992413D01*
X140565149Y-94979928D01*
X140533354Y-94969893D01*
X140501457Y-94963072D01*
X140467415Y-94959030D01*
X140438858Y-94958005D01*
X140403341Y-94959463D01*
X140368644Y-94963808D01*
X140335128Y-94970945D01*
X140302735Y-94980849D01*
X140271950Y-94993326D01*
X140242569Y-95008427D01*
X140215121Y-95025846D01*
X140189331Y-95045737D01*
X140165692Y-95067706D01*
X140143942Y-95091996D01*
X140124479Y-95118183D01*
X140107120Y-95146554D01*
X140092154Y-95176724D01*
X140079505Y-95208958D01*
X140069366Y-95242969D01*
X140061764Y-95278947D01*
X140056836Y-95316733D01*
X140054679Y-95356406D01*
X140054588Y-95366638D01*
X140056034Y-95407909D01*
X140060296Y-95446981D01*
X140067170Y-95483465D01*
X140076575Y-95517784D01*
X140088320Y-95549738D01*
X140102346Y-95579538D01*
X140118550Y-95607186D01*
X140136817Y-95632663D01*
X140179478Y-95677399D01*
X140230038Y-95713721D01*
X140288297Y-95741276D01*
X140353959Y-95759399D01*
X140426450Y-95767203D01*
X140442018Y-95767441D01*
G37*
G36*
X140859627Y-95022576D02*
G01*
X140859627Y-95699801D01*
X140861075Y-95714847D01*
X140865349Y-95727506D01*
X140871602Y-95736859D01*
X140880027Y-95744075D01*
X140902784Y-95751753D01*
X140912155Y-95752282D01*
X140985657Y-95752282D01*
X141000705Y-95750834D01*
X141013369Y-95746558D01*
X141022726Y-95740303D01*
X141029945Y-95731873D01*
X141037614Y-95709113D01*
X141038138Y-95699801D01*
X141038138Y-95492942D01*
X141033287Y-95389845D01*
X141021755Y-95276775D01*
X141014004Y-95204201D01*
X141019225Y-95204201D01*
X141095887Y-95375339D01*
X141270184Y-95714501D01*
X141279667Y-95729448D01*
X141290762Y-95740489D01*
X141301585Y-95746856D01*
X141314097Y-95750740D01*
X141331092Y-95752282D01*
X141427675Y-95752282D01*
X141442742Y-95750834D01*
X141455419Y-95746558D01*
X141464781Y-95740305D01*
X141472004Y-95731877D01*
X141479677Y-95709129D01*
X141480203Y-95699801D01*
X141480203Y-95022576D01*
X141478755Y-95007527D01*
X141474481Y-94994860D01*
X141468226Y-94985495D01*
X141459799Y-94978268D01*
X141437047Y-94970580D01*
X141427675Y-94970049D01*
X141354173Y-94970049D01*
X141339143Y-94971497D01*
X141326489Y-94975771D01*
X141317129Y-94982027D01*
X141309906Y-94990457D01*
X141302221Y-95013220D01*
X141301692Y-95022576D01*
X141301692Y-95229389D01*
X141306589Y-95333057D01*
X141321551Y-95472898D01*
X141326879Y-95518176D01*
X141321613Y-95518176D01*
X141244997Y-95344931D01*
X141070699Y-95007876D01*
X141061153Y-94993399D01*
X141049848Y-94982400D01*
X141038570Y-94975757D01*
X141025593Y-94971647D01*
X141008738Y-94970049D01*
X140912155Y-94970049D01*
X140897105Y-94971497D01*
X140884439Y-94975771D01*
X140875074Y-94982025D01*
X140867847Y-94990453D01*
X140860159Y-95013204D01*
X140859627Y-95022576D01*
G37*
G36*
X141902552Y-94972208D02*
G01*
X141983653Y-94979325D01*
X142052835Y-94995742D01*
X142111481Y-95020478D01*
X142160848Y-95053098D01*
X142201868Y-95093774D01*
X142219441Y-95117408D01*
X142234970Y-95143280D01*
X142248592Y-95171900D01*
X142259972Y-95202901D01*
X142269268Y-95237300D01*
X142276052Y-95274293D01*
X142280356Y-95315392D01*
X142281808Y-95359357D01*
X142281801Y-95362439D01*
X142276006Y-95445098D01*
X142260307Y-95515986D01*
X142235712Y-95576490D01*
X142220225Y-95603264D01*
X142202703Y-95627770D01*
X142182929Y-95650331D01*
X142161216Y-95670606D01*
X142136906Y-95689123D01*
X142110705Y-95705263D01*
X142081443Y-95719598D01*
X142050311Y-95731402D01*
X142015641Y-95741123D01*
X141979117Y-95748108D01*
X141938682Y-95752551D01*
X141896438Y-95754023D01*
X141713760Y-95754023D01*
X141704404Y-95753493D01*
X141681641Y-95745809D01*
X141673211Y-95738585D01*
X141666954Y-95729226D01*
X141662680Y-95716572D01*
X141661232Y-95701541D01*
X141661232Y-95602806D01*
X141849177Y-95602806D01*
X141874411Y-95602806D01*
X141934284Y-95597636D01*
X141979792Y-95583914D01*
X142016465Y-95562079D01*
X142032041Y-95547929D01*
X142045956Y-95531331D01*
X142058293Y-95511844D01*
X142068727Y-95489580D01*
X142077483Y-95463254D01*
X142083958Y-95433623D01*
X142088206Y-95398507D01*
X142089650Y-95359357D01*
X142086829Y-95305798D01*
X142075126Y-95248209D01*
X142055677Y-95204149D01*
X142043035Y-95186010D01*
X142028636Y-95170473D01*
X142011442Y-95156602D01*
X141992464Y-95145349D01*
X141968974Y-95135546D01*
X141943505Y-95128612D01*
X141910150Y-95123678D01*
X141874411Y-95122136D01*
X141849177Y-95122136D01*
X141849177Y-95602806D01*
X141661232Y-95602806D01*
X141661232Y-95024500D01*
X141661762Y-95015156D01*
X141669448Y-94992417D01*
X141676676Y-94983992D01*
X141686044Y-94977738D01*
X141698710Y-94973466D01*
X141713760Y-94972018D01*
X141885951Y-94972018D01*
X141902552Y-94972208D01*
G37*
G36*
X155721149Y-96358380D02*
G01*
X155041772Y-96561025D01*
X155027788Y-96566518D01*
X155016470Y-96574197D01*
X155008265Y-96583310D01*
X155002406Y-96594180D01*
X154997717Y-96620880D01*
X154997717Y-96754237D01*
X154999183Y-96769950D01*
X155003583Y-96783656D01*
X155010121Y-96794265D01*
X155019082Y-96803043D01*
X155041772Y-96814091D01*
X155721149Y-97016737D01*
X155736021Y-97019611D01*
X155749069Y-97019073D01*
X155759106Y-97015761D01*
X155767346Y-97009859D01*
X155777627Y-96991467D01*
X155779950Y-96972636D01*
X155779950Y-96890707D01*
X155778456Y-96874075D01*
X155773860Y-96859970D01*
X155767394Y-96850006D01*
X155758462Y-96841916D01*
X155734796Y-96831906D01*
X155422928Y-96755290D01*
X155304385Y-96726516D01*
X155173022Y-96694382D01*
X155173022Y-96689115D01*
X155281113Y-96663174D01*
X155422928Y-96628207D01*
X155734796Y-96550538D01*
X155749362Y-96545510D01*
X155761059Y-96538201D01*
X155769239Y-96529592D01*
X155775096Y-96519143D01*
X155779950Y-96491737D01*
X155779950Y-96402481D01*
X155778517Y-96387342D01*
X155774348Y-96374987D01*
X155768371Y-96366291D01*
X155760452Y-96360058D01*
X155740046Y-96355311D01*
X155721149Y-96358380D01*
G37*
G36*
X154983062Y-97278916D02*
G01*
X154984502Y-97314597D01*
X154988716Y-97347611D01*
X154995397Y-97377391D01*
X155004453Y-97404557D01*
X155015514Y-97428668D01*
X155028582Y-97450213D01*
X155043312Y-97468938D01*
X155059725Y-97485120D01*
X155077619Y-97498692D01*
X155096919Y-97509699D01*
X155139574Y-97524006D01*
X155178380Y-97527769D01*
X155202158Y-97526345D01*
X155223772Y-97522237D01*
X155261421Y-97506751D01*
X155293536Y-97481751D01*
X155321690Y-97446103D01*
X155347150Y-97397117D01*
X155357990Y-97370278D01*
X155364787Y-97350905D01*
X155378175Y-97313876D01*
X155392051Y-97284040D01*
X155408456Y-97264132D01*
X155418245Y-97258756D01*
X155429431Y-97256888D01*
X155441743Y-97258366D01*
X155452028Y-97262849D01*
X155465235Y-97278491D01*
X155471970Y-97306243D01*
X155472525Y-97319857D01*
X155466903Y-97358022D01*
X155449398Y-97400732D01*
X155442226Y-97416282D01*
X155439181Y-97430823D01*
X155439909Y-97442220D01*
X155443706Y-97452964D01*
X155460228Y-97472091D01*
X155463045Y-97474234D01*
X155490339Y-97494155D01*
X155503697Y-97502128D01*
X155516896Y-97506457D01*
X155528363Y-97507127D01*
X155539201Y-97504641D01*
X155548566Y-97499368D01*
X155556978Y-97491163D01*
X155562788Y-97482615D01*
X155578496Y-97453598D01*
X155591721Y-97421846D01*
X155600673Y-97392029D01*
X155606852Y-97360006D01*
X155610049Y-97313583D01*
X155608604Y-97281081D01*
X155604354Y-97250558D01*
X155597555Y-97222590D01*
X155588281Y-97196790D01*
X155576933Y-97173778D01*
X155563442Y-97153075D01*
X155548317Y-97135209D01*
X155531362Y-97119762D01*
X155513073Y-97107076D01*
X155493223Y-97096919D01*
X155472143Y-97089458D01*
X155449725Y-97084669D01*
X155421005Y-97082591D01*
X155398651Y-97084014D01*
X155378074Y-97088113D01*
X155341016Y-97103846D01*
X155308226Y-97129648D01*
X155278752Y-97166616D01*
X155252202Y-97216537D01*
X155244555Y-97234815D01*
X155235413Y-97258362D01*
X155220894Y-97294924D01*
X155205874Y-97325207D01*
X155188732Y-97345844D01*
X155178859Y-97351494D01*
X155167847Y-97353471D01*
X155155228Y-97351980D01*
X155144353Y-97347403D01*
X155136292Y-97340656D01*
X155129793Y-97331265D01*
X155121722Y-97303052D01*
X155120586Y-97283129D01*
X155126378Y-97239744D01*
X155144706Y-97192385D01*
X155154200Y-97174960D01*
X155161659Y-97159843D01*
X155165111Y-97145576D01*
X155164804Y-97134081D01*
X155161419Y-97123301D01*
X155145999Y-97104722D01*
X155141606Y-97101458D01*
X155110099Y-97079431D01*
X155097034Y-97071668D01*
X155084089Y-97067494D01*
X155072636Y-97066880D01*
X155061725Y-97069364D01*
X155043156Y-97082920D01*
X155036597Y-97092025D01*
X155007348Y-97154533D01*
X154996411Y-97188131D01*
X154988539Y-97222035D01*
X154983062Y-97278916D01*
G37*
G36*
X155552256Y-97635826D02*
G01*
X155574995Y-97643513D01*
X155583420Y-97650741D01*
X155589674Y-97660108D01*
X155593946Y-97672775D01*
X155595394Y-97687824D01*
X155595394Y-97740306D01*
X155592689Y-97766717D01*
X155583559Y-97785572D01*
X155576266Y-97791487D01*
X155567047Y-97794894D01*
X155537646Y-97801214D01*
X155537646Y-97804374D01*
X155558418Y-97830027D01*
X155587535Y-97878353D01*
X155604540Y-97926013D01*
X155610095Y-97972352D01*
X155609068Y-97994890D01*
X155605290Y-98020145D01*
X155598812Y-98044044D01*
X155589638Y-98066694D01*
X155577893Y-98087852D01*
X155563318Y-98107874D01*
X155546235Y-98126215D01*
X155526062Y-98143319D01*
X155503412Y-98158496D01*
X155477442Y-98172113D01*
X155449030Y-98183512D01*
X155417239Y-98192877D01*
X155383085Y-98199710D01*
X155345730Y-98204001D01*
X155306150Y-98205451D01*
X155250714Y-98202339D01*
X155215510Y-98196803D01*
X155182590Y-98188712D01*
X155151746Y-98178150D01*
X155123319Y-98165363D01*
X155097160Y-98150416D01*
X155073550Y-98133595D01*
X155052436Y-98114993D01*
X155033995Y-98094888D01*
X155018263Y-98073463D01*
X155005304Y-98050925D01*
X154987946Y-98003525D01*
X154982146Y-97954492D01*
X154982341Y-97946297D01*
X154984953Y-97923490D01*
X154988229Y-97910391D01*
X155135470Y-97910391D01*
X155135715Y-97917379D01*
X155143164Y-97947117D01*
X155150815Y-97960362D01*
X155161254Y-97972507D01*
X155174948Y-97983628D01*
X155191811Y-97993248D01*
X155212978Y-98001514D01*
X155237891Y-98007742D01*
X155268217Y-98011867D01*
X155302990Y-98013293D01*
X155313000Y-98013198D01*
X155371321Y-98007562D01*
X155410385Y-97995051D01*
X155436140Y-97976850D01*
X155445308Y-97965225D01*
X155451960Y-97951926D01*
X155456399Y-97935358D01*
X155457870Y-97916711D01*
X155455743Y-97895604D01*
X155450537Y-97878664D01*
X155442100Y-97862224D01*
X155427264Y-97842362D01*
X155407266Y-97822189D01*
X155170228Y-97822189D01*
X155161757Y-97832478D01*
X155150266Y-97850396D01*
X155142390Y-97868327D01*
X155137067Y-97889593D01*
X155135470Y-97910391D01*
X154988229Y-97910391D01*
X154990538Y-97901158D01*
X154999312Y-97878775D01*
X155011049Y-97857191D01*
X155026117Y-97835969D01*
X155044108Y-97815915D01*
X154950639Y-97822189D01*
X154831983Y-97822189D01*
X154822640Y-97821661D01*
X154799896Y-97813985D01*
X154791473Y-97806768D01*
X154785221Y-97797412D01*
X154780949Y-97784753D01*
X154779501Y-97769707D01*
X154779501Y-97687824D01*
X154780030Y-97678469D01*
X154787715Y-97655705D01*
X154794938Y-97647275D01*
X154804298Y-97641019D01*
X154816952Y-97636745D01*
X154831983Y-97635297D01*
X155542913Y-97635297D01*
X155552256Y-97635826D01*
G37*
G36*
X154690262Y-93072576D02*
G01*
X154690262Y-93749801D01*
X154691710Y-93764847D01*
X154695984Y-93777506D01*
X154702237Y-93786859D01*
X154710662Y-93794075D01*
X154733419Y-93801753D01*
X154742790Y-93802282D01*
X155130220Y-93802282D01*
X155145283Y-93800834D01*
X155157953Y-93796558D01*
X155167304Y-93790306D01*
X155174515Y-93781881D01*
X155182177Y-93759128D01*
X155182702Y-93749801D01*
X155182702Y-93697319D01*
X155181254Y-93682252D01*
X155176977Y-93669575D01*
X155170724Y-93660213D01*
X155162297Y-93652991D01*
X155139548Y-93645318D01*
X155130220Y-93644791D01*
X154878207Y-93644791D01*
X154878207Y-93072576D01*
X154876759Y-93057510D01*
X154872483Y-93044832D01*
X154866230Y-93035470D01*
X154857803Y-93028248D01*
X154835054Y-93020575D01*
X154825726Y-93020049D01*
X154742790Y-93020049D01*
X154727740Y-93021497D01*
X154715074Y-93025771D01*
X154705709Y-93032025D01*
X154698482Y-93040453D01*
X154690794Y-93063204D01*
X154690262Y-93072576D01*
G37*
G36*
X155320638Y-93473379D02*
G01*
X155478129Y-93473379D01*
X155478129Y-93640349D01*
X155479577Y-93655396D01*
X155483851Y-93668054D01*
X155490104Y-93677408D01*
X155498529Y-93684624D01*
X155521285Y-93692301D01*
X155530656Y-93692831D01*
X155562118Y-93692831D01*
X155577184Y-93691383D01*
X155589862Y-93687107D01*
X155599224Y-93680853D01*
X155606446Y-93672426D01*
X155614119Y-93649678D01*
X155614645Y-93640349D01*
X155614645Y-93473379D01*
X155773189Y-93473379D01*
X155788253Y-93471930D01*
X155800922Y-93467654D01*
X155810273Y-93461403D01*
X155817485Y-93452978D01*
X155825146Y-93430224D01*
X155825671Y-93420897D01*
X155825671Y-93394656D01*
X155824223Y-93379590D01*
X155819947Y-93366912D01*
X155813693Y-93357550D01*
X155805266Y-93350328D01*
X155782518Y-93342655D01*
X155773189Y-93342129D01*
X155614645Y-93342129D01*
X155614645Y-93174151D01*
X155613197Y-93159104D01*
X155608923Y-93146446D01*
X155602670Y-93137092D01*
X155594246Y-93129876D01*
X155571489Y-93122199D01*
X155562118Y-93121669D01*
X155530656Y-93121669D01*
X155515590Y-93123117D01*
X155502912Y-93127394D01*
X155493550Y-93133647D01*
X155486328Y-93142074D01*
X155478655Y-93164822D01*
X155478129Y-93174151D01*
X155478129Y-93342129D01*
X155320638Y-93342129D01*
X155305592Y-93343577D01*
X155292933Y-93347851D01*
X155283579Y-93354104D01*
X155276363Y-93362529D01*
X155268686Y-93385285D01*
X155268156Y-93394656D01*
X155268156Y-93420897D01*
X155269605Y-93435960D01*
X155273881Y-93448630D01*
X155280133Y-93457981D01*
X155288557Y-93465192D01*
X155311311Y-93472854D01*
X155320638Y-93473379D01*
G37*
G36*
X153799563Y-104081172D02*
G01*
X154009551Y-104081172D01*
X154009551Y-104303799D01*
X154011482Y-104323861D01*
X154017180Y-104340739D01*
X154025518Y-104353211D01*
X154036751Y-104362832D01*
X154067093Y-104373068D01*
X154079588Y-104373775D01*
X154121536Y-104373775D01*
X154141625Y-104371844D01*
X154158529Y-104366142D01*
X154171011Y-104357804D01*
X154180641Y-104346568D01*
X154190872Y-104316237D01*
X154191573Y-104303799D01*
X154191573Y-104081172D01*
X154402965Y-104081172D01*
X154423050Y-104079241D01*
X154439943Y-104073539D01*
X154452410Y-104065204D01*
X154462026Y-104053971D01*
X154472241Y-104023633D01*
X154472941Y-104011196D01*
X154472941Y-103976209D01*
X154471010Y-103956120D01*
X154465308Y-103939216D01*
X154456970Y-103926734D01*
X154445734Y-103917104D01*
X154415403Y-103906873D01*
X154402965Y-103906172D01*
X154191573Y-103906172D01*
X154191573Y-103682201D01*
X154189642Y-103662139D01*
X154183944Y-103645261D01*
X154175607Y-103632790D01*
X154164373Y-103623168D01*
X154134031Y-103612932D01*
X154121536Y-103612226D01*
X154079588Y-103612226D01*
X154059499Y-103614157D01*
X154042596Y-103619858D01*
X154030113Y-103628196D01*
X154020483Y-103639432D01*
X154010253Y-103669763D01*
X154009551Y-103682201D01*
X154009551Y-103906172D01*
X153799563Y-103906172D01*
X153779501Y-103908102D01*
X153762623Y-103913801D01*
X153750152Y-103922138D01*
X153740530Y-103933372D01*
X153730294Y-103963714D01*
X153729588Y-103976209D01*
X153729588Y-104011196D01*
X153731519Y-104031281D01*
X153737220Y-104048174D01*
X153745556Y-104060641D01*
X153756789Y-104070257D01*
X153787127Y-104080472D01*
X153799563Y-104081172D01*
G37*
G36*
X148764654Y-104055554D02*
G01*
X148766102Y-104079511D01*
X148770376Y-104099472D01*
X148776594Y-104114025D01*
X148784963Y-104125177D01*
X148807834Y-104137040D01*
X148817182Y-104137839D01*
X149283380Y-104137839D01*
X149298428Y-104135529D01*
X149311093Y-104128736D01*
X149320510Y-104118760D01*
X149327757Y-104105357D01*
X149335382Y-104069407D01*
X149335862Y-104055554D01*
X149334414Y-104031474D01*
X149330141Y-104011207D01*
X149323888Y-103996220D01*
X149315463Y-103984655D01*
X149292723Y-103972356D01*
X149283380Y-103971510D01*
X148817182Y-103971510D01*
X148802132Y-103973826D01*
X148789465Y-103980665D01*
X148780100Y-103990672D01*
X148772874Y-104004156D01*
X148765185Y-104040558D01*
X148764654Y-104055554D01*
G37*
G36*
X154942361Y-88773440D02*
G01*
X155008340Y-88785416D01*
X155061474Y-88804884D01*
X155103742Y-88831117D01*
X155136696Y-88864183D01*
X155149953Y-88883520D01*
X155161124Y-88905015D01*
X155170157Y-88928979D01*
X155176813Y-88955311D01*
X155181048Y-88984982D01*
X155182490Y-89017345D01*
X155182401Y-89025407D01*
X155180319Y-89056125D01*
X155175572Y-89084690D01*
X155168295Y-89111118D01*
X155158615Y-89135452D01*
X155146408Y-89158138D01*
X155131976Y-89178706D01*
X155114728Y-89197914D01*
X155095372Y-89214892D01*
X155072729Y-89230491D01*
X155048080Y-89243666D01*
X155186658Y-89490413D01*
X155195066Y-89515387D01*
X155191864Y-89534351D01*
X155186073Y-89542007D01*
X155177605Y-89547840D01*
X155165254Y-89551956D01*
X155149930Y-89553381D01*
X155054354Y-89553381D01*
X155037608Y-89551804D01*
X155024620Y-89547712D01*
X155013336Y-89541087D01*
X155002007Y-89530086D01*
X154992439Y-89515600D01*
X154868516Y-89278288D01*
X154778207Y-89278288D01*
X154778207Y-89500900D01*
X154777683Y-89510227D01*
X154770021Y-89532980D01*
X154762809Y-89541405D01*
X154753459Y-89547657D01*
X154740789Y-89551933D01*
X154725726Y-89553381D01*
X154642790Y-89553381D01*
X154633419Y-89552852D01*
X154610662Y-89545175D01*
X154602237Y-89537958D01*
X154595984Y-89528605D01*
X154591710Y-89515946D01*
X154590262Y-89500900D01*
X154590262Y-89130231D01*
X154778207Y-89130231D01*
X154862242Y-89130231D01*
X154871974Y-89130071D01*
X154919166Y-89123583D01*
X154953746Y-89109106D01*
X154978295Y-89087450D01*
X154987348Y-89073502D01*
X154993965Y-89057648D01*
X154998308Y-89038566D01*
X154999766Y-89017345D01*
X154997296Y-88990814D01*
X154986097Y-88962252D01*
X154976674Y-88950507D01*
X154964860Y-88940841D01*
X154948073Y-88932010D01*
X154928131Y-88925645D01*
X154897719Y-88920743D01*
X154862242Y-88919205D01*
X154778207Y-88919205D01*
X154778207Y-89130231D01*
X154590262Y-89130231D01*
X154590262Y-88822622D01*
X154590789Y-88813294D01*
X154598462Y-88790545D01*
X154605684Y-88782118D01*
X154615046Y-88775865D01*
X154627723Y-88771589D01*
X154642790Y-88770140D01*
X154876943Y-88770140D01*
X154942361Y-88773440D01*
G37*
G36*
X155336409Y-89223379D02*
G01*
X155493900Y-89223379D01*
X155493900Y-89390349D01*
X155495348Y-89405396D01*
X155499622Y-89418054D01*
X155505875Y-89427408D01*
X155514300Y-89434624D01*
X155537056Y-89442301D01*
X155546427Y-89442831D01*
X155577889Y-89442831D01*
X155592955Y-89441383D01*
X155605633Y-89437107D01*
X155614995Y-89430853D01*
X155622217Y-89422426D01*
X155629890Y-89399678D01*
X155630416Y-89390349D01*
X155630416Y-89223379D01*
X155788961Y-89223379D01*
X155804024Y-89221930D01*
X155816694Y-89217654D01*
X155826044Y-89211403D01*
X155833256Y-89202978D01*
X155840918Y-89180224D01*
X155841442Y-89170897D01*
X155841442Y-89144656D01*
X155839994Y-89129590D01*
X155835718Y-89116912D01*
X155829464Y-89107550D01*
X155821037Y-89100328D01*
X155798289Y-89092655D01*
X155788961Y-89092129D01*
X155630416Y-89092129D01*
X155630416Y-88924151D01*
X155628968Y-88909104D01*
X155624695Y-88896446D01*
X155618442Y-88887092D01*
X155610017Y-88879876D01*
X155587260Y-88872199D01*
X155577889Y-88871669D01*
X155546427Y-88871669D01*
X155531361Y-88873117D01*
X155518683Y-88877394D01*
X155509321Y-88883647D01*
X155502099Y-88892074D01*
X155494426Y-88914822D01*
X155493900Y-88924151D01*
X155493900Y-89092129D01*
X155336409Y-89092129D01*
X155321363Y-89093577D01*
X155308704Y-89097851D01*
X155299350Y-89104104D01*
X155292134Y-89112529D01*
X155284457Y-89135285D01*
X155283927Y-89144656D01*
X155283927Y-89170897D01*
X155285376Y-89185960D01*
X155289652Y-89198630D01*
X155295904Y-89207981D01*
X155304328Y-89215192D01*
X155327082Y-89222854D01*
X155336409Y-89223379D01*
G37*
G36*
X155145702Y-99846057D02*
G01*
X155190380Y-99883965D01*
X155241090Y-99914486D01*
X155294806Y-99935743D01*
X155338731Y-99945182D01*
X155349589Y-99945459D01*
X155359785Y-99943098D01*
X155379715Y-99930666D01*
X155387620Y-99923291D01*
X155555391Y-99755521D01*
X155563726Y-99745411D01*
X155568870Y-99735030D01*
X155570779Y-99725457D01*
X155570045Y-99715864D01*
X155560820Y-99697218D01*
X155555419Y-99691168D01*
X155441532Y-99577282D01*
X155431422Y-99568946D01*
X155421040Y-99563803D01*
X155411469Y-99561897D01*
X155401875Y-99562633D01*
X155383221Y-99571864D01*
X155377152Y-99577282D01*
X155347544Y-99606890D01*
X155339220Y-99616989D01*
X155334084Y-99627363D01*
X155332183Y-99636932D01*
X155332922Y-99646525D01*
X155342162Y-99665185D01*
X155347572Y-99671242D01*
X155391325Y-99714995D01*
X155314259Y-99792061D01*
X155290662Y-99783928D01*
X155261759Y-99763698D01*
X155257035Y-99759197D01*
X155238930Y-99739308D01*
X155224102Y-99719177D01*
X155213024Y-99699883D01*
X155204811Y-99680416D01*
X155199558Y-99661454D01*
X155196908Y-99642370D01*
X155199233Y-99604129D01*
X155211877Y-99564638D01*
X155236083Y-99522961D01*
X155275502Y-99476922D01*
X155297128Y-99457065D01*
X155319079Y-99440307D01*
X155340834Y-99426826D01*
X155362655Y-99416266D01*
X155384003Y-99408710D01*
X155405178Y-99403898D01*
X155425717Y-99401809D01*
X155445864Y-99402308D01*
X155465318Y-99405321D01*
X155484172Y-99410809D01*
X155519656Y-99429093D01*
X155545231Y-99450401D01*
X155559862Y-99466771D01*
X155571434Y-99483335D01*
X155587182Y-99518081D01*
X155590977Y-99532070D01*
X155595252Y-99546599D01*
X155601650Y-99557992D01*
X155608592Y-99564932D01*
X155617147Y-99569640D01*
X155638469Y-99572221D01*
X155641156Y-99571978D01*
X155686116Y-99568161D01*
X155699714Y-99565383D01*
X155710956Y-99560320D01*
X155718683Y-99554016D01*
X155724209Y-99546004D01*
X155728013Y-99526427D01*
X155727315Y-99519272D01*
X155722201Y-99492197D01*
X155714094Y-99464535D01*
X155703768Y-99438907D01*
X155690434Y-99413273D01*
X155675066Y-99389545D01*
X155656681Y-99366206D01*
X155639809Y-99348077D01*
X155617150Y-99327205D01*
X155593223Y-99308605D01*
X155568310Y-99292439D01*
X155542390Y-99278657D01*
X155515878Y-99267438D01*
X155488618Y-99258687D01*
X155461122Y-99252541D01*
X155433128Y-99248926D01*
X155405178Y-99247902D01*
X155376963Y-99249458D01*
X155348988Y-99253579D01*
X155320964Y-99260328D01*
X155293303Y-99269645D01*
X155265798Y-99281647D01*
X155238741Y-99296277D01*
X155212035Y-99313666D01*
X155185858Y-99333803D01*
X155160224Y-99356793D01*
X155153897Y-99363008D01*
X155129492Y-99389186D01*
X155108159Y-99415742D01*
X155090013Y-99442313D01*
X155074746Y-99469108D01*
X155062361Y-99495889D01*
X155052694Y-99522746D01*
X155045681Y-99549620D01*
X155041263Y-99576427D01*
X155039991Y-99629986D01*
X155048717Y-99683230D01*
X155067533Y-99735819D01*
X155096666Y-99787164D01*
X155136308Y-99836371D01*
X155145702Y-99846057D01*
G37*
G36*
X155858096Y-99645507D02*
G01*
X155443076Y-100060528D01*
X155434742Y-100070636D01*
X155429604Y-100081013D01*
X155427704Y-100090577D01*
X155428445Y-100100162D01*
X155437686Y-100118813D01*
X155443104Y-100124880D01*
X155488148Y-100169924D01*
X155498257Y-100178258D01*
X155508639Y-100183399D01*
X155518206Y-100185299D01*
X155527796Y-100184557D01*
X155546444Y-100175309D01*
X155552472Y-100169924D01*
X155679240Y-100043156D01*
X155739447Y-99977002D01*
X155801673Y-99900643D01*
X155841398Y-99851418D01*
X155844597Y-99854617D01*
X155786700Y-100006475D01*
X155685667Y-100321136D01*
X155682318Y-100336107D01*
X155682351Y-100349673D01*
X155685083Y-100360207D01*
X155690370Y-100370255D01*
X155699840Y-100381616D01*
X155759028Y-100440804D01*
X155769149Y-100449150D01*
X155779539Y-100454298D01*
X155789108Y-100456203D01*
X155798698Y-100455465D01*
X155817341Y-100446226D01*
X155823380Y-100440832D01*
X156238401Y-100025812D01*
X156246737Y-100015701D01*
X156251880Y-100005320D01*
X156253786Y-99995748D01*
X156253050Y-99986155D01*
X156243819Y-99967500D01*
X156238401Y-99961431D01*
X156193357Y-99916387D01*
X156183259Y-99908063D01*
X156172885Y-99902928D01*
X156163315Y-99901026D01*
X156153722Y-99901766D01*
X156135063Y-99911006D01*
X156129005Y-99916415D01*
X156002265Y-100043156D01*
X155941736Y-100109687D01*
X155865206Y-100204555D01*
X155840724Y-100235567D01*
X155837497Y-100232340D01*
X155896713Y-100079219D01*
X155996455Y-99765848D01*
X155999477Y-99751127D01*
X155999290Y-99737458D01*
X155996449Y-99726476D01*
X155991015Y-99716004D01*
X155981665Y-99704695D01*
X155922477Y-99645507D01*
X155912367Y-99637172D01*
X155901985Y-99632028D01*
X155892413Y-99630122D01*
X155882820Y-99630858D01*
X155864165Y-99640089D01*
X155858096Y-99645507D01*
G37*
G36*
X156392023Y-100124478D02*
G01*
X156402404Y-100129623D01*
X156412514Y-100137958D01*
X156518038Y-100243481D01*
X156528095Y-100253772D01*
X156573434Y-100307834D01*
X156605769Y-100360291D01*
X156626550Y-100411390D01*
X156636814Y-100461633D01*
X156637024Y-100511698D01*
X156633310Y-100536951D01*
X156626971Y-100562323D01*
X156617780Y-100588210D01*
X156605756Y-100614182D01*
X156590372Y-100640959D01*
X156571859Y-100667787D01*
X156549311Y-100695611D01*
X156523258Y-100723444D01*
X156521364Y-100725329D01*
X156467157Y-100772433D01*
X156414095Y-100806254D01*
X156361944Y-100828260D01*
X156336045Y-100835177D01*
X156310290Y-100839457D01*
X156284345Y-100841165D01*
X156258614Y-100840284D01*
X156232369Y-100836733D01*
X156206421Y-100830568D01*
X156179704Y-100821420D01*
X156153391Y-100809576D01*
X156126187Y-100794286D01*
X156099524Y-100776184D01*
X156072022Y-100754127D01*
X156045232Y-100729141D01*
X155933282Y-100617191D01*
X155927873Y-100611133D01*
X155926078Y-100607508D01*
X156108939Y-100607508D01*
X156124402Y-100622972D01*
X156164262Y-100656496D01*
X156200560Y-100675975D01*
X156236415Y-100685068D01*
X156254632Y-100685942D01*
X156273331Y-100684298D01*
X156292834Y-100679916D01*
X156312872Y-100672666D01*
X156334371Y-100661899D01*
X156356498Y-100647709D01*
X156380621Y-100628791D01*
X156405498Y-100605684D01*
X156436592Y-100571133D01*
X156464712Y-100528670D01*
X156479794Y-100489749D01*
X156483163Y-100470886D01*
X156483860Y-100452541D01*
X156481823Y-100433503D01*
X156477090Y-100414977D01*
X156468702Y-100394574D01*
X156457344Y-100374717D01*
X156439926Y-100351252D01*
X156418969Y-100328405D01*
X156403506Y-100312941D01*
X156108939Y-100607508D01*
X155926078Y-100607508D01*
X155918632Y-100592474D01*
X155917893Y-100582881D01*
X155919794Y-100573311D01*
X155924930Y-100562937D01*
X155933254Y-100552838D01*
X156348162Y-100137930D01*
X156354212Y-100132528D01*
X156372858Y-100123304D01*
X156382451Y-100122570D01*
X156392023Y-100124478D01*
G37*
G36*
X140026240Y-91828346D02*
G01*
X140149064Y-92506670D01*
X140152980Y-92521279D01*
X140159324Y-92533194D01*
X140167220Y-92541770D01*
X140177019Y-92548065D01*
X140202439Y-92553825D01*
X140205759Y-92553885D01*
X140342275Y-92553885D01*
X140357288Y-92552436D01*
X140370099Y-92548150D01*
X140379993Y-92541744D01*
X140388008Y-92533067D01*
X140398550Y-92508593D01*
X140398970Y-92506670D01*
X140457772Y-92213716D01*
X140477046Y-92103773D01*
X140489279Y-92032045D01*
X140493492Y-92032045D01*
X140518898Y-92189223D01*
X140523900Y-92213716D01*
X140584808Y-92507677D01*
X140589399Y-92522580D01*
X140596397Y-92534634D01*
X140604690Y-92542969D01*
X140614905Y-92548972D01*
X140641503Y-92553885D01*
X140782233Y-92553885D01*
X140798273Y-92552401D01*
X140811905Y-92547872D01*
X140821630Y-92541442D01*
X140829407Y-92532595D01*
X140838694Y-92508046D01*
X140838928Y-92506670D01*
X140956531Y-91828346D01*
X140957690Y-91813466D01*
X140955696Y-91800643D01*
X140951239Y-91790807D01*
X140944395Y-91782897D01*
X140924369Y-91773314D01*
X140908217Y-91771652D01*
X140837875Y-91771652D01*
X140822335Y-91773107D01*
X140809088Y-91777430D01*
X140799129Y-91783784D01*
X140791206Y-91792401D01*
X140781818Y-91815910D01*
X140781180Y-91819966D01*
X140737079Y-92128674D01*
X140725669Y-92223983D01*
X140707678Y-92376427D01*
X140702411Y-92376427D01*
X140683151Y-92269705D01*
X140657257Y-92128674D01*
X140586915Y-91817859D01*
X140581829Y-91802474D01*
X140574459Y-91790279D01*
X140566024Y-91782105D01*
X140555756Y-91776310D01*
X140529167Y-91771652D01*
X140465099Y-91771652D01*
X140449138Y-91773130D01*
X140435643Y-91777616D01*
X140425839Y-91784058D01*
X140417866Y-91792906D01*
X140407351Y-91817859D01*
X140338062Y-92128674D01*
X140291854Y-92376427D01*
X140287687Y-92376427D01*
X140256180Y-92128674D01*
X140213132Y-91819966D01*
X140209660Y-91805027D01*
X140203613Y-91792760D01*
X140196017Y-91784075D01*
X140186397Y-91777644D01*
X140161275Y-91771730D01*
X140157490Y-91771652D01*
X140073456Y-91771652D01*
X140058047Y-91773105D01*
X140045401Y-91777415D01*
X140036687Y-91783499D01*
X140030314Y-91791680D01*
X140025000Y-91813285D01*
X140026240Y-91828346D01*
G37*
G36*
X154740262Y-94622576D02*
G01*
X154740262Y-95299801D01*
X154741710Y-95314847D01*
X154745984Y-95327506D01*
X154752237Y-95336859D01*
X154760662Y-95344075D01*
X154783419Y-95351753D01*
X154792790Y-95352282D01*
X155180220Y-95352282D01*
X155195283Y-95350834D01*
X155207953Y-95346558D01*
X155217304Y-95340306D01*
X155224515Y-95331881D01*
X155232177Y-95309128D01*
X155232702Y-95299801D01*
X155232702Y-95247319D01*
X155231254Y-95232252D01*
X155226977Y-95219575D01*
X155220724Y-95210213D01*
X155212297Y-95202991D01*
X155189548Y-95195318D01*
X155180220Y-95194791D01*
X154928207Y-95194791D01*
X154928207Y-94622576D01*
X154926759Y-94607510D01*
X154922483Y-94594832D01*
X154916230Y-94585470D01*
X154907803Y-94578248D01*
X154885054Y-94570575D01*
X154875726Y-94570049D01*
X154792790Y-94570049D01*
X154777740Y-94571497D01*
X154765074Y-94575771D01*
X154755709Y-94582025D01*
X154748482Y-94590453D01*
X154740794Y-94613204D01*
X154740262Y-94622576D01*
G37*
G36*
X147032558Y-87432841D02*
G01*
X147033996Y-87468854D01*
X147038200Y-87502774D01*
X147045018Y-87534611D01*
X147054281Y-87564248D01*
X147065863Y-87591724D01*
X147079570Y-87616885D01*
X147095310Y-87639782D01*
X147112853Y-87660241D01*
X147132136Y-87678301D01*
X147152897Y-87693795D01*
X147198390Y-87716967D01*
X147247913Y-87729171D01*
X147276969Y-87731016D01*
X147306191Y-87729565D01*
X147333215Y-87725272D01*
X147357310Y-87718510D01*
X147379515Y-87709258D01*
X147418394Y-87683759D01*
X147451642Y-87648141D01*
X147480250Y-87600414D01*
X147490697Y-87576685D01*
X147529440Y-87479003D01*
X147533183Y-87469461D01*
X147551049Y-87425526D01*
X147569002Y-87391402D01*
X147578967Y-87378711D01*
X147590102Y-87369304D01*
X147602790Y-87363457D01*
X147617413Y-87361446D01*
X147631209Y-87362892D01*
X147643447Y-87367154D01*
X147662499Y-87382956D01*
X147675547Y-87409346D01*
X147681283Y-87448727D01*
X147681344Y-87453816D01*
X147679906Y-87480284D01*
X147675702Y-87505429D01*
X147659052Y-87554163D01*
X147649882Y-87572472D01*
X147642450Y-87588524D01*
X147639196Y-87603501D01*
X147639789Y-87615146D01*
X147643472Y-87626105D01*
X147660369Y-87645974D01*
X147699158Y-87676428D01*
X147712250Y-87685010D01*
X147725279Y-87689860D01*
X147736660Y-87690945D01*
X147747649Y-87688889D01*
X147766925Y-87675985D01*
X147772660Y-87669055D01*
X147804773Y-87615726D01*
X147827715Y-87555581D01*
X147840085Y-87491100D01*
X147841994Y-87453816D01*
X147840554Y-87420572D01*
X147836333Y-87388807D01*
X147829401Y-87358363D01*
X147819941Y-87329698D01*
X147808045Y-87302824D01*
X147793910Y-87278021D01*
X147777735Y-87255481D01*
X147759644Y-87235276D01*
X147740009Y-87217717D01*
X147718801Y-87202711D01*
X147696563Y-87190577D01*
X147673095Y-87181165D01*
X147649022Y-87174702D01*
X147624038Y-87171098D01*
X147605918Y-87170341D01*
X147579669Y-87171771D01*
X147555117Y-87175913D01*
X147510074Y-87191913D01*
X147470057Y-87217864D01*
X147434937Y-87253839D01*
X147405429Y-87299840D01*
X147392237Y-87328886D01*
X147350334Y-87428628D01*
X147344681Y-87442122D01*
X147327248Y-87482296D01*
X147309934Y-87512764D01*
X147300278Y-87523912D01*
X147289401Y-87532096D01*
X147276886Y-87537138D01*
X147262315Y-87538858D01*
X147247636Y-87537385D01*
X147234492Y-87532933D01*
X147223824Y-87526142D01*
X147214651Y-87516737D01*
X147201067Y-87489666D01*
X147194502Y-87448207D01*
X147194262Y-87437009D01*
X147199882Y-87389813D01*
X147217858Y-87336388D01*
X147243493Y-87288952D01*
X147251520Y-87273321D01*
X147255305Y-87258551D01*
X147255087Y-87247031D01*
X147251739Y-87236038D01*
X147236035Y-87216277D01*
X147235112Y-87215496D01*
X147185836Y-87174509D01*
X147172941Y-87165589D01*
X147160069Y-87160465D01*
X147148843Y-87159184D01*
X147137916Y-87161042D01*
X147118300Y-87173649D01*
X147111281Y-87181882D01*
X147076765Y-87240736D01*
X147051239Y-87306718D01*
X147036229Y-87377082D01*
X147032558Y-87432841D01*
G37*
G36*
X143031322Y-87392908D02*
G01*
X143032779Y-87428476D01*
X143037118Y-87462945D01*
X143044151Y-87495483D01*
X143053877Y-87526368D01*
X143065753Y-87554285D01*
X143080044Y-87580134D01*
X143095817Y-87602533D01*
X143113696Y-87622606D01*
X143132536Y-87639266D01*
X143153201Y-87653448D01*
X143174620Y-87664506D01*
X143197649Y-87672962D01*
X143221542Y-87678529D01*
X143246906Y-87681330D01*
X143259155Y-87681649D01*
X143284715Y-87680211D01*
X143308548Y-87676010D01*
X143330673Y-87669208D01*
X143351077Y-87659975D01*
X143387454Y-87634235D01*
X143417827Y-87598798D01*
X143441580Y-87553442D01*
X143449252Y-87531531D01*
X143454518Y-87531531D01*
X143466521Y-87557312D01*
X143480409Y-87580137D01*
X143495463Y-87599287D01*
X143512108Y-87615689D01*
X143529815Y-87629038D01*
X143548900Y-87639756D01*
X143590830Y-87653257D01*
X143626710Y-87656461D01*
X143654258Y-87655011D01*
X143680015Y-87650725D01*
X143703405Y-87643897D01*
X143725048Y-87634545D01*
X143762763Y-87608840D01*
X143793727Y-87573673D01*
X143817858Y-87528437D01*
X143834342Y-87472244D01*
X143841753Y-87404383D01*
X143841994Y-87388740D01*
X143840545Y-87356819D01*
X143836263Y-87326017D01*
X143819399Y-87266965D01*
X143791064Y-87209623D01*
X143777926Y-87189209D01*
X143768399Y-87177743D01*
X143758111Y-87170101D01*
X143748231Y-87166389D01*
X143737900Y-87165640D01*
X143715899Y-87172882D01*
X143704425Y-87180829D01*
X143670811Y-87208123D01*
X143659918Y-87218716D01*
X143652976Y-87229841D01*
X143650040Y-87240152D01*
X143650036Y-87250922D01*
X143658924Y-87274611D01*
X143663483Y-87281625D01*
X143677897Y-87306107D01*
X143688273Y-87330934D01*
X143693587Y-87351981D01*
X143695935Y-87374189D01*
X143696044Y-87380314D01*
X143694590Y-87401326D01*
X143690272Y-87419654D01*
X143683900Y-87433961D01*
X143675257Y-87445932D01*
X143664989Y-87455094D01*
X143652761Y-87462058D01*
X143621974Y-87469264D01*
X143613063Y-87469569D01*
X143593900Y-87468042D01*
X143576377Y-87463213D01*
X143562886Y-87456245D01*
X143550749Y-87446402D01*
X143531608Y-87418776D01*
X143517837Y-87376294D01*
X143513320Y-87347753D01*
X143510260Y-87330573D01*
X143504426Y-87316571D01*
X143497300Y-87307348D01*
X143488072Y-87300515D01*
X143464281Y-87294339D01*
X143459739Y-87294218D01*
X143430338Y-87294218D01*
X143415422Y-87295675D01*
X143403032Y-87300009D01*
X143393993Y-87306311D01*
X143386874Y-87314852D01*
X143378016Y-87339373D01*
X143376803Y-87348807D01*
X143372657Y-87386454D01*
X143366183Y-87417298D01*
X143358655Y-87439221D01*
X143349453Y-87456787D01*
X143339616Y-87469383D01*
X143328466Y-87478987D01*
X143302372Y-87490465D01*
X143271794Y-87493704D01*
X143254722Y-87492261D01*
X143239428Y-87488027D01*
X143226314Y-87481391D01*
X143214894Y-87472389D01*
X143196834Y-87447104D01*
X143185504Y-87410703D01*
X143182539Y-87374040D01*
X143188176Y-87328890D01*
X143205106Y-87284801D01*
X143224533Y-87253277D01*
X143232911Y-87238792D01*
X143237201Y-87224946D01*
X143237550Y-87213681D01*
X143234781Y-87202969D01*
X143220439Y-87184057D01*
X143215054Y-87179775D01*
X143179379Y-87153534D01*
X143165174Y-87145127D01*
X143151288Y-87140703D01*
X143139848Y-87140241D01*
X143128793Y-87142946D01*
X143109077Y-87157335D01*
X143106930Y-87159808D01*
X143089204Y-87182994D01*
X143073590Y-87208418D01*
X143060489Y-87235491D01*
X143049657Y-87264791D01*
X143041257Y-87296171D01*
X143035341Y-87329835D01*
X143031322Y-87392908D01*
G37*
G36*
X143771149Y-87747319D02*
G01*
X143091772Y-87949965D01*
X143077788Y-87955457D01*
X143066470Y-87963137D01*
X143058265Y-87972250D01*
X143052406Y-87983119D01*
X143047717Y-88009819D01*
X143047717Y-88143176D01*
X143049183Y-88158890D01*
X143053583Y-88172595D01*
X143060121Y-88183204D01*
X143069082Y-88191983D01*
X143091772Y-88203031D01*
X143771149Y-88405676D01*
X143786021Y-88408550D01*
X143799069Y-88408013D01*
X143809106Y-88404700D01*
X143817346Y-88398798D01*
X143827627Y-88380407D01*
X143829950Y-88361575D01*
X143829950Y-88279647D01*
X143828456Y-88263014D01*
X143823860Y-88248910D01*
X143817394Y-88238945D01*
X143808462Y-88230856D01*
X143784796Y-88220845D01*
X143472928Y-88144229D01*
X143354385Y-88115456D01*
X143223022Y-88083321D01*
X143223022Y-88078055D01*
X143331113Y-88052113D01*
X143472928Y-88017147D01*
X143784796Y-87939477D01*
X143799362Y-87934450D01*
X143811059Y-87927140D01*
X143819239Y-87918531D01*
X143825096Y-87908082D01*
X143829950Y-87880676D01*
X143829950Y-87791420D01*
X143828517Y-87776282D01*
X143824348Y-87763926D01*
X143818371Y-87755230D01*
X143810452Y-87748998D01*
X143790046Y-87744250D01*
X143771149Y-87747319D01*
G37*
G36*
X143031322Y-88706690D02*
G01*
X143032779Y-88742258D01*
X143037118Y-88776727D01*
X143044151Y-88809266D01*
X143053877Y-88840150D01*
X143065753Y-88868068D01*
X143080044Y-88893916D01*
X143095817Y-88916316D01*
X143113696Y-88936388D01*
X143132536Y-88953049D01*
X143153201Y-88967230D01*
X143174620Y-88978288D01*
X143197649Y-88986744D01*
X143221542Y-88992311D01*
X143246906Y-88995112D01*
X143259155Y-88995431D01*
X143284715Y-88993993D01*
X143308548Y-88989793D01*
X143330673Y-88982991D01*
X143351077Y-88973757D01*
X143387454Y-88948017D01*
X143417827Y-88912580D01*
X143441580Y-88867224D01*
X143449252Y-88845313D01*
X143454518Y-88845313D01*
X143466521Y-88871094D01*
X143480409Y-88893919D01*
X143495463Y-88913069D01*
X143512108Y-88929471D01*
X143529815Y-88942820D01*
X143548900Y-88953538D01*
X143590830Y-88967039D01*
X143626710Y-88970243D01*
X143654258Y-88968794D01*
X143680015Y-88964508D01*
X143703405Y-88957680D01*
X143725048Y-88948328D01*
X143762763Y-88922622D01*
X143793727Y-88887455D01*
X143817858Y-88842219D01*
X143834342Y-88786026D01*
X143841753Y-88718165D01*
X143841994Y-88702523D01*
X143840545Y-88670601D01*
X143836263Y-88639799D01*
X143819399Y-88580747D01*
X143791064Y-88523405D01*
X143777926Y-88502991D01*
X143768399Y-88491525D01*
X143758111Y-88483883D01*
X143748231Y-88480171D01*
X143737900Y-88479422D01*
X143715899Y-88486664D01*
X143704425Y-88494611D01*
X143670811Y-88521905D01*
X143659918Y-88532498D01*
X143652976Y-88543623D01*
X143650040Y-88553934D01*
X143650036Y-88564705D01*
X143658924Y-88588393D01*
X143663483Y-88595407D01*
X143677897Y-88619889D01*
X143688273Y-88644716D01*
X143693587Y-88665763D01*
X143695935Y-88687972D01*
X143696044Y-88694096D01*
X143694590Y-88715108D01*
X143690272Y-88733436D01*
X143683900Y-88747743D01*
X143675257Y-88759714D01*
X143664989Y-88768876D01*
X143652761Y-88775841D01*
X143621974Y-88783047D01*
X143613063Y-88783352D01*
X143593900Y-88781824D01*
X143576377Y-88776995D01*
X143562886Y-88770027D01*
X143550749Y-88760185D01*
X143531608Y-88732559D01*
X143517837Y-88690076D01*
X143513320Y-88661536D01*
X143510260Y-88644355D01*
X143504426Y-88630353D01*
X143497300Y-88621131D01*
X143488072Y-88614297D01*
X143464281Y-88608121D01*
X143459739Y-88608001D01*
X143430338Y-88608001D01*
X143415422Y-88609457D01*
X143403032Y-88613791D01*
X143393993Y-88620093D01*
X143386874Y-88628634D01*
X143378016Y-88653155D01*
X143376803Y-88662589D01*
X143372657Y-88700236D01*
X143366183Y-88731080D01*
X143358655Y-88753004D01*
X143349453Y-88770569D01*
X143339616Y-88783165D01*
X143328466Y-88792769D01*
X143302372Y-88804247D01*
X143271794Y-88807486D01*
X143254722Y-88806044D01*
X143239428Y-88801809D01*
X143226314Y-88795173D01*
X143214894Y-88786171D01*
X143196834Y-88760886D01*
X143185504Y-88724485D01*
X143182539Y-88687822D01*
X143188176Y-88642673D01*
X143205106Y-88598583D01*
X143224533Y-88567059D01*
X143232911Y-88552575D01*
X143237201Y-88538728D01*
X143237550Y-88527464D01*
X143234781Y-88516752D01*
X143220439Y-88497839D01*
X143215054Y-88493558D01*
X143179379Y-88467317D01*
X143165174Y-88458909D01*
X143151288Y-88454485D01*
X143139848Y-88454023D01*
X143128793Y-88456728D01*
X143109077Y-88471117D01*
X143106930Y-88473591D01*
X143089204Y-88496776D01*
X143073590Y-88522200D01*
X143060489Y-88549273D01*
X143049657Y-88578574D01*
X143041257Y-88609954D01*
X143035341Y-88643617D01*
X143031322Y-88706690D01*
G37*
G36*
X151264417Y-102758938D02*
G01*
X151305030Y-102769403D01*
X151322756Y-102778036D01*
X151338775Y-102788850D01*
X151353359Y-102802094D01*
X151366089Y-102817473D01*
X151377372Y-102835741D01*
X151386556Y-102856174D01*
X151393927Y-102879984D01*
X151398873Y-102906011D01*
X151401409Y-102935705D01*
X151401153Y-102967633D01*
X151397852Y-103003193D01*
X151391393Y-103040926D01*
X151383613Y-103073155D01*
X151372390Y-103108552D01*
X151359018Y-103141661D01*
X151343371Y-103173032D01*
X151325906Y-103201922D01*
X151306564Y-103228626D01*
X151285793Y-103252677D01*
X151263747Y-103274081D01*
X151240707Y-103292711D01*
X151193064Y-103321188D01*
X151145298Y-103337916D01*
X151099419Y-103343329D01*
X151086951Y-103342815D01*
X151067445Y-103339826D01*
X151048910Y-103334239D01*
X151031174Y-103325982D01*
X151014646Y-103315204D01*
X150999031Y-103301594D01*
X150984912Y-103285499D01*
X150972517Y-103372736D01*
X150949479Y-103483482D01*
X150947987Y-103489569D01*
X150936417Y-103512649D01*
X150927943Y-103520989D01*
X150917797Y-103527126D01*
X150905410Y-103531114D01*
X150891392Y-103532465D01*
X150816635Y-103532465D01*
X150807074Y-103531821D01*
X150788863Y-103524766D01*
X150782721Y-103518223D01*
X150778847Y-103509793D01*
X150777262Y-103497798D01*
X150778851Y-103483482D01*
X150844495Y-103167786D01*
X151015131Y-103167786D01*
X151023763Y-103176497D01*
X151037466Y-103186706D01*
X151051833Y-103193768D01*
X151070216Y-103198736D01*
X151088905Y-103200227D01*
X151118949Y-103195000D01*
X151133442Y-103188328D01*
X151147459Y-103178781D01*
X151161099Y-103165957D01*
X151173928Y-103149875D01*
X151186145Y-103129727D01*
X151197157Y-103105818D01*
X151207079Y-103077015D01*
X151215337Y-103043875D01*
X151218422Y-103027757D01*
X151223375Y-102975566D01*
X151218876Y-102941337D01*
X151207374Y-102918939D01*
X151198749Y-102910793D01*
X151188241Y-102904837D01*
X151173983Y-102900694D01*
X151157250Y-102899320D01*
X151141337Y-102900608D01*
X151124190Y-102905021D01*
X151106926Y-102912677D01*
X151084730Y-102926910D01*
X151061122Y-102946551D01*
X151015131Y-103167786D01*
X150844495Y-103167786D01*
X150916823Y-102819947D01*
X150918316Y-102813858D01*
X150929896Y-102790783D01*
X150938380Y-102782442D01*
X150948538Y-102776303D01*
X150960932Y-102772316D01*
X150974953Y-102770964D01*
X151022868Y-102770964D01*
X151047380Y-102773744D01*
X151061894Y-102782010D01*
X151065876Y-102788817D01*
X151067192Y-102797422D01*
X151067277Y-102824863D01*
X151070141Y-102824863D01*
X151094332Y-102807621D01*
X151146259Y-102778801D01*
X151194192Y-102762428D01*
X151237563Y-102757244D01*
X151264417Y-102758938D01*
G37*
G36*
X140331582Y-88572208D02*
G01*
X140412683Y-88579325D01*
X140481865Y-88595742D01*
X140540511Y-88620478D01*
X140589878Y-88653098D01*
X140630898Y-88693774D01*
X140648471Y-88717408D01*
X140664000Y-88743280D01*
X140677622Y-88771900D01*
X140689002Y-88802901D01*
X140698298Y-88837300D01*
X140705082Y-88874293D01*
X140709386Y-88915392D01*
X140710838Y-88959357D01*
X140710831Y-88962439D01*
X140705036Y-89045098D01*
X140689337Y-89115986D01*
X140664742Y-89176490D01*
X140649255Y-89203264D01*
X140631733Y-89227770D01*
X140611959Y-89250331D01*
X140590246Y-89270606D01*
X140565936Y-89289123D01*
X140539735Y-89305263D01*
X140510473Y-89319598D01*
X140479341Y-89331402D01*
X140444671Y-89341123D01*
X140408147Y-89348108D01*
X140367712Y-89352551D01*
X140325468Y-89354023D01*
X140142790Y-89354023D01*
X140133434Y-89353493D01*
X140110671Y-89345809D01*
X140102241Y-89338585D01*
X140095984Y-89329226D01*
X140091710Y-89316572D01*
X140090262Y-89301541D01*
X140090262Y-89202806D01*
X140278207Y-89202806D01*
X140303441Y-89202806D01*
X140363314Y-89197636D01*
X140408822Y-89183914D01*
X140445495Y-89162079D01*
X140461071Y-89147929D01*
X140474986Y-89131331D01*
X140487323Y-89111844D01*
X140497757Y-89089580D01*
X140506513Y-89063254D01*
X140512988Y-89033623D01*
X140517236Y-88998507D01*
X140518680Y-88959357D01*
X140515859Y-88905798D01*
X140504156Y-88848209D01*
X140484707Y-88804149D01*
X140472065Y-88786010D01*
X140457666Y-88770473D01*
X140440472Y-88756602D01*
X140421494Y-88745349D01*
X140398004Y-88735546D01*
X140372535Y-88728612D01*
X140339180Y-88723678D01*
X140303441Y-88722136D01*
X140278207Y-88722136D01*
X140278207Y-89202806D01*
X140090262Y-89202806D01*
X140090262Y-88624500D01*
X140090792Y-88615156D01*
X140098478Y-88592417D01*
X140105706Y-88583992D01*
X140115074Y-88577738D01*
X140127740Y-88573466D01*
X140142790Y-88572018D01*
X140314981Y-88572018D01*
X140331582Y-88572208D01*
G37*
G36*
X154377011Y-87190262D02*
G01*
X153699740Y-87190262D01*
X153684710Y-87191710D01*
X153672056Y-87195984D01*
X153662696Y-87202241D01*
X153655473Y-87210671D01*
X153647788Y-87233434D01*
X153647259Y-87242790D01*
X153647259Y-87325726D01*
X153648707Y-87340772D01*
X153652979Y-87353431D01*
X153659231Y-87362787D01*
X153667654Y-87370004D01*
X153690398Y-87377680D01*
X153699740Y-87378207D01*
X153968560Y-87378207D01*
X153968560Y-87635487D01*
X153699740Y-87635487D01*
X153684693Y-87636935D01*
X153672028Y-87641211D01*
X153662671Y-87647466D01*
X153655452Y-87655896D01*
X153647783Y-87678656D01*
X153647259Y-87687968D01*
X153647259Y-87769851D01*
X153648707Y-87784900D01*
X153652979Y-87797567D01*
X153659233Y-87806934D01*
X153667658Y-87814163D01*
X153690397Y-87821849D01*
X153699740Y-87822378D01*
X154377011Y-87822378D01*
X154392042Y-87820930D01*
X154404695Y-87816656D01*
X154414055Y-87810400D01*
X154421278Y-87801970D01*
X154428963Y-87779207D01*
X154429492Y-87769851D01*
X154429492Y-87687968D01*
X154428044Y-87672922D01*
X154423772Y-87660263D01*
X154417520Y-87650907D01*
X154409097Y-87643690D01*
X154386353Y-87636015D01*
X154377011Y-87635487D01*
X154131318Y-87635487D01*
X154131318Y-87378207D01*
X154377011Y-87378207D01*
X154392058Y-87376759D01*
X154404723Y-87372483D01*
X154414080Y-87366228D01*
X154421299Y-87357798D01*
X154428968Y-87335038D01*
X154429492Y-87325726D01*
X154429492Y-87242790D01*
X154428044Y-87227740D01*
X154423772Y-87215074D01*
X154417518Y-87205706D01*
X154409093Y-87198478D01*
X154386354Y-87190792D01*
X154377011Y-87190262D01*
G37*
G36*
X154377423Y-88002858D02*
G01*
X153700198Y-88002858D01*
X153685152Y-88004306D01*
X153672493Y-88008580D01*
X153663140Y-88014833D01*
X153655924Y-88023258D01*
X153648246Y-88046015D01*
X153647717Y-88055386D01*
X153647717Y-88442816D01*
X153649165Y-88457879D01*
X153653441Y-88470549D01*
X153659693Y-88479900D01*
X153668118Y-88487111D01*
X153690871Y-88494773D01*
X153700198Y-88495298D01*
X153752680Y-88495298D01*
X153767747Y-88493850D01*
X153780424Y-88489573D01*
X153789786Y-88483320D01*
X153797008Y-88474893D01*
X153804681Y-88452144D01*
X153805208Y-88442816D01*
X153805208Y-88190803D01*
X154377423Y-88190803D01*
X154392489Y-88189355D01*
X154405167Y-88185079D01*
X154414529Y-88178826D01*
X154421751Y-88170398D01*
X154429424Y-88147650D01*
X154429950Y-88138322D01*
X154429950Y-88055386D01*
X154428502Y-88040336D01*
X154424228Y-88027670D01*
X154417974Y-88018305D01*
X154409546Y-88011078D01*
X154386795Y-88003390D01*
X154377423Y-88002858D01*
G37*
G36*
X155333970Y-94936156D02*
G01*
X155333970Y-94962397D01*
X155336287Y-94977443D01*
X155343123Y-94990102D01*
X155353126Y-94999458D01*
X155366602Y-95006675D01*
X155402993Y-95014350D01*
X155417941Y-95014878D01*
X155725394Y-95014878D01*
X155749495Y-95013430D01*
X155769766Y-95009154D01*
X155784728Y-95002902D01*
X155796266Y-94994477D01*
X155808525Y-94971724D01*
X155809364Y-94962397D01*
X155809364Y-94936156D01*
X155807047Y-94921092D01*
X155800205Y-94908423D01*
X155790202Y-94899072D01*
X155776723Y-94891860D01*
X155740317Y-94884199D01*
X155725394Y-94883674D01*
X155417941Y-94883674D01*
X155393865Y-94885122D01*
X155373601Y-94889399D01*
X155358630Y-94895654D01*
X155347080Y-94904084D01*
X155334809Y-94926843D01*
X155333970Y-94936156D01*
G37*
G36*
X143177423Y-101240262D02*
G01*
X142500198Y-101240262D01*
X142485152Y-101241710D01*
X142472493Y-101245984D01*
X142463140Y-101252237D01*
X142455924Y-101260662D01*
X142448246Y-101283419D01*
X142447717Y-101292790D01*
X142447717Y-101375726D01*
X142449165Y-101390789D01*
X142453441Y-101403459D01*
X142459693Y-101412809D01*
X142468118Y-101420021D01*
X142490871Y-101427683D01*
X142500198Y-101428207D01*
X143177423Y-101428207D01*
X143192489Y-101426759D01*
X143205167Y-101422483D01*
X143214529Y-101416230D01*
X143221751Y-101407803D01*
X143229424Y-101385054D01*
X143229950Y-101375726D01*
X143229950Y-101292790D01*
X143228502Y-101277740D01*
X143224228Y-101265074D01*
X143217974Y-101255709D01*
X143209546Y-101248482D01*
X143186795Y-101240794D01*
X143177423Y-101240262D01*
G37*
G36*
X143177423Y-101607359D02*
G01*
X142500198Y-101607359D01*
X142485152Y-101608807D01*
X142472493Y-101613081D01*
X142463140Y-101619334D01*
X142455924Y-101627759D01*
X142448246Y-101650516D01*
X142447717Y-101659887D01*
X142447717Y-101733389D01*
X142449165Y-101748437D01*
X142453441Y-101761101D01*
X142459696Y-101770458D01*
X142468126Y-101777677D01*
X142490886Y-101785346D01*
X142500198Y-101785870D01*
X142707057Y-101785870D01*
X142810154Y-101781019D01*
X142923224Y-101769487D01*
X142995798Y-101761736D01*
X142995798Y-101766957D01*
X142824660Y-101843619D01*
X142485498Y-102017916D01*
X142470551Y-102027399D01*
X142459510Y-102038494D01*
X142453143Y-102049317D01*
X142449259Y-102061829D01*
X142447717Y-102078825D01*
X142447717Y-102175407D01*
X142449165Y-102190474D01*
X142453441Y-102203151D01*
X142459694Y-102212513D01*
X142468122Y-102219736D01*
X142490870Y-102227409D01*
X142500198Y-102227935D01*
X143177423Y-102227935D01*
X143192472Y-102226487D01*
X143205139Y-102222213D01*
X143214504Y-102215958D01*
X143221731Y-102207531D01*
X143229419Y-102184779D01*
X143229950Y-102175407D01*
X143229950Y-102101905D01*
X143228502Y-102086875D01*
X143224228Y-102074221D01*
X143217972Y-102064861D01*
X143209542Y-102057638D01*
X143186779Y-102049953D01*
X143177423Y-102049424D01*
X142970610Y-102049424D01*
X142866942Y-102054321D01*
X142727101Y-102069283D01*
X142681823Y-102074611D01*
X142681823Y-102069345D01*
X142855068Y-101992729D01*
X143192123Y-101818431D01*
X143206600Y-101808885D01*
X143217599Y-101797580D01*
X143224242Y-101786302D01*
X143228352Y-101773325D01*
X143229950Y-101756470D01*
X143229950Y-101659887D01*
X143228502Y-101644837D01*
X143224228Y-101632171D01*
X143217974Y-101622806D01*
X143209546Y-101615579D01*
X143186795Y-101607891D01*
X143177423Y-101607359D01*
G37*
G36*
X143177423Y-102408965D02*
G01*
X142500198Y-102408965D01*
X142485152Y-102410412D01*
X142472493Y-102414686D01*
X142463140Y-102420939D01*
X142455924Y-102429364D01*
X142448246Y-102452121D01*
X142447717Y-102461492D01*
X142447717Y-102848922D01*
X142449165Y-102863986D01*
X142453441Y-102876655D01*
X142459693Y-102886006D01*
X142468118Y-102893217D01*
X142490871Y-102900879D01*
X142500198Y-102901404D01*
X142552680Y-102901404D01*
X142567747Y-102899956D01*
X142580424Y-102895679D01*
X142589786Y-102889426D01*
X142597008Y-102880999D01*
X142604681Y-102858250D01*
X142605208Y-102848922D01*
X142605208Y-102596909D01*
X143177423Y-102596909D01*
X143192489Y-102595461D01*
X143205167Y-102591185D01*
X143214529Y-102584932D01*
X143221751Y-102576505D01*
X143229424Y-102553756D01*
X143229950Y-102544428D01*
X143229950Y-102461492D01*
X143228502Y-102446442D01*
X143224228Y-102433776D01*
X143217974Y-102424411D01*
X143209546Y-102417184D01*
X143186795Y-102409496D01*
X143177423Y-102408965D01*
G37*
G36*
X144232558Y-87542018D02*
G01*
X144238082Y-87609399D01*
X144254554Y-87675675D01*
X144281037Y-87736844D01*
X144309174Y-87780384D01*
X144317808Y-87789469D01*
X144328052Y-87795861D01*
X144354456Y-87801979D01*
X144366922Y-87802411D01*
X144640688Y-87802411D01*
X144655738Y-87800964D01*
X144668405Y-87796691D01*
X144677772Y-87790437D01*
X144685000Y-87782012D01*
X144692687Y-87759273D01*
X144693216Y-87749930D01*
X144693216Y-87564091D01*
X144691768Y-87549042D01*
X144687494Y-87536375D01*
X144681239Y-87527010D01*
X144672812Y-87519784D01*
X144650060Y-87512095D01*
X144640688Y-87511564D01*
X144592374Y-87511564D01*
X144577343Y-87513012D01*
X144564689Y-87517286D01*
X144555330Y-87523542D01*
X144548106Y-87531972D01*
X144540421Y-87554736D01*
X144539892Y-87564091D01*
X144539892Y-87635487D01*
X144414138Y-87635487D01*
X144401521Y-87609598D01*
X144394444Y-87569511D01*
X144394262Y-87561985D01*
X144395718Y-87530986D01*
X144400045Y-87502463D01*
X144406748Y-87477683D01*
X144415930Y-87455099D01*
X144427115Y-87435341D01*
X144440523Y-87417609D01*
X144473621Y-87388306D01*
X144516157Y-87366402D01*
X144569911Y-87352147D01*
X144639635Y-87346746D01*
X144673481Y-87348189D01*
X144705063Y-87352425D01*
X144733813Y-87359177D01*
X144760232Y-87368364D01*
X144783814Y-87379617D01*
X144805017Y-87392968D01*
X144823479Y-87408020D01*
X144839510Y-87424866D01*
X144852924Y-87443196D01*
X144863829Y-87463057D01*
X144877862Y-87506926D01*
X144881344Y-87545178D01*
X144879925Y-87570470D01*
X144875852Y-87593428D01*
X144860352Y-87634625D01*
X144852035Y-87649134D01*
X144843668Y-87664476D01*
X144839593Y-87678991D01*
X144839594Y-87690318D01*
X144842733Y-87701139D01*
X144858024Y-87720641D01*
X144860415Y-87722636D01*
X144900211Y-87756204D01*
X144913573Y-87765032D01*
X144926876Y-87770073D01*
X144938324Y-87771234D01*
X144949369Y-87769206D01*
X144968445Y-87756337D01*
X144973713Y-87749930D01*
X144991631Y-87723667D01*
X145007586Y-87694483D01*
X145020071Y-87665149D01*
X145030106Y-87633354D01*
X145036927Y-87601457D01*
X145040969Y-87567415D01*
X145041994Y-87538858D01*
X145040536Y-87503341D01*
X145036191Y-87468644D01*
X145029054Y-87435128D01*
X145019150Y-87402735D01*
X145006673Y-87371950D01*
X144991572Y-87342569D01*
X144974153Y-87315121D01*
X144954262Y-87289331D01*
X144932293Y-87265692D01*
X144908003Y-87243942D01*
X144881816Y-87224479D01*
X144853445Y-87207120D01*
X144823275Y-87192154D01*
X144791041Y-87179505D01*
X144757030Y-87169366D01*
X144721052Y-87161764D01*
X144683266Y-87156836D01*
X144643593Y-87154679D01*
X144633361Y-87154588D01*
X144592090Y-87156034D01*
X144553018Y-87160296D01*
X144516534Y-87167170D01*
X144482215Y-87176575D01*
X144450261Y-87188320D01*
X144420461Y-87202346D01*
X144392813Y-87218550D01*
X144367336Y-87236817D01*
X144322600Y-87279478D01*
X144286278Y-87330038D01*
X144258723Y-87388297D01*
X144240600Y-87453959D01*
X144232796Y-87526450D01*
X144232558Y-87542018D01*
G37*
G36*
X144977423Y-87959627D02*
G01*
X144300198Y-87959627D01*
X144285152Y-87961075D01*
X144272493Y-87965349D01*
X144263140Y-87971602D01*
X144255924Y-87980027D01*
X144248246Y-88002784D01*
X144247717Y-88012155D01*
X144247717Y-88085657D01*
X144249165Y-88100705D01*
X144253441Y-88113369D01*
X144259696Y-88122726D01*
X144268126Y-88129945D01*
X144290886Y-88137614D01*
X144300198Y-88138138D01*
X144507057Y-88138138D01*
X144610154Y-88133287D01*
X144723224Y-88121755D01*
X144795798Y-88114004D01*
X144795798Y-88119225D01*
X144624660Y-88195887D01*
X144285498Y-88370184D01*
X144270551Y-88379667D01*
X144259510Y-88390762D01*
X144253143Y-88401585D01*
X144249259Y-88414097D01*
X144247717Y-88431092D01*
X144247717Y-88527675D01*
X144249165Y-88542742D01*
X144253441Y-88555419D01*
X144259694Y-88564781D01*
X144268122Y-88572004D01*
X144290870Y-88579677D01*
X144300198Y-88580203D01*
X144977423Y-88580203D01*
X144992472Y-88578755D01*
X145005139Y-88574481D01*
X145014504Y-88568226D01*
X145021731Y-88559799D01*
X145029419Y-88537047D01*
X145029950Y-88527675D01*
X145029950Y-88454173D01*
X145028502Y-88439143D01*
X145024228Y-88426489D01*
X145017972Y-88417129D01*
X145009542Y-88409906D01*
X144986779Y-88402221D01*
X144977423Y-88401692D01*
X144770610Y-88401692D01*
X144666942Y-88406589D01*
X144527101Y-88421551D01*
X144481823Y-88426879D01*
X144481823Y-88421613D01*
X144655068Y-88344997D01*
X144992123Y-88170699D01*
X145006600Y-88161153D01*
X145017599Y-88149848D01*
X145024242Y-88138570D01*
X145028352Y-88125593D01*
X145029950Y-88108738D01*
X145029950Y-88012155D01*
X145028502Y-87997105D01*
X145024228Y-87984439D01*
X145017974Y-87975074D01*
X145009546Y-87967847D01*
X144986795Y-87960159D01*
X144977423Y-87959627D01*
G37*
G36*
X144984843Y-88761762D02*
G01*
X145007582Y-88769448D01*
X145016007Y-88776676D01*
X145022261Y-88786044D01*
X145026533Y-88798710D01*
X145027981Y-88813760D01*
X145027981Y-88985951D01*
X145027791Y-89002552D01*
X145020674Y-89083653D01*
X145004257Y-89152835D01*
X144979521Y-89211481D01*
X144946901Y-89260848D01*
X144906225Y-89301868D01*
X144882591Y-89319441D01*
X144856719Y-89334970D01*
X144828099Y-89348592D01*
X144797098Y-89359972D01*
X144762699Y-89369268D01*
X144725706Y-89376052D01*
X144684607Y-89380356D01*
X144640642Y-89381808D01*
X144637560Y-89381801D01*
X144554901Y-89376006D01*
X144484013Y-89360307D01*
X144423509Y-89335712D01*
X144396735Y-89320225D01*
X144372229Y-89302703D01*
X144349668Y-89282929D01*
X144329393Y-89261216D01*
X144310876Y-89236906D01*
X144294736Y-89210705D01*
X144280401Y-89181443D01*
X144268597Y-89150311D01*
X144258876Y-89115641D01*
X144251891Y-89079117D01*
X144247448Y-89038682D01*
X144245976Y-88996438D01*
X144245976Y-88974411D01*
X144397193Y-88974411D01*
X144402363Y-89034284D01*
X144416085Y-89079792D01*
X144437920Y-89116465D01*
X144452070Y-89132041D01*
X144468668Y-89145956D01*
X144488155Y-89158293D01*
X144510419Y-89168727D01*
X144536745Y-89177483D01*
X144566376Y-89183958D01*
X144601492Y-89188206D01*
X144640642Y-89189650D01*
X144694201Y-89186829D01*
X144751790Y-89175126D01*
X144795850Y-89155677D01*
X144813989Y-89143035D01*
X144829526Y-89128636D01*
X144843397Y-89111442D01*
X144854650Y-89092464D01*
X144864453Y-89068974D01*
X144871387Y-89043505D01*
X144876321Y-89010150D01*
X144877863Y-88974411D01*
X144877863Y-88949177D01*
X144397193Y-88949177D01*
X144397193Y-88974411D01*
X144245976Y-88974411D01*
X144245976Y-88813760D01*
X144246506Y-88804404D01*
X144254190Y-88781641D01*
X144261414Y-88773211D01*
X144270773Y-88766954D01*
X144283427Y-88762680D01*
X144298458Y-88761232D01*
X144975499Y-88761232D01*
X144984843Y-88761762D01*
G37*
G36*
X140090262Y-93422576D02*
G01*
X140090262Y-94099801D01*
X140091710Y-94114847D01*
X140095984Y-94127506D01*
X140102237Y-94136859D01*
X140110662Y-94144075D01*
X140133419Y-94151753D01*
X140142790Y-94152282D01*
X140205759Y-94152282D01*
X140220825Y-94150834D01*
X140233503Y-94146558D01*
X140242865Y-94140305D01*
X140250087Y-94131877D01*
X140257760Y-94109129D01*
X140258286Y-94099801D01*
X140258286Y-93884562D01*
X140253390Y-93787893D01*
X140234889Y-93620002D01*
X140234106Y-93613681D01*
X140238319Y-93613681D01*
X140301334Y-93800573D01*
X140391643Y-94044159D01*
X140398539Y-94059101D01*
X140407379Y-94070589D01*
X140416865Y-94077977D01*
X140428039Y-94082942D01*
X140451452Y-94086154D01*
X140465099Y-94086154D01*
X140481880Y-94084656D01*
X140496266Y-94080034D01*
X140506710Y-94073453D01*
X140515464Y-94064322D01*
X140526007Y-94044159D01*
X140615262Y-93800573D01*
X140680384Y-93613681D01*
X140685604Y-93613681D01*
X140669078Y-93748709D01*
X140662878Y-93820225D01*
X140660417Y-93884562D01*
X140660417Y-94099801D01*
X140661865Y-94114847D01*
X140666137Y-94127506D01*
X140672389Y-94136862D01*
X140680812Y-94144079D01*
X140703556Y-94151754D01*
X140712899Y-94152282D01*
X140779073Y-94152282D01*
X140794136Y-94150834D01*
X140806806Y-94146558D01*
X140816157Y-94140306D01*
X140823368Y-94131881D01*
X140831030Y-94109128D01*
X140831555Y-94099801D01*
X140831555Y-93422576D01*
X140830107Y-93407510D01*
X140825830Y-93394832D01*
X140819577Y-93385470D01*
X140811150Y-93378248D01*
X140788401Y-93370575D01*
X140779073Y-93370049D01*
X140673011Y-93370049D01*
X140656341Y-93371546D01*
X140642218Y-93376168D01*
X140632076Y-93382722D01*
X140623585Y-93391807D01*
X140613156Y-93412043D01*
X140508193Y-93708157D01*
X140488385Y-93773643D01*
X140465099Y-93849894D01*
X140459878Y-93849894D01*
X140443578Y-93794914D01*
X140416830Y-93708157D01*
X140308661Y-93412043D01*
X140301942Y-93397560D01*
X140293280Y-93386301D01*
X140283720Y-93378754D01*
X140272506Y-93373612D01*
X140247753Y-93370049D01*
X140142790Y-93370049D01*
X140127740Y-93371497D01*
X140115074Y-93375771D01*
X140105709Y-93382025D01*
X140098482Y-93390453D01*
X140090794Y-93413204D01*
X140090262Y-93422576D01*
G37*
G36*
X140084621Y-99015559D02*
G01*
X140248432Y-99510105D01*
X140254741Y-99524416D01*
X140263206Y-99535891D01*
X140272777Y-99543830D01*
X140284129Y-99549361D01*
X140308286Y-99553152D01*
X140434270Y-99553152D01*
X140450330Y-99551673D01*
X140463995Y-99547176D01*
X140474089Y-99540670D01*
X140482457Y-99531713D01*
X140493071Y-99510105D01*
X140653722Y-99015559D01*
X140656881Y-99001132D01*
X140656672Y-98988309D01*
X140653633Y-98978090D01*
X140647992Y-98969583D01*
X140630034Y-98958566D01*
X140609621Y-98955704D01*
X140539279Y-98955704D01*
X140524259Y-98957158D01*
X140511353Y-98961474D01*
X140501261Y-98967960D01*
X140492926Y-98976786D01*
X140481531Y-99000858D01*
X140419569Y-99230798D01*
X140375468Y-99414529D01*
X140370202Y-99414529D01*
X140352476Y-99341324D01*
X140325093Y-99230798D01*
X140264185Y-99000858D01*
X140258312Y-98985726D01*
X140250175Y-98973576D01*
X140241069Y-98965394D01*
X140230130Y-98959662D01*
X140206437Y-98955704D01*
X140127669Y-98955704D01*
X140112838Y-98957133D01*
X140100682Y-98961277D01*
X140092001Y-98967271D01*
X140085770Y-98975195D01*
X140081038Y-98995558D01*
X140084621Y-99015559D01*
G37*
G36*
X141024511Y-98940972D02*
G01*
X141053943Y-98942725D01*
X141082866Y-98947376D01*
X141137984Y-98965004D01*
X141187809Y-98992923D01*
X141230746Y-99030038D01*
X141265644Y-99075348D01*
X141291630Y-99128102D01*
X141301008Y-99157032D01*
X141307895Y-99187830D01*
X141312105Y-99220182D01*
X141313544Y-99254291D01*
X141308287Y-99318802D01*
X141301483Y-99350249D01*
X141292115Y-99379765D01*
X141280113Y-99407802D01*
X141265806Y-99433746D01*
X141248996Y-99458046D01*
X141230160Y-99480069D01*
X141209040Y-99500152D01*
X141186213Y-99517761D01*
X141161497Y-99533059D01*
X141135445Y-99545702D01*
X141108096Y-99555691D01*
X141079828Y-99562886D01*
X141021643Y-99568677D01*
X141017894Y-99568654D01*
X140988334Y-99566820D01*
X140959311Y-99562097D01*
X140904125Y-99544364D01*
X140854328Y-99516390D01*
X140811451Y-99479243D01*
X140776603Y-99433882D01*
X140750645Y-99381017D01*
X140741270Y-99351991D01*
X140734386Y-99321082D01*
X140730174Y-99288575D01*
X140728735Y-99254291D01*
X140919794Y-99254291D01*
X140920384Y-99277229D01*
X140927980Y-99331596D01*
X140942423Y-99370002D01*
X140962351Y-99395940D01*
X140974424Y-99405054D01*
X140988089Y-99411741D01*
X141003980Y-99416013D01*
X141021643Y-99417460D01*
X141053131Y-99412339D01*
X141067200Y-99405703D01*
X141079613Y-99396485D01*
X141091370Y-99383509D01*
X141101193Y-99367685D01*
X141110067Y-99346371D01*
X141116526Y-99321748D01*
X141121007Y-99289886D01*
X141122485Y-99254291D01*
X141121959Y-99232800D01*
X141114486Y-99178310D01*
X141100106Y-99139719D01*
X141080267Y-99113670D01*
X141054743Y-99097841D01*
X141039058Y-99093576D01*
X141021643Y-99092129D01*
X140989528Y-99097320D01*
X140975339Y-99103971D01*
X140962833Y-99113183D01*
X140951014Y-99126110D01*
X140941149Y-99141847D01*
X140932244Y-99163017D01*
X140925769Y-99187434D01*
X140921274Y-99219040D01*
X140919794Y-99254291D01*
X140728735Y-99254291D01*
X140734000Y-99190061D01*
X140740811Y-99158757D01*
X140750188Y-99129365D01*
X140762206Y-99101436D01*
X140776534Y-99075583D01*
X140793374Y-99051361D01*
X140812249Y-99029401D01*
X140833419Y-99009371D01*
X140856309Y-98991801D01*
X140881103Y-98976533D01*
X140907249Y-98963911D01*
X140934712Y-98953935D01*
X140963114Y-98946747D01*
X141021643Y-98940958D01*
X141024511Y-98940972D01*
G37*
G36*
X141600682Y-99568677D02*
G01*
X141657722Y-99563756D01*
X141659484Y-99563411D01*
X141669302Y-99559717D01*
X141676957Y-99553690D01*
X141685797Y-99535715D01*
X141685724Y-99504655D01*
X141679405Y-99465775D01*
X141670732Y-99440481D01*
X141656159Y-99422240D01*
X141650004Y-99417460D01*
X141640712Y-99415848D01*
X141631717Y-99410428D01*
X141625370Y-99402589D01*
X141620542Y-99391168D01*
X141617443Y-99366032D01*
X141617443Y-98767530D01*
X141615995Y-98752482D01*
X141611719Y-98739817D01*
X141605464Y-98730461D01*
X141597034Y-98723242D01*
X141574274Y-98715573D01*
X141564962Y-98715048D01*
X141483079Y-98715048D01*
X141468029Y-98716496D01*
X141455363Y-98720769D01*
X141445995Y-98727022D01*
X141438767Y-98735447D01*
X141431081Y-98758187D01*
X141430552Y-98767530D01*
X141430552Y-99359712D01*
X141432073Y-99398665D01*
X141436857Y-99434433D01*
X141443604Y-99461664D01*
X141453059Y-99486252D01*
X141463705Y-99505446D01*
X141476701Y-99522346D01*
X141490844Y-99535758D01*
X141507189Y-99547023D01*
X141525294Y-99555828D01*
X141545671Y-99562418D01*
X141594689Y-99568615D01*
X141600682Y-99568677D01*
G37*
G36*
X141755517Y-99236156D02*
G01*
X141755517Y-99262397D01*
X141756965Y-99277443D01*
X141761237Y-99290102D01*
X141767489Y-99299458D01*
X141775912Y-99306675D01*
X141798656Y-99314350D01*
X141807998Y-99314878D01*
X142000157Y-99314878D01*
X142015220Y-99313430D01*
X142027889Y-99309154D01*
X142037240Y-99302902D01*
X142044452Y-99294477D01*
X142052113Y-99271724D01*
X142052638Y-99262397D01*
X142052638Y-99236156D01*
X142051190Y-99221092D01*
X142046914Y-99208423D01*
X142040662Y-99199072D01*
X142032237Y-99191860D01*
X142009484Y-99184199D01*
X142000157Y-99183674D01*
X141807998Y-99183674D01*
X141792951Y-99185122D01*
X141780286Y-99189399D01*
X141770929Y-99195654D01*
X141763710Y-99204084D01*
X141756041Y-99226843D01*
X141755517Y-99236156D01*
G37*
G36*
X155333970Y-90686156D02*
G01*
X155333970Y-90712397D01*
X155336287Y-90727443D01*
X155343123Y-90740102D01*
X155353126Y-90749458D01*
X155366602Y-90756675D01*
X155402993Y-90764350D01*
X155417941Y-90764878D01*
X155725394Y-90764878D01*
X155749495Y-90763430D01*
X155769766Y-90759154D01*
X155784728Y-90752902D01*
X155796266Y-90744477D01*
X155808525Y-90721724D01*
X155809364Y-90712397D01*
X155809364Y-90686156D01*
X155807047Y-90671092D01*
X155800205Y-90658423D01*
X155790202Y-90649072D01*
X155776723Y-90641860D01*
X155740317Y-90634199D01*
X155725394Y-90633674D01*
X155417941Y-90633674D01*
X155393865Y-90635122D01*
X155373601Y-90639399D01*
X155358630Y-90645654D01*
X155347080Y-90654084D01*
X155334809Y-90676843D01*
X155333970Y-90686156D01*
G37*
G36*
X145582558Y-101092018D02*
G01*
X145588082Y-101159399D01*
X145604554Y-101225675D01*
X145631037Y-101286844D01*
X145659174Y-101330384D01*
X145667808Y-101339469D01*
X145678052Y-101345861D01*
X145704456Y-101351979D01*
X145716922Y-101352411D01*
X145990688Y-101352411D01*
X146005738Y-101350964D01*
X146018405Y-101346691D01*
X146027772Y-101340437D01*
X146035000Y-101332012D01*
X146042687Y-101309273D01*
X146043216Y-101299930D01*
X146043216Y-101114091D01*
X146041768Y-101099042D01*
X146037494Y-101086375D01*
X146031239Y-101077010D01*
X146022812Y-101069784D01*
X146000060Y-101062095D01*
X145990688Y-101061564D01*
X145942374Y-101061564D01*
X145927343Y-101063012D01*
X145914689Y-101067286D01*
X145905330Y-101073542D01*
X145898106Y-101081972D01*
X145890421Y-101104736D01*
X145889892Y-101114091D01*
X145889892Y-101185487D01*
X145764138Y-101185487D01*
X145751521Y-101159598D01*
X145744444Y-101119511D01*
X145744262Y-101111985D01*
X145745718Y-101080986D01*
X145750045Y-101052463D01*
X145756748Y-101027683D01*
X145765930Y-101005099D01*
X145777115Y-100985341D01*
X145790523Y-100967609D01*
X145823621Y-100938306D01*
X145866157Y-100916402D01*
X145919911Y-100902147D01*
X145989635Y-100896746D01*
X146023481Y-100898189D01*
X146055063Y-100902425D01*
X146083813Y-100909177D01*
X146110232Y-100918364D01*
X146133814Y-100929617D01*
X146155017Y-100942968D01*
X146173479Y-100958020D01*
X146189510Y-100974866D01*
X146202924Y-100993196D01*
X146213829Y-101013057D01*
X146227862Y-101056926D01*
X146231344Y-101095178D01*
X146229925Y-101120470D01*
X146225852Y-101143428D01*
X146210352Y-101184625D01*
X146202035Y-101199134D01*
X146193668Y-101214476D01*
X146189593Y-101228991D01*
X146189594Y-101240318D01*
X146192733Y-101251139D01*
X146208024Y-101270641D01*
X146210415Y-101272636D01*
X146250211Y-101306204D01*
X146263573Y-101315032D01*
X146276876Y-101320073D01*
X146288324Y-101321234D01*
X146299369Y-101319206D01*
X146318445Y-101306337D01*
X146323713Y-101299930D01*
X146341631Y-101273667D01*
X146357586Y-101244483D01*
X146370071Y-101215149D01*
X146380106Y-101183354D01*
X146386927Y-101151457D01*
X146390969Y-101117415D01*
X146391994Y-101088858D01*
X146390536Y-101053341D01*
X146386191Y-101018644D01*
X146379054Y-100985128D01*
X146369150Y-100952735D01*
X146356673Y-100921950D01*
X146341572Y-100892569D01*
X146324153Y-100865121D01*
X146304262Y-100839331D01*
X146282293Y-100815692D01*
X146258003Y-100793942D01*
X146231816Y-100774479D01*
X146203445Y-100757120D01*
X146173275Y-100742154D01*
X146141041Y-100729505D01*
X146107030Y-100719366D01*
X146071052Y-100711764D01*
X146033266Y-100706836D01*
X145993593Y-100704679D01*
X145983361Y-100704588D01*
X145942090Y-100706034D01*
X145903018Y-100710296D01*
X145866534Y-100717170D01*
X145832215Y-100726575D01*
X145800261Y-100738320D01*
X145770461Y-100752346D01*
X145742813Y-100768550D01*
X145717336Y-100786817D01*
X145672600Y-100829478D01*
X145636278Y-100880038D01*
X145608723Y-100938297D01*
X145590600Y-101003959D01*
X145582796Y-101076450D01*
X145582558Y-101092018D01*
G37*
G36*
X146327423Y-101509627D02*
G01*
X145650198Y-101509627D01*
X145635152Y-101511075D01*
X145622493Y-101515349D01*
X145613140Y-101521602D01*
X145605924Y-101530027D01*
X145598246Y-101552784D01*
X145597717Y-101562155D01*
X145597717Y-101635657D01*
X145599165Y-101650705D01*
X145603441Y-101663369D01*
X145609696Y-101672726D01*
X145618126Y-101679945D01*
X145640886Y-101687614D01*
X145650198Y-101688138D01*
X145857057Y-101688138D01*
X145960154Y-101683287D01*
X146073224Y-101671755D01*
X146145798Y-101664004D01*
X146145798Y-101669225D01*
X145974660Y-101745887D01*
X145635498Y-101920184D01*
X145620551Y-101929667D01*
X145609510Y-101940762D01*
X145603143Y-101951585D01*
X145599259Y-101964097D01*
X145597717Y-101981092D01*
X145597717Y-102077675D01*
X145599165Y-102092742D01*
X145603441Y-102105419D01*
X145609694Y-102114781D01*
X145618122Y-102122004D01*
X145640870Y-102129677D01*
X145650198Y-102130203D01*
X146327423Y-102130203D01*
X146342472Y-102128755D01*
X146355139Y-102124481D01*
X146364504Y-102118226D01*
X146371731Y-102109799D01*
X146379419Y-102087047D01*
X146379950Y-102077675D01*
X146379950Y-102004173D01*
X146378502Y-101989143D01*
X146374228Y-101976489D01*
X146367972Y-101967129D01*
X146359542Y-101959906D01*
X146336779Y-101952221D01*
X146327423Y-101951692D01*
X146120610Y-101951692D01*
X146016942Y-101956589D01*
X145877101Y-101971551D01*
X145831823Y-101976879D01*
X145831823Y-101971613D01*
X146005068Y-101894997D01*
X146342123Y-101720699D01*
X146356600Y-101711153D01*
X146367599Y-101699848D01*
X146374242Y-101688570D01*
X146378352Y-101675593D01*
X146379950Y-101658738D01*
X146379950Y-101562155D01*
X146378502Y-101547105D01*
X146374228Y-101534439D01*
X146367974Y-101525074D01*
X146359546Y-101517847D01*
X146336795Y-101510159D01*
X146327423Y-101509627D01*
G37*
G36*
X146334843Y-102311762D02*
G01*
X146357582Y-102319448D01*
X146366007Y-102326676D01*
X146372261Y-102336044D01*
X146376533Y-102348710D01*
X146377981Y-102363760D01*
X146377981Y-102535951D01*
X146377791Y-102552552D01*
X146370674Y-102633653D01*
X146354257Y-102702835D01*
X146329521Y-102761481D01*
X146296901Y-102810848D01*
X146256225Y-102851868D01*
X146232591Y-102869441D01*
X146206719Y-102884970D01*
X146178099Y-102898592D01*
X146147098Y-102909972D01*
X146112699Y-102919268D01*
X146075706Y-102926052D01*
X146034607Y-102930356D01*
X145990642Y-102931808D01*
X145987560Y-102931801D01*
X145904901Y-102926006D01*
X145834013Y-102910307D01*
X145773509Y-102885712D01*
X145746735Y-102870225D01*
X145722229Y-102852703D01*
X145699668Y-102832929D01*
X145679393Y-102811216D01*
X145660876Y-102786906D01*
X145644736Y-102760705D01*
X145630401Y-102731443D01*
X145618597Y-102700311D01*
X145608876Y-102665641D01*
X145601891Y-102629117D01*
X145597448Y-102588682D01*
X145595976Y-102546438D01*
X145595976Y-102524411D01*
X145747193Y-102524411D01*
X145752363Y-102584284D01*
X145766085Y-102629792D01*
X145787920Y-102666465D01*
X145802070Y-102682041D01*
X145818668Y-102695956D01*
X145838155Y-102708293D01*
X145860419Y-102718727D01*
X145886745Y-102727483D01*
X145916376Y-102733958D01*
X145951492Y-102738206D01*
X145990642Y-102739650D01*
X146044201Y-102736829D01*
X146101790Y-102725126D01*
X146145850Y-102705677D01*
X146163989Y-102693035D01*
X146179526Y-102678636D01*
X146193397Y-102661442D01*
X146204650Y-102642464D01*
X146214453Y-102618974D01*
X146221387Y-102593505D01*
X146226321Y-102560150D01*
X146227863Y-102524411D01*
X146227863Y-102499177D01*
X145747193Y-102499177D01*
X145747193Y-102524411D01*
X145595976Y-102524411D01*
X145595976Y-102363760D01*
X145596506Y-102354404D01*
X145604190Y-102331641D01*
X145611414Y-102323211D01*
X145620773Y-102316954D01*
X145633427Y-102312680D01*
X145648458Y-102311232D01*
X146325499Y-102311232D01*
X146334843Y-102311762D01*
G37*
G36*
X154942361Y-90323440D02*
G01*
X155008340Y-90335416D01*
X155061474Y-90354884D01*
X155103742Y-90381117D01*
X155136696Y-90414183D01*
X155149953Y-90433520D01*
X155161124Y-90455015D01*
X155170157Y-90478979D01*
X155176813Y-90505311D01*
X155181048Y-90534982D01*
X155182490Y-90567345D01*
X155182401Y-90575407D01*
X155180319Y-90606125D01*
X155175572Y-90634690D01*
X155168295Y-90661118D01*
X155158615Y-90685452D01*
X155146408Y-90708138D01*
X155131976Y-90728706D01*
X155114728Y-90747914D01*
X155095372Y-90764892D01*
X155072729Y-90780491D01*
X155048080Y-90793666D01*
X155186658Y-91040413D01*
X155195066Y-91065387D01*
X155191864Y-91084351D01*
X155186073Y-91092007D01*
X155177605Y-91097840D01*
X155165254Y-91101956D01*
X155149930Y-91103381D01*
X155054354Y-91103381D01*
X155037608Y-91101804D01*
X155024620Y-91097712D01*
X155013336Y-91091087D01*
X155002007Y-91080086D01*
X154992439Y-91065600D01*
X154868516Y-90828288D01*
X154778207Y-90828288D01*
X154778207Y-91050900D01*
X154777683Y-91060227D01*
X154770021Y-91082980D01*
X154762809Y-91091405D01*
X154753459Y-91097657D01*
X154740789Y-91101933D01*
X154725726Y-91103381D01*
X154642790Y-91103381D01*
X154633419Y-91102852D01*
X154610662Y-91095175D01*
X154602237Y-91087958D01*
X154595984Y-91078605D01*
X154591710Y-91065946D01*
X154590262Y-91050900D01*
X154590262Y-90680231D01*
X154778207Y-90680231D01*
X154862242Y-90680231D01*
X154871974Y-90680071D01*
X154919166Y-90673583D01*
X154953746Y-90659106D01*
X154978295Y-90637450D01*
X154987348Y-90623502D01*
X154993965Y-90607648D01*
X154998308Y-90588566D01*
X154999766Y-90567345D01*
X154997296Y-90540814D01*
X154986097Y-90512252D01*
X154976674Y-90500507D01*
X154964860Y-90490841D01*
X154948073Y-90482010D01*
X154928131Y-90475645D01*
X154897719Y-90470743D01*
X154862242Y-90469205D01*
X154778207Y-90469205D01*
X154778207Y-90680231D01*
X154590262Y-90680231D01*
X154590262Y-90372622D01*
X154590789Y-90363294D01*
X154598462Y-90340545D01*
X154605684Y-90332118D01*
X154615046Y-90325865D01*
X154627723Y-90321589D01*
X154642790Y-90320140D01*
X154876943Y-90320140D01*
X154942361Y-90323440D01*
G37*
G36*
X140084621Y-97415559D02*
G01*
X140248432Y-97910105D01*
X140254741Y-97924416D01*
X140263206Y-97935891D01*
X140272777Y-97943830D01*
X140284129Y-97949361D01*
X140308286Y-97953152D01*
X140434270Y-97953152D01*
X140450330Y-97951673D01*
X140463995Y-97947176D01*
X140474089Y-97940670D01*
X140482457Y-97931713D01*
X140493071Y-97910105D01*
X140653722Y-97415559D01*
X140656881Y-97401132D01*
X140656672Y-97388309D01*
X140653633Y-97378090D01*
X140647992Y-97369583D01*
X140630034Y-97358566D01*
X140609621Y-97355704D01*
X140539279Y-97355704D01*
X140524259Y-97357158D01*
X140511353Y-97361474D01*
X140501261Y-97367960D01*
X140492926Y-97376786D01*
X140481531Y-97400858D01*
X140419569Y-97630798D01*
X140375468Y-97814529D01*
X140370202Y-97814529D01*
X140352476Y-97741324D01*
X140325093Y-97630798D01*
X140264185Y-97400858D01*
X140258312Y-97385726D01*
X140250175Y-97373576D01*
X140241069Y-97365394D01*
X140230130Y-97359662D01*
X140206437Y-97355704D01*
X140127669Y-97355704D01*
X140112838Y-97357133D01*
X140100682Y-97361277D01*
X140092001Y-97367271D01*
X140085770Y-97375195D01*
X140081038Y-97395558D01*
X140084621Y-97415559D01*
G37*
G36*
X141024511Y-97340972D02*
G01*
X141053943Y-97342725D01*
X141082866Y-97347376D01*
X141137984Y-97365004D01*
X141187809Y-97392923D01*
X141230746Y-97430038D01*
X141265644Y-97475348D01*
X141291630Y-97528102D01*
X141301008Y-97557032D01*
X141307895Y-97587830D01*
X141312105Y-97620182D01*
X141313544Y-97654291D01*
X141308287Y-97718802D01*
X141301483Y-97750249D01*
X141292115Y-97779765D01*
X141280113Y-97807802D01*
X141265806Y-97833746D01*
X141248996Y-97858046D01*
X141230160Y-97880069D01*
X141209040Y-97900152D01*
X141186213Y-97917761D01*
X141161497Y-97933059D01*
X141135445Y-97945702D01*
X141108096Y-97955691D01*
X141079828Y-97962886D01*
X141021643Y-97968677D01*
X141017894Y-97968654D01*
X140988334Y-97966820D01*
X140959311Y-97962097D01*
X140904125Y-97944364D01*
X140854328Y-97916390D01*
X140811451Y-97879243D01*
X140776603Y-97833882D01*
X140750645Y-97781017D01*
X140741270Y-97751991D01*
X140734386Y-97721082D01*
X140730174Y-97688575D01*
X140728735Y-97654291D01*
X140919794Y-97654291D01*
X140920384Y-97677229D01*
X140927980Y-97731596D01*
X140942423Y-97770002D01*
X140962351Y-97795940D01*
X140974424Y-97805054D01*
X140988089Y-97811741D01*
X141003980Y-97816013D01*
X141021643Y-97817460D01*
X141053131Y-97812339D01*
X141067200Y-97805703D01*
X141079613Y-97796485D01*
X141091370Y-97783509D01*
X141101193Y-97767685D01*
X141110067Y-97746371D01*
X141116526Y-97721748D01*
X141121007Y-97689886D01*
X141122485Y-97654291D01*
X141121959Y-97632800D01*
X141114486Y-97578310D01*
X141100106Y-97539719D01*
X141080267Y-97513670D01*
X141054743Y-97497841D01*
X141039058Y-97493576D01*
X141021643Y-97492129D01*
X140989528Y-97497320D01*
X140975339Y-97503971D01*
X140962833Y-97513183D01*
X140951014Y-97526110D01*
X140941149Y-97541847D01*
X140932244Y-97563017D01*
X140925769Y-97587434D01*
X140921274Y-97619040D01*
X140919794Y-97654291D01*
X140728735Y-97654291D01*
X140734000Y-97590061D01*
X140740811Y-97558757D01*
X140750188Y-97529365D01*
X140762206Y-97501436D01*
X140776534Y-97475583D01*
X140793374Y-97451361D01*
X140812249Y-97429401D01*
X140833419Y-97409371D01*
X140856309Y-97391801D01*
X140881103Y-97376533D01*
X140907249Y-97363911D01*
X140934712Y-97353935D01*
X140963114Y-97346747D01*
X141021643Y-97340958D01*
X141024511Y-97340972D01*
G37*
G36*
X141600682Y-97968677D02*
G01*
X141657722Y-97963756D01*
X141659484Y-97963411D01*
X141669302Y-97959717D01*
X141676957Y-97953690D01*
X141685797Y-97935715D01*
X141685724Y-97904655D01*
X141679405Y-97865775D01*
X141670732Y-97840481D01*
X141656159Y-97822240D01*
X141650004Y-97817460D01*
X141640712Y-97815848D01*
X141631717Y-97810428D01*
X141625370Y-97802589D01*
X141620542Y-97791168D01*
X141617443Y-97766032D01*
X141617443Y-97167530D01*
X141615995Y-97152482D01*
X141611719Y-97139817D01*
X141605464Y-97130461D01*
X141597034Y-97123242D01*
X141574274Y-97115573D01*
X141564962Y-97115048D01*
X141483079Y-97115048D01*
X141468029Y-97116496D01*
X141455363Y-97120769D01*
X141445995Y-97127022D01*
X141438767Y-97135447D01*
X141431081Y-97158187D01*
X141430552Y-97167530D01*
X141430552Y-97759712D01*
X141432073Y-97798665D01*
X141436857Y-97834433D01*
X141443604Y-97861664D01*
X141453059Y-97886252D01*
X141463705Y-97905446D01*
X141476701Y-97922346D01*
X141490844Y-97935758D01*
X141507189Y-97947023D01*
X141525294Y-97955828D01*
X141545671Y-97962418D01*
X141594689Y-97968615D01*
X141600682Y-97968677D01*
G37*
G36*
X141796458Y-97623379D02*
G01*
X141953949Y-97623379D01*
X141953949Y-97790349D01*
X141955397Y-97805396D01*
X141959671Y-97818054D01*
X141965924Y-97827408D01*
X141974349Y-97834624D01*
X141997105Y-97842301D01*
X142006476Y-97842831D01*
X142037938Y-97842831D01*
X142053004Y-97841383D01*
X142065682Y-97837107D01*
X142075044Y-97830853D01*
X142082266Y-97822426D01*
X142089939Y-97799678D01*
X142090465Y-97790349D01*
X142090465Y-97623379D01*
X142249009Y-97623379D01*
X142264073Y-97621930D01*
X142276742Y-97617654D01*
X142286093Y-97611403D01*
X142293305Y-97602978D01*
X142300966Y-97580224D01*
X142301491Y-97570897D01*
X142301491Y-97544656D01*
X142300043Y-97529590D01*
X142295767Y-97516912D01*
X142289513Y-97507550D01*
X142281086Y-97500328D01*
X142258338Y-97492655D01*
X142249009Y-97492129D01*
X142090465Y-97492129D01*
X142090465Y-97324151D01*
X142089017Y-97309104D01*
X142084743Y-97296446D01*
X142078490Y-97287092D01*
X142070065Y-97279876D01*
X142047309Y-97272199D01*
X142037938Y-97271669D01*
X142006476Y-97271669D01*
X141991410Y-97273117D01*
X141978732Y-97277394D01*
X141969370Y-97283647D01*
X141962148Y-97292074D01*
X141954475Y-97314822D01*
X141953949Y-97324151D01*
X141953949Y-97492129D01*
X141796458Y-97492129D01*
X141781411Y-97493577D01*
X141768753Y-97497851D01*
X141759399Y-97504104D01*
X141752183Y-97512529D01*
X141744506Y-97535285D01*
X141743976Y-97544656D01*
X141743976Y-97570897D01*
X141745425Y-97585960D01*
X141749701Y-97598630D01*
X141755953Y-97607981D01*
X141764377Y-97615192D01*
X141787131Y-97622854D01*
X141796458Y-97623379D01*
G37*
D11*
%TO.C,C8*%
X153840000Y-95827836D02*
X153840000Y-95612164D01*
X154560000Y-95827836D02*
X154560000Y-95612164D01*
%TO.C,U2*%
X148065000Y-91590000D02*
X148065000Y-91355000D01*
X148065000Y-96335000D02*
X148065000Y-95860000D01*
X148540000Y-91115000D02*
X148365000Y-91115000D01*
X148540000Y-96335000D02*
X148065000Y-96335000D01*
X152810000Y-91115000D02*
X153285000Y-91115000D01*
X152810000Y-96335000D02*
X153285000Y-96335000D01*
X153285000Y-91115000D02*
X153285000Y-91590000D01*
X153285000Y-96335000D02*
X153285000Y-95860000D01*
X148065000Y-91115000D02*
X147825000Y-90785000D01*
X148305000Y-90785000D01*
X148065000Y-91115000D01*
G36*
X148065000Y-91115000D02*
G01*
X147825000Y-90785000D01*
X148305000Y-90785000D01*
X148065000Y-91115000D01*
G37*
%TO.C,R2*%
X148536359Y-102020000D02*
X148843641Y-102020000D01*
X148536359Y-102780000D02*
X148843641Y-102780000D01*
%TO.C,U3*%
X150840000Y-99090000D02*
X150840000Y-99540000D01*
X150840000Y-102310000D02*
X150840000Y-101860000D01*
X151290000Y-99090000D02*
X150840000Y-99090000D01*
X151290000Y-102310000D02*
X150840000Y-102310000D01*
X153610000Y-99090000D02*
X154060000Y-99090000D01*
X153610000Y-102310000D02*
X153760000Y-102310000D01*
X154060000Y-99090000D02*
X154060000Y-99540000D01*
X154060000Y-101860000D02*
X154060000Y-102070000D01*
X154300000Y-102640000D02*
X153820000Y-102640000D01*
X154060000Y-102310000D01*
X154300000Y-102640000D01*
G36*
X154300000Y-102640000D02*
G01*
X153820000Y-102640000D01*
X154060000Y-102310000D01*
X154300000Y-102640000D01*
G37*
%TO.C,C9*%
X150504183Y-89512697D02*
X150504183Y-89297025D01*
X151224183Y-89512697D02*
X151224183Y-89297025D01*
%TO.C,C2*%
X143870036Y-90289926D02*
X144085708Y-90289926D01*
X143870036Y-91009926D02*
X144085708Y-91009926D01*
%TO.C,C5*%
X146523802Y-92427836D02*
X146523802Y-92212164D01*
X147243802Y-92427836D02*
X147243802Y-92212164D01*
%TO.C,R4*%
X146546359Y-90420000D02*
X146853641Y-90420000D01*
X146546359Y-91180000D02*
X146853641Y-91180000D01*
%TO.C,R3*%
X148536359Y-101010000D02*
X148843641Y-101010000D01*
X148536359Y-101770000D02*
X148843641Y-101770000D01*
%TO.C,C16*%
X153315580Y-97090000D02*
X153034420Y-97090000D01*
X153315580Y-98110000D02*
X153034420Y-98110000D01*
%TO.C,R1*%
X149462035Y-97600564D02*
X149679316Y-97383283D01*
X149999436Y-98137965D02*
X150216717Y-97920684D01*
%TO.C,C15*%
X154490000Y-100661512D02*
X154490000Y-100877184D01*
X155210000Y-100661512D02*
X155210000Y-100877184D01*
%TO.C,C1*%
X143635889Y-95747578D02*
X143420217Y-95747578D01*
X143635889Y-96467578D02*
X143420217Y-96467578D01*
%TO.C,C14*%
X148107836Y-99940000D02*
X147892164Y-99940000D01*
X148107836Y-100660000D02*
X147892164Y-100660000D01*
%TO.C,C13*%
X148107836Y-99040000D02*
X147892164Y-99040000D01*
X148107836Y-99760000D02*
X147892164Y-99760000D01*
%TO.C,C3*%
X143893242Y-93858471D02*
X144108914Y-93858471D01*
X143893242Y-94578471D02*
X144108914Y-94578471D01*
%TO.C,C4*%
X143552836Y-99590000D02*
X143337164Y-99590000D01*
X143552836Y-100310000D02*
X143337164Y-100310000D01*
D12*
%TO.C,IC1*%
X142500000Y-91575000D02*
X142500000Y-91575000D01*
X142600000Y-91575000D02*
X142600000Y-91575000D01*
X142500000Y-91575000D02*
G75*
G02*
X142600000Y-91575000I50000J0D01*
G01*
X142600000Y-91575000D02*
G75*
G02*
X142500000Y-91575000I-50000J0D01*
G01*
%TD*%
M02*
