%TF.GenerationSoftware,KiCad,Pcbnew,8.99.0-2176-gc19aa8170b*%
%TF.CreationDate,2024-08-30T16:07:14-04:00*%
%TF.ProjectId,scampi,7363616d-7069-42e6-9b69-6361645f7063,rev?*%
%TF.SameCoordinates,Original*%
%TF.FileFunction,Copper,L2,Bot*%
%TF.FilePolarity,Positive*%
%FSLAX46Y46*%
G04 Gerber Fmt 4.6, Leading zero omitted, Abs format (unit mm)*
G04 Created by KiCad (PCBNEW 8.99.0-2176-gc19aa8170b) date 2024-08-30 16:07:14*
%MOMM*%
%LPD*%
G01*
G04 APERTURE LIST*
G04 Aperture macros list*
%AMRoundRect*
0 Rectangle with rounded corners*
0 $1 Rounding radius*
0 $2 $3 $4 $5 $6 $7 $8 $9 X,Y pos of 4 corners*
0 Add a 4 corners polygon primitive as box body*
4,1,4,$2,$3,$4,$5,$6,$7,$8,$9,$2,$3,0*
0 Add four circle primitives for the rounded corners*
1,1,$1+$1,$2,$3*
1,1,$1+$1,$4,$5*
1,1,$1+$1,$6,$7*
1,1,$1+$1,$8,$9*
0 Add four rect primitives between the rounded corners*
20,1,$1+$1,$2,$3,$4,$5,0*
20,1,$1+$1,$4,$5,$6,$7,0*
20,1,$1+$1,$6,$7,$8,$9,0*
20,1,$1+$1,$8,$9,$2,$3,0*%
%AMFreePoly0*
4,1,19,0.500000,-0.675000,0.000000,-0.675000,0.000000,-0.669911,-0.071157,-0.669911,-0.207708,-0.629816,-0.327430,-0.552875,-0.420627,-0.445320,-0.479746,-0.315866,-0.500000,-0.175000,-0.500000,0.175000,-0.479746,0.315866,-0.420627,0.445320,-0.327430,0.552875,-0.207708,0.629816,-0.071157,0.669911,0.000000,0.669911,0.000000,0.675000,0.500000,0.675000,0.500000,-0.675000,0.500000,-0.675000,
$1*%
%AMFreePoly1*
4,1,19,0.000000,0.669911,0.071157,0.669911,0.207708,0.629816,0.327430,0.552875,0.420627,0.445320,0.479746,0.315866,0.500000,0.175000,0.500000,-0.175000,0.479746,-0.315866,0.420627,-0.445320,0.327430,-0.552875,0.207708,-0.629816,0.071157,-0.669911,0.000000,-0.669911,0.000000,-0.675000,-0.500000,-0.675000,-0.500000,0.675000,0.000000,0.675000,0.000000,0.669911,0.000000,0.669911,
$1*%
G04 Aperture macros list end*
%TA.AperFunction,ComponentPad*%
%ADD10RoundRect,0.210000X-0.490000X-0.490000X0.490000X-0.490000X0.490000X0.490000X-0.490000X0.490000X0*%
%TD*%
%TA.AperFunction,ComponentPad*%
%ADD11RoundRect,0.210000X0.490000X0.490000X-0.490000X0.490000X-0.490000X-0.490000X0.490000X-0.490000X0*%
%TD*%
%TA.AperFunction,SMDPad,CuDef*%
%ADD12RoundRect,0.140000X0.140000X0.170000X-0.140000X0.170000X-0.140000X-0.170000X0.140000X-0.170000X0*%
%TD*%
%TA.AperFunction,SMDPad,CuDef*%
%ADD13FreePoly0,90.000000*%
%TD*%
%TA.AperFunction,SMDPad,CuDef*%
%ADD14FreePoly1,90.000000*%
%TD*%
%TA.AperFunction,SMDPad,CuDef*%
%ADD15RoundRect,0.275000X1.125000X0.825000X-1.125000X0.825000X-1.125000X-0.825000X1.125000X-0.825000X0*%
%TD*%
%TA.AperFunction,SMDPad,CuDef*%
%ADD16RoundRect,0.350000X1.050000X1.050000X-1.050000X1.050000X-1.050000X-1.050000X1.050000X-1.050000X0*%
%TD*%
%TA.AperFunction,SMDPad,CuDef*%
%ADD17RoundRect,0.325000X1.075000X0.975000X-1.075000X0.975000X-1.075000X-0.975000X1.075000X-0.975000X0*%
%TD*%
%TA.AperFunction,SMDPad,CuDef*%
%ADD18RoundRect,0.140000X-0.140000X-0.170000X0.140000X-0.170000X0.140000X0.170000X-0.140000X0.170000X0*%
%TD*%
%TA.AperFunction,SMDPad,CuDef*%
%ADD19RoundRect,0.225000X0.250000X-0.225000X0.250000X0.225000X-0.250000X0.225000X-0.250000X-0.225000X0*%
%TD*%
%TA.AperFunction,SMDPad,CuDef*%
%ADD20RoundRect,0.225000X0.225000X0.250000X-0.225000X0.250000X-0.225000X-0.250000X0.225000X-0.250000X0*%
%TD*%
%TA.AperFunction,ViaPad*%
%ADD21C,0.500000*%
%TD*%
%TA.AperFunction,Conductor*%
%ADD22C,0.300000*%
%TD*%
%TA.AperFunction,Conductor*%
%ADD23C,0.400000*%
%TD*%
%TA.AperFunction,Conductor*%
%ADD24C,0.200000*%
%TD*%
%TA.AperFunction,Conductor*%
%ADD25C,0.127000*%
%TD*%
G04 APERTURE END LIST*
D10*
%TO.P,TP9,1,1*%
%TO.N,Net-(C14-Pad2)*%
X144400000Y-103800000D03*
%TD*%
%TO.P,SPKR-1,1,1*%
%TO.N,Net-(U2-SPKR-)*%
X156800000Y-90800000D03*
%TD*%
%TO.P,TP17,1,1*%
%TO.N,GND*%
X145200000Y-86200000D03*
%TD*%
%TO.P,TP3,1,1*%
%TO.N,/C_IN*%
X139200000Y-90600000D03*
%TD*%
%TO.P,SPKL+1,1,1*%
%TO.N,Net-(U2-SPKL+)*%
X156800000Y-93400000D03*
%TD*%
%TO.P,TP13,1,1*%
%TO.N,GND*%
X146000000Y-103800000D03*
%TD*%
%TO.P,TP1,1,1*%
%TO.N,VDDIO_EXT*%
X142000000Y-86200000D03*
%TD*%
%TO.P,SPKR+1,1,1*%
%TO.N,Net-(U2-SPKR+)*%
X156800000Y-89200000D03*
%TD*%
%TO.P,TP6,1,1*%
%TO.N,GND*%
X156809832Y-99035239D03*
%TD*%
%TO.P,TP8,1,1*%
%TO.N,Net-(C13-Pad2)*%
X142800000Y-103800000D03*
%TD*%
%TO.P,DET1,1,1*%
%TO.N,/HPS*%
X147400000Y-86200000D03*
%TD*%
%TO.P,HPR1,1,1*%
%TO.N,/HPR*%
X152200000Y-86200000D03*
%TD*%
%TO.P,TP16,1,1*%
%TO.N,GND*%
X139200000Y-95400000D03*
%TD*%
%TO.P,TP15,1,1*%
%TO.N,GND*%
X139200000Y-100800000D03*
%TD*%
%TO.P,TP2,1,1*%
%TO.N,/D_IN*%
X139200000Y-89000000D03*
%TD*%
%TO.P,TP18,1,1*%
%TO.N,+3V3*%
X143600000Y-86200000D03*
%TD*%
%TO.P,TP5,1,1*%
%TO.N,/M_IN*%
X139200000Y-93800000D03*
%TD*%
%TO.P,SPVDD1,1,1*%
%TO.N,SPVDD*%
X156809832Y-97285239D03*
%TD*%
%TO.P,SPKL-1,1,1*%
%TO.N,Net-(U2-SPKL-)*%
X156800000Y-95000000D03*
%TD*%
%TO.P,TP4,1,1*%
%TO.N,/W_IN*%
X139200000Y-92200000D03*
%TD*%
D11*
%TO.P,VOL+1,1,1*%
%TO.N,Net-(U3-PC0)*%
X139200000Y-99200000D03*
%TD*%
%TO.P,VOL-1,1,1*%
%TO.N,Net-(U3-PC1)*%
X139200000Y-97600000D03*
%TD*%
D10*
%TO.P,HPL1,1,1*%
%TO.N,/HPL*%
X154000000Y-86200000D03*
%TD*%
D12*
%TO.P,C12,1*%
%TO.N,SPVDD*%
X153460000Y-93475411D03*
%TO.P,C12,2*%
%TO.N,GND*%
X152500000Y-93475411D03*
%TD*%
D13*
%TO.P,JP3,1,A*%
%TO.N,GND*%
X150300000Y-103800000D03*
D14*
%TO.P,JP3,2,B*%
%TO.N,Net-(JP3-B)*%
X150300000Y-102600000D03*
%TD*%
D15*
%TO.P,J1,R*%
%TO.N,/HPR*%
X142300000Y-89500000D03*
%TO.P,J1,S*%
%TO.N,GND*%
X149700000Y-87500000D03*
D16*
%TO.P,J1,T*%
%TO.N,/HPL*%
X149700000Y-96900000D03*
D17*
%TO.P,J1,TN*%
%TO.N,/HPS*%
X145250000Y-100900000D03*
%TD*%
D13*
%TO.P,JP4,1,A*%
%TO.N,GND*%
X148700000Y-103800000D03*
D14*
%TO.P,JP4,2,B*%
%TO.N,Net-(JP4-B)*%
X148700000Y-102600000D03*
%TD*%
D13*
%TO.P,JP1,1,A*%
%TO.N,GND*%
X153500000Y-103800000D03*
D14*
%TO.P,JP1,2,B*%
%TO.N,Net-(JP1-B)*%
X153500000Y-102600000D03*
%TD*%
D18*
%TO.P,C10,1*%
%TO.N,+3V3*%
X149704518Y-92703604D03*
%TO.P,C10,2*%
%TO.N,GND*%
X150664518Y-92703604D03*
%TD*%
D19*
%TO.P,C7,1*%
%TO.N,+3V3*%
X151900000Y-90100000D03*
%TO.P,C7,2*%
%TO.N,GND*%
X151900000Y-88550000D03*
%TD*%
D13*
%TO.P,JP2,1,A*%
%TO.N,GND*%
X151900000Y-103800000D03*
D14*
%TO.P,JP2,2,B*%
%TO.N,Net-(JP2-B)*%
X151900000Y-102600000D03*
%TD*%
D20*
%TO.P,C6,1*%
%TO.N,+3V3*%
X153800000Y-97600000D03*
%TO.P,C6,2*%
%TO.N,GND*%
X152250000Y-97600000D03*
%TD*%
D12*
%TO.P,C11,1*%
%TO.N,SPVDD*%
X153460000Y-91975000D03*
%TO.P,C11,2*%
%TO.N,GND*%
X152500000Y-91975000D03*
%TD*%
D21*
%TO.N,+3V3*%
X147600000Y-101400000D03*
X147500000Y-92300000D03*
X145370252Y-91365975D03*
X150863030Y-90416189D03*
X153259726Y-96345912D03*
X154725846Y-102825846D03*
X143753582Y-95200000D03*
%TO.N,GND*%
X150700000Y-93700000D03*
X147440654Y-95979910D03*
X142261759Y-96168783D03*
X144758013Y-98647601D03*
X147094782Y-103833576D03*
X155498919Y-98731486D03*
X142300000Y-93700000D03*
X145085950Y-93820247D03*
X152450000Y-100700000D03*
X152100000Y-95200000D03*
X142000000Y-91300000D03*
X141256137Y-94357826D03*
X152971168Y-88981605D03*
X140241844Y-89830053D03*
X151108511Y-99326512D03*
X156250000Y-101500000D03*
X149380083Y-89024619D03*
X146114003Y-87137759D03*
X149329349Y-95000000D03*
X142800000Y-94900000D03*
X146054319Y-98049657D03*
X148174056Y-87887700D03*
X147913948Y-90397485D03*
X151617931Y-87646035D03*
X140245146Y-93007561D03*
X148700000Y-103800000D03*
X141650000Y-102300000D03*
X145153755Y-96804741D03*
X157150000Y-100300000D03*
X155809233Y-92092842D03*
X155122260Y-88016203D03*
X141400000Y-104000000D03*
X148614508Y-85537234D03*
X150600000Y-85800000D03*
X140413992Y-87945835D03*
X142266406Y-99773099D03*
X140200000Y-96500000D03*
X153775765Y-90928940D03*
X143317518Y-100823592D03*
X148284351Y-98632488D03*
X140800000Y-101600000D03*
%TO.N,+1V8*%
X147392781Y-93483309D03*
X143450000Y-98900000D03*
%TO.N,SPVDD*%
X154119756Y-91969043D03*
X154100000Y-93475411D03*
%TO.N,SCL*%
X146764724Y-98109168D03*
X150213060Y-101443252D03*
%TO.N,SDA*%
X149900000Y-100900000D03*
X146534121Y-97517784D03*
%TO.N,/HPS*%
X145100000Y-99895957D03*
%TO.N,/HPR*%
X143400000Y-89400000D03*
%TO.N,RES*%
X150094689Y-100259952D03*
X145916702Y-97402483D03*
%TO.N,Net-(JP3-B)*%
X153072451Y-98484931D03*
%TO.N,Net-(JP1-B)*%
X154078546Y-99332983D03*
%TO.N,Net-(JP2-B)*%
X153713381Y-98729789D03*
%TO.N,Net-(JP4-B)*%
X152447901Y-98540324D03*
%TO.N,Net-(U3-PC0)*%
X147208323Y-101991841D03*
%TO.N,Net-(U3-PC1)*%
X146760575Y-102430764D03*
%TD*%
D22*
%TO.N,+3V3*%
X143753582Y-95200000D02*
X143753582Y-95542548D01*
D23*
X148600000Y-92300000D02*
X148600000Y-91650000D01*
X149833811Y-90416189D02*
X150863030Y-90416189D01*
X148600000Y-91650000D02*
X149833811Y-90416189D01*
X145370252Y-91365975D02*
X144027000Y-90022723D01*
X150802839Y-90402839D02*
X151105678Y-90100000D01*
X148600000Y-92300000D02*
X147500000Y-92300000D01*
D22*
X143231709Y-99427000D02*
X143668291Y-99427000D01*
D23*
X144027000Y-90022723D02*
X144027000Y-88418022D01*
D22*
X147743000Y-104129349D02*
X148213651Y-104600000D01*
X154700000Y-98500000D02*
X153800000Y-97600000D01*
D23*
X143753582Y-95200000D02*
X143753582Y-92982645D01*
D22*
X143753582Y-95542548D02*
X142900000Y-96396130D01*
D23*
X146304277Y-92300000D02*
X147500000Y-92300000D01*
D22*
X143668291Y-99427000D02*
X143772291Y-99323000D01*
X147075679Y-100875679D02*
X147743000Y-101543000D01*
X143772291Y-99323000D02*
X146574358Y-99323000D01*
X153800000Y-97600000D02*
X153800000Y-96900000D01*
D23*
X149003604Y-92703604D02*
X148600000Y-92300000D01*
D22*
X146574358Y-99323000D02*
X147075679Y-99824321D01*
D23*
X143600000Y-87991022D02*
X143600000Y-86200000D01*
X151105678Y-90100000D02*
X151900000Y-90100000D01*
D22*
X147075679Y-99824321D02*
X147075679Y-100875679D01*
D23*
X143753582Y-92982645D02*
X145370252Y-91365975D01*
D22*
X142900000Y-96396130D02*
X142900000Y-99095291D01*
X148213651Y-104600000D02*
X154000000Y-104600000D01*
X154000000Y-104600000D02*
X154700000Y-103900000D01*
X142900000Y-99095291D02*
X143231709Y-99427000D01*
D23*
X145370252Y-91365975D02*
X146304277Y-92300000D01*
D22*
X154700000Y-103900000D02*
X154700000Y-98500000D01*
D23*
X149704518Y-92703604D02*
X149003604Y-92703604D01*
X144027000Y-88418022D02*
X143600000Y-87991022D01*
D22*
X153800000Y-96900000D02*
X153250000Y-96350000D01*
X147743000Y-101543000D02*
X147743000Y-104129349D01*
%TO.N,+1V8*%
X143327000Y-96573000D02*
X143327000Y-98777000D01*
X147392781Y-93483309D02*
X146416691Y-93483309D01*
X146416691Y-93483309D02*
X143327000Y-96573000D01*
X143327000Y-98777000D02*
X143450000Y-98900000D01*
D23*
%TO.N,SPVDD*%
X153465957Y-91969043D02*
X153460000Y-91975000D01*
X153956038Y-93475411D02*
X153460000Y-93475411D01*
X156809832Y-97285239D02*
X156785239Y-97285239D01*
D24*
X153955627Y-93475000D02*
X153956038Y-93475411D01*
D23*
X153975794Y-91969043D02*
X153465957Y-91969043D01*
D24*
X153969837Y-91975000D02*
X153975794Y-91969043D01*
D23*
X156785239Y-97285239D02*
X153460000Y-93960000D01*
X153460000Y-93960000D02*
X153460000Y-93475411D01*
X153460000Y-93475411D02*
X153460000Y-91975000D01*
D25*
%TO.N,SCL*%
X149454000Y-101154000D02*
X148935580Y-101154000D01*
X149743252Y-101443252D02*
X149454000Y-101154000D01*
X147192000Y-99410420D02*
X147192000Y-98536444D01*
X150213060Y-101443252D02*
X149743252Y-101443252D01*
X148935580Y-101154000D02*
X147192000Y-99410420D01*
X147192000Y-98536444D02*
X146764724Y-98109168D01*
%TO.N,SDA*%
X146534121Y-97517784D02*
X146917784Y-97517784D01*
X149040790Y-100900000D02*
X149900000Y-100900000D01*
X147446000Y-99305210D02*
X149040790Y-100900000D01*
X147446000Y-98046000D02*
X147446000Y-99305210D01*
X146917784Y-97517784D02*
X147446000Y-98046000D01*
%TO.N,/HPS*%
X143118420Y-101500000D02*
X140700000Y-99081580D01*
X140700000Y-99081580D02*
X140700000Y-88484064D01*
X141100000Y-88084064D02*
X141100000Y-85547790D01*
X141347790Y-85300000D02*
X146500000Y-85300000D01*
X144650000Y-101500000D02*
X143118420Y-101500000D01*
X141100000Y-85547790D02*
X141347790Y-85300000D01*
X145250000Y-100900000D02*
X144650000Y-101500000D01*
X146500000Y-85300000D02*
X147400000Y-86200000D01*
X140700000Y-88484064D02*
X141100000Y-88084064D01*
D24*
%TO.N,/HPL*%
X154000000Y-86200000D02*
X154000000Y-89642102D01*
X154000000Y-89642102D02*
X151900000Y-91742102D01*
X151900000Y-94700000D02*
X149700000Y-96900000D01*
X151900000Y-91742102D02*
X151900000Y-94700000D01*
D25*
%TO.N,RES*%
X149740048Y-100259952D02*
X150094689Y-100259952D01*
X146284922Y-97034263D02*
X146819982Y-97034263D01*
X147700000Y-99200000D02*
X149100000Y-100600000D01*
X149100000Y-100600000D02*
X149400000Y-100600000D01*
X149400000Y-100600000D02*
X149740048Y-100259952D01*
X145916702Y-97402483D02*
X146284922Y-97034263D01*
X146819982Y-97034263D02*
X147700000Y-97914281D01*
X147700000Y-97914281D02*
X147700000Y-99200000D01*
%TO.N,Net-(JP3-B)*%
X153072451Y-98686759D02*
X153072451Y-98484931D01*
X150300000Y-102338484D02*
X150907560Y-101730924D01*
X150907560Y-100851650D02*
X153072451Y-98686759D01*
X150907560Y-101730924D02*
X150907560Y-100851650D01*
X150300000Y-102600000D02*
X150300000Y-102338484D01*
%TO.N,Net-(JP1-B)*%
X151454000Y-101454000D02*
X151454000Y-101023630D01*
X153500000Y-102000000D02*
X153300000Y-101800000D01*
X153300000Y-101800000D02*
X151800000Y-101800000D01*
X151454000Y-101023630D02*
X153277630Y-99200000D01*
X153277630Y-99200000D02*
X153945563Y-99200000D01*
X151800000Y-101800000D02*
X151454000Y-101454000D01*
X153500000Y-102600000D02*
X153500000Y-102000000D01*
X153945563Y-99200000D02*
X154078546Y-99332983D01*
%TO.N,Net-(JP2-B)*%
X153713381Y-98729789D02*
X153517739Y-98925431D01*
X151200000Y-101700000D02*
X151900000Y-102400000D01*
X151900000Y-102400000D02*
X151900000Y-102600000D01*
X151200000Y-100918420D02*
X151200000Y-101700000D01*
X153192989Y-98925431D02*
X151200000Y-100918420D01*
X153517739Y-98925431D02*
X153192989Y-98925431D01*
%TO.N,Net-(JP4-B)*%
X150395522Y-101883752D02*
X150653560Y-101625714D01*
X150653560Y-100746440D02*
X152447901Y-98952099D01*
X148700000Y-102600000D02*
X148700000Y-102000000D01*
X152447901Y-98952099D02*
X152447901Y-98540324D01*
X148700000Y-102000000D02*
X148816248Y-101883752D01*
X150653560Y-101625714D02*
X150653560Y-100746440D01*
X148816248Y-101883752D02*
X150395522Y-101883752D01*
%TO.N,Net-(U3-PC0)*%
X146943037Y-102871264D02*
X147208323Y-102605978D01*
X147208323Y-102605978D02*
X147208323Y-101991841D01*
X146578113Y-102871264D02*
X146943037Y-102871264D01*
X143584764Y-102684764D02*
X146391613Y-102684764D01*
X139200000Y-99200000D02*
X140100000Y-99200000D01*
X140100000Y-99200000D02*
X143584764Y-102684764D01*
X146391613Y-102684764D02*
X146578113Y-102871264D01*
%TO.N,Net-(U3-PC1)*%
X139600000Y-97600000D02*
X139200000Y-97600000D01*
X140400000Y-98400000D02*
X139600000Y-97600000D01*
X143689974Y-102430764D02*
X140400000Y-99140790D01*
X146760575Y-102430764D02*
X143689974Y-102430764D01*
X140400000Y-99140790D02*
X140400000Y-98400000D01*
%TD*%
%TA.AperFunction,Conductor*%
%TO.N,GND*%
G36*
X140900627Y-86902958D02*
G01*
X140909000Y-86934208D01*
X140909000Y-87979060D01*
X140890694Y-88023254D01*
X140583015Y-88330932D01*
X140583016Y-88330933D01*
X140538077Y-88375872D01*
X140509000Y-88446072D01*
X140509000Y-98087997D01*
X140490694Y-98132191D01*
X140446500Y-98150497D01*
X140402306Y-98132191D01*
X140045805Y-97775690D01*
X140027499Y-97731496D01*
X140027499Y-97070464D01*
X140027499Y-97070456D01*
X140021029Y-97021301D01*
X139970728Y-96913432D01*
X139970727Y-96913431D01*
X139970727Y-96913430D01*
X139886569Y-96829272D01*
X139778698Y-96778970D01*
X139729545Y-96772500D01*
X138670464Y-96772500D01*
X138670462Y-96772500D01*
X138670456Y-96772501D01*
X138621301Y-96778971D01*
X138621299Y-96778971D01*
X138621298Y-96778972D01*
X138513430Y-96829272D01*
X138513430Y-96829273D01*
X138429273Y-96913430D01*
X138429272Y-96913430D01*
X138378970Y-97021301D01*
X138372500Y-97070448D01*
X138372500Y-98129535D01*
X138372500Y-98129536D01*
X138372501Y-98129544D01*
X138378971Y-98178699D01*
X138378972Y-98178701D01*
X138429272Y-98286569D01*
X138498509Y-98355806D01*
X138516815Y-98400000D01*
X138498509Y-98444194D01*
X138429273Y-98513430D01*
X138429272Y-98513430D01*
X138378970Y-98621301D01*
X138372500Y-98670448D01*
X138372500Y-99729535D01*
X138372500Y-99729536D01*
X138372501Y-99729544D01*
X138378971Y-99778699D01*
X138378972Y-99778701D01*
X138429272Y-99886569D01*
X138513430Y-99970727D01*
X138513431Y-99970727D01*
X138513432Y-99970728D01*
X138621301Y-100021029D01*
X138670455Y-100027500D01*
X139729544Y-100027499D01*
X139778699Y-100021029D01*
X139886568Y-99970728D01*
X139886569Y-99970727D01*
X139886570Y-99970727D01*
X139970727Y-99886570D01*
X139970727Y-99886569D01*
X139970728Y-99886568D01*
X140021029Y-99778699D01*
X140027500Y-99729545D01*
X140027499Y-99548500D01*
X140045805Y-99504308D01*
X140089999Y-99486002D01*
X140134193Y-99504308D01*
X143476571Y-102846686D01*
X143546772Y-102875764D01*
X143622756Y-102875764D01*
X143760711Y-102875764D01*
X143804905Y-102894070D01*
X143823211Y-102938264D01*
X143804905Y-102982458D01*
X143787125Y-102994908D01*
X143713430Y-103029272D01*
X143713430Y-103029273D01*
X143644194Y-103098509D01*
X143600000Y-103116815D01*
X143555806Y-103098509D01*
X143486569Y-103029272D01*
X143378698Y-102978970D01*
X143329545Y-102972500D01*
X142270464Y-102972500D01*
X142270462Y-102972500D01*
X142270456Y-102972501D01*
X142221301Y-102978971D01*
X142221299Y-102978971D01*
X142221298Y-102978972D01*
X142113430Y-103029272D01*
X142113430Y-103029273D01*
X142029273Y-103113430D01*
X142029272Y-103113430D01*
X141978970Y-103221301D01*
X141972500Y-103270448D01*
X141972500Y-104329535D01*
X141972500Y-104329536D01*
X141972501Y-104329544D01*
X141978971Y-104378699D01*
X141978972Y-104378701D01*
X142029272Y-104486569D01*
X142113430Y-104570727D01*
X142113431Y-104570727D01*
X142113432Y-104570728D01*
X142221301Y-104621029D01*
X142270455Y-104627500D01*
X143329544Y-104627499D01*
X143378699Y-104621029D01*
X143486568Y-104570728D01*
X143486569Y-104570727D01*
X143486570Y-104570727D01*
X143555806Y-104501491D01*
X143600000Y-104483185D01*
X143644194Y-104501491D01*
X143713430Y-104570727D01*
X143713431Y-104570727D01*
X143713432Y-104570728D01*
X143821301Y-104621029D01*
X143870455Y-104627500D01*
X144929544Y-104627499D01*
X144978699Y-104621029D01*
X145086568Y-104570728D01*
X145086569Y-104570727D01*
X145086570Y-104570727D01*
X145170727Y-104486570D01*
X145170727Y-104486569D01*
X145170728Y-104486568D01*
X145221029Y-104378699D01*
X145227500Y-104329545D01*
X145227499Y-103270456D01*
X145221029Y-103221301D01*
X145170728Y-103113432D01*
X145170727Y-103113431D01*
X145170727Y-103113430D01*
X145086569Y-103029272D01*
X145012875Y-102994908D01*
X144980558Y-102959640D01*
X144982645Y-102911850D01*
X145017913Y-102879533D01*
X145039289Y-102875764D01*
X146286610Y-102875764D01*
X146330804Y-102894070D01*
X146469920Y-103033186D01*
X146540121Y-103062264D01*
X146540123Y-103062264D01*
X146981027Y-103062264D01*
X146981029Y-103062264D01*
X147051230Y-103033186D01*
X147358806Y-102725610D01*
X147403000Y-102707304D01*
X147447194Y-102725610D01*
X147465500Y-102769804D01*
X147465500Y-104088973D01*
X147465499Y-104088991D01*
X147465499Y-104165888D01*
X147484410Y-104236458D01*
X147484411Y-104236460D01*
X147520943Y-104299737D01*
X147914012Y-104692806D01*
X147932318Y-104737000D01*
X147914012Y-104781194D01*
X147869818Y-104799500D01*
X140190689Y-104799500D01*
X140146495Y-104781194D01*
X140128189Y-104737000D01*
X140146495Y-104692806D01*
X140164275Y-104680356D01*
X140168072Y-104678585D01*
X140177830Y-104674035D01*
X140371401Y-104538495D01*
X140538495Y-104371401D01*
X140674035Y-104177830D01*
X140773903Y-103963663D01*
X140835063Y-103735408D01*
X140855659Y-103500000D01*
X140835063Y-103264592D01*
X140831369Y-103250806D01*
X140773904Y-103036340D01*
X140773903Y-103036338D01*
X140772433Y-103033186D01*
X140674035Y-102822171D01*
X140598413Y-102714171D01*
X140538494Y-102628597D01*
X140371402Y-102461505D01*
X140207954Y-102347058D01*
X140177830Y-102325965D01*
X140177828Y-102325964D01*
X140177830Y-102325964D01*
X139963661Y-102226096D01*
X139963659Y-102226095D01*
X139735420Y-102164939D01*
X139735404Y-102164936D01*
X139500002Y-102144341D01*
X139499998Y-102144341D01*
X139264595Y-102164936D01*
X139264579Y-102164939D01*
X139036340Y-102226095D01*
X139036338Y-102226096D01*
X138822171Y-102325964D01*
X138628597Y-102461505D01*
X138461505Y-102628597D01*
X138325965Y-102822169D01*
X138319644Y-102835726D01*
X138284375Y-102868042D01*
X138236585Y-102865955D01*
X138204269Y-102830686D01*
X138200500Y-102809311D01*
X138200500Y-88470448D01*
X138372500Y-88470448D01*
X138372500Y-89529535D01*
X138372500Y-89529536D01*
X138372501Y-89529544D01*
X138378971Y-89578699D01*
X138378972Y-89578701D01*
X138429272Y-89686569D01*
X138498509Y-89755806D01*
X138516815Y-89800000D01*
X138498509Y-89844194D01*
X138429273Y-89913430D01*
X138429272Y-89913430D01*
X138378970Y-90021301D01*
X138372500Y-90070448D01*
X138372500Y-91129535D01*
X138372500Y-91129536D01*
X138372501Y-91129544D01*
X138378971Y-91178699D01*
X138378972Y-91178701D01*
X138429272Y-91286569D01*
X138498509Y-91355806D01*
X138516815Y-91400000D01*
X138498509Y-91444194D01*
X138429273Y-91513430D01*
X138429272Y-91513430D01*
X138378970Y-91621301D01*
X138372500Y-91670448D01*
X138372500Y-92729535D01*
X138372500Y-92729536D01*
X138372501Y-92729544D01*
X138378971Y-92778699D01*
X138380302Y-92781554D01*
X138429272Y-92886569D01*
X138498509Y-92955806D01*
X138516815Y-93000000D01*
X138498509Y-93044194D01*
X138429273Y-93113430D01*
X138429272Y-93113430D01*
X138378970Y-93221301D01*
X138372500Y-93270448D01*
X138372500Y-94329535D01*
X138372500Y-94329536D01*
X138372501Y-94329544D01*
X138378971Y-94378699D01*
X138378972Y-94378701D01*
X138429272Y-94486569D01*
X138513430Y-94570727D01*
X138513431Y-94570727D01*
X138513432Y-94570728D01*
X138621301Y-94621029D01*
X138670455Y-94627500D01*
X139729544Y-94627499D01*
X139778699Y-94621029D01*
X139886568Y-94570728D01*
X139886569Y-94570727D01*
X139886570Y-94570727D01*
X139970727Y-94486570D01*
X139970727Y-94486569D01*
X139970728Y-94486568D01*
X140021029Y-94378699D01*
X140027500Y-94329545D01*
X140027499Y-93270456D01*
X140021029Y-93221301D01*
X139970728Y-93113432D01*
X139970727Y-93113431D01*
X139970727Y-93113430D01*
X139901491Y-93044194D01*
X139883185Y-93000000D01*
X139901491Y-92955806D01*
X139970727Y-92886570D01*
X139970727Y-92886569D01*
X139970728Y-92886568D01*
X140021029Y-92778699D01*
X140027500Y-92729545D01*
X140027499Y-91670456D01*
X140021029Y-91621301D01*
X139970728Y-91513432D01*
X139970727Y-91513431D01*
X139970727Y-91513430D01*
X139901491Y-91444194D01*
X139883185Y-91400000D01*
X139901491Y-91355806D01*
X139970727Y-91286570D01*
X139970727Y-91286569D01*
X139970728Y-91286568D01*
X140021029Y-91178699D01*
X140027500Y-91129545D01*
X140027499Y-90070456D01*
X140021029Y-90021301D01*
X139970728Y-89913432D01*
X139970727Y-89913431D01*
X139970727Y-89913430D01*
X139901491Y-89844194D01*
X139883185Y-89800000D01*
X139901491Y-89755806D01*
X139970727Y-89686570D01*
X139970727Y-89686569D01*
X139970728Y-89686568D01*
X140021029Y-89578699D01*
X140027500Y-89529545D01*
X140027499Y-88470456D01*
X140021029Y-88421301D01*
X139970728Y-88313432D01*
X139970727Y-88313431D01*
X139970727Y-88313430D01*
X139886569Y-88229272D01*
X139778698Y-88178970D01*
X139729545Y-88172500D01*
X138670464Y-88172500D01*
X138670462Y-88172500D01*
X138670456Y-88172501D01*
X138621301Y-88178971D01*
X138621299Y-88178971D01*
X138621298Y-88178972D01*
X138513430Y-88229272D01*
X138513430Y-88229273D01*
X138429273Y-88313430D01*
X138429272Y-88313430D01*
X138378970Y-88421301D01*
X138372500Y-88470448D01*
X138200500Y-88470448D01*
X138200500Y-87190688D01*
X138218806Y-87146494D01*
X138263000Y-87128188D01*
X138307194Y-87146494D01*
X138319645Y-87164276D01*
X138325964Y-87177829D01*
X138461505Y-87371402D01*
X138628597Y-87538494D01*
X138699020Y-87587804D01*
X138822170Y-87674035D01*
X138822169Y-87674035D01*
X138929253Y-87723969D01*
X139036337Y-87773903D01*
X139036339Y-87773903D01*
X139036340Y-87773904D01*
X139264579Y-87835060D01*
X139264585Y-87835061D01*
X139264592Y-87835063D01*
X139405836Y-87847420D01*
X139499998Y-87855659D01*
X139500000Y-87855659D01*
X139500002Y-87855659D01*
X139578469Y-87848793D01*
X139735408Y-87835063D01*
X139735417Y-87835060D01*
X139735420Y-87835060D01*
X139963659Y-87773904D01*
X139963658Y-87773904D01*
X139963663Y-87773903D01*
X140177830Y-87674035D01*
X140371401Y-87538495D01*
X140538495Y-87371401D01*
X140674035Y-87177830D01*
X140773903Y-86963663D01*
X140778021Y-86948296D01*
X140786130Y-86918032D01*
X140815250Y-86880081D01*
X140862676Y-86873838D01*
X140900627Y-86902958D01*
G37*
%TD.AperFunction*%
%TA.AperFunction,Conductor*%
G36*
X155853506Y-85218806D02*
G01*
X155871812Y-85263000D01*
X155853506Y-85307194D01*
X155835726Y-85319644D01*
X155822171Y-85325964D01*
X155628597Y-85461505D01*
X155461505Y-85628597D01*
X155325964Y-85822171D01*
X155226096Y-86036338D01*
X155226095Y-86036340D01*
X155164939Y-86264579D01*
X155164936Y-86264595D01*
X155144341Y-86499997D01*
X155144341Y-86500002D01*
X155164936Y-86735404D01*
X155164939Y-86735420D01*
X155226095Y-86963659D01*
X155226096Y-86963661D01*
X155325964Y-87177829D01*
X155461505Y-87371402D01*
X155628597Y-87538494D01*
X155699020Y-87587804D01*
X155822170Y-87674035D01*
X155822169Y-87674035D01*
X155929253Y-87723969D01*
X156036337Y-87773903D01*
X156036339Y-87773903D01*
X156036340Y-87773904D01*
X156264579Y-87835060D01*
X156264585Y-87835061D01*
X156264592Y-87835063D01*
X156405836Y-87847420D01*
X156499998Y-87855659D01*
X156500000Y-87855659D01*
X156500002Y-87855659D01*
X156578469Y-87848793D01*
X156735408Y-87835063D01*
X156735417Y-87835060D01*
X156735420Y-87835060D01*
X156963659Y-87773904D01*
X156963658Y-87773904D01*
X156963663Y-87773903D01*
X157177830Y-87674035D01*
X157371401Y-87538495D01*
X157538495Y-87371401D01*
X157674035Y-87177830D01*
X157680355Y-87164275D01*
X157715622Y-87131958D01*
X157763412Y-87134043D01*
X157795730Y-87169310D01*
X157799500Y-87190688D01*
X157799500Y-102809311D01*
X157781194Y-102853505D01*
X157737000Y-102871811D01*
X157692806Y-102853505D01*
X157680356Y-102835726D01*
X157674034Y-102822169D01*
X157538494Y-102628597D01*
X157371402Y-102461505D01*
X157207954Y-102347058D01*
X157177830Y-102325965D01*
X157177828Y-102325964D01*
X157177830Y-102325964D01*
X156963661Y-102226096D01*
X156963659Y-102226095D01*
X156735420Y-102164939D01*
X156735404Y-102164936D01*
X156500002Y-102144341D01*
X156499998Y-102144341D01*
X156264595Y-102164936D01*
X156264579Y-102164939D01*
X156036340Y-102226095D01*
X156036338Y-102226096D01*
X155822171Y-102325964D01*
X155628597Y-102461505D01*
X155461505Y-102628597D01*
X155325964Y-102822171D01*
X155226096Y-103036338D01*
X155226095Y-103036340D01*
X155164939Y-103264579D01*
X155164936Y-103264595D01*
X155144341Y-103499997D01*
X155144341Y-103500002D01*
X155164936Y-103735404D01*
X155164939Y-103735420D01*
X155226095Y-103963659D01*
X155226096Y-103963661D01*
X155325964Y-104177829D01*
X155461505Y-104371402D01*
X155628597Y-104538494D01*
X155674631Y-104570727D01*
X155822170Y-104674035D01*
X155822169Y-104674035D01*
X155835725Y-104680356D01*
X155868042Y-104715624D01*
X155865955Y-104763414D01*
X155830687Y-104795731D01*
X155809311Y-104799500D01*
X154343833Y-104799500D01*
X154299639Y-104781194D01*
X154281333Y-104737000D01*
X154299639Y-104692806D01*
X154568649Y-104423795D01*
X154865242Y-104127200D01*
X154865247Y-104127197D01*
X154870387Y-104122056D01*
X154870389Y-104122056D01*
X154922056Y-104070389D01*
X154958589Y-104007111D01*
X154977500Y-103936534D01*
X154977500Y-103133946D01*
X154995806Y-103089752D01*
X155002482Y-103083076D01*
X155035057Y-103050501D01*
X155089346Y-102943954D01*
X155108052Y-102825846D01*
X155089346Y-102707738D01*
X155035057Y-102601191D01*
X154995806Y-102561940D01*
X154977500Y-102517746D01*
X154977500Y-98463467D01*
X154977498Y-98463459D01*
X154966446Y-98422214D01*
X154958589Y-98392889D01*
X154922056Y-98329611D01*
X154870389Y-98277944D01*
X154868211Y-98275766D01*
X154868200Y-98275756D01*
X154395805Y-97803361D01*
X154377499Y-97759167D01*
X154377499Y-97316548D01*
X154367517Y-97248030D01*
X154367517Y-97248028D01*
X154315848Y-97142338D01*
X154232662Y-97059152D01*
X154126972Y-97007483D01*
X154126970Y-97007482D01*
X154126967Y-97007481D01*
X154122334Y-97006050D01*
X154123150Y-97003407D01*
X154089873Y-96983552D01*
X154077500Y-96946221D01*
X154077500Y-96863467D01*
X154077498Y-96863459D01*
X154058590Y-96792893D01*
X154058589Y-96792889D01*
X154022056Y-96729611D01*
X153970389Y-96677944D01*
X153968211Y-96675766D01*
X153968200Y-96675756D01*
X153656964Y-96364519D01*
X153639428Y-96330104D01*
X153623226Y-96227804D01*
X153568937Y-96121257D01*
X153484381Y-96036701D01*
X153377834Y-95982412D01*
X153259726Y-95963706D01*
X153141617Y-95982412D01*
X153141616Y-95982412D01*
X153035070Y-96036701D01*
X152950515Y-96121256D01*
X152896226Y-96227802D01*
X152896226Y-96227803D01*
X152877520Y-96345912D01*
X152896226Y-96464020D01*
X152896226Y-96464021D01*
X152930323Y-96530939D01*
X152950515Y-96570567D01*
X153035071Y-96655123D01*
X153141618Y-96709412D01*
X153211090Y-96720414D01*
X153245506Y-96737951D01*
X153439346Y-96931791D01*
X153457652Y-96975985D01*
X153439346Y-97020179D01*
X153422602Y-97032134D01*
X153367341Y-97059149D01*
X153367338Y-97059151D01*
X153284152Y-97142337D01*
X153232482Y-97248030D01*
X153222500Y-97316547D01*
X153222500Y-97883451D01*
X153232482Y-97951969D01*
X153232482Y-97951970D01*
X153232483Y-97951972D01*
X153242181Y-97971809D01*
X153274550Y-98038022D01*
X153277513Y-98085765D01*
X153245849Y-98121621D01*
X153198106Y-98124584D01*
X153191024Y-98121582D01*
X153190559Y-98121431D01*
X153072451Y-98102725D01*
X152954342Y-98121431D01*
X152954341Y-98121431D01*
X152847795Y-98175720D01*
X152776673Y-98246842D01*
X152732479Y-98265148D01*
X152688285Y-98246842D01*
X152672556Y-98231113D01*
X152566009Y-98176824D01*
X152447901Y-98158118D01*
X152329792Y-98176824D01*
X152329791Y-98176824D01*
X152223245Y-98231113D01*
X152138690Y-98315668D01*
X152084401Y-98422214D01*
X152084401Y-98422215D01*
X152065695Y-98540324D01*
X152084401Y-98658432D01*
X152084401Y-98658433D01*
X152138690Y-98764979D01*
X152207604Y-98833893D01*
X152225910Y-98878087D01*
X152207604Y-98922281D01*
X150491639Y-100638245D01*
X150491637Y-100638248D01*
X150462560Y-100708448D01*
X150462560Y-101044708D01*
X150444254Y-101088902D01*
X150400060Y-101107208D01*
X150371686Y-101100396D01*
X150331169Y-101079752D01*
X150331166Y-101079751D01*
X150317359Y-101077564D01*
X150276574Y-101052569D01*
X150265408Y-101006058D01*
X150282206Y-100900000D01*
X150263500Y-100781892D01*
X150217332Y-100691284D01*
X150213580Y-100643598D01*
X150244644Y-100607224D01*
X150319344Y-100569163D01*
X150403900Y-100484607D01*
X150458189Y-100378060D01*
X150476895Y-100259952D01*
X150458189Y-100141844D01*
X150403900Y-100035297D01*
X150319344Y-99950741D01*
X150212797Y-99896452D01*
X150094689Y-99877746D01*
X149976580Y-99896452D01*
X149976579Y-99896452D01*
X149870033Y-99950741D01*
X149785476Y-100035298D01*
X149782585Y-100039278D01*
X149781460Y-100038460D01*
X149749347Y-100065892D01*
X149730030Y-100068952D01*
X149702056Y-100068952D01*
X149631856Y-100098029D01*
X149631853Y-100098031D01*
X149339191Y-100390694D01*
X149294997Y-100409000D01*
X149205003Y-100409000D01*
X149160809Y-100390694D01*
X147909306Y-99139191D01*
X147891000Y-99094997D01*
X147891000Y-97876291D01*
X147891000Y-97876289D01*
X147861922Y-97806088D01*
X147808193Y-97752359D01*
X146928175Y-96872341D01*
X146857974Y-96843263D01*
X146322914Y-96843263D01*
X146246930Y-96843263D01*
X146176730Y-96872340D01*
X146176727Y-96872342D01*
X146035985Y-97013083D01*
X145991791Y-97031389D01*
X145982016Y-97030620D01*
X145916702Y-97020277D01*
X145798593Y-97038983D01*
X145798592Y-97038983D01*
X145692046Y-97093272D01*
X145607491Y-97177827D01*
X145553202Y-97284373D01*
X145553202Y-97284374D01*
X145534496Y-97402483D01*
X145553202Y-97520591D01*
X145553202Y-97520592D01*
X145607491Y-97627138D01*
X145692047Y-97711694D01*
X145798594Y-97765983D01*
X145916702Y-97784689D01*
X146034810Y-97765983D01*
X146139565Y-97712606D01*
X146187251Y-97708854D01*
X146221962Y-97738497D01*
X146222017Y-97738458D01*
X146222182Y-97738685D01*
X146223623Y-97739916D01*
X146224906Y-97742435D01*
X146224910Y-97742439D01*
X146309466Y-97826995D01*
X146392989Y-97869552D01*
X146424056Y-97905926D01*
X146420303Y-97953613D01*
X146401225Y-97991056D01*
X146401224Y-97991058D01*
X146382518Y-98109168D01*
X146401224Y-98227276D01*
X146401224Y-98227277D01*
X146432977Y-98289594D01*
X146455513Y-98333823D01*
X146540069Y-98418379D01*
X146646616Y-98472668D01*
X146764724Y-98491374D01*
X146764725Y-98491373D01*
X146764727Y-98491374D01*
X146764728Y-98491374D01*
X146830036Y-98481030D01*
X146876549Y-98492196D01*
X146884007Y-98498566D01*
X146982694Y-98597253D01*
X147001000Y-98641447D01*
X147001000Y-99206309D01*
X146982694Y-99250503D01*
X146938500Y-99268809D01*
X146894306Y-99250503D01*
X146744746Y-99100943D01*
X146681469Y-99064411D01*
X146681467Y-99064410D01*
X146610897Y-99045499D01*
X146610892Y-99045499D01*
X146537824Y-99045499D01*
X146533999Y-99045499D01*
X146533983Y-99045500D01*
X143882339Y-99045500D01*
X143838145Y-99027194D01*
X143819839Y-98983000D01*
X143820609Y-98973223D01*
X143832206Y-98900003D01*
X143832206Y-98900002D01*
X143826929Y-98866683D01*
X143813500Y-98781892D01*
X143759211Y-98675345D01*
X143674655Y-98590789D01*
X143638624Y-98572429D01*
X143607558Y-98536054D01*
X143604500Y-98516742D01*
X143604500Y-96713832D01*
X143622805Y-96669639D01*
X144842806Y-95449637D01*
X144887000Y-95431332D01*
X144931194Y-95449638D01*
X144949500Y-95493832D01*
X144949500Y-95703465D01*
X144989869Y-95906418D01*
X145069059Y-96097598D01*
X145069060Y-96097601D01*
X145184022Y-96269654D01*
X145330345Y-96415977D01*
X145502398Y-96530939D01*
X145502400Y-96530939D01*
X145502402Y-96530941D01*
X145693580Y-96610130D01*
X145896535Y-96650500D01*
X146103465Y-96650500D01*
X146306420Y-96610130D01*
X146497598Y-96530941D01*
X146669655Y-96415977D01*
X146815977Y-96269655D01*
X146930941Y-96097598D01*
X147010130Y-95906420D01*
X147030438Y-95804324D01*
X148172500Y-95804324D01*
X148172500Y-97995675D01*
X148178615Y-98052545D01*
X148226599Y-98181197D01*
X148226601Y-98181200D01*
X148308882Y-98291112D01*
X148308887Y-98291117D01*
X148418799Y-98373398D01*
X148418802Y-98373400D01*
X148418805Y-98373401D01*
X148547456Y-98421385D01*
X148604332Y-98427500D01*
X148604338Y-98427500D01*
X150795662Y-98427500D01*
X150795668Y-98427500D01*
X150852544Y-98421385D01*
X150981195Y-98373401D01*
X150981195Y-98373400D01*
X150981197Y-98373400D01*
X150981200Y-98373398D01*
X151091112Y-98291117D01*
X151091111Y-98291117D01*
X151091115Y-98291115D01*
X151124258Y-98246842D01*
X151173398Y-98181200D01*
X151173400Y-98181197D01*
X151182008Y-98158118D01*
X151221385Y-98052544D01*
X151227500Y-97995668D01*
X151227500Y-95804332D01*
X151221385Y-95747456D01*
X151221381Y-95747447D01*
X151220486Y-95743656D01*
X151222890Y-95743087D01*
X151224343Y-95702945D01*
X151236986Y-95684745D01*
X152092866Y-94828868D01*
X152127500Y-94745253D01*
X152127500Y-94654747D01*
X152127500Y-91862223D01*
X152145806Y-91818029D01*
X152185184Y-91778651D01*
X153052500Y-91778651D01*
X153052500Y-92171348D01*
X153068019Y-92249371D01*
X153068020Y-92249373D01*
X153121968Y-92330112D01*
X153132500Y-92364832D01*
X153132500Y-93085577D01*
X153121967Y-93120300D01*
X153068021Y-93201035D01*
X153068019Y-93201039D01*
X153052500Y-93279062D01*
X153052500Y-93671759D01*
X153068019Y-93749782D01*
X153068020Y-93749784D01*
X153121968Y-93830523D01*
X153132500Y-93865243D01*
X153132500Y-94003121D01*
X153154818Y-94086407D01*
X153154818Y-94086409D01*
X153154911Y-94086570D01*
X153197935Y-94161090D01*
X153197939Y-94161094D01*
X155964026Y-96927181D01*
X155982332Y-96971375D01*
X155982332Y-97814774D01*
X155982332Y-97814775D01*
X155982333Y-97814783D01*
X155988803Y-97863938D01*
X155988804Y-97863940D01*
X156039104Y-97971808D01*
X156123262Y-98055966D01*
X156123263Y-98055966D01*
X156123264Y-98055967D01*
X156231133Y-98106268D01*
X156280287Y-98112739D01*
X157339376Y-98112738D01*
X157388531Y-98106268D01*
X157496400Y-98055967D01*
X157496401Y-98055966D01*
X157496402Y-98055966D01*
X157580559Y-97971809D01*
X157580559Y-97971808D01*
X157580560Y-97971807D01*
X157630861Y-97863938D01*
X157637332Y-97814784D01*
X157637331Y-96755695D01*
X157630861Y-96706540D01*
X157580560Y-96598671D01*
X157580559Y-96598670D01*
X157580559Y-96598669D01*
X157496401Y-96514511D01*
X157388530Y-96464209D01*
X157339383Y-96457739D01*
X157339377Y-96457739D01*
X156446782Y-96457739D01*
X156402588Y-96439433D01*
X153894285Y-93931130D01*
X153875979Y-93886936D01*
X153894285Y-93842742D01*
X153938479Y-93824436D01*
X153966854Y-93831248D01*
X153981892Y-93838911D01*
X154100000Y-93857617D01*
X154218108Y-93838911D01*
X154324655Y-93784622D01*
X154409211Y-93700066D01*
X154463500Y-93593519D01*
X154482206Y-93475411D01*
X154463500Y-93357303D01*
X154409211Y-93250756D01*
X154324655Y-93166200D01*
X154218108Y-93111911D01*
X154100000Y-93093205D01*
X153981891Y-93111911D01*
X153981887Y-93111912D01*
X153924607Y-93141099D01*
X153896233Y-93147911D01*
X153850000Y-93147911D01*
X153805806Y-93129605D01*
X153787500Y-93085411D01*
X153787500Y-92870448D01*
X155972500Y-92870448D01*
X155972500Y-93929535D01*
X155972500Y-93929536D01*
X155972501Y-93929544D01*
X155978971Y-93978699D01*
X155978972Y-93978701D01*
X156029272Y-94086569D01*
X156098509Y-94155806D01*
X156116815Y-94200000D01*
X156098509Y-94244194D01*
X156029273Y-94313430D01*
X156029272Y-94313430D01*
X155978970Y-94421301D01*
X155972500Y-94470448D01*
X155972500Y-95529535D01*
X155972500Y-95529536D01*
X155972501Y-95529544D01*
X155978971Y-95578699D01*
X155978972Y-95578701D01*
X156029272Y-95686569D01*
X156113430Y-95770727D01*
X156113431Y-95770727D01*
X156113432Y-95770728D01*
X156221301Y-95821029D01*
X156270455Y-95827500D01*
X157329544Y-95827499D01*
X157378699Y-95821029D01*
X157486568Y-95770728D01*
X157486569Y-95770727D01*
X157486570Y-95770727D01*
X157570727Y-95686570D01*
X157570727Y-95686569D01*
X157570728Y-95686568D01*
X157621029Y-95578699D01*
X157627500Y-95529545D01*
X157627499Y-94470456D01*
X157621029Y-94421301D01*
X157570728Y-94313432D01*
X157570727Y-94313431D01*
X157570727Y-94313430D01*
X157501491Y-94244194D01*
X157483185Y-94200000D01*
X157501491Y-94155806D01*
X157570727Y-94086570D01*
X157570727Y-94086569D01*
X157570728Y-94086568D01*
X157621029Y-93978699D01*
X157627500Y-93929545D01*
X157627499Y-92870456D01*
X157621029Y-92821301D01*
X157570728Y-92713432D01*
X157570727Y-92713431D01*
X157570727Y-92713430D01*
X157486569Y-92629272D01*
X157378698Y-92578970D01*
X157329545Y-92572500D01*
X156270464Y-92572500D01*
X156270462Y-92572500D01*
X156270456Y-92572501D01*
X156221301Y-92578971D01*
X156221299Y-92578971D01*
X156221298Y-92578972D01*
X156113430Y-92629272D01*
X156113430Y-92629273D01*
X156029273Y-92713430D01*
X156029272Y-92713430D01*
X155978970Y-92821301D01*
X155972500Y-92870448D01*
X153787500Y-92870448D01*
X153787500Y-92364832D01*
X153798036Y-92330105D01*
X153801906Y-92324313D01*
X153841683Y-92297743D01*
X153853869Y-92296543D01*
X153915989Y-92296543D01*
X153944363Y-92303355D01*
X154001643Y-92332541D01*
X154001645Y-92332541D01*
X154001648Y-92332543D01*
X154119756Y-92351249D01*
X154237864Y-92332543D01*
X154344411Y-92278254D01*
X154428967Y-92193698D01*
X154483256Y-92087151D01*
X154501962Y-91969043D01*
X154483256Y-91850935D01*
X154428967Y-91744388D01*
X154344411Y-91659832D01*
X154237864Y-91605543D01*
X154119756Y-91586837D01*
X154001647Y-91605543D01*
X154001643Y-91605544D01*
X153944363Y-91634731D01*
X153915989Y-91641543D01*
X153845908Y-91641543D01*
X153801714Y-91623237D01*
X153793944Y-91613769D01*
X153792857Y-91612143D01*
X153792854Y-91612141D01*
X153792854Y-91612140D01*
X153704375Y-91553021D01*
X153704371Y-91553019D01*
X153626348Y-91537500D01*
X153293652Y-91537500D01*
X153215628Y-91553019D01*
X153215624Y-91553021D01*
X153127143Y-91612143D01*
X153068021Y-91700624D01*
X153068019Y-91700628D01*
X153052500Y-91778651D01*
X152185184Y-91778651D01*
X153165441Y-90798394D01*
X154192865Y-89770970D01*
X154210024Y-89729544D01*
X154227500Y-89687355D01*
X154227500Y-88670448D01*
X155972500Y-88670448D01*
X155972500Y-89729535D01*
X155972500Y-89729536D01*
X155972501Y-89729544D01*
X155978971Y-89778699D01*
X155978972Y-89778701D01*
X156029272Y-89886569D01*
X156098509Y-89955806D01*
X156116815Y-90000000D01*
X156098509Y-90044194D01*
X156029273Y-90113430D01*
X156029272Y-90113430D01*
X155978970Y-90221301D01*
X155972500Y-90270448D01*
X155972500Y-91329535D01*
X155972500Y-91329536D01*
X155972501Y-91329544D01*
X155978971Y-91378699D01*
X155978972Y-91378701D01*
X156029272Y-91486569D01*
X156113430Y-91570727D01*
X156113431Y-91570727D01*
X156113432Y-91570728D01*
X156221301Y-91621029D01*
X156270455Y-91627500D01*
X157329544Y-91627499D01*
X157378699Y-91621029D01*
X157486568Y-91570728D01*
X157486569Y-91570727D01*
X157486570Y-91570727D01*
X157570727Y-91486570D01*
X157570727Y-91486569D01*
X157570728Y-91486568D01*
X157621029Y-91378699D01*
X157627500Y-91329545D01*
X157627499Y-90270456D01*
X157621029Y-90221301D01*
X157570728Y-90113432D01*
X157570727Y-90113431D01*
X157570727Y-90113430D01*
X157501491Y-90044194D01*
X157483185Y-90000000D01*
X157501491Y-89955806D01*
X157570727Y-89886570D01*
X157570727Y-89886569D01*
X157570728Y-89886568D01*
X157621029Y-89778699D01*
X157627500Y-89729545D01*
X157627499Y-88670456D01*
X157621029Y-88621301D01*
X157570728Y-88513432D01*
X157570727Y-88513431D01*
X157570727Y-88513430D01*
X157486569Y-88429272D01*
X157378698Y-88378970D01*
X157329545Y-88372500D01*
X156270464Y-88372500D01*
X156270462Y-88372500D01*
X156270456Y-88372501D01*
X156221301Y-88378971D01*
X156221299Y-88378971D01*
X156221298Y-88378972D01*
X156113430Y-88429272D01*
X156113430Y-88429273D01*
X156029273Y-88513430D01*
X156029272Y-88513430D01*
X155978970Y-88621301D01*
X155972500Y-88670448D01*
X154227500Y-88670448D01*
X154227500Y-87089999D01*
X154245806Y-87045805D01*
X154290000Y-87027499D01*
X154529536Y-87027499D01*
X154529544Y-87027499D01*
X154578699Y-87021029D01*
X154686568Y-86970728D01*
X154686569Y-86970727D01*
X154686570Y-86970727D01*
X154770727Y-86886570D01*
X154770727Y-86886569D01*
X154770728Y-86886568D01*
X154821029Y-86778699D01*
X154827500Y-86729545D01*
X154827499Y-85670456D01*
X154821029Y-85621301D01*
X154770728Y-85513432D01*
X154770727Y-85513431D01*
X154770727Y-85513430D01*
X154686569Y-85429272D01*
X154578698Y-85378970D01*
X154529545Y-85372500D01*
X153470464Y-85372500D01*
X153470462Y-85372500D01*
X153470456Y-85372501D01*
X153421301Y-85378971D01*
X153421299Y-85378971D01*
X153421298Y-85378972D01*
X153313430Y-85429272D01*
X153313430Y-85429273D01*
X153229273Y-85513430D01*
X153229272Y-85513430D01*
X153178970Y-85621301D01*
X153172500Y-85670448D01*
X153172500Y-86729535D01*
X153172500Y-86729536D01*
X153172501Y-86729544D01*
X153178971Y-86778699D01*
X153178972Y-86778701D01*
X153229272Y-86886569D01*
X153313430Y-86970727D01*
X153313431Y-86970727D01*
X153313432Y-86970728D01*
X153421301Y-87021029D01*
X153470455Y-87027500D01*
X153710000Y-87027499D01*
X153754194Y-87045805D01*
X153772500Y-87089999D01*
X153772500Y-89521981D01*
X153754194Y-89566175D01*
X151707136Y-91613232D01*
X151707132Y-91613237D01*
X151672500Y-91696846D01*
X151672500Y-94579878D01*
X151654194Y-94624072D01*
X150915256Y-95363009D01*
X150871062Y-95381315D01*
X150856540Y-95378710D01*
X150856351Y-95379514D01*
X150852548Y-95378615D01*
X150795675Y-95372500D01*
X150795668Y-95372500D01*
X148604332Y-95372500D01*
X148604324Y-95372500D01*
X148547454Y-95378615D01*
X148418802Y-95426599D01*
X148418799Y-95426601D01*
X148308887Y-95508882D01*
X148308882Y-95508887D01*
X148226601Y-95618799D01*
X148226599Y-95618802D01*
X148178615Y-95747454D01*
X148172500Y-95804324D01*
X147030438Y-95804324D01*
X147050500Y-95703465D01*
X147050500Y-95496535D01*
X147010130Y-95293580D01*
X146930941Y-95102402D01*
X146930939Y-95102400D01*
X146930939Y-95102398D01*
X146815977Y-94930345D01*
X146669654Y-94784022D01*
X146497601Y-94669060D01*
X146497598Y-94669059D01*
X146306418Y-94589869D01*
X146103465Y-94549500D01*
X145896535Y-94549500D01*
X145893832Y-94549500D01*
X145849638Y-94531194D01*
X145831332Y-94487000D01*
X145849638Y-94442806D01*
X146121717Y-94170728D01*
X146513330Y-93779115D01*
X146557524Y-93760809D01*
X147110527Y-93760809D01*
X147154721Y-93779115D01*
X147168126Y-93792520D01*
X147274673Y-93846809D01*
X147392781Y-93865515D01*
X147510889Y-93846809D01*
X147617436Y-93792520D01*
X147701992Y-93707964D01*
X147756281Y-93601417D01*
X147774987Y-93483309D01*
X147756281Y-93365201D01*
X147701992Y-93258654D01*
X147617436Y-93174098D01*
X147510889Y-93119809D01*
X147392781Y-93101103D01*
X147274672Y-93119809D01*
X147274671Y-93119809D01*
X147168125Y-93174098D01*
X147154721Y-93187503D01*
X147110527Y-93205809D01*
X146457066Y-93205809D01*
X146457050Y-93205808D01*
X146453225Y-93205808D01*
X146380157Y-93205808D01*
X146380151Y-93205808D01*
X146309581Y-93224719D01*
X146309579Y-93224720D01*
X146246302Y-93261252D01*
X144239478Y-95268076D01*
X144195284Y-95286382D01*
X144151090Y-95268076D01*
X144132784Y-95223882D01*
X144133554Y-95214103D01*
X144135788Y-95200000D01*
X144117082Y-95081892D01*
X144117080Y-95081889D01*
X144117080Y-95081887D01*
X144087894Y-95024607D01*
X144081082Y-94996233D01*
X144081082Y-93144188D01*
X144099388Y-93099994D01*
X145326058Y-91873324D01*
X145370252Y-91855018D01*
X145414446Y-91873324D01*
X146103187Y-92562065D01*
X146177867Y-92605181D01*
X146203353Y-92612010D01*
X146261155Y-92627499D01*
X146261161Y-92627500D01*
X146347393Y-92627500D01*
X147296233Y-92627500D01*
X147324607Y-92634312D01*
X147381887Y-92663498D01*
X147381889Y-92663498D01*
X147381892Y-92663500D01*
X147500000Y-92682206D01*
X147618108Y-92663500D01*
X147618112Y-92663498D01*
X147675393Y-92634312D01*
X147703767Y-92627500D01*
X148438457Y-92627500D01*
X148482651Y-92645806D01*
X148741539Y-92904694D01*
X148802514Y-92965669D01*
X148877194Y-93008785D01*
X148902680Y-93015614D01*
X148960482Y-93031103D01*
X148960488Y-93031104D01*
X149314629Y-93031104D01*
X149358823Y-93049410D01*
X149366596Y-93058881D01*
X149371661Y-93066461D01*
X149460145Y-93125584D01*
X149538170Y-93141104D01*
X149870866Y-93141104D01*
X149948891Y-93125584D01*
X150037375Y-93066461D01*
X150096498Y-92977977D01*
X150112018Y-92899952D01*
X150112018Y-92507256D01*
X150096498Y-92429231D01*
X150037375Y-92340747D01*
X149971219Y-92296543D01*
X149948893Y-92281625D01*
X149948889Y-92281623D01*
X149870866Y-92266104D01*
X149538170Y-92266104D01*
X149460146Y-92281623D01*
X149460142Y-92281625D01*
X149371661Y-92340746D01*
X149371659Y-92340749D01*
X149366596Y-92348327D01*
X149326823Y-92374903D01*
X149314629Y-92376104D01*
X149165147Y-92376104D01*
X149120953Y-92357798D01*
X148945806Y-92182651D01*
X148927500Y-92138457D01*
X148927500Y-91811543D01*
X148945806Y-91767349D01*
X149951160Y-90761995D01*
X149995354Y-90743689D01*
X150659263Y-90743689D01*
X150687637Y-90750501D01*
X150744917Y-90779687D01*
X150744919Y-90779687D01*
X150744922Y-90779689D01*
X150863030Y-90798395D01*
X150981138Y-90779689D01*
X151087685Y-90725400D01*
X151172241Y-90640844D01*
X151226530Y-90534297D01*
X151228218Y-90523634D01*
X151253211Y-90482848D01*
X151299724Y-90471680D01*
X151340512Y-90496673D01*
X151346098Y-90505961D01*
X151359149Y-90532658D01*
X151359151Y-90532661D01*
X151359152Y-90532662D01*
X151442338Y-90615848D01*
X151548028Y-90667517D01*
X151616547Y-90677500D01*
X152183452Y-90677499D01*
X152251972Y-90667517D01*
X152357662Y-90615848D01*
X152440848Y-90532662D01*
X152492517Y-90426972D01*
X152502500Y-90358453D01*
X152502499Y-89841548D01*
X152492517Y-89773028D01*
X152440848Y-89667338D01*
X152357662Y-89584152D01*
X152251972Y-89532483D01*
X152251970Y-89532482D01*
X152251969Y-89532482D01*
X152197539Y-89524552D01*
X152183453Y-89522500D01*
X152183452Y-89522500D01*
X151616548Y-89522500D01*
X151548030Y-89532482D01*
X151548029Y-89532482D01*
X151548028Y-89532483D01*
X151516556Y-89547869D01*
X151442337Y-89584152D01*
X151359152Y-89667337D01*
X151359152Y-89667338D01*
X151324875Y-89737451D01*
X151289021Y-89769113D01*
X151268727Y-89772500D01*
X151062556Y-89772500D01*
X150979270Y-89794818D01*
X150979268Y-89794818D01*
X150926773Y-89825126D01*
X150904588Y-89837935D01*
X150904587Y-89837936D01*
X150904583Y-89837939D01*
X150672140Y-90070383D01*
X150627946Y-90088689D01*
X149790689Y-90088689D01*
X149707403Y-90111007D01*
X149707401Y-90111007D01*
X149654906Y-90141315D01*
X149632721Y-90154124D01*
X149632720Y-90154125D01*
X149632716Y-90154128D01*
X148337939Y-91448905D01*
X148337936Y-91448909D01*
X148294818Y-91523590D01*
X148294818Y-91523592D01*
X148272500Y-91606878D01*
X148272500Y-91910000D01*
X148254194Y-91954194D01*
X148210000Y-91972500D01*
X147703767Y-91972500D01*
X147675393Y-91965688D01*
X147618112Y-91936501D01*
X147618108Y-91936500D01*
X147500000Y-91917794D01*
X147381891Y-91936500D01*
X147381887Y-91936501D01*
X147324607Y-91965688D01*
X147296233Y-91972500D01*
X146465820Y-91972500D01*
X146421626Y-91954194D01*
X145751584Y-91284152D01*
X145735448Y-91252485D01*
X145735271Y-91252543D01*
X145734906Y-91251420D01*
X145734047Y-91249735D01*
X145733752Y-91247867D01*
X145679463Y-91141320D01*
X145594907Y-91056764D01*
X145488360Y-91002475D01*
X145488359Y-91002474D01*
X145488358Y-91002474D01*
X145486487Y-91002178D01*
X145484799Y-91001318D01*
X145483682Y-91000955D01*
X145483739Y-91000777D01*
X145452074Y-90984642D01*
X144372806Y-89905374D01*
X144354500Y-89861180D01*
X144354500Y-88496534D01*
X144949500Y-88496534D01*
X144949500Y-88703465D01*
X144989869Y-88906418D01*
X145069059Y-89097598D01*
X145069060Y-89097601D01*
X145184022Y-89269654D01*
X145330345Y-89415977D01*
X145502398Y-89530939D01*
X145502400Y-89530939D01*
X145502402Y-89530941D01*
X145693580Y-89610130D01*
X145896535Y-89650500D01*
X146103465Y-89650500D01*
X146306420Y-89610130D01*
X146497598Y-89530941D01*
X146669655Y-89415977D01*
X146815977Y-89269655D01*
X146930941Y-89097598D01*
X147010130Y-88906420D01*
X147050500Y-88703465D01*
X147050500Y-88496535D01*
X147010130Y-88293580D01*
X146930941Y-88102402D01*
X146930939Y-88102400D01*
X146930939Y-88102398D01*
X146815977Y-87930345D01*
X146669654Y-87784022D01*
X146497601Y-87669060D01*
X146497598Y-87669059D01*
X146306418Y-87589869D01*
X146103465Y-87549500D01*
X145896535Y-87549500D01*
X145693581Y-87589869D01*
X145502401Y-87669059D01*
X145502398Y-87669060D01*
X145330345Y-87784022D01*
X145184022Y-87930345D01*
X145069060Y-88102398D01*
X145069059Y-88102401D01*
X144989869Y-88293581D01*
X144949500Y-88496534D01*
X144354500Y-88496534D01*
X144354500Y-88374906D01*
X144354499Y-88374900D01*
X144338027Y-88313430D01*
X144332181Y-88291612D01*
X144289065Y-88216932D01*
X144228090Y-88155957D01*
X143945806Y-87873673D01*
X143927500Y-87829479D01*
X143927500Y-87089999D01*
X143945806Y-87045805D01*
X143990000Y-87027499D01*
X144129536Y-87027499D01*
X144129544Y-87027499D01*
X144178699Y-87021029D01*
X144286568Y-86970728D01*
X144286569Y-86970727D01*
X144286570Y-86970727D01*
X144370727Y-86886570D01*
X144370727Y-86886569D01*
X144370728Y-86886568D01*
X144421029Y-86778699D01*
X144427500Y-86729545D01*
X144427499Y-85670456D01*
X144421029Y-85621301D01*
X144401730Y-85579914D01*
X144399643Y-85532124D01*
X144431960Y-85496856D01*
X144458374Y-85491000D01*
X146394997Y-85491000D01*
X146439191Y-85509306D01*
X146554194Y-85624309D01*
X146572500Y-85668503D01*
X146572500Y-86729535D01*
X146572500Y-86729536D01*
X146572501Y-86729544D01*
X146578971Y-86778699D01*
X146578972Y-86778701D01*
X146629272Y-86886569D01*
X146713430Y-86970727D01*
X146713431Y-86970727D01*
X146713432Y-86970728D01*
X146821301Y-87021029D01*
X146870455Y-87027500D01*
X147929544Y-87027499D01*
X147978699Y-87021029D01*
X148086568Y-86970728D01*
X148086569Y-86970727D01*
X148086570Y-86970727D01*
X148170727Y-86886570D01*
X148170727Y-86886569D01*
X148170728Y-86886568D01*
X148221029Y-86778699D01*
X148227500Y-86729545D01*
X148227499Y-85670456D01*
X148227498Y-85670448D01*
X151372500Y-85670448D01*
X151372500Y-86729535D01*
X151372500Y-86729536D01*
X151372501Y-86729544D01*
X151378971Y-86778699D01*
X151378972Y-86778701D01*
X151429272Y-86886569D01*
X151513430Y-86970727D01*
X151513431Y-86970727D01*
X151513432Y-86970728D01*
X151621301Y-87021029D01*
X151670455Y-87027500D01*
X152729544Y-87027499D01*
X152778699Y-87021029D01*
X152886568Y-86970728D01*
X152886569Y-86970727D01*
X152886570Y-86970727D01*
X152970727Y-86886570D01*
X152970727Y-86886569D01*
X152970728Y-86886568D01*
X153021029Y-86778699D01*
X153027500Y-86729545D01*
X153027499Y-85670456D01*
X153021029Y-85621301D01*
X152970728Y-85513432D01*
X152970727Y-85513431D01*
X152970727Y-85513430D01*
X152886569Y-85429272D01*
X152778698Y-85378970D01*
X152729545Y-85372500D01*
X151670464Y-85372500D01*
X151670462Y-85372500D01*
X151670456Y-85372501D01*
X151621301Y-85378971D01*
X151621299Y-85378971D01*
X151621298Y-85378972D01*
X151513430Y-85429272D01*
X151513430Y-85429273D01*
X151429273Y-85513430D01*
X151429272Y-85513430D01*
X151378970Y-85621301D01*
X151372500Y-85670448D01*
X148227498Y-85670448D01*
X148221029Y-85621301D01*
X148170728Y-85513432D01*
X148170727Y-85513431D01*
X148170727Y-85513430D01*
X148086569Y-85429272D01*
X147978698Y-85378970D01*
X147929551Y-85372500D01*
X146868503Y-85372500D01*
X146824309Y-85354194D01*
X146777309Y-85307194D01*
X146759003Y-85263000D01*
X146777309Y-85218806D01*
X146821503Y-85200500D01*
X155809312Y-85200500D01*
X155853506Y-85218806D01*
G37*
%TD.AperFunction*%
%TA.AperFunction,Conductor*%
G36*
X154414855Y-103113091D02*
G01*
X154422500Y-103143044D01*
X154422500Y-103759167D01*
X154404194Y-103803361D01*
X153903361Y-104304194D01*
X153859167Y-104322500D01*
X148354484Y-104322500D01*
X148310290Y-104304194D01*
X148038806Y-104032710D01*
X148020500Y-103988516D01*
X148020500Y-103295000D01*
X148038806Y-103250806D01*
X148083000Y-103232500D01*
X148475290Y-103232500D01*
X148484185Y-103233136D01*
X148506141Y-103236293D01*
X148506143Y-103236293D01*
X148543858Y-103236293D01*
X148565814Y-103233136D01*
X148574709Y-103232500D01*
X148825291Y-103232500D01*
X148834186Y-103233136D01*
X148856142Y-103236293D01*
X148856144Y-103236293D01*
X148893859Y-103236293D01*
X148915815Y-103233136D01*
X148924710Y-103232500D01*
X149374999Y-103232500D01*
X149375000Y-103232500D01*
X149430042Y-103220526D01*
X149457728Y-103196535D01*
X149503116Y-103181429D01*
X149545891Y-103202841D01*
X149553365Y-103211466D01*
X149553366Y-103211467D01*
X149624997Y-103232499D01*
X149624999Y-103232500D01*
X149625000Y-103232500D01*
X150075290Y-103232500D01*
X150084185Y-103233136D01*
X150106141Y-103236293D01*
X150106143Y-103236293D01*
X150143858Y-103236293D01*
X150165814Y-103233136D01*
X150174709Y-103232500D01*
X150425291Y-103232500D01*
X150434186Y-103233136D01*
X150456142Y-103236293D01*
X150456144Y-103236293D01*
X150493859Y-103236293D01*
X150515815Y-103233136D01*
X150524710Y-103232500D01*
X150974999Y-103232500D01*
X150975000Y-103232500D01*
X151030042Y-103220526D01*
X151057728Y-103196535D01*
X151103116Y-103181429D01*
X151145891Y-103202841D01*
X151153365Y-103211466D01*
X151153366Y-103211467D01*
X151224997Y-103232499D01*
X151224999Y-103232500D01*
X151225000Y-103232500D01*
X151675290Y-103232500D01*
X151684185Y-103233136D01*
X151706141Y-103236293D01*
X151706143Y-103236293D01*
X151743858Y-103236293D01*
X151765814Y-103233136D01*
X151774709Y-103232500D01*
X152025291Y-103232500D01*
X152034186Y-103233136D01*
X152056142Y-103236293D01*
X152056144Y-103236293D01*
X152093859Y-103236293D01*
X152115815Y-103233136D01*
X152124710Y-103232500D01*
X152574999Y-103232500D01*
X152575000Y-103232500D01*
X152630042Y-103220526D01*
X152657728Y-103196535D01*
X152703116Y-103181429D01*
X152745891Y-103202841D01*
X152753365Y-103211466D01*
X152753366Y-103211467D01*
X152824997Y-103232499D01*
X152824999Y-103232500D01*
X152825000Y-103232500D01*
X153275290Y-103232500D01*
X153284185Y-103233136D01*
X153306141Y-103236293D01*
X153306143Y-103236293D01*
X153343858Y-103236293D01*
X153365814Y-103233136D01*
X153374709Y-103232500D01*
X153625291Y-103232500D01*
X153634186Y-103233136D01*
X153656142Y-103236293D01*
X153656144Y-103236293D01*
X153693859Y-103236293D01*
X153715815Y-103233136D01*
X153724710Y-103232500D01*
X154174999Y-103232500D01*
X154175000Y-103232500D01*
X154230042Y-103220526D01*
X154286466Y-103171635D01*
X154286467Y-103171633D01*
X154300032Y-103125436D01*
X154330047Y-103088189D01*
X154377608Y-103083076D01*
X154414855Y-103113091D01*
G37*
%TD.AperFunction*%
%TA.AperFunction,Conductor*%
G36*
X153696343Y-99409306D02*
G01*
X153713879Y-99443723D01*
X153715046Y-99451090D01*
X153715046Y-99451092D01*
X153764680Y-99548502D01*
X153769335Y-99557638D01*
X153853891Y-99642194D01*
X153960438Y-99696483D01*
X154078546Y-99715189D01*
X154196654Y-99696483D01*
X154303201Y-99642194D01*
X154315806Y-99629589D01*
X154360000Y-99611283D01*
X154404194Y-99629589D01*
X154422500Y-99673783D01*
X154422500Y-102466018D01*
X154404194Y-102510212D01*
X154360000Y-102528518D01*
X154315806Y-102510212D01*
X154300032Y-102483626D01*
X154261626Y-102352827D01*
X154246817Y-102320399D01*
X154245961Y-102318524D01*
X154245959Y-102318521D01*
X154168229Y-102197570D01*
X154168221Y-102197560D01*
X154143532Y-102169069D01*
X154143529Y-102169065D01*
X154034868Y-102074911D01*
X154018809Y-102064590D01*
X154003149Y-102054525D01*
X154003134Y-102054517D01*
X153911284Y-102012571D01*
X153872358Y-101994794D01*
X153859437Y-101991000D01*
X153836174Y-101984169D01*
X153726794Y-101968442D01*
X153685655Y-101944032D01*
X153677947Y-101930496D01*
X153661922Y-101891807D01*
X153608193Y-101838078D01*
X153408193Y-101638078D01*
X153337992Y-101609000D01*
X153337991Y-101609000D01*
X151905003Y-101609000D01*
X151860809Y-101590694D01*
X151663306Y-101393191D01*
X151645000Y-101348997D01*
X151645000Y-101128633D01*
X151663306Y-101084439D01*
X153338439Y-99409306D01*
X153382633Y-99391000D01*
X153652149Y-99391000D01*
X153696343Y-99409306D01*
G37*
%TD.AperFunction*%
%TA.AperFunction,Conductor*%
G36*
X143923847Y-90382725D02*
G01*
X144862903Y-91321781D01*
X144881209Y-91365975D01*
X144862903Y-91410169D01*
X143491521Y-92781550D01*
X143491518Y-92781554D01*
X143448400Y-92856235D01*
X143448400Y-92856237D01*
X143426082Y-92939523D01*
X143426082Y-94996233D01*
X143419270Y-95024607D01*
X143390083Y-95081887D01*
X143390082Y-95081891D01*
X143371376Y-95200000D01*
X143390082Y-95318108D01*
X143390082Y-95318109D01*
X143435454Y-95407154D01*
X143439207Y-95454842D01*
X143423960Y-95479723D01*
X142677943Y-96225741D01*
X142641411Y-96289018D01*
X142641410Y-96289020D01*
X142622499Y-96359590D01*
X142622499Y-96437695D01*
X142622500Y-96437708D01*
X142622500Y-99054915D01*
X142622499Y-99054933D01*
X142622499Y-99131830D01*
X142641410Y-99202400D01*
X142641411Y-99202402D01*
X142677942Y-99265678D01*
X142677946Y-99265683D01*
X143007465Y-99595200D01*
X143007470Y-99595206D01*
X143009653Y-99597389D01*
X143061320Y-99649056D01*
X143099852Y-99671302D01*
X143099851Y-99671302D01*
X143124594Y-99685587D01*
X143124595Y-99685587D01*
X143124598Y-99685589D01*
X143195175Y-99704500D01*
X143268243Y-99704500D01*
X143627916Y-99704500D01*
X143627932Y-99704501D01*
X143684668Y-99704501D01*
X143728862Y-99722807D01*
X143747168Y-99767001D01*
X143743661Y-99787643D01*
X143725367Y-99839922D01*
X143725366Y-99839927D01*
X143722500Y-99870501D01*
X143722500Y-101246500D01*
X143704194Y-101290694D01*
X143660000Y-101309000D01*
X143223423Y-101309000D01*
X143179229Y-101290694D01*
X140909306Y-99020771D01*
X140891000Y-98976577D01*
X140891000Y-90734021D01*
X140909306Y-90689827D01*
X140953500Y-90671521D01*
X140981871Y-90678332D01*
X141049070Y-90712572D01*
X141049073Y-90712572D01*
X141049075Y-90712573D01*
X141143309Y-90727498D01*
X141143311Y-90727498D01*
X141143323Y-90727500D01*
X143456676Y-90727499D01*
X143550930Y-90712572D01*
X143664532Y-90654688D01*
X143754688Y-90564532D01*
X143812572Y-90450930D01*
X143817923Y-90417140D01*
X143842915Y-90376356D01*
X143889429Y-90365188D01*
X143923847Y-90382725D01*
G37*
%TD.AperFunction*%
%TD*%
M02*
