%TF.GenerationSoftware,KiCad,Pcbnew,8.99.0-2176-gc19aa8170b*%
%TF.CreationDate,2024-08-30T16:07:14-04:00*%
%TF.ProjectId,scampi,7363616d-7069-42e6-9b69-6361645f7063,rev?*%
%TF.SameCoordinates,Original*%
%TF.FileFunction,Paste,Top*%
%TF.FilePolarity,Positive*%
%FSLAX46Y46*%
G04 Gerber Fmt 4.6, Leading zero omitted, Abs format (unit mm)*
G04 Created by KiCad (PCBNEW 8.99.0-2176-gc19aa8170b) date 2024-08-30 16:07:14*
%MOMM*%
%LPD*%
G01*
G04 APERTURE LIST*
G04 Aperture macros list*
%AMRoundRect*
0 Rectangle with rounded corners*
0 $1 Rounding radius*
0 $2 $3 $4 $5 $6 $7 $8 $9 X,Y pos of 4 corners*
0 Add a 4 corners polygon primitive as box body*
4,1,4,$2,$3,$4,$5,$6,$7,$8,$9,$2,$3,0*
0 Add four circle primitives for the rounded corners*
1,1,$1+$1,$2,$3*
1,1,$1+$1,$4,$5*
1,1,$1+$1,$6,$7*
1,1,$1+$1,$8,$9*
0 Add four rect primitives between the rounded corners*
20,1,$1+$1,$2,$3,$4,$5,0*
20,1,$1+$1,$4,$5,$6,$7,0*
20,1,$1+$1,$6,$7,$8,$9,0*
20,1,$1+$1,$8,$9,$2,$3,0*%
%AMFreePoly0*
4,1,14,0.334644,0.085355,0.385355,0.034644,0.400000,-0.000711,0.400000,-0.050000,0.385355,-0.085355,0.350000,-0.100000,-0.350000,-0.100000,-0.385355,-0.085355,-0.400000,-0.050000,-0.400000,0.050000,-0.385355,0.085355,-0.350000,0.100000,0.299289,0.100000,0.334644,0.085355,0.334644,0.085355,$1*%
%AMFreePoly1*
4,1,14,0.385355,0.085355,0.400000,0.050000,0.400000,0.000711,0.385355,-0.034644,0.334644,-0.085355,0.299289,-0.100000,-0.350000,-0.100000,-0.385355,-0.085355,-0.400000,-0.050000,-0.400000,0.050000,-0.385355,0.085355,-0.350000,0.100000,0.350000,0.100000,0.385355,0.085355,0.385355,0.085355,$1*%
%AMFreePoly2*
4,1,14,0.085355,0.385355,0.100000,0.350000,0.100000,-0.350000,0.085355,-0.385355,0.050000,-0.400000,-0.050000,-0.400000,-0.085355,-0.385355,-0.100000,-0.350000,-0.100000,0.299289,-0.085355,0.334644,-0.034644,0.385355,0.000711,0.400000,0.050000,0.400000,0.085355,0.385355,0.085355,0.385355,$1*%
%AMFreePoly3*
4,1,14,0.034644,0.385355,0.085355,0.334644,0.100000,0.299289,0.100000,-0.350000,0.085355,-0.385355,0.050000,-0.400000,-0.050000,-0.400000,-0.085355,-0.385355,-0.100000,-0.350000,-0.100000,0.350000,-0.085355,0.385355,-0.050000,0.400000,-0.000711,0.400000,0.034644,0.385355,0.034644,0.385355,$1*%
%AMFreePoly4*
4,1,14,0.385355,0.085355,0.400000,0.050000,0.400000,-0.050000,0.385355,-0.085355,0.350000,-0.100000,-0.299289,-0.100000,-0.334644,-0.085355,-0.385355,-0.034644,-0.400000,0.000711,-0.400000,0.050000,-0.385355,0.085355,-0.350000,0.100000,0.350000,0.100000,0.385355,0.085355,0.385355,0.085355,$1*%
%AMFreePoly5*
4,1,14,0.385355,0.085355,0.400000,0.050000,0.400000,-0.050000,0.385355,-0.085355,0.350000,-0.100000,-0.350000,-0.100000,-0.385355,-0.085355,-0.400000,-0.050000,-0.400000,-0.000711,-0.385355,0.034644,-0.334644,0.085355,-0.299289,0.100000,0.350000,0.100000,0.385355,0.085355,0.385355,0.085355,$1*%
%AMFreePoly6*
4,1,14,0.085355,0.385355,0.100000,0.350000,0.100000,-0.299289,0.085355,-0.334644,0.034644,-0.385355,-0.000711,-0.400000,-0.050000,-0.400000,-0.085355,-0.385355,-0.100000,-0.350000,-0.100000,0.350000,-0.085355,0.385355,-0.050000,0.400000,0.050000,0.400000,0.085355,0.385355,0.085355,0.385355,$1*%
%AMFreePoly7*
4,1,14,0.085355,0.385355,0.100000,0.350000,0.100000,-0.350000,0.085355,-0.385355,0.050000,-0.400000,0.000711,-0.400000,-0.034644,-0.385355,-0.085355,-0.334644,-0.100000,-0.299289,-0.100000,0.350000,-0.085355,0.385355,-0.050000,0.400000,0.050000,0.400000,0.085355,0.385355,0.085355,0.385355,$1*%
G04 Aperture macros list end*
%ADD10RoundRect,0.140000X0.170000X-0.140000X0.170000X0.140000X-0.170000X0.140000X-0.170000X-0.140000X0*%
%ADD11RoundRect,0.250000X-0.455000X-0.455000X0.455000X-0.455000X0.455000X0.455000X-0.455000X0.455000X0*%
%ADD12RoundRect,0.062500X-0.337500X-0.062500X0.337500X-0.062500X0.337500X0.062500X-0.337500X0.062500X0*%
%ADD13RoundRect,0.062500X-0.062500X-0.337500X0.062500X-0.337500X0.062500X0.337500X-0.062500X0.337500X0*%
%ADD14RoundRect,0.135000X-0.135000X-0.185000X0.135000X-0.185000X0.135000X0.185000X-0.135000X0.185000X0*%
%ADD15RoundRect,0.172500X0.172500X0.172500X-0.172500X0.172500X-0.172500X-0.172500X0.172500X-0.172500X0*%
%ADD16FreePoly0,180.000000*%
%ADD17RoundRect,0.050000X0.350000X0.050000X-0.350000X0.050000X-0.350000X-0.050000X0.350000X-0.050000X0*%
%ADD18FreePoly1,180.000000*%
%ADD19FreePoly2,180.000000*%
%ADD20RoundRect,0.050000X0.050000X0.350000X-0.050000X0.350000X-0.050000X-0.350000X0.050000X-0.350000X0*%
%ADD21FreePoly3,180.000000*%
%ADD22FreePoly4,180.000000*%
%ADD23FreePoly5,180.000000*%
%ADD24FreePoly6,180.000000*%
%ADD25FreePoly7,180.000000*%
%ADD26RoundRect,0.140000X-0.140000X-0.170000X0.140000X-0.170000X0.140000X0.170000X-0.140000X0.170000X0*%
%ADD27RoundRect,0.100000X-0.100000X0.225000X-0.100000X-0.225000X0.100000X-0.225000X0.100000X0.225000X0*%
%ADD28RoundRect,0.225000X0.225000X0.250000X-0.225000X0.250000X-0.225000X-0.250000X0.225000X-0.250000X0*%
%ADD29RoundRect,0.135000X0.035355X-0.226274X0.226274X-0.035355X-0.035355X0.226274X-0.226274X0.035355X0*%
%ADD30RoundRect,0.140000X-0.170000X0.140000X-0.170000X-0.140000X0.170000X-0.140000X0.170000X0.140000X0*%
%ADD31RoundRect,0.140000X0.140000X0.170000X-0.140000X0.170000X-0.140000X-0.170000X0.140000X-0.170000X0*%
%ADD32RoundRect,0.080000X0.170000X-0.080000X0.170000X0.080000X-0.170000X0.080000X-0.170000X-0.080000X0*%
%ADD33RoundRect,0.055000X0.195000X-0.055000X0.195000X0.055000X-0.195000X0.055000X-0.195000X-0.055000X0*%
%ADD34RoundRect,0.055000X-0.055000X-0.270000X0.055000X-0.270000X0.055000X0.270000X-0.055000X0.270000X0*%
G04 APERTURE END LIST*
D10*
%TO.C,C8*%
X154200000Y-96200000D03*
X154200000Y-95240000D03*
%TD*%
D11*
%TO.C,U2*%
X149800000Y-92850000D03*
X149800000Y-94600000D03*
X151550000Y-92850000D03*
X151550000Y-94600000D03*
D12*
X148225000Y-91975000D03*
X148225000Y-92475000D03*
X148225000Y-92975000D03*
X148225000Y-93475000D03*
X148225000Y-93975000D03*
X148225000Y-94475000D03*
X148225000Y-94975000D03*
X148225000Y-95475000D03*
D13*
X148925000Y-96175000D03*
X149425000Y-96175000D03*
X149925000Y-96175000D03*
X150425000Y-96175000D03*
X150925000Y-96175000D03*
X151425000Y-96175000D03*
X151925000Y-96175000D03*
X152425000Y-96175000D03*
D12*
X153125000Y-95475000D03*
X153125000Y-94975000D03*
X153125000Y-94475000D03*
X153125000Y-93975000D03*
X153125000Y-93475000D03*
X153125000Y-92975000D03*
X153125000Y-92475000D03*
X153125000Y-91975000D03*
D13*
X152425000Y-91275000D03*
X151925000Y-91275000D03*
X151425000Y-91275000D03*
X150925000Y-91275000D03*
X150425000Y-91275000D03*
X149925000Y-91275000D03*
X149425000Y-91275000D03*
X148925000Y-91275000D03*
%TD*%
D14*
%TO.C,R2*%
X148180000Y-102400000D03*
X149200000Y-102400000D03*
%TD*%
D15*
%TO.C,U3*%
X152875000Y-101125000D03*
X152875000Y-100275000D03*
X152025000Y-101125000D03*
X152025000Y-100275000D03*
D16*
X153900000Y-101500000D03*
D17*
X153900000Y-101100000D03*
X153900000Y-100700000D03*
X153900000Y-100300000D03*
D18*
X153900000Y-99900000D03*
D19*
X153250000Y-99250000D03*
D20*
X152850000Y-99250000D03*
X152450000Y-99250000D03*
X152050000Y-99250000D03*
D21*
X151650000Y-99250000D03*
D22*
X151000000Y-99900000D03*
D17*
X151000000Y-100300000D03*
X151000000Y-100700000D03*
X151000000Y-101100000D03*
D23*
X151000000Y-101500000D03*
D24*
X151650000Y-102150000D03*
D20*
X152050000Y-102150000D03*
X152450000Y-102150000D03*
X152850000Y-102150000D03*
D25*
X153250000Y-102150000D03*
%TD*%
D10*
%TO.C,C9*%
X150864183Y-89884861D03*
X150864183Y-88924861D03*
%TD*%
D26*
%TO.C,C2*%
X143497872Y-90649926D03*
X144457872Y-90649926D03*
%TD*%
D10*
%TO.C,C5*%
X146883802Y-92800000D03*
X146883802Y-91840000D03*
%TD*%
D27*
%TO.C,U1*%
X144150000Y-97100000D03*
X143500000Y-97100000D03*
X142850000Y-97100000D03*
X142850000Y-99000000D03*
X144150000Y-99000000D03*
%TD*%
D14*
%TO.C,R4*%
X146190000Y-90800000D03*
X147210000Y-90800000D03*
%TD*%
%TO.C,R3*%
X148180000Y-101390000D03*
X149200000Y-101390000D03*
%TD*%
D28*
%TO.C,C16*%
X153950000Y-97600000D03*
X152400000Y-97600000D03*
%TD*%
D29*
%TO.C,R1*%
X149478752Y-98121248D03*
X150200000Y-97400000D03*
%TD*%
D30*
%TO.C,C15*%
X154850000Y-100289348D03*
X154850000Y-101249348D03*
%TD*%
D31*
%TO.C,C1*%
X144008053Y-96107578D03*
X143048053Y-96107578D03*
%TD*%
%TO.C,C14*%
X148480000Y-100300000D03*
X147520000Y-100300000D03*
%TD*%
%TO.C,C13*%
X148480000Y-99400000D03*
X147520000Y-99400000D03*
%TD*%
D26*
%TO.C,C3*%
X143521078Y-94218471D03*
X144481078Y-94218471D03*
%TD*%
D31*
%TO.C,C4*%
X143925000Y-99950000D03*
X142965000Y-99950000D03*
%TD*%
D32*
%TO.C,IC1*%
X143250000Y-91575000D03*
D33*
X143250000Y-92025000D03*
X143250000Y-92425000D03*
X143250000Y-92825000D03*
X143250000Y-93225000D03*
D34*
X144000000Y-93250000D03*
D33*
X144750000Y-93225000D03*
X144750000Y-92825000D03*
X144750000Y-92425000D03*
X144750000Y-92025000D03*
X144750000Y-91625000D03*
D34*
X144000000Y-91600000D03*
%TD*%
M02*
