%TF.GenerationSoftware,KiCad,Pcbnew,8.99.0-2176-gc19aa8170b*%
%TF.CreationDate,2024-08-30T16:07:14-04:00*%
%TF.ProjectId,scampi,7363616d-7069-42e6-9b69-6361645f7063,rev?*%
%TF.SameCoordinates,Original*%
%TF.FileFunction,Soldermask,Top*%
%TF.FilePolarity,Negative*%
%FSLAX46Y46*%
G04 Gerber Fmt 4.6, Leading zero omitted, Abs format (unit mm)*
G04 Created by KiCad (PCBNEW 8.99.0-2176-gc19aa8170b) date 2024-08-30 16:07:14*
%MOMM*%
%LPD*%
G01*
G04 APERTURE LIST*
G04 Aperture macros list*
%AMRoundRect*
0 Rectangle with rounded corners*
0 $1 Rounding radius*
0 $2 $3 $4 $5 $6 $7 $8 $9 X,Y pos of 4 corners*
0 Add a 4 corners polygon primitive as box body*
4,1,4,$2,$3,$4,$5,$6,$7,$8,$9,$2,$3,0*
0 Add four circle primitives for the rounded corners*
1,1,$1+$1,$2,$3*
1,1,$1+$1,$4,$5*
1,1,$1+$1,$6,$7*
1,1,$1+$1,$8,$9*
0 Add four rect primitives between the rounded corners*
20,1,$1+$1,$2,$3,$4,$5,0*
20,1,$1+$1,$4,$5,$6,$7,0*
20,1,$1+$1,$6,$7,$8,$9,0*
20,1,$1+$1,$8,$9,$2,$3,0*%
%AMFreePoly0*
4,1,14,0.334644,0.085355,0.385355,0.034644,0.400000,-0.000711,0.400000,-0.050000,0.385355,-0.085355,0.350000,-0.100000,-0.350000,-0.100000,-0.385355,-0.085355,-0.400000,-0.050000,-0.400000,0.050000,-0.385355,0.085355,-0.350000,0.100000,0.299289,0.100000,0.334644,0.085355,0.334644,0.085355,$1*%
%AMFreePoly1*
4,1,14,0.385355,0.085355,0.400000,0.050000,0.400000,0.000711,0.385355,-0.034644,0.334644,-0.085355,0.299289,-0.100000,-0.350000,-0.100000,-0.385355,-0.085355,-0.400000,-0.050000,-0.400000,0.050000,-0.385355,0.085355,-0.350000,0.100000,0.350000,0.100000,0.385355,0.085355,0.385355,0.085355,$1*%
%AMFreePoly2*
4,1,14,0.085355,0.385355,0.100000,0.350000,0.100000,-0.350000,0.085355,-0.385355,0.050000,-0.400000,-0.050000,-0.400000,-0.085355,-0.385355,-0.100000,-0.350000,-0.100000,0.299289,-0.085355,0.334644,-0.034644,0.385355,0.000711,0.400000,0.050000,0.400000,0.085355,0.385355,0.085355,0.385355,$1*%
%AMFreePoly3*
4,1,14,0.034644,0.385355,0.085355,0.334644,0.100000,0.299289,0.100000,-0.350000,0.085355,-0.385355,0.050000,-0.400000,-0.050000,-0.400000,-0.085355,-0.385355,-0.100000,-0.350000,-0.100000,0.350000,-0.085355,0.385355,-0.050000,0.400000,-0.000711,0.400000,0.034644,0.385355,0.034644,0.385355,$1*%
%AMFreePoly4*
4,1,14,0.385355,0.085355,0.400000,0.050000,0.400000,-0.050000,0.385355,-0.085355,0.350000,-0.100000,-0.299289,-0.100000,-0.334644,-0.085355,-0.385355,-0.034644,-0.400000,0.000711,-0.400000,0.050000,-0.385355,0.085355,-0.350000,0.100000,0.350000,0.100000,0.385355,0.085355,0.385355,0.085355,$1*%
%AMFreePoly5*
4,1,14,0.385355,0.085355,0.400000,0.050000,0.400000,-0.050000,0.385355,-0.085355,0.350000,-0.100000,-0.350000,-0.100000,-0.385355,-0.085355,-0.400000,-0.050000,-0.400000,-0.000711,-0.385355,0.034644,-0.334644,0.085355,-0.299289,0.100000,0.350000,0.100000,0.385355,0.085355,0.385355,0.085355,$1*%
%AMFreePoly6*
4,1,14,0.085355,0.385355,0.100000,0.350000,0.100000,-0.299289,0.085355,-0.334644,0.034644,-0.385355,-0.000711,-0.400000,-0.050000,-0.400000,-0.085355,-0.385355,-0.100000,-0.350000,-0.100000,0.350000,-0.085355,0.385355,-0.050000,0.400000,0.050000,0.400000,0.085355,0.385355,0.085355,0.385355,$1*%
%AMFreePoly7*
4,1,14,0.085355,0.385355,0.100000,0.350000,0.100000,-0.350000,0.085355,-0.385355,0.050000,-0.400000,0.000711,-0.400000,-0.034644,-0.385355,-0.085355,-0.334644,-0.100000,-0.299289,-0.100000,0.350000,-0.085355,0.385355,-0.050000,0.400000,0.050000,0.400000,0.085355,0.385355,0.085355,0.385355,$1*%
G04 Aperture macros list end*
%ADD10C,0.300000*%
%ADD11RoundRect,0.210000X-0.490000X-0.490000X0.490000X-0.490000X0.490000X0.490000X-0.490000X0.490000X0*%
%ADD12C,1.000000*%
%ADD13RoundRect,0.140000X0.170000X-0.140000X0.170000X0.140000X-0.170000X0.140000X-0.170000X-0.140000X0*%
%ADD14RoundRect,0.062500X-0.337500X-0.062500X0.337500X-0.062500X0.337500X0.062500X-0.337500X0.062500X0*%
%ADD15RoundRect,0.062500X-0.062500X-0.337500X0.062500X-0.337500X0.062500X0.337500X-0.062500X0.337500X0*%
%ADD16RoundRect,0.175000X-1.575000X-1.575000X1.575000X-1.575000X1.575000X1.575000X-1.575000X1.575000X0*%
%ADD17RoundRect,0.135000X-0.135000X-0.185000X0.135000X-0.185000X0.135000X0.185000X-0.135000X0.185000X0*%
%ADD18FreePoly0,180.000000*%
%ADD19RoundRect,0.050000X0.350000X0.050000X-0.350000X0.050000X-0.350000X-0.050000X0.350000X-0.050000X0*%
%ADD20FreePoly1,180.000000*%
%ADD21FreePoly2,180.000000*%
%ADD22RoundRect,0.050000X0.050000X0.350000X-0.050000X0.350000X-0.050000X-0.350000X0.050000X-0.350000X0*%
%ADD23FreePoly3,180.000000*%
%ADD24FreePoly4,180.000000*%
%ADD25FreePoly5,180.000000*%
%ADD26FreePoly6,180.000000*%
%ADD27FreePoly7,180.000000*%
%ADD28RoundRect,0.170000X0.680000X0.680000X-0.680000X0.680000X-0.680000X-0.680000X0.680000X-0.680000X0*%
%ADD29C,0.700000*%
%ADD30RoundRect,0.140000X-0.140000X-0.170000X0.140000X-0.170000X0.140000X0.170000X-0.140000X0.170000X0*%
%ADD31RoundRect,0.100000X-0.100000X0.225000X-0.100000X-0.225000X0.100000X-0.225000X0.100000X0.225000X0*%
%ADD32RoundRect,0.225000X0.225000X0.250000X-0.225000X0.250000X-0.225000X-0.250000X0.225000X-0.250000X0*%
%ADD33RoundRect,0.135000X0.035355X-0.226274X0.226274X-0.035355X-0.035355X0.226274X-0.226274X0.035355X0*%
%ADD34RoundRect,0.140000X-0.170000X0.140000X-0.170000X-0.140000X0.170000X-0.140000X0.170000X0.140000X0*%
%ADD35RoundRect,0.140000X0.140000X0.170000X-0.140000X0.170000X-0.140000X-0.170000X0.140000X-0.170000X0*%
%ADD36RoundRect,0.080000X0.170000X-0.080000X0.170000X0.080000X-0.170000X0.080000X-0.170000X-0.080000X0*%
%ADD37RoundRect,0.055000X0.195000X-0.055000X0.195000X0.055000X-0.195000X0.055000X-0.195000X-0.055000X0*%
%ADD38RoundRect,0.055000X-0.055000X-0.270000X0.055000X-0.270000X0.055000X0.270000X-0.055000X0.270000X0*%
%ADD39RoundRect,0.210000X0.490000X0.490000X-0.490000X0.490000X-0.490000X-0.490000X0.490000X-0.490000X0*%
%ADD40C,1.700000*%
G04 APERTURE END LIST*
D10*
G36*
X150188576Y-86502902D02*
G01*
X150215210Y-86520980D01*
X150233289Y-86547525D01*
X150239299Y-86578865D01*
X150233285Y-86610285D01*
X150215210Y-86636843D01*
X150188576Y-86654920D01*
X150157141Y-86660931D01*
X150125801Y-86654921D01*
X150099256Y-86636843D01*
X150081110Y-86610277D01*
X150075076Y-86578865D01*
X150081106Y-86547532D01*
X150099256Y-86520980D01*
X150125801Y-86502901D01*
X150157141Y-86496891D01*
X150188576Y-86502902D01*
G37*
G36*
X148949055Y-85835146D02*
G01*
X149058598Y-85858227D01*
X149209723Y-85869493D01*
X149431923Y-85872515D01*
X149636360Y-85877969D01*
X149806348Y-85893032D01*
X149966096Y-85920549D01*
X150104385Y-85959527D01*
X150234090Y-86013226D01*
X150355345Y-86081892D01*
X150470167Y-86165577D01*
X150547408Y-86234328D01*
X150654756Y-86135565D01*
X150737920Y-86060002D01*
X150767099Y-86044034D01*
X150793241Y-86039211D01*
X150822410Y-86045188D01*
X150846547Y-86063208D01*
X150862545Y-86089667D01*
X150868071Y-86122834D01*
X150865186Y-86162653D01*
X150856806Y-86198763D01*
X150820902Y-86272676D01*
X150852185Y-86280921D01*
X150876315Y-86296490D01*
X150892416Y-86318675D01*
X150897838Y-86346224D01*
X150888167Y-86384080D01*
X150854241Y-86428198D01*
X150806270Y-86469814D01*
X150739844Y-86517408D01*
X150759031Y-86541054D01*
X150765489Y-86571538D01*
X150759838Y-86594530D01*
X150740278Y-86620638D01*
X150700002Y-86651680D01*
X150623420Y-86689745D01*
X150488976Y-86735853D01*
X150431950Y-86828860D01*
X150391970Y-86875113D01*
X150681409Y-87007695D01*
X150635430Y-87107163D01*
X150308033Y-86956794D01*
X150265768Y-86992674D01*
X150265011Y-86993159D01*
X150380532Y-87120718D01*
X150572965Y-87452553D01*
X150477710Y-87506958D01*
X150290315Y-87185015D01*
X150171903Y-87052896D01*
X150163172Y-87058498D01*
X150068506Y-87104518D01*
X150203303Y-87192159D01*
X150314129Y-87502103D01*
X150314129Y-87698658D01*
X150204402Y-87700673D01*
X150204402Y-87523719D01*
X150112079Y-87262593D01*
X149942819Y-87152006D01*
X149916990Y-87161201D01*
X149839313Y-87180091D01*
X149931369Y-87208279D01*
X149987698Y-87537091D01*
X149962052Y-87806277D01*
X149853425Y-87796019D01*
X149879071Y-87540938D01*
X149834924Y-87290986D01*
X149604625Y-87215602D01*
X149486237Y-87220919D01*
X149321833Y-87211783D01*
X149312878Y-87210285D01*
X149310392Y-87221892D01*
X149282264Y-87254808D01*
X149241882Y-87275379D01*
X149194886Y-87282376D01*
X149150639Y-87276032D01*
X149106592Y-87256365D01*
X149071460Y-87223626D01*
X149050172Y-87175032D01*
X149031211Y-87198337D01*
X149006849Y-87214874D01*
X148978824Y-87224770D01*
X148949422Y-87228063D01*
X148903857Y-87220917D01*
X148860670Y-87199029D01*
X148836539Y-87172419D01*
X149112428Y-87172419D01*
X149128207Y-87195914D01*
X149158447Y-87216855D01*
X149195893Y-87223941D01*
X149224236Y-87220348D01*
X149243887Y-87210752D01*
X149252898Y-87200252D01*
X149156875Y-87184191D01*
X149112428Y-87172419D01*
X148836539Y-87172419D01*
X148829603Y-87164771D01*
X148819362Y-87120901D01*
X148877889Y-87120901D01*
X148882737Y-87137708D01*
X148899321Y-87154607D01*
X148922474Y-87165930D01*
X148951253Y-87169903D01*
X148973362Y-87166287D01*
X148992561Y-87155523D01*
X149003547Y-87143581D01*
X148995217Y-87141375D01*
X148882654Y-87101642D01*
X148877889Y-87120901D01*
X148819362Y-87120901D01*
X148821588Y-87107254D01*
X148801231Y-87127184D01*
X148769995Y-87179336D01*
X148750136Y-87238044D01*
X148742151Y-87299962D01*
X148847433Y-87338136D01*
X148942377Y-87389691D01*
X149028190Y-87454934D01*
X149101425Y-87532866D01*
X149153587Y-87616728D01*
X149186643Y-87707817D01*
X149114455Y-87722637D01*
X149049073Y-87727326D01*
X149004376Y-87725311D01*
X148961786Y-87720182D01*
X148994366Y-87770687D01*
X149024893Y-87829358D01*
X149050052Y-87890096D01*
X149066567Y-87944763D01*
X148935338Y-87937433D01*
X148821112Y-87916622D01*
X148721543Y-87883672D01*
X148628185Y-87836557D01*
X148553025Y-87781637D01*
X148493573Y-87718991D01*
X148448081Y-87646498D01*
X148421270Y-87569767D01*
X148412300Y-87487540D01*
X148508685Y-87487540D01*
X148514666Y-87545920D01*
X148532466Y-87600715D01*
X148562633Y-87653045D01*
X148625416Y-87720963D01*
X148711560Y-87778617D01*
X148811502Y-87819365D01*
X148928539Y-87843189D01*
X148865524Y-87729890D01*
X148793259Y-87616592D01*
X148911137Y-87629965D01*
X149011704Y-87635094D01*
X149034510Y-87634544D01*
X149056308Y-87632987D01*
X149012128Y-87574940D01*
X148949605Y-87516025D01*
X148878101Y-87463722D01*
X148800769Y-87419030D01*
X148720878Y-87383554D01*
X148691075Y-87374423D01*
X148668329Y-87384775D01*
X148575822Y-87410421D01*
X148516049Y-87419812D01*
X148512257Y-87439455D01*
X148508685Y-87487540D01*
X148412300Y-87487540D01*
X148412240Y-87486991D01*
X148423506Y-87392560D01*
X148388317Y-87299342D01*
X148367728Y-87207624D01*
X148361038Y-87117696D01*
X148457394Y-87117696D01*
X148461067Y-87179361D01*
X148472324Y-87243267D01*
X148491163Y-87308780D01*
X148503049Y-87339802D01*
X148522332Y-87338064D01*
X148611084Y-87317914D01*
X148653382Y-87301028D01*
X148653682Y-87300835D01*
X148655373Y-87274116D01*
X148671237Y-87196891D01*
X148696630Y-87128595D01*
X148733196Y-87066452D01*
X148765678Y-87031025D01*
X148702327Y-86977838D01*
X148651384Y-86922057D01*
X148609978Y-86859567D01*
X148589982Y-86812707D01*
X148581237Y-86818357D01*
X148536388Y-86861590D01*
X148501999Y-86911891D01*
X148478141Y-86968260D01*
X148462867Y-87036080D01*
X148457394Y-87117696D01*
X148361038Y-87117696D01*
X148360949Y-87116505D01*
X148367029Y-87027346D01*
X148384531Y-86947942D01*
X148412790Y-86876811D01*
X148452578Y-86811876D01*
X148502404Y-86756571D01*
X148531220Y-86734469D01*
X148659779Y-86734469D01*
X148667850Y-86772875D01*
X148689909Y-86823771D01*
X148724382Y-86874613D01*
X148792652Y-86942456D01*
X148866937Y-86993193D01*
X148999472Y-87042041D01*
X148999600Y-87042074D01*
X148988799Y-86989304D01*
X148983500Y-86910700D01*
X149071696Y-86910700D01*
X149081916Y-87010343D01*
X149100150Y-87068464D01*
X149162096Y-87084723D01*
X149325498Y-87110421D01*
X149330455Y-87110682D01*
X149318534Y-87063291D01*
X149306727Y-86945413D01*
X149393822Y-86945413D01*
X149404629Y-87045430D01*
X149426813Y-87115756D01*
X149486237Y-87118886D01*
X149631508Y-87112506D01*
X149766312Y-87093914D01*
X149891711Y-87063749D01*
X150012887Y-87020470D01*
X150119757Y-86967401D01*
X150213836Y-86904838D01*
X150297936Y-86830181D01*
X150365958Y-86747768D01*
X150419184Y-86656901D01*
X150494563Y-86638583D01*
X150582674Y-86613029D01*
X150655397Y-86583353D01*
X150679007Y-86566673D01*
X150684523Y-86554777D01*
X150679957Y-86540378D01*
X150663091Y-86523086D01*
X150611891Y-86491396D01*
X150705131Y-86435342D01*
X150776847Y-86380754D01*
X150799865Y-86356964D01*
X150804507Y-86346682D01*
X150798532Y-86338805D01*
X150768603Y-86329921D01*
X150688644Y-86323601D01*
X150731234Y-86254358D01*
X150765581Y-86185115D01*
X150778862Y-86146189D01*
X150772725Y-86138954D01*
X150768603Y-86140053D01*
X150765489Y-86143075D01*
X150612807Y-86300520D01*
X150542954Y-86362098D01*
X150482565Y-86406949D01*
X150421708Y-86442456D01*
X150366793Y-86464835D01*
X150203761Y-86442303D01*
X150043843Y-86434060D01*
X149904260Y-86442407D01*
X149785547Y-86465888D01*
X149684532Y-86502753D01*
X149592114Y-86556510D01*
X149518682Y-86620041D01*
X149470168Y-86683425D01*
X149428168Y-86766810D01*
X149402333Y-86855727D01*
X149393822Y-86945413D01*
X149306727Y-86945413D01*
X149306718Y-86945321D01*
X149316717Y-86837901D01*
X149346744Y-86734021D01*
X149372280Y-86683828D01*
X149298334Y-86642818D01*
X149190651Y-86598378D01*
X149148864Y-86651590D01*
X149106409Y-86733654D01*
X149080327Y-86821249D01*
X149071696Y-86910700D01*
X148983500Y-86910700D01*
X148983494Y-86910608D01*
X148993660Y-86803062D01*
X149024252Y-86698667D01*
X149074042Y-86601148D01*
X149095204Y-86573929D01*
X149080248Y-86570160D01*
X148979464Y-86561463D01*
X148895516Y-86568098D01*
X148824310Y-86586867D01*
X148763583Y-86616784D01*
X148711320Y-86658983D01*
X148669578Y-86713279D01*
X148659779Y-86734469D01*
X148531220Y-86734469D01*
X148563091Y-86710024D01*
X148601628Y-86636977D01*
X148653366Y-86576584D01*
X148719528Y-86527391D01*
X148794790Y-86492224D01*
X148880707Y-86470373D01*
X148979464Y-86462728D01*
X149078556Y-86470648D01*
X149183301Y-86495252D01*
X149295105Y-86538363D01*
X149415345Y-86602496D01*
X149485124Y-86524610D01*
X149566535Y-86460470D01*
X149660911Y-86409333D01*
X149770203Y-86371265D01*
X149896881Y-86347146D01*
X150043843Y-86338622D01*
X150181179Y-86345538D01*
X150152558Y-86326187D01*
X150025434Y-86260678D01*
X149897068Y-86213172D01*
X149777954Y-86184474D01*
X149659376Y-86168863D01*
X149545863Y-86163775D01*
X149399628Y-86168736D01*
X149249199Y-86183833D01*
X149099642Y-86198938D01*
X148960596Y-86203800D01*
X148874376Y-86200612D01*
X148787122Y-86190977D01*
X148700441Y-86172814D01*
X148612550Y-86143258D01*
X148646805Y-86060826D01*
X148724433Y-86087277D01*
X148800403Y-86103783D01*
X148877338Y-86112628D01*
X148956016Y-86115598D01*
X149093813Y-86110673D01*
X149240498Y-86095448D01*
X149389240Y-86080365D01*
X149541375Y-86075298D01*
X149668691Y-86081266D01*
X149802959Y-86099661D01*
X149937874Y-86133722D01*
X150083777Y-86190977D01*
X150228259Y-86269697D01*
X150364072Y-86366164D01*
X150416709Y-86340222D01*
X150482883Y-86293204D01*
X150416135Y-86233716D01*
X150308175Y-86154616D01*
X150194327Y-86089895D01*
X150073061Y-86040035D01*
X149943479Y-86004238D01*
X149792334Y-85979127D01*
X149630892Y-85965628D01*
X149434671Y-85960717D01*
X149201572Y-85957145D01*
X149038723Y-85944872D01*
X148972686Y-85933814D01*
X148917823Y-85919685D01*
X148811760Y-85877644D01*
X148853251Y-85796678D01*
X148949055Y-85835146D01*
G37*
D11*
%TO.C,TP9*%
X144400000Y-103800000D03*
%TD*%
D12*
%TO.C,TP12*%
X152870184Y-104000000D03*
%TD*%
D13*
%TO.C,C8*%
X154200000Y-96200000D03*
X154200000Y-95240000D03*
%TD*%
D11*
%TO.C,SPKR-1*%
X156800000Y-90800000D03*
%TD*%
D14*
%TO.C,U2*%
X148225000Y-91975000D03*
X148225000Y-92475000D03*
X148225000Y-92975000D03*
X148225000Y-93475000D03*
X148225000Y-93975000D03*
X148225000Y-94475000D03*
X148225000Y-94975000D03*
X148225000Y-95475000D03*
D15*
X148925000Y-96175000D03*
X149425000Y-96175000D03*
X149925000Y-96175000D03*
X150425000Y-96175000D03*
X150925000Y-96175000D03*
X151425000Y-96175000D03*
X151925000Y-96175000D03*
X152425000Y-96175000D03*
D14*
X153125000Y-95475000D03*
X153125000Y-94975000D03*
X153125000Y-94475000D03*
X153125000Y-93975000D03*
X153125000Y-93475000D03*
X153125000Y-92975000D03*
X153125000Y-92475000D03*
X153125000Y-91975000D03*
D15*
X152425000Y-91275000D03*
X151925000Y-91275000D03*
X151425000Y-91275000D03*
X150925000Y-91275000D03*
X150425000Y-91275000D03*
X149925000Y-91275000D03*
X149425000Y-91275000D03*
X148925000Y-91275000D03*
D16*
X150675000Y-93725000D03*
%TD*%
D11*
%TO.C,TP17*%
X145200000Y-86200000D03*
%TD*%
%TO.C,TP3*%
X139200000Y-90600000D03*
%TD*%
D17*
%TO.C,R2*%
X148180000Y-102400000D03*
X149200000Y-102400000D03*
%TD*%
D11*
%TO.C,SPKL+1*%
X156800000Y-93400000D03*
%TD*%
%TO.C,TP13*%
X146000000Y-103800000D03*
%TD*%
%TO.C,TP1*%
X142000000Y-86200000D03*
%TD*%
D18*
%TO.C,U3*%
X153900000Y-101500000D03*
D19*
X153900000Y-101100000D03*
X153900000Y-100700000D03*
X153900000Y-100300000D03*
D20*
X153900000Y-99900000D03*
D21*
X153250000Y-99250000D03*
D22*
X152850000Y-99250000D03*
X152450000Y-99250000D03*
X152050000Y-99250000D03*
D23*
X151650000Y-99250000D03*
D24*
X151000000Y-99900000D03*
D19*
X151000000Y-100300000D03*
X151000000Y-100700000D03*
X151000000Y-101100000D03*
D25*
X151000000Y-101500000D03*
D26*
X151650000Y-102150000D03*
D22*
X152050000Y-102150000D03*
X152450000Y-102150000D03*
X152850000Y-102150000D03*
D27*
X153250000Y-102150000D03*
D28*
X152450000Y-100700000D03*
%TD*%
D29*
%TO.C,TP11*%
X147300000Y-96782031D03*
%TD*%
D13*
%TO.C,C9*%
X150864183Y-89884861D03*
X150864183Y-88924861D03*
%TD*%
D11*
%TO.C,SPKR+1*%
X156800000Y-89200000D03*
%TD*%
D30*
%TO.C,C2*%
X143497872Y-90649926D03*
X144457872Y-90649926D03*
%TD*%
D11*
%TO.C,TP6*%
X156809832Y-99035239D03*
%TD*%
%TO.C,TP8*%
X142800000Y-103800000D03*
%TD*%
D13*
%TO.C,C5*%
X146883802Y-92800000D03*
X146883802Y-91840000D03*
%TD*%
D31*
%TO.C,U1*%
X144150000Y-97100000D03*
X143500000Y-97100000D03*
X142850000Y-97100000D03*
X142850000Y-99000000D03*
X144150000Y-99000000D03*
%TD*%
D17*
%TO.C,R4*%
X146190000Y-90800000D03*
X147210000Y-90800000D03*
%TD*%
D11*
%TO.C,DET1*%
X147400000Y-86200000D03*
%TD*%
%TO.C,HPR1*%
X152200000Y-86200000D03*
%TD*%
D17*
%TO.C,R3*%
X148180000Y-101390000D03*
X149200000Y-101390000D03*
%TD*%
D11*
%TO.C,TP16*%
X139200000Y-95400000D03*
%TD*%
D32*
%TO.C,C16*%
X153950000Y-97600000D03*
X152400000Y-97600000D03*
%TD*%
D33*
%TO.C,R1*%
X149478752Y-98121248D03*
X150200000Y-97400000D03*
%TD*%
D34*
%TO.C,C15*%
X154850000Y-100289348D03*
X154850000Y-101249348D03*
%TD*%
D11*
%TO.C,TP15*%
X139200000Y-100800000D03*
%TD*%
%TO.C,TP2*%
X139200000Y-89000000D03*
%TD*%
%TO.C,TP18*%
X143600000Y-86200000D03*
%TD*%
%TO.C,TP5*%
X139200000Y-93800000D03*
%TD*%
%TO.C,SPVDD1*%
X156809832Y-97285239D03*
%TD*%
D35*
%TO.C,C1*%
X144008053Y-96107578D03*
X143048053Y-96107578D03*
%TD*%
D29*
%TO.C,TP7*%
X148518437Y-89830110D03*
%TD*%
%TO.C,TP10*%
X147537482Y-97578631D03*
%TD*%
D11*
%TO.C,SPKL-1*%
X156800000Y-95000000D03*
%TD*%
D35*
%TO.C,C14*%
X148480000Y-100300000D03*
X147520000Y-100300000D03*
%TD*%
D11*
%TO.C,TP4*%
X139200000Y-92200000D03*
%TD*%
D35*
%TO.C,C13*%
X148480000Y-99400000D03*
X147520000Y-99400000D03*
%TD*%
D30*
%TO.C,C3*%
X143521078Y-94218471D03*
X144481078Y-94218471D03*
%TD*%
D12*
%TO.C,TP14*%
X150100000Y-104000000D03*
%TD*%
D35*
%TO.C,C4*%
X143925000Y-99950000D03*
X142965000Y-99950000D03*
%TD*%
D36*
%TO.C,IC1*%
X143250000Y-91575000D03*
D37*
X143250000Y-92025000D03*
X143250000Y-92425000D03*
X143250000Y-92825000D03*
X143250000Y-93225000D03*
D38*
X144000000Y-93250000D03*
D37*
X144750000Y-93225000D03*
X144750000Y-92825000D03*
X144750000Y-92425000D03*
X144750000Y-92025000D03*
X144750000Y-91625000D03*
D38*
X144000000Y-91600000D03*
%TD*%
D39*
%TO.C,VOL+1*%
X139200000Y-99200000D03*
%TD*%
D12*
%TO.C,UPDI1*%
X151500000Y-104000000D03*
%TD*%
D39*
%TO.C,VOL-1*%
X139200000Y-97600000D03*
%TD*%
D11*
%TO.C,HPL1*%
X154000000Y-86200000D03*
%TD*%
D40*
%TO.C,J1*%
X146000000Y-95600000D03*
X146000000Y-88600000D03*
%TD*%
M02*
