M48
; DRILL file {KiCad 8.99.0-2176-gc19aa8170b} date 2024-08-30T16:06:56-0400
; FORMAT={-:-/ absolute / inch / decimal}
; #@! TF.CreationDate,2024-08-30T16:06:56-04:00
; #@! TF.GenerationSoftware,Kicad,Pcbnew,8.99.0-2176-gc19aa8170b
; #@! TF.FileFunction,Plated,1,2,PTH
FMAT,2
INCH
; #@! TA.AperFunction,Plated,PTH,ViaDrill
T1C0.0098
; #@! TA.AperFunction,Plated,PTH,ComponentDrill
T2C0.0315
%
G90
G05
T1
X5.5197Y-3.7992
X5.5213Y-3.5366
X5.5215Y-3.6617
X5.5281Y-3.4624
X5.5433Y-4.0
X5.5613Y-3.7149
X5.5669Y-4.0945
X5.5768Y-4.0276
X5.5906Y-3.5945
X5.6009Y-3.7862
X5.601Y-3.9281
X5.6024Y-3.689
X5.622Y-3.7362
X5.6424Y-3.9694
X5.6457Y-3.5197
X5.6476Y-3.8937
X5.6596Y-3.748
X5.6991Y-3.8838
X5.712Y-3.6937
X5.7126Y-3.9329
X5.7147Y-3.8112
X5.7232Y-3.5971
X5.7448Y-3.8347
X5.7502Y-3.8602
X5.7525Y-3.4306
X5.7691Y-3.8393
X5.778Y-4.0327
X5.7781Y-3.8626
X5.7911Y-4.0879
X5.7956Y-4.0154
X5.8029Y-3.6804
X5.8048Y-3.7787
X5.8071Y-3.6339
X5.811Y-3.9921
X5.8234Y-3.559
X5.8336Y-3.4601
X5.838Y-3.8832
X5.851Y-3.3676
X5.8543Y-4.0866
X5.8791Y-3.7402
X5.8811Y-3.5049
X5.9016Y-3.9724
X5.9092Y-3.9472
X5.9139Y-3.9938
X5.9291Y-3.378
X5.9331Y-3.689
X5.9395Y-3.5597
X5.9492Y-3.9105
X5.9692Y-3.4506
X5.9882Y-3.748
X6.0019Y-3.8795
X6.002Y-3.9646
X6.0225Y-3.5032
X6.0265Y-3.8774
X6.0338Y-3.7931
X6.0517Y-3.887
X6.0542Y-3.5799
X6.0661Y-3.9107
X6.0669Y-3.6801
X6.0677Y-3.6208
X6.0916Y-4.0483
X6.1072Y-3.4652
X6.122Y-3.8871
X6.1342Y-3.6257
X6.1516Y-3.9961
X6.187Y-3.9488
T2
X5.4803Y-3.5039
X5.4803Y-3.5669
X5.4803Y-3.6299
X5.4803Y-3.6929
X5.4803Y-3.7559
X5.4803Y-3.8425
X5.4803Y-3.9055
X5.4803Y-3.9685
X5.5906Y-3.3937
X5.622Y-4.0866
X5.6535Y-3.3937
X5.685Y-4.0866
X5.7165Y-3.3937
X5.748Y-4.0866
X5.8031Y-3.3937
X5.9921Y-3.3937
X6.063Y-3.3937
X6.1732Y-3.5118
X6.1732Y-3.5748
X6.1732Y-3.6772
X6.1732Y-3.7402
X6.1736Y-3.8301
X6.1736Y-3.899
M30
